ISO-10303-21;
HEADER;
FILE_DESCRIPTION(('CATIA V5 STEP Exchange'),'2;1');

FILE_NAME('C:\\Users\\user\\OneDrive\\\X2\BC14D0D5\X0\ \X2\D654BA74\X0\\\rover\\gps_housing\\housing_bottom.stp','2026-07-22T19:18:06+00:00',('none'),('none'),'CATIA Version 5 Release 21 GA (IN-10)','CATIA V5 STEP AP203','none');

FILE_SCHEMA(('CONFIG_CONTROL_DESIGN'));

ENDSEC;
/* file written by CATIA V5R21 */
DATA;
#5=PRODUCT('housing_bottom','','',(#2)) ;
#1=APPLICATION_CONTEXT('configuration controlled 3D design of mechanical parts and assemblies') ;
#14=PRODUCT_DEFINITION('',' ',#6,#3) ;
#16=SECURITY_CLASSIFICATION(' ',' ',#15) ;
#15=SECURITY_CLASSIFICATION_LEVEL('unclassified') ;
#47=CARTESIAN_POINT(' ',(0.,0.,0.)) ;
#52=CARTESIAN_POINT('Axis2P3D Location',(25.9807621135,-15.,4.)) ;
#57=CARTESIAN_POINT('Line Origine',(30.4807621135,-15.,4.)) ;
#61=CARTESIAN_POINT('Vertex',(30.4807621135,-15.,3.)) ;
#63=CARTESIAN_POINT('Vertex',(30.4807621135,-15.,5.)) ;
#66=CARTESIAN_POINT('Axis2P3D Location',(25.9807621135,-15.,3.)) ;
#70=CARTESIAN_POINT('Vertex',(21.4807621135,-15.,3.)) ;
#73=CARTESIAN_POINT('Line Origine',(21.4807621135,-15.,4.)) ;
#77=CARTESIAN_POINT('Vertex',(21.4807621135,-15.,5.)) ;
#80=CARTESIAN_POINT('Axis2P3D Location',(25.9807621135,-15.,5.)) ;
#92=CARTESIAN_POINT('Axis2P3D Location',(25.9807621135,-15.,3.)) ;
#97=CARTESIAN_POINT('Axis2P3D Location',(25.9807621135,-15.,5.)) ;
#109=CARTESIAN_POINT('Axis2P3D Location',(-25.9807621135,-15.,4.)) ;
#114=CARTESIAN_POINT('Line Origine',(-21.4807621135,-15.,4.)) ;
#118=CARTESIAN_POINT('Vertex',(-21.4807621135,-15.,3.)) ;
#120=CARTESIAN_POINT('Vertex',(-21.4807621135,-15.,5.)) ;
#123=CARTESIAN_POINT('Axis2P3D Location',(-25.9807621135,-15.,3.)) ;
#127=CARTESIAN_POINT('Vertex',(-30.4807621135,-15.,3.)) ;
#130=CARTESIAN_POINT('Line Origine',(-30.4807621135,-15.,4.)) ;
#134=CARTESIAN_POINT('Vertex',(-30.4807621135,-15.,5.)) ;
#137=CARTESIAN_POINT('Axis2P3D Location',(-25.9807621135,-15.,5.)) ;
#149=CARTESIAN_POINT('Axis2P3D Location',(-25.9807621135,-15.,3.)) ;
#154=CARTESIAN_POINT('Axis2P3D Location',(-25.9807621135,-15.,5.)) ;
#166=CARTESIAN_POINT('Axis2P3D Location',(0.,30.,4.)) ;
#171=CARTESIAN_POINT('Line Origine',(4.5,30.,4.)) ;
#175=CARTESIAN_POINT('Vertex',(4.5,30.,3.)) ;
#177=CARTESIAN_POINT('Vertex',(4.5,30.,5.)) ;
#180=CARTESIAN_POINT('Axis2P3D Location',(0.,30.,3.)) ;
#184=CARTESIAN_POINT('Vertex',(-4.5,30.,3.)) ;
#187=CARTESIAN_POINT('Line Origine',(-4.5,30.,4.)) ;
#191=CARTESIAN_POINT('Vertex',(-4.5,30.,5.)) ;
#194=CARTESIAN_POINT('Axis2P3D Location',(0.,30.,5.)) ;
#206=CARTESIAN_POINT('Axis2P3D Location',(0.,30.,3.)) ;
#211=CARTESIAN_POINT('Axis2P3D Location',(0.,30.,5.)) ;
#223=CARTESIAN_POINT('Axis2P3D Location',(0.,0.,1.5)) ;
#228=CARTESIAN_POINT('Line Origine',(38.,0.,1.5)) ;
#232=CARTESIAN_POINT('Vertex',(38.,0.,0.)) ;
#234=CARTESIAN_POINT('Vertex',(38.,0.,3.)) ;
#237=CARTESIAN_POINT('Axis2P3D Location',(0.,0.,0.)) ;
#241=CARTESIAN_POINT('Vertex',(-38.,4.65350414453E-015,0.)) ;
#244=CARTESIAN_POINT('Line Origine',(-38.,2.15288941188E-014,1.5)) ;
#248=CARTESIAN_POINT('Vertex',(-38.,4.65350414453E-015,3.)) ;
#251=CARTESIAN_POINT('Axis2P3D Location',(0.,0.,3.)) ;
#263=CARTESIAN_POINT('Axis2P3D Location',(0.,0.,0.)) ;
#268=CARTESIAN_POINT('Axis2P3D Location',(0.,0.,3.)) ;
#280=CARTESIAN_POINT('Axis2P3D Location',(0.,0.,3.)) ;
#289=CARTESIAN_POINT('Axis2P3D Location',(0.,0.,3.)) ;
#293=CARTESIAN_POINT('Vertex',(-31.6227766017,15.,3.)) ;
#295=CARTESIAN_POINT('Vertex',(-33.5410196625,10.,3.)) ;
#298=CARTESIAN_POINT('Line Origine',(-3.5527136788E-015,15.,3.)) ;
#302=CARTESIAN_POINT('Vertex',(31.6227766017,15.,3.)) ;
#305=CARTESIAN_POINT('Axis2P3D Location',(0.,0.,3.)) ;
#309=CARTESIAN_POINT('Vertex',(33.5410196625,10.,3.)) ;
#312=CARTESIAN_POINT('Line Origine',(0.,10.,3.)) ;
#336=CARTESIAN_POINT('Axis2P3D Location',(0.,0.,58.75)) ;
#341=CARTESIAN_POINT('Line Origine',(-31.6227766017,15.,58.75)) ;
#345=CARTESIAN_POINT('Vertex',(-31.6227766017,15.,114.5)) ;
#348=CARTESIAN_POINT('Line Origine',(-33.5410196625,10.,58.75)) ;
#352=CARTESIAN_POINT('Vertex',(-33.5410196625,10.,114.5)) ;
#355=CARTESIAN_POINT('Axis2P3D Location',(0.,0.,114.5)) ;
#367=CARTESIAN_POINT('Axis2P3D Location',(-31.6227766017,15.,3.)) ;
#372=CARTESIAN_POINT('Line Origine',(31.6227766017,15.,58.75)) ;
#376=CARTESIAN_POINT('Vertex',(31.6227766017,15.,114.5)) ;
#379=CARTESIAN_POINT('Line Origine',(-3.5527136788E-015,15.,114.5)) ;
#390=CARTESIAN_POINT('Axis2P3D Location',(-29.,15.,31.5)) ;
#394=CARTESIAN_POINT('Vertex',(-30.35,15.,31.5)) ;
#396=CARTESIAN_POINT('Vertex',(-27.65,15.,31.5)) ;
#399=CARTESIAN_POINT('Axis2P3D Location',(-29.,15.,31.5)) ;
#408=CARTESIAN_POINT('Axis2P3D Location',(29.,15.,31.5)) ;
#412=CARTESIAN_POINT('Vertex',(27.65,15.,31.5)) ;
#414=CARTESIAN_POINT('Vertex',(30.35,15.,31.5)) ;
#417=CARTESIAN_POINT('Axis2P3D Location',(29.,15.,31.5)) ;
#426=CARTESIAN_POINT('Axis2P3D Location',(29.,15.,8.5)) ;
#430=CARTESIAN_POINT('Vertex',(27.65,15.,8.5)) ;
#432=CARTESIAN_POINT('Vertex',(30.35,15.,8.5)) ;
#435=CARTESIAN_POINT('Axis2P3D Location',(29.,15.,8.5)) ;
#444=CARTESIAN_POINT('Axis2P3D Location',(-29.,15.,8.5)) ;
#448=CARTESIAN_POINT('Vertex',(-30.35,15.,8.5)) ;
#450=CARTESIAN_POINT('Vertex',(-27.65,15.,8.5)) ;
#453=CARTESIAN_POINT('Axis2P3D Location',(-29.,15.,8.5)) ;
#462=CARTESIAN_POINT('Axis2P3D Location',(-19.,15.,110.)) ;
#466=CARTESIAN_POINT('Vertex',(-20.75,15.,110.)) ;
#468=CARTESIAN_POINT('Vertex',(-17.25,15.,110.)) ;
#471=CARTESIAN_POINT('Axis2P3D Location',(-19.,15.,110.)) ;
#480=CARTESIAN_POINT('Axis2P3D Location',(19.,15.,72.)) ;
#484=CARTESIAN_POINT('Vertex',(17.25,15.,72.)) ;
#486=CARTESIAN_POINT('Vertex',(20.75,15.,72.)) ;
#489=CARTESIAN_POINT('Axis2P3D Location',(19.,15.,72.)) ;
#498=CARTESIAN_POINT('Axis2P3D Location',(19.,15.,110.)) ;
#502=CARTESIAN_POINT('Vertex',(17.25,15.,110.)) ;
#504=CARTESIAN_POINT('Vertex',(20.75,15.,110.)) ;
#507=CARTESIAN_POINT('Axis2P3D Location',(19.,15.,110.)) ;
#516=CARTESIAN_POINT('Axis2P3D Location',(-19.,15.,72.)) ;
#520=CARTESIAN_POINT('Vertex',(-20.75,15.,72.)) ;
#522=CARTESIAN_POINT('Vertex',(-17.25,15.,72.)) ;
#525=CARTESIAN_POINT('Axis2P3D Location',(-19.,15.,72.)) ;
#535=CARTESIAN_POINT('Line Origine',(33.5410196625,10.,58.75)) ;
#539=CARTESIAN_POINT('Vertex',(33.5410196625,10.,114.5)) ;
#542=CARTESIAN_POINT('Axis2P3D Location',(0.,0.,114.5)) ;
#554=CARTESIAN_POINT('Axis2P3D Location',(33.5410196625,10.,3.)) ;
#559=CARTESIAN_POINT('Line Origine',(0.,10.,114.5)) ;
#570=CARTESIAN_POINT('Axis2P3D Location',(-29.,10.,31.5)) ;
#574=CARTESIAN_POINT('Vertex',(-32.35,10.,31.5)) ;
#576=CARTESIAN_POINT('Vertex',(-25.65,10.,31.5)) ;
#579=CARTESIAN_POINT('Axis2P3D Location',(-29.,10.,31.5)) ;
#588=CARTESIAN_POINT('Axis2P3D Location',(-29.,10.,8.5)) ;
#592=CARTESIAN_POINT('Vertex',(-32.35,10.,8.5)) ;
#594=CARTESIAN_POINT('Vertex',(-25.65,10.,8.5)) ;
#597=CARTESIAN_POINT('Axis2P3D Location',(-29.,10.,8.5)) ;
#606=CARTESIAN_POINT('Axis2P3D Location',(29.,10.,31.5)) ;
#610=CARTESIAN_POINT('Vertex',(25.65,10.,31.5)) ;
#612=CARTESIAN_POINT('Vertex',(32.35,10.,31.5)) ;
#615=CARTESIAN_POINT('Axis2P3D Location',(29.,10.,31.5)) ;
#624=CARTESIAN_POINT('Axis2P3D Location',(29.,10.,8.5)) ;
#628=CARTESIAN_POINT('Vertex',(25.65,10.,8.5)) ;
#630=CARTESIAN_POINT('Vertex',(32.35,10.,8.5)) ;
#633=CARTESIAN_POINT('Axis2P3D Location',(29.,10.,8.5)) ;
#642=CARTESIAN_POINT('Axis2P3D Location',(-19.,10.,110.)) ;
#646=CARTESIAN_POINT('Vertex',(-22.75,10.,110.)) ;
#648=CARTESIAN_POINT('Vertex',(-15.25,10.,110.)) ;
#651=CARTESIAN_POINT('Axis2P3D Location',(-19.,10.,110.)) ;
#660=CARTESIAN_POINT('Axis2P3D Location',(-19.,10.,72.)) ;
#664=CARTESIAN_POINT('Vertex',(-22.75,10.,72.)) ;
#666=CARTESIAN_POINT('Vertex',(-15.25,10.,72.)) ;
#669=CARTESIAN_POINT('Axis2P3D Location',(-19.,10.,72.)) ;
#678=CARTESIAN_POINT('Axis2P3D Location',(19.,10.,110.)) ;
#682=CARTESIAN_POINT('Vertex',(15.25,10.,110.)) ;
#684=CARTESIAN_POINT('Vertex',(22.75,10.,110.)) ;
#687=CARTESIAN_POINT('Axis2P3D Location',(19.,10.,110.)) ;
#696=CARTESIAN_POINT('Axis2P3D Location',(19.,10.,72.)) ;
#700=CARTESIAN_POINT('Vertex',(15.25,10.,72.)) ;
#702=CARTESIAN_POINT('Vertex',(22.75,10.,72.)) ;
#705=CARTESIAN_POINT('Axis2P3D Location',(19.,10.,72.)) ;
#715=CARTESIAN_POINT('Axis2P3D Location',(0.,0.,114.5)) ;
#727=CARTESIAN_POINT('Axis2P3D Location',(-29.,6.,31.5)) ;
#732=CARTESIAN_POINT('Line Origine',(-27.65,20.6600000003,31.5)) ;
#736=CARTESIAN_POINT('Vertex',(-27.65,2.,31.5)) ;
#739=CARTESIAN_POINT('Axis2P3D Location',(-29.,2.,31.5)) ;
#743=CARTESIAN_POINT('Vertex',(-30.35,2.,31.5)) ;
#746=CARTESIAN_POINT('Line Origine',(-30.35,20.6600000003,31.5)) ;
#758=CARTESIAN_POINT('Axis2P3D Location',(-29.,2.,31.5)) ;
#770=CARTESIAN_POINT('Axis2P3D Location',(29.,24.6600000003,31.5)) ;
#775=CARTESIAN_POINT('Line Origine',(30.35,24.6600000003,31.5)) ;
#779=CARTESIAN_POINT('Vertex',(30.35,2.,31.5)) ;
#782=CARTESIAN_POINT('Axis2P3D Location',(29.,2.,31.5)) ;
#786=CARTESIAN_POINT('Vertex',(27.65,2.,31.5)) ;
#789=CARTESIAN_POINT('Line Origine',(27.65,24.6600000003,31.5)) ;
#801=CARTESIAN_POINT('Axis2P3D Location',(29.,2.,31.5)) ;
#813=CARTESIAN_POINT('Axis2P3D Location',(29.,6.,8.5)) ;
#818=CARTESIAN_POINT('Line Origine',(30.35,20.6600000003,8.5)) ;
#822=CARTESIAN_POINT('Vertex',(30.35,2.,8.5)) ;
#825=CARTESIAN_POINT('Axis2P3D Location',(29.,2.,8.5)) ;
#829=CARTESIAN_POINT('Vertex',(27.65,2.,8.5)) ;
#832=CARTESIAN_POINT('Line Origine',(27.65,20.6600000003,8.5)) ;
#844=CARTESIAN_POINT('Axis2P3D Location',(29.,2.,8.5)) ;
#856=CARTESIAN_POINT('Axis2P3D Location',(-29.,6.,8.5)) ;
#861=CARTESIAN_POINT('Line Origine',(-27.65,20.6600000003,8.5)) ;
#865=CARTESIAN_POINT('Vertex',(-27.65,2.,8.5)) ;
#868=CARTESIAN_POINT('Axis2P3D Location',(-29.,2.,8.5)) ;
#872=CARTESIAN_POINT('Vertex',(-30.35,2.,8.5)) ;
#875=CARTESIAN_POINT('Line Origine',(-30.35,20.6600000003,8.5)) ;
#887=CARTESIAN_POINT('Axis2P3D Location',(-29.,2.,8.5)) ;
#899=CARTESIAN_POINT('Axis2P3D Location',(-19.,6.,110.)) ;
#904=CARTESIAN_POINT('Line Origine',(-17.25,20.6600000003,110.)) ;
#908=CARTESIAN_POINT('Vertex',(-17.25,2.,110.)) ;
#911=CARTESIAN_POINT('Axis2P3D Location',(-19.,2.,110.)) ;
#915=CARTESIAN_POINT('Vertex',(-20.75,2.,110.)) ;
#918=CARTESIAN_POINT('Line Origine',(-20.75,20.6600000003,110.)) ;
#930=CARTESIAN_POINT('Axis2P3D Location',(-19.,2.,110.)) ;
#942=CARTESIAN_POINT('Axis2P3D Location',(19.,6.,72.)) ;
#947=CARTESIAN_POINT('Line Origine',(20.75,20.6600000003,72.)) ;
#951=CARTESIAN_POINT('Vertex',(20.75,2.,72.)) ;
#954=CARTESIAN_POINT('Axis2P3D Location',(19.,2.,72.)) ;
#958=CARTESIAN_POINT('Vertex',(17.25,2.,72.)) ;
#961=CARTESIAN_POINT('Line Origine',(17.25,20.6600000003,72.)) ;
#973=CARTESIAN_POINT('Axis2P3D Location',(19.,2.,72.)) ;
#985=CARTESIAN_POINT('Axis2P3D Location',(19.,6.,110.)) ;
#990=CARTESIAN_POINT('Line Origine',(20.75,20.6600000003,110.)) ;
#994=CARTESIAN_POINT('Vertex',(20.75,2.,110.)) ;
#997=CARTESIAN_POINT('Axis2P3D Location',(19.,2.,110.)) ;
#1001=CARTESIAN_POINT('Vertex',(17.25,2.,110.)) ;
#1004=CARTESIAN_POINT('Line Origine',(17.25,20.6600000003,110.)) ;
#1016=CARTESIAN_POINT('Axis2P3D Location',(19.,2.,110.)) ;
#1028=CARTESIAN_POINT('Axis2P3D Location',(-19.,6.,72.)) ;
#1033=CARTESIAN_POINT('Line Origine',(-17.25,20.6600000003,72.)) ;
#1037=CARTESIAN_POINT('Vertex',(-17.25,2.,72.)) ;
#1040=CARTESIAN_POINT('Axis2P3D Location',(-19.,2.,72.)) ;
#1044=CARTESIAN_POINT('Vertex',(-20.75,2.,72.)) ;
#1047=CARTESIAN_POINT('Line Origine',(-20.75,20.6600000003,72.)) ;
#1059=CARTESIAN_POINT('Axis2P3D Location',(-19.,2.,72.)) ;
#1071=CARTESIAN_POINT('Axis2P3D Location',(-29.,6.,31.5)) ;
#1076=CARTESIAN_POINT('Line Origine',(-25.65,6.,31.5)) ;
#1080=CARTESIAN_POINT('Vertex',(-25.65,2.,31.5)) ;
#1083=CARTESIAN_POINT('Line Origine',(-32.35,6.,31.5)) ;
#1087=CARTESIAN_POINT('Vertex',(-32.35,2.,31.5)) ;
#1090=CARTESIAN_POINT('Axis2P3D Location',(-29.,2.,31.5)) ;
#1102=CARTESIAN_POINT('Axis2P3D Location',(-29.,2.,31.5)) ;
#1114=CARTESIAN_POINT('Axis2P3D Location',(-29.,6.,8.5)) ;
#1119=CARTESIAN_POINT('Line Origine',(-25.65,6.,8.5)) ;
#1123=CARTESIAN_POINT('Vertex',(-25.65,2.,8.5)) ;
#1126=CARTESIAN_POINT('Line Origine',(-32.35,6.,8.5)) ;
#1130=CARTESIAN_POINT('Vertex',(-32.35,2.,8.5)) ;
#1133=CARTESIAN_POINT('Axis2P3D Location',(-29.,2.,8.5)) ;
#1145=CARTESIAN_POINT('Axis2P3D Location',(-29.,2.,8.5)) ;
#1157=CARTESIAN_POINT('Axis2P3D Location',(29.,6.,31.5)) ;
#1162=CARTESIAN_POINT('Line Origine',(32.35,6.,31.5)) ;
#1166=CARTESIAN_POINT('Vertex',(32.35,2.,31.5)) ;
#1169=CARTESIAN_POINT('Line Origine',(25.65,6.,31.5)) ;
#1173=CARTESIAN_POINT('Vertex',(25.65,2.,31.5)) ;
#1176=CARTESIAN_POINT('Axis2P3D Location',(29.,2.,31.5)) ;
#1188=CARTESIAN_POINT('Axis2P3D Location',(29.,2.,31.5)) ;
#1200=CARTESIAN_POINT('Axis2P3D Location',(29.,6.,8.5)) ;
#1205=CARTESIAN_POINT('Line Origine',(32.35,6.,8.5)) ;
#1209=CARTESIAN_POINT('Vertex',(32.35,2.,8.5)) ;
#1212=CARTESIAN_POINT('Line Origine',(25.65,6.,8.5)) ;
#1216=CARTESIAN_POINT('Vertex',(25.65,2.,8.5)) ;
#1219=CARTESIAN_POINT('Axis2P3D Location',(29.,2.,8.5)) ;
#1231=CARTESIAN_POINT('Axis2P3D Location',(29.,2.,8.5)) ;
#1243=CARTESIAN_POINT('Axis2P3D Location',(-19.,6.,110.)) ;
#1248=CARTESIAN_POINT('Line Origine',(-15.25,6.,110.)) ;
#1252=CARTESIAN_POINT('Vertex',(-15.25,2.,110.)) ;
#1255=CARTESIAN_POINT('Line Origine',(-22.75,6.,110.)) ;
#1259=CARTESIAN_POINT('Vertex',(-22.75,2.,110.)) ;
#1262=CARTESIAN_POINT('Axis2P3D Location',(-19.,2.,110.)) ;
#1274=CARTESIAN_POINT('Axis2P3D Location',(-19.,2.,110.)) ;
#1286=CARTESIAN_POINT('Axis2P3D Location',(-19.,6.,72.)) ;
#1291=CARTESIAN_POINT('Line Origine',(-15.25,6.,72.)) ;
#1295=CARTESIAN_POINT('Vertex',(-15.25,2.,72.)) ;
#1298=CARTESIAN_POINT('Line Origine',(-22.75,6.,72.)) ;
#1302=CARTESIAN_POINT('Vertex',(-22.75,2.,72.)) ;
#1305=CARTESIAN_POINT('Axis2P3D Location',(-19.,2.,72.)) ;
#1317=CARTESIAN_POINT('Axis2P3D Location',(-19.,2.,72.)) ;
#1329=CARTESIAN_POINT('Axis2P3D Location',(19.,6.,110.)) ;
#1334=CARTESIAN_POINT('Line Origine',(22.75,6.,110.)) ;
#1338=CARTESIAN_POINT('Vertex',(22.75,2.,110.)) ;
#1341=CARTESIAN_POINT('Line Origine',(15.25,6.,110.)) ;
#1345=CARTESIAN_POINT('Vertex',(15.25,2.,110.)) ;
#1348=CARTESIAN_POINT('Axis2P3D Location',(19.,2.,110.)) ;
#1360=CARTESIAN_POINT('Axis2P3D Location',(19.,2.,110.)) ;
#1372=CARTESIAN_POINT('Axis2P3D Location',(19.,6.,72.)) ;
#1377=CARTESIAN_POINT('Line Origine',(22.75,6.,72.)) ;
#1381=CARTESIAN_POINT('Vertex',(22.75,2.,72.)) ;
#1384=CARTESIAN_POINT('Line Origine',(15.25,6.,72.)) ;
#1388=CARTESIAN_POINT('Vertex',(15.25,2.,72.)) ;
#1391=CARTESIAN_POINT('Axis2P3D Location',(19.,2.,72.)) ;
#1403=CARTESIAN_POINT('Axis2P3D Location',(19.,2.,72.)) ;
#1415=CARTESIAN_POINT('Axis2P3D Location',(0.,2.,0.)) ;
#1492=CARTESIAN_POINT('Axis2P3D Location',(0.,0.,5.)) ;
#1501=CARTESIAN_POINT('Axis2P3D Location',(25.9807621135,-15.,5.)) ;
#1505=CARTESIAN_POINT('Vertex',(24.5807621135,-15.,5.)) ;
#1507=CARTESIAN_POINT('Vertex',(27.3807621135,-15.,5.)) ;
#1510=CARTESIAN_POINT('Axis2P3D Location',(25.9807621135,-15.,5.)) ;
#1524=CARTESIAN_POINT('Axis2P3D Location',(-25.9807621135,-15.,5.)) ;
#1528=CARTESIAN_POINT('Vertex',(-27.3807621135,-15.,5.)) ;
#1530=CARTESIAN_POINT('Vertex',(-24.5807621135,-15.,5.)) ;
#1533=CARTESIAN_POINT('Axis2P3D Location',(-25.9807621135,-15.,5.)) ;
#1547=CARTESIAN_POINT('Axis2P3D Location',(0.,30.,5.)) ;
#1551=CARTESIAN_POINT('Vertex',(-1.4,30.,5.)) ;
#1553=CARTESIAN_POINT('Vertex',(1.4,30.,5.)) ;
#1556=CARTESIAN_POINT('Axis2P3D Location',(0.,30.,5.)) ;
#1566=CARTESIAN_POINT('Axis2P3D Location',(0.,30.,0.83999999994)) ;
#1571=CARTESIAN_POINT('Axis2P3D Location',(0.,30.,3.2)) ;
#1575=CARTESIAN_POINT('Vertex',(1.4,30.,3.2)) ;
#1577=CARTESIAN_POINT('Vertex',(-1.4,30.,3.2)) ;
#1580=CARTESIAN_POINT('Line Origine',(-1.4,30.,56.5899999999)) ;
#1585=CARTESIAN_POINT('Line Origine',(1.4,30.,56.5899999999)) ;
#1597=CARTESIAN_POINT('Axis2P3D Location',(25.9807621135,-15.,0.83999999994)) ;
#1602=CARTESIAN_POINT('Axis2P3D Location',(25.9807621135,-15.,3.2)) ;
#1606=CARTESIAN_POINT('Vertex',(27.3807621135,-15.,3.2)) ;
#1608=CARTESIAN_POINT('Vertex',(24.5807621135,-15.,3.2)) ;
#1611=CARTESIAN_POINT('Line Origine',(24.5807621135,-15.,56.5899999999)) ;
#1616=CARTESIAN_POINT('Line Origine',(27.3807621135,-15.,56.5899999999)) ;
#1628=CARTESIAN_POINT('Axis2P3D Location',(25.9807621135,-15.,3.2)) ;
#1640=CARTESIAN_POINT('Axis2P3D Location',(-25.9807621135,-15.,4.)) ;
#1645=CARTESIAN_POINT('Axis2P3D Location',(-25.9807621135,-15.,3.2)) ;
#1649=CARTESIAN_POINT('Vertex',(-24.5807621135,-15.,3.2)) ;
#1651=CARTESIAN_POINT('Vertex',(-27.3807621135,-15.,3.2)) ;
#1654=CARTESIAN_POINT('Line Origine',(-27.3807621135,-15.,4.)) ;
#1659=CARTESIAN_POINT('Line Origine',(-24.5807621135,-15.,4.)) ;
#1671=CARTESIAN_POINT('Axis2P3D Location',(-25.9807621135,-15.,3.2)) ;
#1683=CARTESIAN_POINT('Axis2P3D Location',(0.,30.,3.2)) ;
#1695=CARTESIAN_POINT('Axis2P3D Location',(0.,0.,0.)) ;
#1704=CARTESIAN_POINT('Axis2P3D Location',(25.9807621135,-15.,0.)) ;
#1708=CARTESIAN_POINT('Vertex',(22.9807621135,-15.,0.)) ;
#1710=CARTESIAN_POINT('Vertex',(28.9807621135,-15.,0.)) ;
#1713=CARTESIAN_POINT('Axis2P3D Location',(25.9807621135,-15.,0.)) ;
#1722=CARTESIAN_POINT('Axis2P3D Location',(0.,30.,0.)) ;
#1726=CARTESIAN_POINT('Vertex',(-3.,30.,0.)) ;
#1728=CARTESIAN_POINT('Vertex',(3.,30.,0.)) ;
#1731=CARTESIAN_POINT('Axis2P3D Location',(0.,30.,0.)) ;
#1740=CARTESIAN_POINT('Axis2P3D Location',(-25.9807621135,-15.,0.)) ;
#1744=CARTESIAN_POINT('Vertex',(-28.9807621135,-15.,0.)) ;
#1746=CARTESIAN_POINT('Vertex',(-22.9807621135,-15.,0.)) ;
#1749=CARTESIAN_POINT('Axis2P3D Location',(-25.9807621135,-15.,0.)) ;
#1759=CARTESIAN_POINT('Axis2P3D Location',(25.9807621135,-15.,1.6)) ;
#1764=CARTESIAN_POINT('Line Origine',(28.9807621135,-15.,1.6)) ;
#1768=CARTESIAN_POINT('Vertex',(28.9807621135,-15.,3.2)) ;
#1771=CARTESIAN_POINT('Line Origine',(22.9807621135,-15.,1.6)) ;
#1775=CARTESIAN_POINT('Vertex',(22.9807621135,-15.,3.2)) ;
#1778=CARTESIAN_POINT('Axis2P3D Location',(25.9807621135,-15.,3.2)) ;
#1790=CARTESIAN_POINT('Axis2P3D Location',(25.9807621135,-15.,3.2)) ;
#1802=CARTESIAN_POINT('Axis2P3D Location',(0.,0.,3.2)) ;
#1816=CARTESIAN_POINT('Axis2P3D Location',(-25.9807621135,-15.,1.6)) ;
#1821=CARTESIAN_POINT('Line Origine',(-22.9807621135,-15.,1.6)) ;
#1825=CARTESIAN_POINT('Vertex',(-22.9807621135,-15.,3.2)) ;
#1828=CARTESIAN_POINT('Line Origine',(-28.9807621135,-15.,1.6)) ;
#1832=CARTESIAN_POINT('Vertex',(-28.9807621135,-15.,3.2)) ;
#1835=CARTESIAN_POINT('Axis2P3D Location',(-25.9807621135,-15.,3.2)) ;
#1847=CARTESIAN_POINT('Axis2P3D Location',(-25.9807621135,-15.,3.2)) ;
#1868=CARTESIAN_POINT('Axis2P3D Location',(0.,30.,1.6)) ;
#1873=CARTESIAN_POINT('Line Origine',(3.,30.,1.6)) ;
#1877=CARTESIAN_POINT('Vertex',(3.,30.,3.2)) ;
#1880=CARTESIAN_POINT('Line Origine',(-3.,30.,1.6)) ;
#1884=CARTESIAN_POINT('Vertex',(-3.,30.,3.2)) ;
#1887=CARTESIAN_POINT('Axis2P3D Location',(0.,30.,3.2)) ;
#1899=CARTESIAN_POINT('Axis2P3D Location',(0.,30.,3.2)) ;
#53=DIRECTION('Axis2P3D Direction',(0.,0.,1.)) ;
#54=DIRECTION('Axis2P3D XDirection',(1.,0.,0.)) ;
#58=DIRECTION('Vector Direction',(0.,0.,1.)) ;
#67=DIRECTION('Axis2P3D Direction',(0.,0.,1.)) ;
#74=DIRECTION('Vector Direction',(0.,0.,1.)) ;
#81=DIRECTION('Axis2P3D Direction',(0.,0.,1.)) ;
#93=DIRECTION('Axis2P3D Direction',(0.,0.,1.)) ;
#98=DIRECTION('Axis2P3D Direction',(0.,0.,1.)) ;
#110=DIRECTION('Axis2P3D Direction',(0.,0.,1.)) ;
#111=DIRECTION('Axis2P3D XDirection',(1.,0.,0.)) ;
#115=DIRECTION('Vector Direction',(0.,0.,1.)) ;
#124=DIRECTION('Axis2P3D Direction',(0.,0.,1.)) ;
#131=DIRECTION('Vector Direction',(0.,0.,1.)) ;
#138=DIRECTION('Axis2P3D Direction',(0.,0.,1.)) ;
#150=DIRECTION('Axis2P3D Direction',(0.,0.,1.)) ;
#155=DIRECTION('Axis2P3D Direction',(0.,0.,1.)) ;
#167=DIRECTION('Axis2P3D Direction',(0.,0.,1.)) ;
#168=DIRECTION('Axis2P3D XDirection',(1.,0.,0.)) ;
#172=DIRECTION('Vector Direction',(0.,0.,1.)) ;
#181=DIRECTION('Axis2P3D Direction',(0.,0.,1.)) ;
#188=DIRECTION('Vector Direction',(0.,0.,1.)) ;
#195=DIRECTION('Axis2P3D Direction',(0.,0.,1.)) ;
#207=DIRECTION('Axis2P3D Direction',(0.,0.,1.)) ;
#212=DIRECTION('Axis2P3D Direction',(0.,0.,1.)) ;
#224=DIRECTION('Axis2P3D Direction',(0.,0.,1.)) ;
#225=DIRECTION('Axis2P3D XDirection',(1.,0.,0.)) ;
#229=DIRECTION('Vector Direction',(0.,0.,1.)) ;
#238=DIRECTION('Axis2P3D Direction',(0.,0.,1.)) ;
#245=DIRECTION('Vector Direction',(0.,0.,1.)) ;
#252=DIRECTION('Axis2P3D Direction',(0.,0.,1.)) ;
#264=DIRECTION('Axis2P3D Direction',(0.,0.,1.)) ;
#269=DIRECTION('Axis2P3D Direction',(0.,0.,1.)) ;
#281=DIRECTION('Axis2P3D Direction',(0.,0.,1.)) ;
#282=DIRECTION('Axis2P3D XDirection',(1.,0.,0.)) ;
#290=DIRECTION('Axis2P3D Direction',(0.,0.,1.)) ;
#299=DIRECTION('Vector Direction',(1.,0.,0.)) ;
#306=DIRECTION('Axis2P3D Direction',(0.,0.,1.)) ;
#313=DIRECTION('Vector Direction',(-1.,0.,0.)) ;
#337=DIRECTION('Axis2P3D Direction',(0.,0.,1.)) ;
#338=DIRECTION('Axis2P3D XDirection',(0.9583148475,0.285714285714,0.)) ;
#342=DIRECTION('Vector Direction',(0.,0.,1.)) ;
#349=DIRECTION('Vector Direction',(0.,0.,1.)) ;
#356=DIRECTION('Axis2P3D Direction',(0.,0.,1.)) ;
#368=DIRECTION('Axis2P3D Direction',(0.,-1.,0.)) ;
#369=DIRECTION('Axis2P3D XDirection',(1.,0.,0.)) ;
#373=DIRECTION('Vector Direction',(0.,0.,1.)) ;
#380=DIRECTION('Vector Direction',(1.,0.,0.)) ;
#391=DIRECTION('Axis2P3D Direction',(0.,-1.,0.)) ;
#400=DIRECTION('Axis2P3D Direction',(0.,-1.,0.)) ;
#409=DIRECTION('Axis2P3D Direction',(0.,-1.,0.)) ;
#418=DIRECTION('Axis2P3D Direction',(0.,-1.,0.)) ;
#427=DIRECTION('Axis2P3D Direction',(0.,-1.,0.)) ;
#436=DIRECTION('Axis2P3D Direction',(0.,-1.,0.)) ;
#445=DIRECTION('Axis2P3D Direction',(0.,-1.,0.)) ;
#454=DIRECTION('Axis2P3D Direction',(0.,-1.,0.)) ;
#463=DIRECTION('Axis2P3D Direction',(0.,-1.,0.)) ;
#472=DIRECTION('Axis2P3D Direction',(0.,-1.,0.)) ;
#481=DIRECTION('Axis2P3D Direction',(0.,-1.,0.)) ;
#490=DIRECTION('Axis2P3D Direction',(0.,-1.,0.)) ;
#499=DIRECTION('Axis2P3D Direction',(0.,-1.,0.)) ;
#508=DIRECTION('Axis2P3D Direction',(0.,-1.,0.)) ;
#517=DIRECTION('Axis2P3D Direction',(0.,-1.,0.)) ;
#526=DIRECTION('Axis2P3D Direction',(0.,-1.,0.)) ;
#536=DIRECTION('Vector Direction',(0.,0.,1.)) ;
#543=DIRECTION('Axis2P3D Direction',(0.,0.,1.)) ;
#555=DIRECTION('Axis2P3D Direction',(0.,1.,-0.)) ;
#556=DIRECTION('Axis2P3D XDirection',(-1.,0.,0.)) ;
#560=DIRECTION('Vector Direction',(-1.,0.,0.)) ;
#571=DIRECTION('Axis2P3D Direction',(0.,1.,-0.)) ;
#580=DIRECTION('Axis2P3D Direction',(0.,1.,-0.)) ;
#589=DIRECTION('Axis2P3D Direction',(0.,1.,-0.)) ;
#598=DIRECTION('Axis2P3D Direction',(0.,1.,-0.)) ;
#607=DIRECTION('Axis2P3D Direction',(0.,1.,-0.)) ;
#616=DIRECTION('Axis2P3D Direction',(0.,1.,-0.)) ;
#625=DIRECTION('Axis2P3D Direction',(0.,1.,-0.)) ;
#634=DIRECTION('Axis2P3D Direction',(0.,1.,-0.)) ;
#643=DIRECTION('Axis2P3D Direction',(0.,1.,-0.)) ;
#652=DIRECTION('Axis2P3D Direction',(0.,1.,-0.)) ;
#661=DIRECTION('Axis2P3D Direction',(0.,1.,-0.)) ;
#670=DIRECTION('Axis2P3D Direction',(0.,1.,-0.)) ;
#679=DIRECTION('Axis2P3D Direction',(0.,1.,-0.)) ;
#688=DIRECTION('Axis2P3D Direction',(0.,1.,-0.)) ;
#697=DIRECTION('Axis2P3D Direction',(0.,1.,-0.)) ;
#706=DIRECTION('Axis2P3D Direction',(0.,1.,-0.)) ;
#716=DIRECTION('Axis2P3D Direction',(0.,0.,1.)) ;
#717=DIRECTION('Axis2P3D XDirection',(1.,0.,0.)) ;
#728=DIRECTION('Axis2P3D Direction',(-0.,-1.,0.)) ;
#729=DIRECTION('Axis2P3D XDirection',(1.,0.,0.)) ;
#733=DIRECTION('Vector Direction',(0.,-1.,0.)) ;
#740=DIRECTION('Axis2P3D Direction',(-0.,-1.,0.)) ;
#747=DIRECTION('Vector Direction',(0.,-1.,0.)) ;
#759=DIRECTION('Axis2P3D Direction',(-0.,-1.,0.)) ;
#771=DIRECTION('Axis2P3D Direction',(-0.,-1.,0.)) ;
#772=DIRECTION('Axis2P3D XDirection',(1.,0.,0.)) ;
#776=DIRECTION('Vector Direction',(0.,-1.,0.)) ;
#783=DIRECTION('Axis2P3D Direction',(-0.,-1.,0.)) ;
#790=DIRECTION('Vector Direction',(0.,-1.,0.)) ;
#802=DIRECTION('Axis2P3D Direction',(-0.,-1.,0.)) ;
#814=DIRECTION('Axis2P3D Direction',(-0.,-1.,0.)) ;
#815=DIRECTION('Axis2P3D XDirection',(1.,0.,0.)) ;
#819=DIRECTION('Vector Direction',(0.,-1.,0.)) ;
#826=DIRECTION('Axis2P3D Direction',(-0.,-1.,0.)) ;
#833=DIRECTION('Vector Direction',(0.,-1.,0.)) ;
#845=DIRECTION('Axis2P3D Direction',(-0.,-1.,0.)) ;
#857=DIRECTION('Axis2P3D Direction',(-0.,-1.,0.)) ;
#858=DIRECTION('Axis2P3D XDirection',(1.,0.,0.)) ;
#862=DIRECTION('Vector Direction',(0.,-1.,0.)) ;
#869=DIRECTION('Axis2P3D Direction',(-0.,-1.,0.)) ;
#876=DIRECTION('Vector Direction',(0.,-1.,0.)) ;
#888=DIRECTION('Axis2P3D Direction',(-0.,-1.,0.)) ;
#900=DIRECTION('Axis2P3D Direction',(-0.,-1.,0.)) ;
#901=DIRECTION('Axis2P3D XDirection',(1.,0.,0.)) ;
#905=DIRECTION('Vector Direction',(0.,-1.,0.)) ;
#912=DIRECTION('Axis2P3D Direction',(-0.,-1.,0.)) ;
#919=DIRECTION('Vector Direction',(0.,-1.,0.)) ;
#931=DIRECTION('Axis2P3D Direction',(-0.,-1.,0.)) ;
#943=DIRECTION('Axis2P3D Direction',(-0.,-1.,0.)) ;
#944=DIRECTION('Axis2P3D XDirection',(1.,0.,0.)) ;
#948=DIRECTION('Vector Direction',(0.,-1.,0.)) ;
#955=DIRECTION('Axis2P3D Direction',(-0.,-1.,0.)) ;
#962=DIRECTION('Vector Direction',(0.,-1.,0.)) ;
#974=DIRECTION('Axis2P3D Direction',(-0.,-1.,0.)) ;
#986=DIRECTION('Axis2P3D Direction',(-0.,-1.,0.)) ;
#987=DIRECTION('Axis2P3D XDirection',(1.,0.,0.)) ;
#991=DIRECTION('Vector Direction',(0.,-1.,0.)) ;
#998=DIRECTION('Axis2P3D Direction',(-0.,-1.,0.)) ;
#1005=DIRECTION('Vector Direction',(0.,-1.,0.)) ;
#1017=DIRECTION('Axis2P3D Direction',(-0.,-1.,0.)) ;
#1029=DIRECTION('Axis2P3D Direction',(-0.,-1.,0.)) ;
#1030=DIRECTION('Axis2P3D XDirection',(1.,0.,0.)) ;
#1034=DIRECTION('Vector Direction',(0.,-1.,0.)) ;
#1041=DIRECTION('Axis2P3D Direction',(-0.,-1.,0.)) ;
#1048=DIRECTION('Vector Direction',(0.,-1.,0.)) ;
#1060=DIRECTION('Axis2P3D Direction',(-0.,-1.,0.)) ;
#1072=DIRECTION('Axis2P3D Direction',(-0.,-1.,0.)) ;
#1073=DIRECTION('Axis2P3D XDirection',(1.,0.,0.)) ;
#1077=DIRECTION('Vector Direction',(0.,-1.,0.)) ;
#1084=DIRECTION('Vector Direction',(0.,-1.,0.)) ;
#1091=DIRECTION('Axis2P3D Direction',(-0.,-1.,0.)) ;
#1103=DIRECTION('Axis2P3D Direction',(-0.,-1.,0.)) ;
#1115=DIRECTION('Axis2P3D Direction',(-0.,-1.,0.)) ;
#1116=DIRECTION('Axis2P3D XDirection',(1.,0.,0.)) ;
#1120=DIRECTION('Vector Direction',(0.,-1.,0.)) ;
#1127=DIRECTION('Vector Direction',(0.,-1.,0.)) ;
#1134=DIRECTION('Axis2P3D Direction',(-0.,-1.,0.)) ;
#1146=DIRECTION('Axis2P3D Direction',(-0.,-1.,0.)) ;
#1158=DIRECTION('Axis2P3D Direction',(-0.,-1.,0.)) ;
#1159=DIRECTION('Axis2P3D XDirection',(1.,0.,0.)) ;
#1163=DIRECTION('Vector Direction',(0.,-1.,0.)) ;
#1170=DIRECTION('Vector Direction',(0.,-1.,0.)) ;
#1177=DIRECTION('Axis2P3D Direction',(-0.,-1.,0.)) ;
#1189=DIRECTION('Axis2P3D Direction',(-0.,-1.,0.)) ;
#1201=DIRECTION('Axis2P3D Direction',(-0.,-1.,0.)) ;
#1202=DIRECTION('Axis2P3D XDirection',(1.,0.,0.)) ;
#1206=DIRECTION('Vector Direction',(0.,-1.,0.)) ;
#1213=DIRECTION('Vector Direction',(0.,-1.,0.)) ;
#1220=DIRECTION('Axis2P3D Direction',(-0.,-1.,0.)) ;
#1232=DIRECTION('Axis2P3D Direction',(-0.,-1.,0.)) ;
#1244=DIRECTION('Axis2P3D Direction',(-0.,-1.,0.)) ;
#1245=DIRECTION('Axis2P3D XDirection',(1.,0.,0.)) ;
#1249=DIRECTION('Vector Direction',(0.,-1.,0.)) ;
#1256=DIRECTION('Vector Direction',(0.,-1.,0.)) ;
#1263=DIRECTION('Axis2P3D Direction',(-0.,-1.,0.)) ;
#1275=DIRECTION('Axis2P3D Direction',(-0.,-1.,0.)) ;
#1287=DIRECTION('Axis2P3D Direction',(-0.,-1.,0.)) ;
#1288=DIRECTION('Axis2P3D XDirection',(1.,0.,0.)) ;
#1292=DIRECTION('Vector Direction',(0.,-1.,0.)) ;
#1299=DIRECTION('Vector Direction',(0.,-1.,0.)) ;
#1306=DIRECTION('Axis2P3D Direction',(-0.,-1.,0.)) ;
#1318=DIRECTION('Axis2P3D Direction',(-0.,-1.,0.)) ;
#1330=DIRECTION('Axis2P3D Direction',(-0.,-1.,0.)) ;
#1331=DIRECTION('Axis2P3D XDirection',(1.,0.,0.)) ;
#1335=DIRECTION('Vector Direction',(0.,-1.,0.)) ;
#1342=DIRECTION('Vector Direction',(0.,-1.,0.)) ;
#1349=DIRECTION('Axis2P3D Direction',(-0.,-1.,0.)) ;
#1361=DIRECTION('Axis2P3D Direction',(-0.,-1.,0.)) ;
#1373=DIRECTION('Axis2P3D Direction',(-0.,-1.,0.)) ;
#1374=DIRECTION('Axis2P3D XDirection',(1.,0.,0.)) ;
#1378=DIRECTION('Vector Direction',(0.,-1.,0.)) ;
#1385=DIRECTION('Vector Direction',(0.,-1.,0.)) ;
#1392=DIRECTION('Axis2P3D Direction',(-0.,-1.,0.)) ;
#1404=DIRECTION('Axis2P3D Direction',(-0.,-1.,0.)) ;
#1416=DIRECTION('Axis2P3D Direction',(-0.,-1.,0.)) ;
#1417=DIRECTION('Axis2P3D XDirection',(1.,-0.,0.)) ;
#1493=DIRECTION('Axis2P3D Direction',(0.,0.,1.)) ;
#1494=DIRECTION('Axis2P3D XDirection',(1.,0.,0.)) ;
#1502=DIRECTION('Axis2P3D Direction',(0.,0.,1.)) ;
#1511=DIRECTION('Axis2P3D Direction',(0.,0.,1.)) ;
#1525=DIRECTION('Axis2P3D Direction',(0.,0.,1.)) ;
#1534=DIRECTION('Axis2P3D Direction',(0.,0.,1.)) ;
#1548=DIRECTION('Axis2P3D Direction',(0.,0.,1.)) ;
#1557=DIRECTION('Axis2P3D Direction',(0.,0.,1.)) ;
#1567=DIRECTION('Axis2P3D Direction',(0.,0.,1.)) ;
#1568=DIRECTION('Axis2P3D XDirection',(1.,0.,0.)) ;
#1572=DIRECTION('Axis2P3D Direction',(0.,0.,1.)) ;
#1581=DIRECTION('Vector Direction',(0.,0.,1.)) ;
#1586=DIRECTION('Vector Direction',(0.,0.,1.)) ;
#1598=DIRECTION('Axis2P3D Direction',(0.,0.,1.)) ;
#1599=DIRECTION('Axis2P3D XDirection',(1.,0.,0.)) ;
#1603=DIRECTION('Axis2P3D Direction',(0.,0.,1.)) ;
#1612=DIRECTION('Vector Direction',(0.,0.,1.)) ;
#1617=DIRECTION('Vector Direction',(0.,0.,1.)) ;
#1629=DIRECTION('Axis2P3D Direction',(0.,0.,1.)) ;
#1641=DIRECTION('Axis2P3D Direction',(0.,0.,1.)) ;
#1642=DIRECTION('Axis2P3D XDirection',(1.,0.,0.)) ;
#1646=DIRECTION('Axis2P3D Direction',(0.,0.,1.)) ;
#1655=DIRECTION('Vector Direction',(0.,0.,1.)) ;
#1660=DIRECTION('Vector Direction',(0.,0.,1.)) ;
#1672=DIRECTION('Axis2P3D Direction',(0.,0.,1.)) ;
#1684=DIRECTION('Axis2P3D Direction',(0.,0.,1.)) ;
#1696=DIRECTION('Axis2P3D Direction',(0.,0.,1.)) ;
#1697=DIRECTION('Axis2P3D XDirection',(1.,0.,0.)) ;
#1705=DIRECTION('Axis2P3D Direction',(0.,0.,1.)) ;
#1714=DIRECTION('Axis2P3D Direction',(0.,0.,1.)) ;
#1723=DIRECTION('Axis2P3D Direction',(0.,0.,1.)) ;
#1732=DIRECTION('Axis2P3D Direction',(0.,0.,1.)) ;
#1741=DIRECTION('Axis2P3D Direction',(0.,0.,1.)) ;
#1750=DIRECTION('Axis2P3D Direction',(0.,0.,1.)) ;
#1760=DIRECTION('Axis2P3D Direction',(0.,0.,-1.)) ;
#1761=DIRECTION('Axis2P3D XDirection',(1.,0.,0.)) ;
#1765=DIRECTION('Vector Direction',(0.,0.,-1.)) ;
#1772=DIRECTION('Vector Direction',(0.,0.,-1.)) ;
#1779=DIRECTION('Axis2P3D Direction',(0.,0.,-1.)) ;
#1791=DIRECTION('Axis2P3D Direction',(0.,0.,-1.)) ;
#1803=DIRECTION('Axis2P3D Direction',(0.,0.,-1.)) ;
#1804=DIRECTION('Axis2P3D XDirection',(1.,0.,0.)) ;
#1817=DIRECTION('Axis2P3D Direction',(0.,0.,-1.)) ;
#1818=DIRECTION('Axis2P3D XDirection',(1.,0.,0.)) ;
#1822=DIRECTION('Vector Direction',(0.,0.,-1.)) ;
#1829=DIRECTION('Vector Direction',(0.,0.,-1.)) ;
#1836=DIRECTION('Axis2P3D Direction',(0.,0.,-1.)) ;
#1848=DIRECTION('Axis2P3D Direction',(0.,0.,-1.)) ;
#1869=DIRECTION('Axis2P3D Direction',(0.,0.,-1.)) ;
#1870=DIRECTION('Axis2P3D XDirection',(1.,0.,0.)) ;
#1874=DIRECTION('Vector Direction',(0.,0.,-1.)) ;
#1881=DIRECTION('Vector Direction',(0.,0.,-1.)) ;
#1888=DIRECTION('Axis2P3D Direction',(0.,0.,-1.)) ;
#1900=DIRECTION('Axis2P3D Direction',(0.,0.,-1.)) ;
#48=AXIS2_PLACEMENT_3D(' ',#47,$,$) ;
#55=AXIS2_PLACEMENT_3D('Cylinder Axis2P3D',#52,#53,#54) ;
#68=AXIS2_PLACEMENT_3D('Circle Axis2P3D',#66,#67,$) ;
#82=AXIS2_PLACEMENT_3D('Circle Axis2P3D',#80,#81,$) ;
#94=AXIS2_PLACEMENT_3D('Circle Axis2P3D',#92,#93,$) ;
#99=AXIS2_PLACEMENT_3D('Circle Axis2P3D',#97,#98,$) ;
#112=AXIS2_PLACEMENT_3D('Cylinder Axis2P3D',#109,#110,#111) ;
#125=AXIS2_PLACEMENT_3D('Circle Axis2P3D',#123,#124,$) ;
#139=AXIS2_PLACEMENT_3D('Circle Axis2P3D',#137,#138,$) ;
#151=AXIS2_PLACEMENT_3D('Circle Axis2P3D',#149,#150,$) ;
#156=AXIS2_PLACEMENT_3D('Circle Axis2P3D',#154,#155,$) ;
#169=AXIS2_PLACEMENT_3D('Cylinder Axis2P3D',#166,#167,#168) ;
#182=AXIS2_PLACEMENT_3D('Circle Axis2P3D',#180,#181,$) ;
#196=AXIS2_PLACEMENT_3D('Circle Axis2P3D',#194,#195,$) ;
#208=AXIS2_PLACEMENT_3D('Circle Axis2P3D',#206,#207,$) ;
#213=AXIS2_PLACEMENT_3D('Circle Axis2P3D',#211,#212,$) ;
#226=AXIS2_PLACEMENT_3D('Cylinder Axis2P3D',#223,#224,#225) ;
#239=AXIS2_PLACEMENT_3D('Circle Axis2P3D',#237,#238,$) ;
#253=AXIS2_PLACEMENT_3D('Circle Axis2P3D',#251,#252,$) ;
#265=AXIS2_PLACEMENT_3D('Circle Axis2P3D',#263,#264,$) ;
#270=AXIS2_PLACEMENT_3D('Circle Axis2P3D',#268,#269,$) ;
#283=AXIS2_PLACEMENT_3D('Plane Axis2P3D',#280,#281,#282) ;
#291=AXIS2_PLACEMENT_3D('Circle Axis2P3D',#289,#290,$) ;
#307=AXIS2_PLACEMENT_3D('Circle Axis2P3D',#305,#306,$) ;
#339=AXIS2_PLACEMENT_3D('Cylinder Axis2P3D',#336,#337,#338) ;
#357=AXIS2_PLACEMENT_3D('Circle Axis2P3D',#355,#356,$) ;
#370=AXIS2_PLACEMENT_3D('Plane Axis2P3D',#367,#368,#369) ;
#392=AXIS2_PLACEMENT_3D('Circle Axis2P3D',#390,#391,$) ;
#401=AXIS2_PLACEMENT_3D('Circle Axis2P3D',#399,#400,$) ;
#410=AXIS2_PLACEMENT_3D('Circle Axis2P3D',#408,#409,$) ;
#419=AXIS2_PLACEMENT_3D('Circle Axis2P3D',#417,#418,$) ;
#428=AXIS2_PLACEMENT_3D('Circle Axis2P3D',#426,#427,$) ;
#437=AXIS2_PLACEMENT_3D('Circle Axis2P3D',#435,#436,$) ;
#446=AXIS2_PLACEMENT_3D('Circle Axis2P3D',#444,#445,$) ;
#455=AXIS2_PLACEMENT_3D('Circle Axis2P3D',#453,#454,$) ;
#464=AXIS2_PLACEMENT_3D('Circle Axis2P3D',#462,#463,$) ;
#473=AXIS2_PLACEMENT_3D('Circle Axis2P3D',#471,#472,$) ;
#482=AXIS2_PLACEMENT_3D('Circle Axis2P3D',#480,#481,$) ;
#491=AXIS2_PLACEMENT_3D('Circle Axis2P3D',#489,#490,$) ;
#500=AXIS2_PLACEMENT_3D('Circle Axis2P3D',#498,#499,$) ;
#509=AXIS2_PLACEMENT_3D('Circle Axis2P3D',#507,#508,$) ;
#518=AXIS2_PLACEMENT_3D('Circle Axis2P3D',#516,#517,$) ;
#527=AXIS2_PLACEMENT_3D('Circle Axis2P3D',#525,#526,$) ;
#544=AXIS2_PLACEMENT_3D('Circle Axis2P3D',#542,#543,$) ;
#557=AXIS2_PLACEMENT_3D('Plane Axis2P3D',#554,#555,#556) ;
#572=AXIS2_PLACEMENT_3D('Circle Axis2P3D',#570,#571,$) ;
#581=AXIS2_PLACEMENT_3D('Circle Axis2P3D',#579,#580,$) ;
#590=AXIS2_PLACEMENT_3D('Circle Axis2P3D',#588,#589,$) ;
#599=AXIS2_PLACEMENT_3D('Circle Axis2P3D',#597,#598,$) ;
#608=AXIS2_PLACEMENT_3D('Circle Axis2P3D',#606,#607,$) ;
#617=AXIS2_PLACEMENT_3D('Circle Axis2P3D',#615,#616,$) ;
#626=AXIS2_PLACEMENT_3D('Circle Axis2P3D',#624,#625,$) ;
#635=AXIS2_PLACEMENT_3D('Circle Axis2P3D',#633,#634,$) ;
#644=AXIS2_PLACEMENT_3D('Circle Axis2P3D',#642,#643,$) ;
#653=AXIS2_PLACEMENT_3D('Circle Axis2P3D',#651,#652,$) ;
#662=AXIS2_PLACEMENT_3D('Circle Axis2P3D',#660,#661,$) ;
#671=AXIS2_PLACEMENT_3D('Circle Axis2P3D',#669,#670,$) ;
#680=AXIS2_PLACEMENT_3D('Circle Axis2P3D',#678,#679,$) ;
#689=AXIS2_PLACEMENT_3D('Circle Axis2P3D',#687,#688,$) ;
#698=AXIS2_PLACEMENT_3D('Circle Axis2P3D',#696,#697,$) ;
#707=AXIS2_PLACEMENT_3D('Circle Axis2P3D',#705,#706,$) ;
#718=AXIS2_PLACEMENT_3D('Plane Axis2P3D',#715,#716,#717) ;
#730=AXIS2_PLACEMENT_3D('Cylinder Axis2P3D',#727,#728,#729) ;
#741=AXIS2_PLACEMENT_3D('Circle Axis2P3D',#739,#740,$) ;
#760=AXIS2_PLACEMENT_3D('Circle Axis2P3D',#758,#759,$) ;
#773=AXIS2_PLACEMENT_3D('Cylinder Axis2P3D',#770,#771,#772) ;
#784=AXIS2_PLACEMENT_3D('Circle Axis2P3D',#782,#783,$) ;
#803=AXIS2_PLACEMENT_3D('Circle Axis2P3D',#801,#802,$) ;
#816=AXIS2_PLACEMENT_3D('Cylinder Axis2P3D',#813,#814,#815) ;
#827=AXIS2_PLACEMENT_3D('Circle Axis2P3D',#825,#826,$) ;
#846=AXIS2_PLACEMENT_3D('Circle Axis2P3D',#844,#845,$) ;
#859=AXIS2_PLACEMENT_3D('Cylinder Axis2P3D',#856,#857,#858) ;
#870=AXIS2_PLACEMENT_3D('Circle Axis2P3D',#868,#869,$) ;
#889=AXIS2_PLACEMENT_3D('Circle Axis2P3D',#887,#888,$) ;
#902=AXIS2_PLACEMENT_3D('Cylinder Axis2P3D',#899,#900,#901) ;
#913=AXIS2_PLACEMENT_3D('Circle Axis2P3D',#911,#912,$) ;
#932=AXIS2_PLACEMENT_3D('Circle Axis2P3D',#930,#931,$) ;
#945=AXIS2_PLACEMENT_3D('Cylinder Axis2P3D',#942,#943,#944) ;
#956=AXIS2_PLACEMENT_3D('Circle Axis2P3D',#954,#955,$) ;
#975=AXIS2_PLACEMENT_3D('Circle Axis2P3D',#973,#974,$) ;
#988=AXIS2_PLACEMENT_3D('Cylinder Axis2P3D',#985,#986,#987) ;
#999=AXIS2_PLACEMENT_3D('Circle Axis2P3D',#997,#998,$) ;
#1018=AXIS2_PLACEMENT_3D('Circle Axis2P3D',#1016,#1017,$) ;
#1031=AXIS2_PLACEMENT_3D('Cylinder Axis2P3D',#1028,#1029,#1030) ;
#1042=AXIS2_PLACEMENT_3D('Circle Axis2P3D',#1040,#1041,$) ;
#1061=AXIS2_PLACEMENT_3D('Circle Axis2P3D',#1059,#1060,$) ;
#1074=AXIS2_PLACEMENT_3D('Cylinder Axis2P3D',#1071,#1072,#1073) ;
#1092=AXIS2_PLACEMENT_3D('Circle Axis2P3D',#1090,#1091,$) ;
#1104=AXIS2_PLACEMENT_3D('Circle Axis2P3D',#1102,#1103,$) ;
#1117=AXIS2_PLACEMENT_3D('Cylinder Axis2P3D',#1114,#1115,#1116) ;
#1135=AXIS2_PLACEMENT_3D('Circle Axis2P3D',#1133,#1134,$) ;
#1147=AXIS2_PLACEMENT_3D('Circle Axis2P3D',#1145,#1146,$) ;
#1160=AXIS2_PLACEMENT_3D('Cylinder Axis2P3D',#1157,#1158,#1159) ;
#1178=AXIS2_PLACEMENT_3D('Circle Axis2P3D',#1176,#1177,$) ;
#1190=AXIS2_PLACEMENT_3D('Circle Axis2P3D',#1188,#1189,$) ;
#1203=AXIS2_PLACEMENT_3D('Cylinder Axis2P3D',#1200,#1201,#1202) ;
#1221=AXIS2_PLACEMENT_3D('Circle Axis2P3D',#1219,#1220,$) ;
#1233=AXIS2_PLACEMENT_3D('Circle Axis2P3D',#1231,#1232,$) ;
#1246=AXIS2_PLACEMENT_3D('Cylinder Axis2P3D',#1243,#1244,#1245) ;
#1264=AXIS2_PLACEMENT_3D('Circle Axis2P3D',#1262,#1263,$) ;
#1276=AXIS2_PLACEMENT_3D('Circle Axis2P3D',#1274,#1275,$) ;
#1289=AXIS2_PLACEMENT_3D('Cylinder Axis2P3D',#1286,#1287,#1288) ;
#1307=AXIS2_PLACEMENT_3D('Circle Axis2P3D',#1305,#1306,$) ;
#1319=AXIS2_PLACEMENT_3D('Circle Axis2P3D',#1317,#1318,$) ;
#1332=AXIS2_PLACEMENT_3D('Cylinder Axis2P3D',#1329,#1330,#1331) ;
#1350=AXIS2_PLACEMENT_3D('Circle Axis2P3D',#1348,#1349,$) ;
#1362=AXIS2_PLACEMENT_3D('Circle Axis2P3D',#1360,#1361,$) ;
#1375=AXIS2_PLACEMENT_3D('Cylinder Axis2P3D',#1372,#1373,#1374) ;
#1393=AXIS2_PLACEMENT_3D('Circle Axis2P3D',#1391,#1392,$) ;
#1405=AXIS2_PLACEMENT_3D('Circle Axis2P3D',#1403,#1404,$) ;
#1418=AXIS2_PLACEMENT_3D('Plane Axis2P3D',#1415,#1416,#1417) ;
#1495=AXIS2_PLACEMENT_3D('Plane Axis2P3D',#1492,#1493,#1494) ;
#1503=AXIS2_PLACEMENT_3D('Circle Axis2P3D',#1501,#1502,$) ;
#1512=AXIS2_PLACEMENT_3D('Circle Axis2P3D',#1510,#1511,$) ;
#1526=AXIS2_PLACEMENT_3D('Circle Axis2P3D',#1524,#1525,$) ;
#1535=AXIS2_PLACEMENT_3D('Circle Axis2P3D',#1533,#1534,$) ;
#1549=AXIS2_PLACEMENT_3D('Circle Axis2P3D',#1547,#1548,$) ;
#1558=AXIS2_PLACEMENT_3D('Circle Axis2P3D',#1556,#1557,$) ;
#1569=AXIS2_PLACEMENT_3D('Cylinder Axis2P3D',#1566,#1567,#1568) ;
#1573=AXIS2_PLACEMENT_3D('Circle Axis2P3D',#1571,#1572,$) ;
#1600=AXIS2_PLACEMENT_3D('Cylinder Axis2P3D',#1597,#1598,#1599) ;
#1604=AXIS2_PLACEMENT_3D('Circle Axis2P3D',#1602,#1603,$) ;
#1630=AXIS2_PLACEMENT_3D('Circle Axis2P3D',#1628,#1629,$) ;
#1643=AXIS2_PLACEMENT_3D('Cylinder Axis2P3D',#1640,#1641,#1642) ;
#1647=AXIS2_PLACEMENT_3D('Circle Axis2P3D',#1645,#1646,$) ;
#1673=AXIS2_PLACEMENT_3D('Circle Axis2P3D',#1671,#1672,$) ;
#1685=AXIS2_PLACEMENT_3D('Circle Axis2P3D',#1683,#1684,$) ;
#1698=AXIS2_PLACEMENT_3D('Plane Axis2P3D',#1695,#1696,#1697) ;
#1706=AXIS2_PLACEMENT_3D('Circle Axis2P3D',#1704,#1705,$) ;
#1715=AXIS2_PLACEMENT_3D('Circle Axis2P3D',#1713,#1714,$) ;
#1724=AXIS2_PLACEMENT_3D('Circle Axis2P3D',#1722,#1723,$) ;
#1733=AXIS2_PLACEMENT_3D('Circle Axis2P3D',#1731,#1732,$) ;
#1742=AXIS2_PLACEMENT_3D('Circle Axis2P3D',#1740,#1741,$) ;
#1751=AXIS2_PLACEMENT_3D('Circle Axis2P3D',#1749,#1750,$) ;
#1762=AXIS2_PLACEMENT_3D('Cylinder Axis2P3D',#1759,#1760,#1761) ;
#1780=AXIS2_PLACEMENT_3D('Circle Axis2P3D',#1778,#1779,$) ;
#1792=AXIS2_PLACEMENT_3D('Circle Axis2P3D',#1790,#1791,$) ;
#1805=AXIS2_PLACEMENT_3D('Plane Axis2P3D',#1802,#1803,#1804) ;
#1819=AXIS2_PLACEMENT_3D('Cylinder Axis2P3D',#1816,#1817,#1818) ;
#1837=AXIS2_PLACEMENT_3D('Circle Axis2P3D',#1835,#1836,$) ;
#1849=AXIS2_PLACEMENT_3D('Circle Axis2P3D',#1847,#1848,$) ;
#1871=AXIS2_PLACEMENT_3D('Cylinder Axis2P3D',#1868,#1869,#1870) ;
#1889=AXIS2_PLACEMENT_3D('Circle Axis2P3D',#1887,#1888,$) ;
#1901=AXIS2_PLACEMENT_3D('Circle Axis2P3D',#1899,#1900,$) ;
#40=PRODUCT_DEFINITION_SHAPE(' ',' ',#14) ;
#31=APPROVAL_PERSON_ORGANIZATION(#25,#21,#19) ;
#25=PERSON_AND_ORGANIZATION(#22,#23) ;
#22=PERSON(' ',' ',' ',$,$,$) ;
#23=ORGANIZATION(' ',' ',' ') ;
#21=APPROVAL(#20,' ') ;
#20=APPROVAL_STATUS('not_yet_approved') ;
#19=APPROVAL_ROLE('APPROVER') ;
#13=DATE_AND_TIME(#11,#12) ;
#12=LOCAL_TIME(4,18,6.,#10) ;
#10=COORDINATED_UNIVERSAL_TIME_OFFSET(0,0,.AHEAD.) ;
#86=ORIENTED_EDGE('',*,*,#65,.F.) ;
#87=ORIENTED_EDGE('',*,*,#72,.T.) ;
#88=ORIENTED_EDGE('',*,*,#79,.T.) ;
#89=ORIENTED_EDGE('',*,*,#84,.F.) ;
#103=ORIENTED_EDGE('',*,*,#79,.F.) ;
#104=ORIENTED_EDGE('',*,*,#96,.T.) ;
#105=ORIENTED_EDGE('',*,*,#65,.T.) ;
#106=ORIENTED_EDGE('',*,*,#101,.F.) ;
#143=ORIENTED_EDGE('',*,*,#122,.F.) ;
#144=ORIENTED_EDGE('',*,*,#129,.T.) ;
#145=ORIENTED_EDGE('',*,*,#136,.T.) ;
#146=ORIENTED_EDGE('',*,*,#141,.F.) ;
#160=ORIENTED_EDGE('',*,*,#136,.F.) ;
#161=ORIENTED_EDGE('',*,*,#153,.T.) ;
#162=ORIENTED_EDGE('',*,*,#122,.T.) ;
#163=ORIENTED_EDGE('',*,*,#158,.F.) ;
#200=ORIENTED_EDGE('',*,*,#179,.F.) ;
#201=ORIENTED_EDGE('',*,*,#186,.T.) ;
#202=ORIENTED_EDGE('',*,*,#193,.T.) ;
#203=ORIENTED_EDGE('',*,*,#198,.F.) ;
#217=ORIENTED_EDGE('',*,*,#193,.F.) ;
#218=ORIENTED_EDGE('',*,*,#210,.T.) ;
#219=ORIENTED_EDGE('',*,*,#179,.T.) ;
#220=ORIENTED_EDGE('',*,*,#215,.F.) ;
#257=ORIENTED_EDGE('',*,*,#236,.F.) ;
#258=ORIENTED_EDGE('',*,*,#243,.T.) ;
#259=ORIENTED_EDGE('',*,*,#250,.T.) ;
#260=ORIENTED_EDGE('',*,*,#255,.F.) ;
#274=ORIENTED_EDGE('',*,*,#250,.F.) ;
#275=ORIENTED_EDGE('',*,*,#267,.T.) ;
#276=ORIENTED_EDGE('',*,*,#236,.T.) ;
#277=ORIENTED_EDGE('',*,*,#272,.F.) ;
#286=ORIENTED_EDGE('',*,*,#255,.T.) ;
#287=ORIENTED_EDGE('',*,*,#272,.T.) ;
#318=ORIENTED_EDGE('',*,*,#297,.F.) ;
#319=ORIENTED_EDGE('',*,*,#304,.F.) ;
#320=ORIENTED_EDGE('',*,*,#311,.F.) ;
#321=ORIENTED_EDGE('',*,*,#316,.F.) ;
#324=ORIENTED_EDGE('',*,*,#72,.F.) ;
#325=ORIENTED_EDGE('',*,*,#96,.F.) ;
#328=ORIENTED_EDGE('',*,*,#129,.F.) ;
#329=ORIENTED_EDGE('',*,*,#153,.F.) ;
#332=ORIENTED_EDGE('',*,*,#186,.F.) ;
#333=ORIENTED_EDGE('',*,*,#210,.F.) ;
#361=ORIENTED_EDGE('',*,*,#347,.F.) ;
#362=ORIENTED_EDGE('',*,*,#297,.T.) ;
#363=ORIENTED_EDGE('',*,*,#354,.T.) ;
#364=ORIENTED_EDGE('',*,*,#359,.F.) ;
#385=ORIENTED_EDGE('',*,*,#378,.F.) ;
#386=ORIENTED_EDGE('',*,*,#304,.T.) ;
#387=ORIENTED_EDGE('',*,*,#347,.T.) ;
#388=ORIENTED_EDGE('',*,*,#383,.F.) ;
#405=ORIENTED_EDGE('',*,*,#398,.T.) ;
#406=ORIENTED_EDGE('',*,*,#403,.T.) ;
#423=ORIENTED_EDGE('',*,*,#416,.T.) ;
#424=ORIENTED_EDGE('',*,*,#421,.T.) ;
#441=ORIENTED_EDGE('',*,*,#434,.T.) ;
#442=ORIENTED_EDGE('',*,*,#439,.T.) ;
#459=ORIENTED_EDGE('',*,*,#452,.T.) ;
#460=ORIENTED_EDGE('',*,*,#457,.T.) ;
#477=ORIENTED_EDGE('',*,*,#470,.T.) ;
#478=ORIENTED_EDGE('',*,*,#475,.T.) ;
#495=ORIENTED_EDGE('',*,*,#488,.T.) ;
#496=ORIENTED_EDGE('',*,*,#493,.T.) ;
#513=ORIENTED_EDGE('',*,*,#506,.T.) ;
#514=ORIENTED_EDGE('',*,*,#511,.T.) ;
#531=ORIENTED_EDGE('',*,*,#524,.T.) ;
#532=ORIENTED_EDGE('',*,*,#529,.T.) ;
#548=ORIENTED_EDGE('',*,*,#541,.F.) ;
#549=ORIENTED_EDGE('',*,*,#311,.T.) ;
#550=ORIENTED_EDGE('',*,*,#378,.T.) ;
#551=ORIENTED_EDGE('',*,*,#546,.F.) ;
#565=ORIENTED_EDGE('',*,*,#354,.F.) ;
#566=ORIENTED_EDGE('',*,*,#316,.T.) ;
#567=ORIENTED_EDGE('',*,*,#541,.T.) ;
#568=ORIENTED_EDGE('',*,*,#563,.F.) ;
#585=ORIENTED_EDGE('',*,*,#578,.F.) ;
#586=ORIENTED_EDGE('',*,*,#583,.F.) ;
#603=ORIENTED_EDGE('',*,*,#596,.F.) ;
#604=ORIENTED_EDGE('',*,*,#601,.F.) ;
#621=ORIENTED_EDGE('',*,*,#614,.F.) ;
#622=ORIENTED_EDGE('',*,*,#619,.F.) ;
#639=ORIENTED_EDGE('',*,*,#632,.F.) ;
#640=ORIENTED_EDGE('',*,*,#637,.F.) ;
#657=ORIENTED_EDGE('',*,*,#650,.F.) ;
#658=ORIENTED_EDGE('',*,*,#655,.F.) ;
#675=ORIENTED_EDGE('',*,*,#668,.F.) ;
#676=ORIENTED_EDGE('',*,*,#673,.F.) ;
#693=ORIENTED_EDGE('',*,*,#686,.F.) ;
#694=ORIENTED_EDGE('',*,*,#691,.F.) ;
#711=ORIENTED_EDGE('',*,*,#704,.F.) ;
#712=ORIENTED_EDGE('',*,*,#709,.F.) ;
#721=ORIENTED_EDGE('',*,*,#546,.T.) ;
#722=ORIENTED_EDGE('',*,*,#383,.T.) ;
#723=ORIENTED_EDGE('',*,*,#359,.T.) ;
#724=ORIENTED_EDGE('',*,*,#563,.T.) ;
#752=ORIENTED_EDGE('',*,*,#403,.F.) ;
#753=ORIENTED_EDGE('',*,*,#738,.T.) ;
#754=ORIENTED_EDGE('',*,*,#745,.T.) ;
#755=ORIENTED_EDGE('',*,*,#750,.F.) ;
#764=ORIENTED_EDGE('',*,*,#398,.F.) ;
#765=ORIENTED_EDGE('',*,*,#750,.T.) ;
#766=ORIENTED_EDGE('',*,*,#762,.T.) ;
#767=ORIENTED_EDGE('',*,*,#738,.F.) ;
#795=ORIENTED_EDGE('',*,*,#421,.F.) ;
#796=ORIENTED_EDGE('',*,*,#781,.T.) ;
#797=ORIENTED_EDGE('',*,*,#788,.T.) ;
#798=ORIENTED_EDGE('',*,*,#793,.F.) ;
#807=ORIENTED_EDGE('',*,*,#416,.F.) ;
#808=ORIENTED_EDGE('',*,*,#793,.T.) ;
#809=ORIENTED_EDGE('',*,*,#805,.T.) ;
#810=ORIENTED_EDGE('',*,*,#781,.F.) ;
#838=ORIENTED_EDGE('',*,*,#439,.F.) ;
#839=ORIENTED_EDGE('',*,*,#824,.T.) ;
#840=ORIENTED_EDGE('',*,*,#831,.T.) ;
#841=ORIENTED_EDGE('',*,*,#836,.F.) ;
#850=ORIENTED_EDGE('',*,*,#434,.F.) ;
#851=ORIENTED_EDGE('',*,*,#836,.T.) ;
#852=ORIENTED_EDGE('',*,*,#848,.T.) ;
#853=ORIENTED_EDGE('',*,*,#824,.F.) ;
#881=ORIENTED_EDGE('',*,*,#457,.F.) ;
#882=ORIENTED_EDGE('',*,*,#867,.T.) ;
#883=ORIENTED_EDGE('',*,*,#874,.T.) ;
#884=ORIENTED_EDGE('',*,*,#879,.F.) ;
#893=ORIENTED_EDGE('',*,*,#452,.F.) ;
#894=ORIENTED_EDGE('',*,*,#879,.T.) ;
#895=ORIENTED_EDGE('',*,*,#891,.T.) ;
#896=ORIENTED_EDGE('',*,*,#867,.F.) ;
#924=ORIENTED_EDGE('',*,*,#475,.F.) ;
#925=ORIENTED_EDGE('',*,*,#910,.T.) ;
#926=ORIENTED_EDGE('',*,*,#917,.T.) ;
#927=ORIENTED_EDGE('',*,*,#922,.F.) ;
#936=ORIENTED_EDGE('',*,*,#470,.F.) ;
#937=ORIENTED_EDGE('',*,*,#922,.T.) ;
#938=ORIENTED_EDGE('',*,*,#934,.T.) ;
#939=ORIENTED_EDGE('',*,*,#910,.F.) ;
#967=ORIENTED_EDGE('',*,*,#493,.F.) ;
#968=ORIENTED_EDGE('',*,*,#953,.T.) ;
#969=ORIENTED_EDGE('',*,*,#960,.T.) ;
#970=ORIENTED_EDGE('',*,*,#965,.F.) ;
#979=ORIENTED_EDGE('',*,*,#488,.F.) ;
#980=ORIENTED_EDGE('',*,*,#965,.T.) ;
#981=ORIENTED_EDGE('',*,*,#977,.T.) ;
#982=ORIENTED_EDGE('',*,*,#953,.F.) ;
#1010=ORIENTED_EDGE('',*,*,#511,.F.) ;
#1011=ORIENTED_EDGE('',*,*,#996,.T.) ;
#1012=ORIENTED_EDGE('',*,*,#1003,.T.) ;
#1013=ORIENTED_EDGE('',*,*,#1008,.F.) ;
#1022=ORIENTED_EDGE('',*,*,#506,.F.) ;
#1023=ORIENTED_EDGE('',*,*,#1008,.T.) ;
#1024=ORIENTED_EDGE('',*,*,#1020,.T.) ;
#1025=ORIENTED_EDGE('',*,*,#996,.F.) ;
#1053=ORIENTED_EDGE('',*,*,#529,.F.) ;
#1054=ORIENTED_EDGE('',*,*,#1039,.T.) ;
#1055=ORIENTED_EDGE('',*,*,#1046,.T.) ;
#1056=ORIENTED_EDGE('',*,*,#1051,.F.) ;
#1065=ORIENTED_EDGE('',*,*,#524,.F.) ;
#1066=ORIENTED_EDGE('',*,*,#1051,.T.) ;
#1067=ORIENTED_EDGE('',*,*,#1063,.T.) ;
#1068=ORIENTED_EDGE('',*,*,#1039,.F.) ;
#1096=ORIENTED_EDGE('',*,*,#1082,.F.) ;
#1097=ORIENTED_EDGE('',*,*,#583,.T.) ;
#1098=ORIENTED_EDGE('',*,*,#1089,.T.) ;
#1099=ORIENTED_EDGE('',*,*,#1094,.F.) ;
#1108=ORIENTED_EDGE('',*,*,#1089,.F.) ;
#1109=ORIENTED_EDGE('',*,*,#578,.T.) ;
#1110=ORIENTED_EDGE('',*,*,#1082,.T.) ;
#1111=ORIENTED_EDGE('',*,*,#1106,.F.) ;
#1139=ORIENTED_EDGE('',*,*,#1125,.F.) ;
#1140=ORIENTED_EDGE('',*,*,#601,.T.) ;
#1141=ORIENTED_EDGE('',*,*,#1132,.T.) ;
#1142=ORIENTED_EDGE('',*,*,#1137,.F.) ;
#1151=ORIENTED_EDGE('',*,*,#1132,.F.) ;
#1152=ORIENTED_EDGE('',*,*,#596,.T.) ;
#1153=ORIENTED_EDGE('',*,*,#1125,.T.) ;
#1154=ORIENTED_EDGE('',*,*,#1149,.F.) ;
#1182=ORIENTED_EDGE('',*,*,#1168,.F.) ;
#1183=ORIENTED_EDGE('',*,*,#619,.T.) ;
#1184=ORIENTED_EDGE('',*,*,#1175,.T.) ;
#1185=ORIENTED_EDGE('',*,*,#1180,.F.) ;
#1194=ORIENTED_EDGE('',*,*,#1175,.F.) ;
#1195=ORIENTED_EDGE('',*,*,#614,.T.) ;
#1196=ORIENTED_EDGE('',*,*,#1168,.T.) ;
#1197=ORIENTED_EDGE('',*,*,#1192,.F.) ;
#1225=ORIENTED_EDGE('',*,*,#1211,.F.) ;
#1226=ORIENTED_EDGE('',*,*,#637,.T.) ;
#1227=ORIENTED_EDGE('',*,*,#1218,.T.) ;
#1228=ORIENTED_EDGE('',*,*,#1223,.F.) ;
#1237=ORIENTED_EDGE('',*,*,#1218,.F.) ;
#1238=ORIENTED_EDGE('',*,*,#632,.T.) ;
#1239=ORIENTED_EDGE('',*,*,#1211,.T.) ;
#1240=ORIENTED_EDGE('',*,*,#1235,.F.) ;
#1268=ORIENTED_EDGE('',*,*,#1254,.F.) ;
#1269=ORIENTED_EDGE('',*,*,#655,.T.) ;
#1270=ORIENTED_EDGE('',*,*,#1261,.T.) ;
#1271=ORIENTED_EDGE('',*,*,#1266,.F.) ;
#1280=ORIENTED_EDGE('',*,*,#1261,.F.) ;
#1281=ORIENTED_EDGE('',*,*,#650,.T.) ;
#1282=ORIENTED_EDGE('',*,*,#1254,.T.) ;
#1283=ORIENTED_EDGE('',*,*,#1278,.F.) ;
#1311=ORIENTED_EDGE('',*,*,#1297,.F.) ;
#1312=ORIENTED_EDGE('',*,*,#673,.T.) ;
#1313=ORIENTED_EDGE('',*,*,#1304,.T.) ;
#1314=ORIENTED_EDGE('',*,*,#1309,.F.) ;
#1323=ORIENTED_EDGE('',*,*,#1304,.F.) ;
#1324=ORIENTED_EDGE('',*,*,#668,.T.) ;
#1325=ORIENTED_EDGE('',*,*,#1297,.T.) ;
#1326=ORIENTED_EDGE('',*,*,#1321,.F.) ;
#1354=ORIENTED_EDGE('',*,*,#1340,.F.) ;
#1355=ORIENTED_EDGE('',*,*,#691,.T.) ;
#1356=ORIENTED_EDGE('',*,*,#1347,.T.) ;
#1357=ORIENTED_EDGE('',*,*,#1352,.F.) ;
#1366=ORIENTED_EDGE('',*,*,#1347,.F.) ;
#1367=ORIENTED_EDGE('',*,*,#686,.T.) ;
#1368=ORIENTED_EDGE('',*,*,#1340,.T.) ;
#1369=ORIENTED_EDGE('',*,*,#1364,.F.) ;
#1397=ORIENTED_EDGE('',*,*,#1383,.F.) ;
#1398=ORIENTED_EDGE('',*,*,#709,.T.) ;
#1399=ORIENTED_EDGE('',*,*,#1390,.T.) ;
#1400=ORIENTED_EDGE('',*,*,#1395,.F.) ;
#1409=ORIENTED_EDGE('',*,*,#1390,.F.) ;
#1410=ORIENTED_EDGE('',*,*,#704,.T.) ;
#1411=ORIENTED_EDGE('',*,*,#1383,.T.) ;
#1412=ORIENTED_EDGE('',*,*,#1407,.F.) ;
#1421=ORIENTED_EDGE('',*,*,#1094,.T.) ;
#1422=ORIENTED_EDGE('',*,*,#1106,.T.) ;
#1425=ORIENTED_EDGE('',*,*,#762,.F.) ;
#1426=ORIENTED_EDGE('',*,*,#745,.F.) ;
#1430=ORIENTED_EDGE('',*,*,#1180,.T.) ;
#1431=ORIENTED_EDGE('',*,*,#1192,.T.) ;
#1434=ORIENTED_EDGE('',*,*,#805,.F.) ;
#1435=ORIENTED_EDGE('',*,*,#788,.F.) ;
#1439=ORIENTED_EDGE('',*,*,#1223,.T.) ;
#1440=ORIENTED_EDGE('',*,*,#1235,.T.) ;
#1443=ORIENTED_EDGE('',*,*,#848,.F.) ;
#1444=ORIENTED_EDGE('',*,*,#831,.F.) ;
#1448=ORIENTED_EDGE('',*,*,#1137,.T.) ;
#1449=ORIENTED_EDGE('',*,*,#1149,.T.) ;
#1452=ORIENTED_EDGE('',*,*,#891,.F.) ;
#1453=ORIENTED_EDGE('',*,*,#874,.F.) ;
#1457=ORIENTED_EDGE('',*,*,#1266,.T.) ;
#1458=ORIENTED_EDGE('',*,*,#1278,.T.) ;
#1461=ORIENTED_EDGE('',*,*,#934,.F.) ;
#1462=ORIENTED_EDGE('',*,*,#917,.F.) ;
#1466=ORIENTED_EDGE('',*,*,#1395,.T.) ;
#1467=ORIENTED_EDGE('',*,*,#1407,.T.) ;
#1470=ORIENTED_EDGE('',*,*,#977,.F.) ;
#1471=ORIENTED_EDGE('',*,*,#960,.F.) ;
#1475=ORIENTED_EDGE('',*,*,#1352,.T.) ;
#1476=ORIENTED_EDGE('',*,*,#1364,.T.) ;
#1479=ORIENTED_EDGE('',*,*,#1020,.F.) ;
#1480=ORIENTED_EDGE('',*,*,#1003,.F.) ;
#1484=ORIENTED_EDGE('',*,*,#1309,.T.) ;
#1485=ORIENTED_EDGE('',*,*,#1321,.T.) ;
#1488=ORIENTED_EDGE('',*,*,#1063,.F.) ;
#1489=ORIENTED_EDGE('',*,*,#1046,.F.) ;
#1498=ORIENTED_EDGE('',*,*,#84,.T.) ;
#1499=ORIENTED_EDGE('',*,*,#101,.T.) ;
#1516=ORIENTED_EDGE('',*,*,#1509,.F.) ;
#1517=ORIENTED_EDGE('',*,*,#1514,.F.) ;
#1521=ORIENTED_EDGE('',*,*,#141,.T.) ;
#1522=ORIENTED_EDGE('',*,*,#158,.T.) ;
#1539=ORIENTED_EDGE('',*,*,#1532,.F.) ;
#1540=ORIENTED_EDGE('',*,*,#1537,.F.) ;
#1544=ORIENTED_EDGE('',*,*,#198,.T.) ;
#1545=ORIENTED_EDGE('',*,*,#215,.T.) ;
#1562=ORIENTED_EDGE('',*,*,#1555,.F.) ;
#1563=ORIENTED_EDGE('',*,*,#1560,.F.) ;
#1591=ORIENTED_EDGE('',*,*,#1579,.T.) ;
#1592=ORIENTED_EDGE('',*,*,#1584,.F.) ;
#1593=ORIENTED_EDGE('',*,*,#1555,.T.) ;
#1594=ORIENTED_EDGE('',*,*,#1589,.T.) ;
#1622=ORIENTED_EDGE('',*,*,#1610,.T.) ;
#1623=ORIENTED_EDGE('',*,*,#1615,.F.) ;
#1624=ORIENTED_EDGE('',*,*,#1509,.T.) ;
#1625=ORIENTED_EDGE('',*,*,#1620,.T.) ;
#1634=ORIENTED_EDGE('',*,*,#1632,.T.) ;
#1635=ORIENTED_EDGE('',*,*,#1620,.F.) ;
#1636=ORIENTED_EDGE('',*,*,#1514,.T.) ;
#1637=ORIENTED_EDGE('',*,*,#1615,.T.) ;
#1665=ORIENTED_EDGE('',*,*,#1653,.T.) ;
#1666=ORIENTED_EDGE('',*,*,#1658,.F.) ;
#1667=ORIENTED_EDGE('',*,*,#1532,.T.) ;
#1668=ORIENTED_EDGE('',*,*,#1663,.T.) ;
#1677=ORIENTED_EDGE('',*,*,#1675,.T.) ;
#1678=ORIENTED_EDGE('',*,*,#1663,.F.) ;
#1679=ORIENTED_EDGE('',*,*,#1537,.T.) ;
#1680=ORIENTED_EDGE('',*,*,#1658,.T.) ;
#1689=ORIENTED_EDGE('',*,*,#1687,.T.) ;
#1690=ORIENTED_EDGE('',*,*,#1589,.F.) ;
#1691=ORIENTED_EDGE('',*,*,#1560,.T.) ;
#1692=ORIENTED_EDGE('',*,*,#1584,.T.) ;
#1701=ORIENTED_EDGE('',*,*,#267,.F.) ;
#1702=ORIENTED_EDGE('',*,*,#243,.F.) ;
#1719=ORIENTED_EDGE('',*,*,#1712,.F.) ;
#1720=ORIENTED_EDGE('',*,*,#1717,.F.) ;
#1737=ORIENTED_EDGE('',*,*,#1730,.F.) ;
#1738=ORIENTED_EDGE('',*,*,#1735,.F.) ;
#1755=ORIENTED_EDGE('',*,*,#1748,.F.) ;
#1756=ORIENTED_EDGE('',*,*,#1753,.F.) ;
#1784=ORIENTED_EDGE('',*,*,#1770,.F.) ;
#1785=ORIENTED_EDGE('',*,*,#1717,.T.) ;
#1786=ORIENTED_EDGE('',*,*,#1777,.T.) ;
#1787=ORIENTED_EDGE('',*,*,#1782,.F.) ;
#1796=ORIENTED_EDGE('',*,*,#1777,.F.) ;
#1797=ORIENTED_EDGE('',*,*,#1712,.T.) ;
#1798=ORIENTED_EDGE('',*,*,#1770,.T.) ;
#1799=ORIENTED_EDGE('',*,*,#1794,.F.) ;
#1808=ORIENTED_EDGE('',*,*,#1782,.T.) ;
#1809=ORIENTED_EDGE('',*,*,#1794,.T.) ;
#1812=ORIENTED_EDGE('',*,*,#1632,.F.) ;
#1813=ORIENTED_EDGE('',*,*,#1610,.F.) ;
#1841=ORIENTED_EDGE('',*,*,#1827,.F.) ;
#1842=ORIENTED_EDGE('',*,*,#1753,.T.) ;
#1843=ORIENTED_EDGE('',*,*,#1834,.T.) ;
#1844=ORIENTED_EDGE('',*,*,#1839,.F.) ;
#1853=ORIENTED_EDGE('',*,*,#1834,.F.) ;
#1854=ORIENTED_EDGE('',*,*,#1748,.T.) ;
#1855=ORIENTED_EDGE('',*,*,#1827,.T.) ;
#1856=ORIENTED_EDGE('',*,*,#1851,.F.) ;
#1860=ORIENTED_EDGE('',*,*,#1839,.T.) ;
#1861=ORIENTED_EDGE('',*,*,#1851,.T.) ;
#1864=ORIENTED_EDGE('',*,*,#1675,.F.) ;
#1865=ORIENTED_EDGE('',*,*,#1653,.F.) ;
#1893=ORIENTED_EDGE('',*,*,#1879,.F.) ;
#1894=ORIENTED_EDGE('',*,*,#1735,.T.) ;
#1895=ORIENTED_EDGE('',*,*,#1886,.T.) ;
#1896=ORIENTED_EDGE('',*,*,#1891,.F.) ;
#1905=ORIENTED_EDGE('',*,*,#1886,.F.) ;
#1906=ORIENTED_EDGE('',*,*,#1730,.T.) ;
#1907=ORIENTED_EDGE('',*,*,#1879,.T.) ;
#1908=ORIENTED_EDGE('',*,*,#1903,.F.) ;
#1912=ORIENTED_EDGE('',*,*,#1891,.T.) ;
#1913=ORIENTED_EDGE('',*,*,#1903,.T.) ;
#1916=ORIENTED_EDGE('',*,*,#1687,.F.) ;
#1917=ORIENTED_EDGE('',*,*,#1579,.F.) ;
#322=FACE_BOUND('',#317,.T.) ;
#326=FACE_BOUND('',#323,.T.) ;
#330=FACE_BOUND('',#327,.T.) ;
#334=FACE_BOUND('',#331,.T.) ;
#407=FACE_BOUND('',#404,.T.) ;
#425=FACE_BOUND('',#422,.T.) ;
#443=FACE_BOUND('',#440,.T.) ;
#461=FACE_BOUND('',#458,.T.) ;
#479=FACE_BOUND('',#476,.T.) ;
#497=FACE_BOUND('',#494,.T.) ;
#515=FACE_BOUND('',#512,.T.) ;
#533=FACE_BOUND('',#530,.T.) ;
#587=FACE_BOUND('',#584,.T.) ;
#605=FACE_BOUND('',#602,.T.) ;
#623=FACE_BOUND('',#620,.T.) ;
#641=FACE_BOUND('',#638,.T.) ;
#659=FACE_BOUND('',#656,.T.) ;
#677=FACE_BOUND('',#674,.T.) ;
#695=FACE_BOUND('',#692,.T.) ;
#713=FACE_BOUND('',#710,.T.) ;
#1427=FACE_BOUND('',#1424,.T.) ;
#1436=FACE_BOUND('',#1433,.T.) ;
#1445=FACE_BOUND('',#1442,.T.) ;
#1454=FACE_BOUND('',#1451,.T.) ;
#1463=FACE_BOUND('',#1460,.T.) ;
#1472=FACE_BOUND('',#1469,.T.) ;
#1481=FACE_BOUND('',#1478,.T.) ;
#1490=FACE_BOUND('',#1487,.T.) ;
#1518=FACE_BOUND('',#1515,.T.) ;
#1541=FACE_BOUND('',#1538,.T.) ;
#1564=FACE_BOUND('',#1561,.T.) ;
#1721=FACE_BOUND('',#1718,.T.) ;
#1739=FACE_BOUND('',#1736,.T.) ;
#1757=FACE_BOUND('',#1754,.T.) ;
#1814=FACE_BOUND('',#1811,.T.) ;
#1866=FACE_BOUND('',#1863,.T.) ;
#1918=FACE_BOUND('',#1915,.T.) ;
#51=CLOSED_SHELL('Closed Shell',(#91,#108,#148,#165,#205,#222,#262,#279,#335,#366,#534,#553,#714,#726,#757,#769,#800,#812,#843,#855,#886,#898,#929,#941,#972,#984,#1015,#1027,#1058,#1070,#1101,#1113,#1144,#1156,#1187,#1199,#1230,#1242,#1273,#1285,#1316,#1328,#1359,#1371,#1402,#1414,#1428,#1437,#1446,#1455,#1464,#1473,#1482,#1491,#1519,#1542,#1565,#1596,#1627,#1639,#1670,#1682,#1694,#1758,#1789,#1801,#1815,#1846,#1858,#1867,#1898,#1910,#1919)) ;
#59=VECTOR('Line Direction',#58,1.) ;
#75=VECTOR('Line Direction',#74,1.) ;
#116=VECTOR('Line Direction',#115,1.) ;
#132=VECTOR('Line Direction',#131,1.) ;
#173=VECTOR('Line Direction',#172,1.) ;
#189=VECTOR('Line Direction',#188,1.) ;
#230=VECTOR('Line Direction',#229,1.) ;
#246=VECTOR('Line Direction',#245,1.) ;
#300=VECTOR('Line Direction',#299,1.) ;
#314=VECTOR('Line Direction',#313,1.) ;
#343=VECTOR('Line Direction',#342,1.) ;
#350=VECTOR('Line Direction',#349,1.) ;
#374=VECTOR('Line Direction',#373,1.) ;
#381=VECTOR('Line Direction',#380,1.) ;
#537=VECTOR('Line Direction',#536,1.) ;
#561=VECTOR('Line Direction',#560,1.) ;
#734=VECTOR('Line Direction',#733,1.) ;
#748=VECTOR('Line Direction',#747,1.) ;
#777=VECTOR('Line Direction',#776,1.) ;
#791=VECTOR('Line Direction',#790,1.) ;
#820=VECTOR('Line Direction',#819,1.) ;
#834=VECTOR('Line Direction',#833,1.) ;
#863=VECTOR('Line Direction',#862,1.) ;
#877=VECTOR('Line Direction',#876,1.) ;
#906=VECTOR('Line Direction',#905,1.) ;
#920=VECTOR('Line Direction',#919,1.) ;
#949=VECTOR('Line Direction',#948,1.) ;
#963=VECTOR('Line Direction',#962,1.) ;
#992=VECTOR('Line Direction',#991,1.) ;
#1006=VECTOR('Line Direction',#1005,1.) ;
#1035=VECTOR('Line Direction',#1034,1.) ;
#1049=VECTOR('Line Direction',#1048,1.) ;
#1078=VECTOR('Line Direction',#1077,1.) ;
#1085=VECTOR('Line Direction',#1084,1.) ;
#1121=VECTOR('Line Direction',#1120,1.) ;
#1128=VECTOR('Line Direction',#1127,1.) ;
#1164=VECTOR('Line Direction',#1163,1.) ;
#1171=VECTOR('Line Direction',#1170,1.) ;
#1207=VECTOR('Line Direction',#1206,1.) ;
#1214=VECTOR('Line Direction',#1213,1.) ;
#1250=VECTOR('Line Direction',#1249,1.) ;
#1257=VECTOR('Line Direction',#1256,1.) ;
#1293=VECTOR('Line Direction',#1292,1.) ;
#1300=VECTOR('Line Direction',#1299,1.) ;
#1336=VECTOR('Line Direction',#1335,1.) ;
#1343=VECTOR('Line Direction',#1342,1.) ;
#1379=VECTOR('Line Direction',#1378,1.) ;
#1386=VECTOR('Line Direction',#1385,1.) ;
#1582=VECTOR('Line Direction',#1581,1.) ;
#1587=VECTOR('Line Direction',#1586,1.) ;
#1613=VECTOR('Line Direction',#1612,1.) ;
#1618=VECTOR('Line Direction',#1617,1.) ;
#1656=VECTOR('Line Direction',#1655,1.) ;
#1661=VECTOR('Line Direction',#1660,1.) ;
#1766=VECTOR('Line Direction',#1765,1.) ;
#1773=VECTOR('Line Direction',#1772,1.) ;
#1823=VECTOR('Line Direction',#1822,1.) ;
#1830=VECTOR('Line Direction',#1829,1.) ;
#1875=VECTOR('Line Direction',#1874,1.) ;
#1882=VECTOR('Line Direction',#1881,1.) ;
#1921=ADVANCED_BREP_SHAPE_REPRESENTATION('NONE',(#1920),#46) ;
#49=SHAPE_REPRESENTATION(' ',(#48),#46) ;
#91=ADVANCED_FACE('PartBody',(#90),#56,.T.) ;
#108=ADVANCED_FACE('PartBody',(#107),#56,.T.) ;
#148=ADVANCED_FACE('PartBody',(#147),#113,.T.) ;
#165=ADVANCED_FACE('PartBody',(#164),#113,.T.) ;
#205=ADVANCED_FACE('PartBody',(#204),#170,.T.) ;
#222=ADVANCED_FACE('PartBody',(#221),#170,.T.) ;
#262=ADVANCED_FACE('PartBody',(#261),#227,.T.) ;
#279=ADVANCED_FACE('PartBody',(#278),#227,.T.) ;
#335=ADVANCED_FACE('PartBody',(#288,#322,#326,#330,#334),#284,.T.) ;
#366=ADVANCED_FACE('PartBody',(#365),#340,.T.) ;
#534=ADVANCED_FACE('PartBody',(#389,#407,#425,#443,#461,#479,#497,#515,#533),#371,.F.) ;
#553=ADVANCED_FACE('PartBody',(#552),#340,.T.) ;
#714=ADVANCED_FACE('PartBody',(#569,#587,#605,#623,#641,#659,#677,#695,#713),#558,.F.) ;
#726=ADVANCED_FACE('PartBody',(#725),#719,.T.) ;
#757=ADVANCED_FACE('PartBody',(#756),#731,.F.) ;
#769=ADVANCED_FACE('PartBody',(#768),#731,.F.) ;
#800=ADVANCED_FACE('PartBody',(#799),#774,.F.) ;
#812=ADVANCED_FACE('PartBody',(#811),#774,.F.) ;
#843=ADVANCED_FACE('PartBody',(#842),#817,.F.) ;
#855=ADVANCED_FACE('PartBody',(#854),#817,.F.) ;
#886=ADVANCED_FACE('PartBody',(#885),#860,.F.) ;
#898=ADVANCED_FACE('PartBody',(#897),#860,.F.) ;
#929=ADVANCED_FACE('PartBody',(#928),#903,.F.) ;
#941=ADVANCED_FACE('PartBody',(#940),#903,.F.) ;
#972=ADVANCED_FACE('PartBody',(#971),#946,.F.) ;
#984=ADVANCED_FACE('PartBody',(#983),#946,.F.) ;
#1015=ADVANCED_FACE('PartBody',(#1014),#989,.F.) ;
#1027=ADVANCED_FACE('PartBody',(#1026),#989,.F.) ;
#1058=ADVANCED_FACE('PartBody',(#1057),#1032,.F.) ;
#1070=ADVANCED_FACE('PartBody',(#1069),#1032,.F.) ;
#1101=ADVANCED_FACE('PartBody',(#1100),#1075,.T.) ;
#1113=ADVANCED_FACE('PartBody',(#1112),#1075,.T.) ;
#1144=ADVANCED_FACE('PartBody',(#1143),#1118,.T.) ;
#1156=ADVANCED_FACE('PartBody',(#1155),#1118,.T.) ;
#1187=ADVANCED_FACE('PartBody',(#1186),#1161,.T.) ;
#1199=ADVANCED_FACE('PartBody',(#1198),#1161,.T.) ;
#1230=ADVANCED_FACE('PartBody',(#1229),#1204,.T.) ;
#1242=ADVANCED_FACE('PartBody',(#1241),#1204,.T.) ;
#1273=ADVANCED_FACE('PartBody',(#1272),#1247,.T.) ;
#1285=ADVANCED_FACE('PartBody',(#1284),#1247,.T.) ;
#1316=ADVANCED_FACE('PartBody',(#1315),#1290,.T.) ;
#1328=ADVANCED_FACE('PartBody',(#1327),#1290,.T.) ;
#1359=ADVANCED_FACE('PartBody',(#1358),#1333,.T.) ;
#1371=ADVANCED_FACE('PartBody',(#1370),#1333,.T.) ;
#1402=ADVANCED_FACE('PartBody',(#1401),#1376,.T.) ;
#1414=ADVANCED_FACE('PartBody',(#1413),#1376,.T.) ;
#1428=ADVANCED_FACE('PartBody',(#1423,#1427),#1419,.T.) ;
#1437=ADVANCED_FACE('PartBody',(#1432,#1436),#1419,.T.) ;
#1446=ADVANCED_FACE('PartBody',(#1441,#1445),#1419,.T.) ;
#1455=ADVANCED_FACE('PartBody',(#1450,#1454),#1419,.T.) ;
#1464=ADVANCED_FACE('PartBody',(#1459,#1463),#1419,.T.) ;
#1473=ADVANCED_FACE('PartBody',(#1468,#1472),#1419,.T.) ;
#1482=ADVANCED_FACE('PartBody',(#1477,#1481),#1419,.T.) ;
#1491=ADVANCED_FACE('PartBody',(#1486,#1490),#1419,.T.) ;
#1519=ADVANCED_FACE('PartBody',(#1500,#1518),#1496,.T.) ;
#1542=ADVANCED_FACE('PartBody',(#1523,#1541),#1496,.T.) ;
#1565=ADVANCED_FACE('PartBody',(#1546,#1564),#1496,.T.) ;
#1596=ADVANCED_FACE('PartBody',(#1595),#1570,.F.) ;
#1627=ADVANCED_FACE('PartBody',(#1626),#1601,.F.) ;
#1639=ADVANCED_FACE('PartBody',(#1638),#1601,.F.) ;
#1670=ADVANCED_FACE('PartBody',(#1669),#1644,.F.) ;
#1682=ADVANCED_FACE('PartBody',(#1681),#1644,.F.) ;
#1694=ADVANCED_FACE('PartBody',(#1693),#1570,.F.) ;
#1758=ADVANCED_FACE('PartBody',(#1703,#1721,#1739,#1757),#1699,.F.) ;
#1789=ADVANCED_FACE('PartBody',(#1788),#1763,.F.) ;
#1801=ADVANCED_FACE('PartBody',(#1800),#1763,.F.) ;
#1815=ADVANCED_FACE('PartBody',(#1810,#1814),#1806,.T.) ;
#1846=ADVANCED_FACE('PartBody',(#1845),#1820,.F.) ;
#1858=ADVANCED_FACE('PartBody',(#1857),#1820,.F.) ;
#1867=ADVANCED_FACE('PartBody',(#1862,#1866),#1806,.T.) ;
#1898=ADVANCED_FACE('PartBody',(#1897),#1872,.F.) ;
#1910=ADVANCED_FACE('PartBody',(#1909),#1872,.F.) ;
#1919=ADVANCED_FACE('PartBody',(#1914,#1918),#1806,.T.) ;
#4=APPLICATION_PROTOCOL_DEFINITION('international standard','config_control_design',1994,#1) ;
#32=APPROVAL_DATE_TIME(#13,#21) ;
#1920=MANIFOLD_SOLID_BREP('PartBody',#51) ;
#11=CALENDAR_DATE(2026,23,7) ;
#30=CC_DESIGN_APPROVAL(#21,(#16,#6,#14)) ;
#18=CC_DESIGN_DATE_AND_TIME_ASSIGNMENT(#13,#17,(#16)) ;
#29=CC_DESIGN_DATE_AND_TIME_ASSIGNMENT(#13,#28,(#14)) ;
#17=DATE_TIME_ROLE('classification_date') ;
#28=DATE_TIME_ROLE('creation_date') ;
#27=CC_DESIGN_PERSON_AND_ORGANIZATION_ASSIGNMENT(#25,#26,(#16)) ;
#33=CC_DESIGN_PERSON_AND_ORGANIZATION_ASSIGNMENT(#25,#34,(#6)) ;
#35=CC_DESIGN_PERSON_AND_ORGANIZATION_ASSIGNMENT(#25,#36,(#6,#14)) ;
#37=CC_DESIGN_PERSON_AND_ORGANIZATION_ASSIGNMENT(#25,#38,(#5)) ;
#26=PERSON_AND_ORGANIZATION_ROLE('classification_officer') ;
#34=PERSON_AND_ORGANIZATION_ROLE('design_supplier') ;
#36=PERSON_AND_ORGANIZATION_ROLE('creator') ;
#38=PERSON_AND_ORGANIZATION_ROLE('design_owner') ;
#39=CC_DESIGN_SECURITY_CLASSIFICATION(#16,(#6)) ;
#69=CIRCLE('generated circle',#68,4.5) ;
#83=CIRCLE('generated circle',#82,4.5) ;
#95=CIRCLE('generated circle',#94,4.5) ;
#100=CIRCLE('generated circle',#99,4.5) ;
#126=CIRCLE('generated circle',#125,4.5) ;
#140=CIRCLE('generated circle',#139,4.5) ;
#152=CIRCLE('generated circle',#151,4.5) ;
#157=CIRCLE('generated circle',#156,4.5) ;
#183=CIRCLE('generated circle',#182,4.5) ;
#197=CIRCLE('generated circle',#196,4.5) ;
#209=CIRCLE('generated circle',#208,4.5) ;
#214=CIRCLE('generated circle',#213,4.5) ;
#240=CIRCLE('generated circle',#239,38.) ;
#254=CIRCLE('generated circle',#253,38.) ;
#266=CIRCLE('generated circle',#265,38.) ;
#271=CIRCLE('generated circle',#270,38.) ;
#292=CIRCLE('generated circle',#291,35.) ;
#308=CIRCLE('generated circle',#307,35.) ;
#358=CIRCLE('generated circle',#357,35.) ;
#393=CIRCLE('generated circle',#392,1.35) ;
#402=CIRCLE('generated circle',#401,1.35) ;
#411=CIRCLE('generated circle',#410,1.35) ;
#420=CIRCLE('generated circle',#419,1.35) ;
#429=CIRCLE('generated circle',#428,1.35) ;
#438=CIRCLE('generated circle',#437,1.35) ;
#447=CIRCLE('generated circle',#446,1.35) ;
#456=CIRCLE('generated circle',#455,1.35) ;
#465=CIRCLE('generated circle',#464,1.75) ;
#474=CIRCLE('generated circle',#473,1.75) ;
#483=CIRCLE('generated circle',#482,1.75) ;
#492=CIRCLE('generated circle',#491,1.75) ;
#501=CIRCLE('generated circle',#500,1.75) ;
#510=CIRCLE('generated circle',#509,1.75) ;
#519=CIRCLE('generated circle',#518,1.75) ;
#528=CIRCLE('generated circle',#527,1.75) ;
#545=CIRCLE('generated circle',#544,35.) ;
#573=CIRCLE('generated circle',#572,3.35) ;
#582=CIRCLE('generated circle',#581,3.35) ;
#591=CIRCLE('generated circle',#590,3.35) ;
#600=CIRCLE('generated circle',#599,3.35) ;
#609=CIRCLE('generated circle',#608,3.35) ;
#618=CIRCLE('generated circle',#617,3.35) ;
#627=CIRCLE('generated circle',#626,3.35) ;
#636=CIRCLE('generated circle',#635,3.35) ;
#645=CIRCLE('generated circle',#644,3.75) ;
#654=CIRCLE('generated circle',#653,3.75) ;
#663=CIRCLE('generated circle',#662,3.75) ;
#672=CIRCLE('generated circle',#671,3.75) ;
#681=CIRCLE('generated circle',#680,3.75) ;
#690=CIRCLE('generated circle',#689,3.75) ;
#699=CIRCLE('generated circle',#698,3.75) ;
#708=CIRCLE('generated circle',#707,3.75) ;
#742=CIRCLE('generated circle',#741,1.35) ;
#761=CIRCLE('generated circle',#760,1.35) ;
#785=CIRCLE('generated circle',#784,1.35) ;
#804=CIRCLE('generated circle',#803,1.35) ;
#828=CIRCLE('generated circle',#827,1.35) ;
#847=CIRCLE('generated circle',#846,1.35) ;
#871=CIRCLE('generated circle',#870,1.35) ;
#890=CIRCLE('generated circle',#889,1.35) ;
#914=CIRCLE('generated circle',#913,1.75) ;
#933=CIRCLE('generated circle',#932,1.75) ;
#957=CIRCLE('generated circle',#956,1.75) ;
#976=CIRCLE('generated circle',#975,1.75) ;
#1000=CIRCLE('generated circle',#999,1.75) ;
#1019=CIRCLE('generated circle',#1018,1.75) ;
#1043=CIRCLE('generated circle',#1042,1.75) ;
#1062=CIRCLE('generated circle',#1061,1.75) ;
#1093=CIRCLE('generated circle',#1092,3.35) ;
#1105=CIRCLE('generated circle',#1104,3.35) ;
#1136=CIRCLE('generated circle',#1135,3.35) ;
#1148=CIRCLE('generated circle',#1147,3.35) ;
#1179=CIRCLE('generated circle',#1178,3.35) ;
#1191=CIRCLE('generated circle',#1190,3.35) ;
#1222=CIRCLE('generated circle',#1221,3.35) ;
#1234=CIRCLE('generated circle',#1233,3.35) ;
#1265=CIRCLE('generated circle',#1264,3.75) ;
#1277=CIRCLE('generated circle',#1276,3.75) ;
#1308=CIRCLE('generated circle',#1307,3.75) ;
#1320=CIRCLE('generated circle',#1319,3.75) ;
#1351=CIRCLE('generated circle',#1350,3.75) ;
#1363=CIRCLE('generated circle',#1362,3.75) ;
#1394=CIRCLE('generated circle',#1393,3.75) ;
#1406=CIRCLE('generated circle',#1405,3.75) ;
#1504=CIRCLE('generated circle',#1503,1.4) ;
#1513=CIRCLE('generated circle',#1512,1.4) ;
#1527=CIRCLE('generated circle',#1526,1.4) ;
#1536=CIRCLE('generated circle',#1535,1.4) ;
#1550=CIRCLE('generated circle',#1549,1.4) ;
#1559=CIRCLE('generated circle',#1558,1.4) ;
#1574=CIRCLE('generated circle',#1573,1.4) ;
#1605=CIRCLE('generated circle',#1604,1.4) ;
#1631=CIRCLE('generated circle',#1630,1.4) ;
#1648=CIRCLE('generated circle',#1647,1.4) ;
#1674=CIRCLE('generated circle',#1673,1.4) ;
#1686=CIRCLE('generated circle',#1685,1.4) ;
#1707=CIRCLE('generated circle',#1706,3.) ;
#1716=CIRCLE('generated circle',#1715,3.) ;
#1725=CIRCLE('generated circle',#1724,3.) ;
#1734=CIRCLE('generated circle',#1733,3.) ;
#1743=CIRCLE('generated circle',#1742,3.) ;
#1752=CIRCLE('generated circle',#1751,3.) ;
#1781=CIRCLE('generated circle',#1780,3.) ;
#1793=CIRCLE('generated circle',#1792,3.) ;
#1838=CIRCLE('generated circle',#1837,3.) ;
#1850=CIRCLE('generated circle',#1849,3.) ;
#1890=CIRCLE('generated circle',#1889,3.) ;
#1902=CIRCLE('generated circle',#1901,3.) ;
#1922=SHAPE_REPRESENTATION_RELATIONSHIP(' ',' ',#49,#1921) ;
#56=CYLINDRICAL_SURFACE('generated cylinder',#55,4.5) ;
#113=CYLINDRICAL_SURFACE('generated cylinder',#112,4.5) ;
#170=CYLINDRICAL_SURFACE('generated cylinder',#169,4.5) ;
#227=CYLINDRICAL_SURFACE('generated cylinder',#226,38.) ;
#340=CYLINDRICAL_SURFACE('generated cylinder',#339,35.) ;
#731=CYLINDRICAL_SURFACE('generated cylinder',#730,1.35) ;
#774=CYLINDRICAL_SURFACE('generated cylinder',#773,1.35) ;
#817=CYLINDRICAL_SURFACE('generated cylinder',#816,1.35) ;
#860=CYLINDRICAL_SURFACE('generated cylinder',#859,1.35) ;
#903=CYLINDRICAL_SURFACE('generated cylinder',#902,1.75) ;
#946=CYLINDRICAL_SURFACE('generated cylinder',#945,1.75) ;
#989=CYLINDRICAL_SURFACE('generated cylinder',#988,1.75) ;
#1032=CYLINDRICAL_SURFACE('generated cylinder',#1031,1.75) ;
#1075=CYLINDRICAL_SURFACE('generated cylinder',#1074,3.35) ;
#1118=CYLINDRICAL_SURFACE('generated cylinder',#1117,3.35) ;
#1161=CYLINDRICAL_SURFACE('generated cylinder',#1160,3.35) ;
#1204=CYLINDRICAL_SURFACE('generated cylinder',#1203,3.35) ;
#1247=CYLINDRICAL_SURFACE('generated cylinder',#1246,3.75) ;
#1290=CYLINDRICAL_SURFACE('generated cylinder',#1289,3.75) ;
#1333=CYLINDRICAL_SURFACE('generated cylinder',#1332,3.75) ;
#1376=CYLINDRICAL_SURFACE('generated cylinder',#1375,3.75) ;
#1570=CYLINDRICAL_SURFACE('generated cylinder',#1569,1.4) ;
#1601=CYLINDRICAL_SURFACE('generated cylinder',#1600,1.4) ;
#1644=CYLINDRICAL_SURFACE('generated cylinder',#1643,1.4) ;
#1763=CYLINDRICAL_SURFACE('generated cylinder',#1762,3.) ;
#1820=CYLINDRICAL_SURFACE('generated cylinder',#1819,3.) ;
#1872=CYLINDRICAL_SURFACE('generated cylinder',#1871,3.) ;
#3=DESIGN_CONTEXT(' ',#1,'design') ;
#65=EDGE_CURVE('',#62,#64,#60,.T.) ;
#72=EDGE_CURVE('',#62,#71,#69,.T.) ;
#79=EDGE_CURVE('',#71,#78,#76,.T.) ;
#84=EDGE_CURVE('',#64,#78,#83,.T.) ;
#96=EDGE_CURVE('',#71,#62,#95,.T.) ;
#101=EDGE_CURVE('',#78,#64,#100,.T.) ;
#122=EDGE_CURVE('',#119,#121,#117,.T.) ;
#129=EDGE_CURVE('',#119,#128,#126,.T.) ;
#136=EDGE_CURVE('',#128,#135,#133,.T.) ;
#141=EDGE_CURVE('',#121,#135,#140,.T.) ;
#153=EDGE_CURVE('',#128,#119,#152,.T.) ;
#158=EDGE_CURVE('',#135,#121,#157,.T.) ;
#179=EDGE_CURVE('',#176,#178,#174,.T.) ;
#186=EDGE_CURVE('',#176,#185,#183,.T.) ;
#193=EDGE_CURVE('',#185,#192,#190,.T.) ;
#198=EDGE_CURVE('',#178,#192,#197,.T.) ;
#210=EDGE_CURVE('',#185,#176,#209,.T.) ;
#215=EDGE_CURVE('',#192,#178,#214,.T.) ;
#236=EDGE_CURVE('',#233,#235,#231,.T.) ;
#243=EDGE_CURVE('',#233,#242,#240,.T.) ;
#250=EDGE_CURVE('',#242,#249,#247,.T.) ;
#255=EDGE_CURVE('',#235,#249,#254,.T.) ;
#267=EDGE_CURVE('',#242,#233,#266,.T.) ;
#272=EDGE_CURVE('',#249,#235,#271,.T.) ;
#297=EDGE_CURVE('',#294,#296,#292,.T.) ;
#304=EDGE_CURVE('',#303,#294,#301,.F.) ;
#311=EDGE_CURVE('',#310,#303,#308,.T.) ;
#316=EDGE_CURVE('',#296,#310,#315,.F.) ;
#347=EDGE_CURVE('',#294,#346,#344,.T.) ;
#354=EDGE_CURVE('',#296,#353,#351,.T.) ;
#359=EDGE_CURVE('',#346,#353,#358,.T.) ;
#378=EDGE_CURVE('',#303,#377,#375,.T.) ;
#383=EDGE_CURVE('',#377,#346,#382,.F.) ;
#398=EDGE_CURVE('',#395,#397,#393,.T.) ;
#403=EDGE_CURVE('',#397,#395,#402,.T.) ;
#416=EDGE_CURVE('',#413,#415,#411,.T.) ;
#421=EDGE_CURVE('',#415,#413,#420,.T.) ;
#434=EDGE_CURVE('',#431,#433,#429,.T.) ;
#439=EDGE_CURVE('',#433,#431,#438,.T.) ;
#452=EDGE_CURVE('',#449,#451,#447,.T.) ;
#457=EDGE_CURVE('',#451,#449,#456,.T.) ;
#470=EDGE_CURVE('',#467,#469,#465,.T.) ;
#475=EDGE_CURVE('',#469,#467,#474,.T.) ;
#488=EDGE_CURVE('',#485,#487,#483,.T.) ;
#493=EDGE_CURVE('',#487,#485,#492,.T.) ;
#506=EDGE_CURVE('',#503,#505,#501,.T.) ;
#511=EDGE_CURVE('',#505,#503,#510,.T.) ;
#524=EDGE_CURVE('',#521,#523,#519,.T.) ;
#529=EDGE_CURVE('',#523,#521,#528,.T.) ;
#541=EDGE_CURVE('',#310,#540,#538,.T.) ;
#546=EDGE_CURVE('',#540,#377,#545,.T.) ;
#563=EDGE_CURVE('',#353,#540,#562,.F.) ;
#578=EDGE_CURVE('',#575,#577,#573,.F.) ;
#583=EDGE_CURVE('',#577,#575,#582,.F.) ;
#596=EDGE_CURVE('',#593,#595,#591,.F.) ;
#601=EDGE_CURVE('',#595,#593,#600,.F.) ;
#614=EDGE_CURVE('',#611,#613,#609,.F.) ;
#619=EDGE_CURVE('',#613,#611,#618,.F.) ;
#632=EDGE_CURVE('',#629,#631,#627,.F.) ;
#637=EDGE_CURVE('',#631,#629,#636,.F.) ;
#650=EDGE_CURVE('',#647,#649,#645,.F.) ;
#655=EDGE_CURVE('',#649,#647,#654,.F.) ;
#668=EDGE_CURVE('',#665,#667,#663,.F.) ;
#673=EDGE_CURVE('',#667,#665,#672,.F.) ;
#686=EDGE_CURVE('',#683,#685,#681,.F.) ;
#691=EDGE_CURVE('',#685,#683,#690,.F.) ;
#704=EDGE_CURVE('',#701,#703,#699,.F.) ;
#709=EDGE_CURVE('',#703,#701,#708,.F.) ;
#738=EDGE_CURVE('',#397,#737,#735,.T.) ;
#745=EDGE_CURVE('',#737,#744,#742,.T.) ;
#750=EDGE_CURVE('',#395,#744,#749,.T.) ;
#762=EDGE_CURVE('',#744,#737,#761,.T.) ;
#781=EDGE_CURVE('',#415,#780,#778,.T.) ;
#788=EDGE_CURVE('',#780,#787,#785,.T.) ;
#793=EDGE_CURVE('',#413,#787,#792,.T.) ;
#805=EDGE_CURVE('',#787,#780,#804,.T.) ;
#824=EDGE_CURVE('',#433,#823,#821,.T.) ;
#831=EDGE_CURVE('',#823,#830,#828,.T.) ;
#836=EDGE_CURVE('',#431,#830,#835,.T.) ;
#848=EDGE_CURVE('',#830,#823,#847,.T.) ;
#867=EDGE_CURVE('',#451,#866,#864,.T.) ;
#874=EDGE_CURVE('',#866,#873,#871,.T.) ;
#879=EDGE_CURVE('',#449,#873,#878,.T.) ;
#891=EDGE_CURVE('',#873,#866,#890,.T.) ;
#910=EDGE_CURVE('',#469,#909,#907,.T.) ;
#917=EDGE_CURVE('',#909,#916,#914,.T.) ;
#922=EDGE_CURVE('',#467,#916,#921,.T.) ;
#934=EDGE_CURVE('',#916,#909,#933,.T.) ;
#953=EDGE_CURVE('',#487,#952,#950,.T.) ;
#960=EDGE_CURVE('',#952,#959,#957,.T.) ;
#965=EDGE_CURVE('',#485,#959,#964,.T.) ;
#977=EDGE_CURVE('',#959,#952,#976,.T.) ;
#996=EDGE_CURVE('',#505,#995,#993,.T.) ;
#1003=EDGE_CURVE('',#995,#1002,#1000,.T.) ;
#1008=EDGE_CURVE('',#503,#1002,#1007,.T.) ;
#1020=EDGE_CURVE('',#1002,#995,#1019,.T.) ;
#1039=EDGE_CURVE('',#523,#1038,#1036,.T.) ;
#1046=EDGE_CURVE('',#1038,#1045,#1043,.T.) ;
#1051=EDGE_CURVE('',#521,#1045,#1050,.T.) ;
#1063=EDGE_CURVE('',#1045,#1038,#1062,.T.) ;
#1082=EDGE_CURVE('',#577,#1081,#1079,.T.) ;
#1089=EDGE_CURVE('',#575,#1088,#1086,.T.) ;
#1094=EDGE_CURVE('',#1081,#1088,#1093,.T.) ;
#1106=EDGE_CURVE('',#1088,#1081,#1105,.T.) ;
#1125=EDGE_CURVE('',#595,#1124,#1122,.T.) ;
#1132=EDGE_CURVE('',#593,#1131,#1129,.T.) ;
#1137=EDGE_CURVE('',#1124,#1131,#1136,.T.) ;
#1149=EDGE_CURVE('',#1131,#1124,#1148,.T.) ;
#1168=EDGE_CURVE('',#613,#1167,#1165,.T.) ;
#1175=EDGE_CURVE('',#611,#1174,#1172,.T.) ;
#1180=EDGE_CURVE('',#1167,#1174,#1179,.T.) ;
#1192=EDGE_CURVE('',#1174,#1167,#1191,.T.) ;
#1211=EDGE_CURVE('',#631,#1210,#1208,.T.) ;
#1218=EDGE_CURVE('',#629,#1217,#1215,.T.) ;
#1223=EDGE_CURVE('',#1210,#1217,#1222,.T.) ;
#1235=EDGE_CURVE('',#1217,#1210,#1234,.T.) ;
#1254=EDGE_CURVE('',#649,#1253,#1251,.T.) ;
#1261=EDGE_CURVE('',#647,#1260,#1258,.T.) ;
#1266=EDGE_CURVE('',#1253,#1260,#1265,.T.) ;
#1278=EDGE_CURVE('',#1260,#1253,#1277,.T.) ;
#1297=EDGE_CURVE('',#667,#1296,#1294,.T.) ;
#1304=EDGE_CURVE('',#665,#1303,#1301,.T.) ;
#1309=EDGE_CURVE('',#1296,#1303,#1308,.T.) ;
#1321=EDGE_CURVE('',#1303,#1296,#1320,.T.) ;
#1340=EDGE_CURVE('',#685,#1339,#1337,.T.) ;
#1347=EDGE_CURVE('',#683,#1346,#1344,.T.) ;
#1352=EDGE_CURVE('',#1339,#1346,#1351,.T.) ;
#1364=EDGE_CURVE('',#1346,#1339,#1363,.T.) ;
#1383=EDGE_CURVE('',#703,#1382,#1380,.T.) ;
#1390=EDGE_CURVE('',#701,#1389,#1387,.T.) ;
#1395=EDGE_CURVE('',#1382,#1389,#1394,.T.) ;
#1407=EDGE_CURVE('',#1389,#1382,#1406,.T.) ;
#1509=EDGE_CURVE('',#1506,#1508,#1504,.T.) ;
#1514=EDGE_CURVE('',#1508,#1506,#1513,.T.) ;
#1532=EDGE_CURVE('',#1529,#1531,#1527,.T.) ;
#1537=EDGE_CURVE('',#1531,#1529,#1536,.T.) ;
#1555=EDGE_CURVE('',#1552,#1554,#1550,.T.) ;
#1560=EDGE_CURVE('',#1554,#1552,#1559,.T.) ;
#1579=EDGE_CURVE('',#1576,#1578,#1574,.F.) ;
#1584=EDGE_CURVE('',#1552,#1578,#1583,.F.) ;
#1589=EDGE_CURVE('',#1554,#1576,#1588,.F.) ;
#1610=EDGE_CURVE('',#1607,#1609,#1605,.F.) ;
#1615=EDGE_CURVE('',#1506,#1609,#1614,.F.) ;
#1620=EDGE_CURVE('',#1508,#1607,#1619,.F.) ;
#1632=EDGE_CURVE('',#1609,#1607,#1631,.F.) ;
#1653=EDGE_CURVE('',#1650,#1652,#1648,.F.) ;
#1658=EDGE_CURVE('',#1529,#1652,#1657,.F.) ;
#1663=EDGE_CURVE('',#1531,#1650,#1662,.F.) ;
#1675=EDGE_CURVE('',#1652,#1650,#1674,.F.) ;
#1687=EDGE_CURVE('',#1578,#1576,#1686,.F.) ;
#1712=EDGE_CURVE('',#1709,#1711,#1707,.F.) ;
#1717=EDGE_CURVE('',#1711,#1709,#1716,.F.) ;
#1730=EDGE_CURVE('',#1727,#1729,#1725,.F.) ;
#1735=EDGE_CURVE('',#1729,#1727,#1734,.F.) ;
#1748=EDGE_CURVE('',#1745,#1747,#1743,.F.) ;
#1753=EDGE_CURVE('',#1747,#1745,#1752,.F.) ;
#1770=EDGE_CURVE('',#1711,#1769,#1767,.F.) ;
#1777=EDGE_CURVE('',#1709,#1776,#1774,.F.) ;
#1782=EDGE_CURVE('',#1769,#1776,#1781,.T.) ;
#1794=EDGE_CURVE('',#1776,#1769,#1793,.T.) ;
#1827=EDGE_CURVE('',#1747,#1826,#1824,.F.) ;
#1834=EDGE_CURVE('',#1745,#1833,#1831,.F.) ;
#1839=EDGE_CURVE('',#1826,#1833,#1838,.T.) ;
#1851=EDGE_CURVE('',#1833,#1826,#1850,.T.) ;
#1879=EDGE_CURVE('',#1729,#1878,#1876,.F.) ;
#1886=EDGE_CURVE('',#1727,#1885,#1883,.F.) ;
#1891=EDGE_CURVE('',#1878,#1885,#1890,.T.) ;
#1903=EDGE_CURVE('',#1885,#1878,#1902,.T.) ;
#85=EDGE_LOOP('',(#86,#87,#88,#89)) ;
#102=EDGE_LOOP('',(#103,#104,#105,#106)) ;
#142=EDGE_LOOP('',(#143,#144,#145,#146)) ;
#159=EDGE_LOOP('',(#160,#161,#162,#163)) ;
#199=EDGE_LOOP('',(#200,#201,#202,#203)) ;
#216=EDGE_LOOP('',(#217,#218,#219,#220)) ;
#256=EDGE_LOOP('',(#257,#258,#259,#260)) ;
#273=EDGE_LOOP('',(#274,#275,#276,#277)) ;
#285=EDGE_LOOP('',(#286,#287)) ;
#317=EDGE_LOOP('',(#318,#319,#320,#321)) ;
#323=EDGE_LOOP('',(#324,#325)) ;
#327=EDGE_LOOP('',(#328,#329)) ;
#331=EDGE_LOOP('',(#332,#333)) ;
#360=EDGE_LOOP('',(#361,#362,#363,#364)) ;
#384=EDGE_LOOP('',(#385,#386,#387,#388)) ;
#404=EDGE_LOOP('',(#405,#406)) ;
#422=EDGE_LOOP('',(#423,#424)) ;
#440=EDGE_LOOP('',(#441,#442)) ;
#458=EDGE_LOOP('',(#459,#460)) ;
#476=EDGE_LOOP('',(#477,#478)) ;
#494=EDGE_LOOP('',(#495,#496)) ;
#512=EDGE_LOOP('',(#513,#514)) ;
#530=EDGE_LOOP('',(#531,#532)) ;
#547=EDGE_LOOP('',(#548,#549,#550,#551)) ;
#564=EDGE_LOOP('',(#565,#566,#567,#568)) ;
#584=EDGE_LOOP('',(#585,#586)) ;
#602=EDGE_LOOP('',(#603,#604)) ;
#620=EDGE_LOOP('',(#621,#622)) ;
#638=EDGE_LOOP('',(#639,#640)) ;
#656=EDGE_LOOP('',(#657,#658)) ;
#674=EDGE_LOOP('',(#675,#676)) ;
#692=EDGE_LOOP('',(#693,#694)) ;
#710=EDGE_LOOP('',(#711,#712)) ;
#720=EDGE_LOOP('',(#721,#722,#723,#724)) ;
#751=EDGE_LOOP('',(#752,#753,#754,#755)) ;
#763=EDGE_LOOP('',(#764,#765,#766,#767)) ;
#794=EDGE_LOOP('',(#795,#796,#797,#798)) ;
#806=EDGE_LOOP('',(#807,#808,#809,#810)) ;
#837=EDGE_LOOP('',(#838,#839,#840,#841)) ;
#849=EDGE_LOOP('',(#850,#851,#852,#853)) ;
#880=EDGE_LOOP('',(#881,#882,#883,#884)) ;
#892=EDGE_LOOP('',(#893,#894,#895,#896)) ;
#923=EDGE_LOOP('',(#924,#925,#926,#927)) ;
#935=EDGE_LOOP('',(#936,#937,#938,#939)) ;
#966=EDGE_LOOP('',(#967,#968,#969,#970)) ;
#978=EDGE_LOOP('',(#979,#980,#981,#982)) ;
#1009=EDGE_LOOP('',(#1010,#1011,#1012,#1013)) ;
#1021=EDGE_LOOP('',(#1022,#1023,#1024,#1025)) ;
#1052=EDGE_LOOP('',(#1053,#1054,#1055,#1056)) ;
#1064=EDGE_LOOP('',(#1065,#1066,#1067,#1068)) ;
#1095=EDGE_LOOP('',(#1096,#1097,#1098,#1099)) ;
#1107=EDGE_LOOP('',(#1108,#1109,#1110,#1111)) ;
#1138=EDGE_LOOP('',(#1139,#1140,#1141,#1142)) ;
#1150=EDGE_LOOP('',(#1151,#1152,#1153,#1154)) ;
#1181=EDGE_LOOP('',(#1182,#1183,#1184,#1185)) ;
#1193=EDGE_LOOP('',(#1194,#1195,#1196,#1197)) ;
#1224=EDGE_LOOP('',(#1225,#1226,#1227,#1228)) ;
#1236=EDGE_LOOP('',(#1237,#1238,#1239,#1240)) ;
#1267=EDGE_LOOP('',(#1268,#1269,#1270,#1271)) ;
#1279=EDGE_LOOP('',(#1280,#1281,#1282,#1283)) ;
#1310=EDGE_LOOP('',(#1311,#1312,#1313,#1314)) ;
#1322=EDGE_LOOP('',(#1323,#1324,#1325,#1326)) ;
#1353=EDGE_LOOP('',(#1354,#1355,#1356,#1357)) ;
#1365=EDGE_LOOP('',(#1366,#1367,#1368,#1369)) ;
#1396=EDGE_LOOP('',(#1397,#1398,#1399,#1400)) ;
#1408=EDGE_LOOP('',(#1409,#1410,#1411,#1412)) ;
#1420=EDGE_LOOP('',(#1421,#1422)) ;
#1424=EDGE_LOOP('',(#1425,#1426)) ;
#1429=EDGE_LOOP('',(#1430,#1431)) ;
#1433=EDGE_LOOP('',(#1434,#1435)) ;
#1438=EDGE_LOOP('',(#1439,#1440)) ;
#1442=EDGE_LOOP('',(#1443,#1444)) ;
#1447=EDGE_LOOP('',(#1448,#1449)) ;
#1451=EDGE_LOOP('',(#1452,#1453)) ;
#1456=EDGE_LOOP('',(#1457,#1458)) ;
#1460=EDGE_LOOP('',(#1461,#1462)) ;
#1465=EDGE_LOOP('',(#1466,#1467)) ;
#1469=EDGE_LOOP('',(#1470,#1471)) ;
#1474=EDGE_LOOP('',(#1475,#1476)) ;
#1478=EDGE_LOOP('',(#1479,#1480)) ;
#1483=EDGE_LOOP('',(#1484,#1485)) ;
#1487=EDGE_LOOP('',(#1488,#1489)) ;
#1497=EDGE_LOOP('',(#1498,#1499)) ;
#1515=EDGE_LOOP('',(#1516,#1517)) ;
#1520=EDGE_LOOP('',(#1521,#1522)) ;
#1538=EDGE_LOOP('',(#1539,#1540)) ;
#1543=EDGE_LOOP('',(#1544,#1545)) ;
#1561=EDGE_LOOP('',(#1562,#1563)) ;
#1590=EDGE_LOOP('',(#1591,#1592,#1593,#1594)) ;
#1621=EDGE_LOOP('',(#1622,#1623,#1624,#1625)) ;
#1633=EDGE_LOOP('',(#1634,#1635,#1636,#1637)) ;
#1664=EDGE_LOOP('',(#1665,#1666,#1667,#1668)) ;
#1676=EDGE_LOOP('',(#1677,#1678,#1679,#1680)) ;
#1688=EDGE_LOOP('',(#1689,#1690,#1691,#1692)) ;
#1700=EDGE_LOOP('',(#1701,#1702)) ;
#1718=EDGE_LOOP('',(#1719,#1720)) ;
#1736=EDGE_LOOP('',(#1737,#1738)) ;
#1754=EDGE_LOOP('',(#1755,#1756)) ;
#1783=EDGE_LOOP('',(#1784,#1785,#1786,#1787)) ;
#1795=EDGE_LOOP('',(#1796,#1797,#1798,#1799)) ;
#1807=EDGE_LOOP('',(#1808,#1809)) ;
#1811=EDGE_LOOP('',(#1812,#1813)) ;
#1840=EDGE_LOOP('',(#1841,#1842,#1843,#1844)) ;
#1852=EDGE_LOOP('',(#1853,#1854,#1855,#1856)) ;
#1859=EDGE_LOOP('',(#1860,#1861)) ;
#1863=EDGE_LOOP('',(#1864,#1865)) ;
#1892=EDGE_LOOP('',(#1893,#1894,#1895,#1896)) ;
#1904=EDGE_LOOP('',(#1905,#1906,#1907,#1908)) ;
#1911=EDGE_LOOP('',(#1912,#1913)) ;
#1915=EDGE_LOOP('',(#1916,#1917)) ;
#90=FACE_OUTER_BOUND('',#85,.T.) ;
#107=FACE_OUTER_BOUND('',#102,.T.) ;
#147=FACE_OUTER_BOUND('',#142,.T.) ;
#164=FACE_OUTER_BOUND('',#159,.T.) ;
#204=FACE_OUTER_BOUND('',#199,.T.) ;
#221=FACE_OUTER_BOUND('',#216,.T.) ;
#261=FACE_OUTER_BOUND('',#256,.T.) ;
#278=FACE_OUTER_BOUND('',#273,.T.) ;
#288=FACE_OUTER_BOUND('',#285,.T.) ;
#365=FACE_OUTER_BOUND('',#360,.T.) ;
#389=FACE_OUTER_BOUND('',#384,.T.) ;
#552=FACE_OUTER_BOUND('',#547,.T.) ;
#569=FACE_OUTER_BOUND('',#564,.T.) ;
#725=FACE_OUTER_BOUND('',#720,.T.) ;
#756=FACE_OUTER_BOUND('',#751,.T.) ;
#768=FACE_OUTER_BOUND('',#763,.T.) ;
#799=FACE_OUTER_BOUND('',#794,.T.) ;
#811=FACE_OUTER_BOUND('',#806,.T.) ;
#842=FACE_OUTER_BOUND('',#837,.T.) ;
#854=FACE_OUTER_BOUND('',#849,.T.) ;
#885=FACE_OUTER_BOUND('',#880,.T.) ;
#897=FACE_OUTER_BOUND('',#892,.T.) ;
#928=FACE_OUTER_BOUND('',#923,.T.) ;
#940=FACE_OUTER_BOUND('',#935,.T.) ;
#971=FACE_OUTER_BOUND('',#966,.T.) ;
#983=FACE_OUTER_BOUND('',#978,.T.) ;
#1014=FACE_OUTER_BOUND('',#1009,.T.) ;
#1026=FACE_OUTER_BOUND('',#1021,.T.) ;
#1057=FACE_OUTER_BOUND('',#1052,.T.) ;
#1069=FACE_OUTER_BOUND('',#1064,.T.) ;
#1100=FACE_OUTER_BOUND('',#1095,.T.) ;
#1112=FACE_OUTER_BOUND('',#1107,.T.) ;
#1143=FACE_OUTER_BOUND('',#1138,.T.) ;
#1155=FACE_OUTER_BOUND('',#1150,.T.) ;
#1186=FACE_OUTER_BOUND('',#1181,.T.) ;
#1198=FACE_OUTER_BOUND('',#1193,.T.) ;
#1229=FACE_OUTER_BOUND('',#1224,.T.) ;
#1241=FACE_OUTER_BOUND('',#1236,.T.) ;
#1272=FACE_OUTER_BOUND('',#1267,.T.) ;
#1284=FACE_OUTER_BOUND('',#1279,.T.) ;
#1315=FACE_OUTER_BOUND('',#1310,.T.) ;
#1327=FACE_OUTER_BOUND('',#1322,.T.) ;
#1358=FACE_OUTER_BOUND('',#1353,.T.) ;
#1370=FACE_OUTER_BOUND('',#1365,.T.) ;
#1401=FACE_OUTER_BOUND('',#1396,.T.) ;
#1413=FACE_OUTER_BOUND('',#1408,.T.) ;
#1423=FACE_OUTER_BOUND('',#1420,.T.) ;
#1432=FACE_OUTER_BOUND('',#1429,.T.) ;
#1441=FACE_OUTER_BOUND('',#1438,.T.) ;
#1450=FACE_OUTER_BOUND('',#1447,.T.) ;
#1459=FACE_OUTER_BOUND('',#1456,.T.) ;
#1468=FACE_OUTER_BOUND('',#1465,.T.) ;
#1477=FACE_OUTER_BOUND('',#1474,.T.) ;
#1486=FACE_OUTER_BOUND('',#1483,.T.) ;
#1500=FACE_OUTER_BOUND('',#1497,.T.) ;
#1523=FACE_OUTER_BOUND('',#1520,.T.) ;
#1546=FACE_OUTER_BOUND('',#1543,.T.) ;
#1595=FACE_OUTER_BOUND('',#1590,.T.) ;
#1626=FACE_OUTER_BOUND('',#1621,.T.) ;
#1638=FACE_OUTER_BOUND('',#1633,.T.) ;
#1669=FACE_OUTER_BOUND('',#1664,.T.) ;
#1681=FACE_OUTER_BOUND('',#1676,.T.) ;
#1693=FACE_OUTER_BOUND('',#1688,.T.) ;
#1703=FACE_OUTER_BOUND('',#1700,.T.) ;
#1788=FACE_OUTER_BOUND('',#1783,.T.) ;
#1800=FACE_OUTER_BOUND('',#1795,.T.) ;
#1810=FACE_OUTER_BOUND('',#1807,.T.) ;
#1845=FACE_OUTER_BOUND('',#1840,.T.) ;
#1857=FACE_OUTER_BOUND('',#1852,.T.) ;
#1862=FACE_OUTER_BOUND('',#1859,.T.) ;
#1897=FACE_OUTER_BOUND('',#1892,.T.) ;
#1909=FACE_OUTER_BOUND('',#1904,.T.) ;
#1914=FACE_OUTER_BOUND('',#1911,.T.) ;
#45=UNCERTAINTY_MEASURE_WITH_UNIT(LENGTH_MEASURE(0.005),#41,'distance_accuracy_value','CONFUSED CURVE UNCERTAINTY') ;
#60=LINE('Line',#57,#59) ;
#76=LINE('Line',#73,#75) ;
#117=LINE('Line',#114,#116) ;
#133=LINE('Line',#130,#132) ;
#174=LINE('Line',#171,#173) ;
#190=LINE('Line',#187,#189) ;
#231=LINE('Line',#228,#230) ;
#247=LINE('Line',#244,#246) ;
#301=LINE('Line',#298,#300) ;
#315=LINE('Line',#312,#314) ;
#344=LINE('Line',#341,#343) ;
#351=LINE('Line',#348,#350) ;
#375=LINE('Line',#372,#374) ;
#382=LINE('Line',#379,#381) ;
#538=LINE('Line',#535,#537) ;
#562=LINE('Line',#559,#561) ;
#735=LINE('Line',#732,#734) ;
#749=LINE('Line',#746,#748) ;
#778=LINE('Line',#775,#777) ;
#792=LINE('Line',#789,#791) ;
#821=LINE('Line',#818,#820) ;
#835=LINE('Line',#832,#834) ;
#864=LINE('Line',#861,#863) ;
#878=LINE('Line',#875,#877) ;
#907=LINE('Line',#904,#906) ;
#921=LINE('Line',#918,#920) ;
#950=LINE('Line',#947,#949) ;
#964=LINE('Line',#961,#963) ;
#993=LINE('Line',#990,#992) ;
#1007=LINE('Line',#1004,#1006) ;
#1036=LINE('Line',#1033,#1035) ;
#1050=LINE('Line',#1047,#1049) ;
#1079=LINE('Line',#1076,#1078) ;
#1086=LINE('Line',#1083,#1085) ;
#1122=LINE('Line',#1119,#1121) ;
#1129=LINE('Line',#1126,#1128) ;
#1165=LINE('Line',#1162,#1164) ;
#1172=LINE('Line',#1169,#1171) ;
#1208=LINE('Line',#1205,#1207) ;
#1215=LINE('Line',#1212,#1214) ;
#1251=LINE('Line',#1248,#1250) ;
#1258=LINE('Line',#1255,#1257) ;
#1294=LINE('Line',#1291,#1293) ;
#1301=LINE('Line',#1298,#1300) ;
#1337=LINE('Line',#1334,#1336) ;
#1344=LINE('Line',#1341,#1343) ;
#1380=LINE('Line',#1377,#1379) ;
#1387=LINE('Line',#1384,#1386) ;
#1583=LINE('Line',#1580,#1582) ;
#1588=LINE('Line',#1585,#1587) ;
#1614=LINE('Line',#1611,#1613) ;
#1619=LINE('Line',#1616,#1618) ;
#1657=LINE('Line',#1654,#1656) ;
#1662=LINE('Line',#1659,#1661) ;
#1767=LINE('Line',#1764,#1766) ;
#1774=LINE('Line',#1771,#1773) ;
#1824=LINE('Line',#1821,#1823) ;
#1831=LINE('Line',#1828,#1830) ;
#1876=LINE('Line',#1873,#1875) ;
#1883=LINE('Line',#1880,#1882) ;
#2=MECHANICAL_CONTEXT(' ',#1,'mechanical') ;
#24=PERSONAL_ADDRESS(' ',' ',' ',' ',' ',' ',' ',' ',' ',' ',' ',' ',(#22),' ') ;
#284=PLANE('',#283) ;
#371=PLANE('',#370) ;
#558=PLANE('',#557) ;
#719=PLANE('',#718) ;
#1419=PLANE('',#1418) ;
#1496=PLANE('',#1495) ;
#1699=PLANE('',#1698) ;
#1806=PLANE('',#1805) ;
#43=PLANE_ANGLE_MEASURE_WITH_UNIT(PLANE_ANGLE_MEASURE(0.0174532925199),#42) ;
#7=PRODUCT_CATEGORY('part',$) ;
#9=PRODUCT_CATEGORY_RELATIONSHIP(' ',' ',#7,#8) ;
#6=PRODUCT_DEFINITION_FORMATION_WITH_SPECIFIED_SOURCE('',' ',#5,.NOT_KNOWN.) ;
#8=PRODUCT_RELATED_PRODUCT_CATEGORY('detail',$,(#5)) ;
#50=SHAPE_DEFINITION_REPRESENTATION(#40,#49) ;
#62=VERTEX_POINT('',#61) ;
#64=VERTEX_POINT('',#63) ;
#71=VERTEX_POINT('',#70) ;
#78=VERTEX_POINT('',#77) ;
#119=VERTEX_POINT('',#118) ;
#121=VERTEX_POINT('',#120) ;
#128=VERTEX_POINT('',#127) ;
#135=VERTEX_POINT('',#134) ;
#176=VERTEX_POINT('',#175) ;
#178=VERTEX_POINT('',#177) ;
#185=VERTEX_POINT('',#184) ;
#192=VERTEX_POINT('',#191) ;
#233=VERTEX_POINT('',#232) ;
#235=VERTEX_POINT('',#234) ;
#242=VERTEX_POINT('',#241) ;
#249=VERTEX_POINT('',#248) ;
#294=VERTEX_POINT('',#293) ;
#296=VERTEX_POINT('',#295) ;
#303=VERTEX_POINT('',#302) ;
#310=VERTEX_POINT('',#309) ;
#346=VERTEX_POINT('',#345) ;
#353=VERTEX_POINT('',#352) ;
#377=VERTEX_POINT('',#376) ;
#395=VERTEX_POINT('',#394) ;
#397=VERTEX_POINT('',#396) ;
#413=VERTEX_POINT('',#412) ;
#415=VERTEX_POINT('',#414) ;
#431=VERTEX_POINT('',#430) ;
#433=VERTEX_POINT('',#432) ;
#449=VERTEX_POINT('',#448) ;
#451=VERTEX_POINT('',#450) ;
#467=VERTEX_POINT('',#466) ;
#469=VERTEX_POINT('',#468) ;
#485=VERTEX_POINT('',#484) ;
#487=VERTEX_POINT('',#486) ;
#503=VERTEX_POINT('',#502) ;
#505=VERTEX_POINT('',#504) ;
#521=VERTEX_POINT('',#520) ;
#523=VERTEX_POINT('',#522) ;
#540=VERTEX_POINT('',#539) ;
#575=VERTEX_POINT('',#574) ;
#577=VERTEX_POINT('',#576) ;
#593=VERTEX_POINT('',#592) ;
#595=VERTEX_POINT('',#594) ;
#611=VERTEX_POINT('',#610) ;
#613=VERTEX_POINT('',#612) ;
#629=VERTEX_POINT('',#628) ;
#631=VERTEX_POINT('',#630) ;
#647=VERTEX_POINT('',#646) ;
#649=VERTEX_POINT('',#648) ;
#665=VERTEX_POINT('',#664) ;
#667=VERTEX_POINT('',#666) ;
#683=VERTEX_POINT('',#682) ;
#685=VERTEX_POINT('',#684) ;
#701=VERTEX_POINT('',#700) ;
#703=VERTEX_POINT('',#702) ;
#737=VERTEX_POINT('',#736) ;
#744=VERTEX_POINT('',#743) ;
#780=VERTEX_POINT('',#779) ;
#787=VERTEX_POINT('',#786) ;
#823=VERTEX_POINT('',#822) ;
#830=VERTEX_POINT('',#829) ;
#866=VERTEX_POINT('',#865) ;
#873=VERTEX_POINT('',#872) ;
#909=VERTEX_POINT('',#908) ;
#916=VERTEX_POINT('',#915) ;
#952=VERTEX_POINT('',#951) ;
#959=VERTEX_POINT('',#958) ;
#995=VERTEX_POINT('',#994) ;
#1002=VERTEX_POINT('',#1001) ;
#1038=VERTEX_POINT('',#1037) ;
#1045=VERTEX_POINT('',#1044) ;
#1081=VERTEX_POINT('',#1080) ;
#1088=VERTEX_POINT('',#1087) ;
#1124=VERTEX_POINT('',#1123) ;
#1131=VERTEX_POINT('',#1130) ;
#1167=VERTEX_POINT('',#1166) ;
#1174=VERTEX_POINT('',#1173) ;
#1210=VERTEX_POINT('',#1209) ;
#1217=VERTEX_POINT('',#1216) ;
#1253=VERTEX_POINT('',#1252) ;
#1260=VERTEX_POINT('',#1259) ;
#1296=VERTEX_POINT('',#1295) ;
#1303=VERTEX_POINT('',#1302) ;
#1339=VERTEX_POINT('',#1338) ;
#1346=VERTEX_POINT('',#1345) ;
#1382=VERTEX_POINT('',#1381) ;
#1389=VERTEX_POINT('',#1388) ;
#1506=VERTEX_POINT('',#1505) ;
#1508=VERTEX_POINT('',#1507) ;
#1529=VERTEX_POINT('',#1528) ;
#1531=VERTEX_POINT('',#1530) ;
#1552=VERTEX_POINT('',#1551) ;
#1554=VERTEX_POINT('',#1553) ;
#1576=VERTEX_POINT('',#1575) ;
#1578=VERTEX_POINT('',#1577) ;
#1607=VERTEX_POINT('',#1606) ;
#1609=VERTEX_POINT('',#1608) ;
#1650=VERTEX_POINT('',#1649) ;
#1652=VERTEX_POINT('',#1651) ;
#1709=VERTEX_POINT('',#1708) ;
#1711=VERTEX_POINT('',#1710) ;
#1727=VERTEX_POINT('',#1726) ;
#1729=VERTEX_POINT('',#1728) ;
#1745=VERTEX_POINT('',#1744) ;
#1747=VERTEX_POINT('',#1746) ;
#1769=VERTEX_POINT('',#1768) ;
#1776=VERTEX_POINT('',#1775) ;
#1826=VERTEX_POINT('',#1825) ;
#1833=VERTEX_POINT('',#1832) ;
#1878=VERTEX_POINT('',#1877) ;
#1885=VERTEX_POINT('',#1884) ;
#41=(LENGTH_UNIT()NAMED_UNIT(*)SI_UNIT(.MILLI.,.METRE.)) ;
#42=(NAMED_UNIT(*)PLANE_ANGLE_UNIT()SI_UNIT($,.RADIAN.)) ;
#44=(NAMED_UNIT(*)SI_UNIT($,.STERADIAN.)SOLID_ANGLE_UNIT()) ;
#46=(GEOMETRIC_REPRESENTATION_CONTEXT(3)GLOBAL_UNCERTAINTY_ASSIGNED_CONTEXT((#45))GLOBAL_UNIT_ASSIGNED_CONTEXT((#41,#42,#44))REPRESENTATION_CONTEXT(' ',' ')) ;
ENDSEC;
END-ISO-10303-21;
