ISO-10303-21;
HEADER;
FILE_DESCRIPTION(('CATIA V5 STEP Exchange'),'2;1');

FILE_NAME('C:\\Users\\user\\OneDrive\\\X2\BC14D0D5\X0\ \X2\D654BA74\X0\\\rover\\gps_housing\\housing_upper.stp','2026-07-22T19:17:28+00:00',('none'),('none'),'CATIA Version 5 Release 21 GA (IN-10)','CATIA V5 STEP AP203','none');

FILE_SCHEMA(('CONFIG_CONTROL_DESIGN'));

ENDSEC;
/* file written by CATIA V5R21 */
DATA;
#5=PRODUCT('housing_upper','','',(#2)) ;
#1=APPLICATION_CONTEXT('configuration controlled 3D design of mechanical parts and assemblies') ;
#14=PRODUCT_DEFINITION('',' ',#6,#3) ;
#16=SECURITY_CLASSIFICATION(' ',' ',#15) ;
#15=SECURITY_CLASSIFICATION_LEVEL('unclassified') ;
#47=CARTESIAN_POINT(' ',(0.,0.,0.)) ;
#52=CARTESIAN_POINT('Axis2P3D Location',(-25.9807621135,-15.,-107.)) ;
#57=CARTESIAN_POINT('Line Origine',(-21.4807621135,-15.,-107.)) ;
#61=CARTESIAN_POINT('Vertex',(-21.4807621135,-15.,-108.5)) ;
#63=CARTESIAN_POINT('Vertex',(-21.4807621135,-15.,-105.5)) ;
#66=CARTESIAN_POINT('Axis2P3D Location',(-25.9807621135,-15.,-108.5)) ;
#70=CARTESIAN_POINT('Vertex',(-28.2307621135,-11.102885683,-108.5)) ;
#73=CARTESIAN_POINT('Axis2P3D Location',(-25.9807621135,-15.,-108.5)) ;
#77=CARTESIAN_POINT('Vertex',(-30.4807621135,-15.,-108.5)) ;
#80=CARTESIAN_POINT('Line Origine',(-30.4807621135,-15.,-107.)) ;
#84=CARTESIAN_POINT('Vertex',(-30.4807621135,-15.,-105.5)) ;
#87=CARTESIAN_POINT('Axis2P3D Location',(-25.9807621135,-15.,-105.5)) ;
#100=CARTESIAN_POINT('Axis2P3D Location',(-25.9807621135,-15.,-108.5)) ;
#104=CARTESIAN_POINT('Vertex',(-23.7307621135,-18.897114317,-108.5)) ;
#107=CARTESIAN_POINT('Axis2P3D Location',(-25.9807621135,-15.,-108.5)) ;
#112=CARTESIAN_POINT('Axis2P3D Location',(-25.9807621135,-15.,-105.5)) ;
#125=CARTESIAN_POINT('Axis2P3D Location',(0.,0.,-105.5)) ;
#134=CARTESIAN_POINT('Line Origine',(-25.9807621135,-17.75,-105.5)) ;
#138=CARTESIAN_POINT('Vertex',(-27.5684753538,-17.75,-105.5)) ;
#140=CARTESIAN_POINT('Vertex',(-24.3930488733,-17.75,-105.5)) ;
#143=CARTESIAN_POINT('Line Origine',(-28.3623319739,-16.375,-105.5)) ;
#147=CARTESIAN_POINT('Vertex',(-29.1561885941,-15.,-105.5)) ;
#150=CARTESIAN_POINT('Line Origine',(-28.3623319739,-13.625,-105.5)) ;
#154=CARTESIAN_POINT('Vertex',(-27.5684753538,-12.25,-105.5)) ;
#157=CARTESIAN_POINT('Line Origine',(-25.9807621135,-12.25,-105.5)) ;
#161=CARTESIAN_POINT('Vertex',(-24.3930488733,-12.25,-105.5)) ;
#164=CARTESIAN_POINT('Line Origine',(-23.5991922531,-13.625,-105.5)) ;
#168=CARTESIAN_POINT('Vertex',(-22.805335633,-15.,-105.5)) ;
#171=CARTESIAN_POINT('Line Origine',(-23.5991922531,-16.375,-105.5)) ;
#185=CARTESIAN_POINT('Axis2P3D Location',(-27.5684753538,-17.75,-108.5)) ;
#190=CARTESIAN_POINT('Line Origine',(-24.3930488733,-17.75,-107.)) ;
#194=CARTESIAN_POINT('Vertex',(-24.3930488733,-17.75,-108.5)) ;
#197=CARTESIAN_POINT('Line Origine',(-25.9807621135,-17.75,-108.5)) ;
#201=CARTESIAN_POINT('Vertex',(-27.5684753538,-17.75,-108.5)) ;
#204=CARTESIAN_POINT('Line Origine',(-27.5684753538,-17.75,-107.)) ;
#216=CARTESIAN_POINT('Axis2P3D Location',(-29.1561885941,-15.,-108.5)) ;
#221=CARTESIAN_POINT('Line Origine',(-28.3623319739,-16.375,-108.5)) ;
#225=CARTESIAN_POINT('Vertex',(-29.1561885941,-15.,-108.5)) ;
#228=CARTESIAN_POINT('Line Origine',(-29.1561885941,-15.,-107.)) ;
#240=CARTESIAN_POINT('Axis2P3D Location',(-27.5684753538,-12.25,-108.5)) ;
#245=CARTESIAN_POINT('Line Origine',(-28.3623319739,-13.625,-108.5)) ;
#249=CARTESIAN_POINT('Vertex',(-27.5684753538,-12.25,-108.5)) ;
#252=CARTESIAN_POINT('Line Origine',(-27.5684753538,-12.25,-107.)) ;
#264=CARTESIAN_POINT('Axis2P3D Location',(-24.3930488733,-12.25,-108.5)) ;
#269=CARTESIAN_POINT('Line Origine',(-25.9807621135,-12.25,-108.5)) ;
#273=CARTESIAN_POINT('Vertex',(-24.3930488733,-12.25,-108.5)) ;
#276=CARTESIAN_POINT('Line Origine',(-24.3930488733,-12.25,-107.)) ;
#288=CARTESIAN_POINT('Axis2P3D Location',(-22.805335633,-15.,-108.5)) ;
#293=CARTESIAN_POINT('Line Origine',(-23.5991922531,-13.625,-108.5)) ;
#297=CARTESIAN_POINT('Vertex',(-22.805335633,-15.,-108.5)) ;
#300=CARTESIAN_POINT('Line Origine',(-22.805335633,-15.,-107.)) ;
#312=CARTESIAN_POINT('Axis2P3D Location',(-24.3930488733,-17.75,-108.5)) ;
#317=CARTESIAN_POINT('Line Origine',(-23.5991922531,-16.375,-108.5)) ;
#329=CARTESIAN_POINT('Axis2P3D Location',(-4.75952610657E-013,30.,-107.)) ;
#334=CARTESIAN_POINT('Line Origine',(4.5,30.,-107.)) ;
#338=CARTESIAN_POINT('Vertex',(4.5,30.,-108.5)) ;
#340=CARTESIAN_POINT('Vertex',(4.5,30.,-105.5)) ;
#343=CARTESIAN_POINT('Axis2P3D Location',(-4.75952610657E-013,30.,-108.5)) ;
#347=CARTESIAN_POINT('Vertex',(-4.5,30.,-108.5)) ;
#350=CARTESIAN_POINT('Line Origine',(-4.5,30.,-107.)) ;
#354=CARTESIAN_POINT('Vertex',(-4.5,30.,-105.5)) ;
#357=CARTESIAN_POINT('Axis2P3D Location',(-4.75952610657E-013,30.,-105.5)) ;
#369=CARTESIAN_POINT('Axis2P3D Location',(-4.75952610657E-013,30.,-105.5)) ;
#378=CARTESIAN_POINT('Line Origine',(4.21884749358E-015,27.25,-105.5)) ;
#382=CARTESIAN_POINT('Vertex',(-1.58771324027,27.25,-105.5)) ;
#384=CARTESIAN_POINT('Vertex',(1.58771324027,27.25,-105.5)) ;
#387=CARTESIAN_POINT('Line Origine',(-2.38156986041,28.625,-105.5)) ;
#391=CARTESIAN_POINT('Vertex',(-3.17542648054,30.,-105.5)) ;
#394=CARTESIAN_POINT('Line Origine',(-2.38156986041,31.375,-105.5)) ;
#398=CARTESIAN_POINT('Vertex',(-1.58771324027,32.75,-105.5)) ;
#401=CARTESIAN_POINT('Line Origine',(9.99200722163E-015,32.75,-105.5)) ;
#405=CARTESIAN_POINT('Vertex',(1.58771324027,32.75,-105.5)) ;
#408=CARTESIAN_POINT('Line Origine',(2.38156986041,31.375,-105.5)) ;
#412=CARTESIAN_POINT('Vertex',(3.17542648054,30.,-105.5)) ;
#415=CARTESIAN_POINT('Line Origine',(2.38156986041,28.625,-105.5)) ;
#429=CARTESIAN_POINT('Axis2P3D Location',(-1.58771324027,27.25,-108.5)) ;
#434=CARTESIAN_POINT('Line Origine',(1.58771324027,27.25,-107.)) ;
#438=CARTESIAN_POINT('Vertex',(1.58771324027,27.25,-108.5)) ;
#441=CARTESIAN_POINT('Line Origine',(4.66293670343E-015,27.25,-108.5)) ;
#445=CARTESIAN_POINT('Vertex',(-1.58771324027,27.25,-108.5)) ;
#448=CARTESIAN_POINT('Line Origine',(-1.58771324027,27.25,-107.)) ;
#460=CARTESIAN_POINT('Axis2P3D Location',(22.805335633,-15.,-108.5)) ;
#465=CARTESIAN_POINT('Line Origine',(-2.38156986041,28.625,-108.5)) ;
#469=CARTESIAN_POINT('Vertex',(-3.17542648054,30.,-108.5)) ;
#472=CARTESIAN_POINT('Line Origine',(-3.17542648054,30.,-107.)) ;
#484=CARTESIAN_POINT('Line Origine',(-2.38156986041,31.375,-108.5)) ;
#488=CARTESIAN_POINT('Vertex',(-1.58771324027,32.75,-108.5)) ;
#491=CARTESIAN_POINT('Line Origine',(-1.58771324027,32.75,-107.)) ;
#503=CARTESIAN_POINT('Axis2P3D Location',(1.58771324027,32.75,-108.5)) ;
#508=CARTESIAN_POINT('Line Origine',(1.02140518266E-014,32.75,-108.5)) ;
#512=CARTESIAN_POINT('Vertex',(1.58771324027,32.75,-108.5)) ;
#515=CARTESIAN_POINT('Line Origine',(1.58771324027,32.75,-107.)) ;
#527=CARTESIAN_POINT('Axis2P3D Location',(29.1561885941,-15.,-108.5)) ;
#532=CARTESIAN_POINT('Line Origine',(2.38156986041,31.375,-108.5)) ;
#536=CARTESIAN_POINT('Vertex',(3.17542648054,30.,-108.5)) ;
#539=CARTESIAN_POINT('Line Origine',(3.17542648054,30.,-107.)) ;
#551=CARTESIAN_POINT('Line Origine',(2.38156986041,28.625,-108.5)) ;
#563=CARTESIAN_POINT('Axis2P3D Location',(25.9807621135,-15.,-107.)) ;
#568=CARTESIAN_POINT('Line Origine',(30.4807621135,-15.,-107.)) ;
#572=CARTESIAN_POINT('Vertex',(30.4807621135,-15.,-108.5)) ;
#574=CARTESIAN_POINT('Vertex',(30.4807621135,-15.,-105.5)) ;
#577=CARTESIAN_POINT('Axis2P3D Location',(25.9807621135,-15.,-108.5)) ;
#581=CARTESIAN_POINT('Vertex',(28.2307621135,-11.102885683,-108.5)) ;
#584=CARTESIAN_POINT('Axis2P3D Location',(25.9807621135,-15.,-108.5)) ;
#588=CARTESIAN_POINT('Vertex',(21.4807621135,-15.,-108.5)) ;
#591=CARTESIAN_POINT('Line Origine',(21.4807621135,-15.,-107.)) ;
#595=CARTESIAN_POINT('Vertex',(21.4807621135,-15.,-105.5)) ;
#598=CARTESIAN_POINT('Axis2P3D Location',(25.9807621135,-15.,-105.5)) ;
#611=CARTESIAN_POINT('Axis2P3D Location',(25.9807621135,-15.,-105.5)) ;
#620=CARTESIAN_POINT('Line Origine',(23.5991922531,-13.625,-105.5)) ;
#624=CARTESIAN_POINT('Vertex',(24.3930488733,-12.25,-105.5)) ;
#626=CARTESIAN_POINT('Vertex',(22.805335633,-15.,-105.5)) ;
#629=CARTESIAN_POINT('Line Origine',(25.9807621135,-12.25,-105.5)) ;
#633=CARTESIAN_POINT('Vertex',(27.5684753538,-12.25,-105.5)) ;
#636=CARTESIAN_POINT('Line Origine',(28.3623319739,-13.625,-105.5)) ;
#640=CARTESIAN_POINT('Vertex',(29.1561885941,-15.,-105.5)) ;
#643=CARTESIAN_POINT('Line Origine',(28.3623319739,-16.375,-105.5)) ;
#647=CARTESIAN_POINT('Vertex',(27.5684753538,-17.75,-105.5)) ;
#650=CARTESIAN_POINT('Line Origine',(25.9807621135,-17.75,-105.5)) ;
#654=CARTESIAN_POINT('Vertex',(24.3930488733,-17.75,-105.5)) ;
#657=CARTESIAN_POINT('Line Origine',(23.5991922531,-16.375,-105.5)) ;
#671=CARTESIAN_POINT('Axis2P3D Location',(24.3930488733,-12.25,-108.5)) ;
#676=CARTESIAN_POINT('Line Origine',(22.805335633,-15.,-107.)) ;
#680=CARTESIAN_POINT('Vertex',(22.805335633,-15.,-108.5)) ;
#683=CARTESIAN_POINT('Line Origine',(23.5991922531,-13.625,-108.5)) ;
#687=CARTESIAN_POINT('Vertex',(24.3930488733,-12.25,-108.5)) ;
#690=CARTESIAN_POINT('Line Origine',(24.3930488733,-12.25,-107.)) ;
#702=CARTESIAN_POINT('Line Origine',(25.9807621135,-12.25,-108.5)) ;
#706=CARTESIAN_POINT('Vertex',(27.5684753538,-12.25,-108.5)) ;
#709=CARTESIAN_POINT('Line Origine',(27.5684753538,-12.25,-107.)) ;
#721=CARTESIAN_POINT('Line Origine',(28.3623319739,-13.625,-108.5)) ;
#725=CARTESIAN_POINT('Vertex',(29.1561885941,-15.,-108.5)) ;
#728=CARTESIAN_POINT('Line Origine',(29.1561885941,-15.,-107.)) ;
#740=CARTESIAN_POINT('Axis2P3D Location',(27.5684753538,-17.75,-108.5)) ;
#745=CARTESIAN_POINT('Line Origine',(28.3623319739,-16.375,-108.5)) ;
#749=CARTESIAN_POINT('Vertex',(27.5684753538,-17.75,-108.5)) ;
#752=CARTESIAN_POINT('Line Origine',(27.5684753538,-17.75,-107.)) ;
#764=CARTESIAN_POINT('Line Origine',(25.9807621135,-17.75,-108.5)) ;
#768=CARTESIAN_POINT('Vertex',(24.3930488733,-17.75,-108.5)) ;
#771=CARTESIAN_POINT('Line Origine',(24.3930488733,-17.75,-107.)) ;
#783=CARTESIAN_POINT('Line Origine',(23.5991922531,-16.375,-108.5)) ;
#795=CARTESIAN_POINT('Axis2P3D Location',(28.2307621135,-11.102885683,-110.5)) ;
#800=CARTESIAN_POINT('Line Origine',(32.745901364,-13.7097025446,-109.5)) ;
#804=CARTESIAN_POINT('Vertex',(32.745901364,-13.7097025446,-110.5)) ;
#806=CARTESIAN_POINT('Vertex',(32.745901364,-13.7097025446,-108.5)) ;
#809=CARTESIAN_POINT('Line Origine',(30.4883317387,-12.4062941138,-110.5)) ;
#813=CARTESIAN_POINT('Vertex',(28.2307621135,-11.102885683,-110.5)) ;
#816=CARTESIAN_POINT('Line Origine',(28.2307621135,-11.102885683,-109.5)) ;
#821=CARTESIAN_POINT('Line Origine',(30.4883317387,-12.4062941138,-108.5)) ;
#833=CARTESIAN_POINT('Axis2P3D Location',(23.7307621135,-18.897114317,-110.5)) ;
#838=CARTESIAN_POINT('Line Origine',(23.7307621135,-18.897114317,-109.5)) ;
#842=CARTESIAN_POINT('Vertex',(23.7307621135,-18.897114317,-110.5)) ;
#844=CARTESIAN_POINT('Vertex',(23.7307621135,-18.897114317,-108.5)) ;
#847=CARTESIAN_POINT('Line Origine',(25.9883317387,-20.2005227479,-110.5)) ;
#851=CARTESIAN_POINT('Vertex',(28.245901364,-21.5039311787,-110.5)) ;
#854=CARTESIAN_POINT('Line Origine',(28.245901364,-21.5039311787,-109.5)) ;
#858=CARTESIAN_POINT('Vertex',(28.245901364,-21.5039311787,-108.5)) ;
#861=CARTESIAN_POINT('Line Origine',(25.9883317387,-20.2005227479,-108.5)) ;
#873=CARTESIAN_POINT('Axis2P3D Location',(0.,0.,-108.5)) ;
#878=CARTESIAN_POINT('Axis2P3D Location',(0.,0.,-108.5)) ;
#883=CARTESIAN_POINT('Axis2P3D Location',(25.9807621135,-15.,-108.5)) ;
#896=CARTESIAN_POINT('Axis2P3D Location',(0.,0.,-56.25)) ;
#901=CARTESIAN_POINT('Line Origine',(1.8,-35.4543368292,-56.25)) ;
#905=CARTESIAN_POINT('Vertex',(1.8,-35.4543368292,-112.5)) ;
#907=CARTESIAN_POINT('Vertex',(1.8,-35.4543368292,-110.5)) ;
#911=CARTESIAN_POINT('Control Point',(-1.8,-35.4543368292,-110.5)) ;
#912=CARTESIAN_POINT('Control Point',(-1.8,-35.4543368292,-110.03932958)) ;
#913=CARTESIAN_POINT('Control Point',(-1.65262691937,-35.4618188912,-109.578662061)) ;
#914=CARTESIAN_POINT('Control Point',(-1.35707626935,-35.4771414551,-109.181605827)) ;
#915=CARTESIAN_POINT('Control Point',(-0.758229375753,-35.4961605943,-108.771028311)) ;
#916=CARTESIAN_POINT('Control Point',(-0.0637657024093,-35.5011120763,-108.678625978)) ;
#917=CARTESIAN_POINT('Control Point',(0.171307110875,-35.5007396467,-108.685579964)) ;
#918=CARTESIAN_POINT('Control Point',(0.837912875647,-35.4939452475,-108.814762388)) ;
#919=CARTESIAN_POINT('Control Point',(1.397173118,-35.4750556236,-109.236977368)) ;
#920=CARTESIAN_POINT('Control Point',(1.66593253178,-35.4611433715,-109.621237246)) ;
#921=CARTESIAN_POINT('Control Point',(1.8,-35.4543368292,-110.060617303)) ;
#922=CARTESIAN_POINT('Control Point',(1.8,-35.4543368292,-110.5)) ;
#923=CARTESIAN_POINT('Vertex',(-1.8,-35.4543368292,-110.5)) ;
#926=CARTESIAN_POINT('Line Origine',(-1.8,-35.4543368292,-56.25)) ;
#930=CARTESIAN_POINT('Vertex',(-1.8,-35.4543368292,-112.5)) ;
#933=CARTESIAN_POINT('Axis2P3D Location',(0.,0.,-112.5)) ;
#937=CARTESIAN_POINT('Vertex',(-35.5,-4.34735255607E-015,-112.5)) ;
#940=CARTESIAN_POINT('Line Origine',(-35.5,-4.34735255607E-015,-56.25)) ;
#944=CARTESIAN_POINT('Vertex',(-35.5,-4.34735255607E-015,0.)) ;
#947=CARTESIAN_POINT('Axis2P3D Location',(0.,0.,0.)) ;
#951=CARTESIAN_POINT('Vertex',(35.5,8.69470511214E-015,0.)) ;
#954=CARTESIAN_POINT('Line Origine',(35.5,0.,-56.25)) ;
#958=CARTESIAN_POINT('Vertex',(35.5,0.,-112.5)) ;
#961=CARTESIAN_POINT('Axis2P3D Location',(0.,0.,-112.5)) ;
#976=CARTESIAN_POINT('Axis2P3D Location',(0.,0.,-110.5)) ;
#987=CARTESIAN_POINT('Axis2P3D Location',(0.,0.,-108.5)) ;
#991=CARTESIAN_POINT('Vertex',(-32.745901364,-13.7097025446,-108.5)) ;
#993=CARTESIAN_POINT('Vertex',(-28.245901364,-21.5039311787,-108.5)) ;
#996=CARTESIAN_POINT('Line Origine',(-32.745901364,-13.7097025446,-56.25)) ;
#1000=CARTESIAN_POINT('Vertex',(-32.745901364,-13.7097025446,-110.5)) ;
#1003=CARTESIAN_POINT('Axis2P3D Location',(0.,0.,-110.5)) ;
#1007=CARTESIAN_POINT('Vertex',(-28.245901364,-21.5039311787,-110.5)) ;
#1010=CARTESIAN_POINT('Line Origine',(-28.245901364,-21.5039311787,-56.25)) ;
#1022=CARTESIAN_POINT('Axis2P3D Location',(25.9807621135,-15.,-109.5)) ;
#1027=CARTESIAN_POINT('Axis2P3D Location',(25.9807621135,-15.,-108.5)) ;
#1031=CARTESIAN_POINT('Vertex',(24.5807621135,-15.,-108.5)) ;
#1033=CARTESIAN_POINT('Vertex',(27.3807621135,-15.,-108.5)) ;
#1036=CARTESIAN_POINT('Line Origine',(27.3807621135,-15.,-109.5)) ;
#1040=CARTESIAN_POINT('Vertex',(27.3807621135,-15.,-110.5)) ;
#1043=CARTESIAN_POINT('Axis2P3D Location',(25.9807621135,-15.,-110.5)) ;
#1047=CARTESIAN_POINT('Vertex',(24.5807621135,-15.,-110.5)) ;
#1050=CARTESIAN_POINT('Line Origine',(24.5807621135,-15.,-109.5)) ;
#1062=CARTESIAN_POINT('Axis2P3D Location',(25.9807621135,-15.,-108.5)) ;
#1067=CARTESIAN_POINT('Axis2P3D Location',(25.9807621135,-15.,-110.5)) ;
#1079=CARTESIAN_POINT('Axis2P3D Location',(0.,0.,-112.5)) ;
#1084=CARTESIAN_POINT('Axis2P3D Location',(0.,0.,-112.5)) ;
#1088=CARTESIAN_POINT('Vertex',(-1.8,-37.9573444804,-112.5)) ;
#1090=CARTESIAN_POINT('Vertex',(-38.,-4.65350414453E-015,-112.5)) ;
#1093=CARTESIAN_POINT('Axis2P3D Location',(0.,0.,-112.5)) ;
#1097=CARTESIAN_POINT('Vertex',(38.,0.,-112.5)) ;
#1100=CARTESIAN_POINT('Axis2P3D Location',(0.,0.,-112.5)) ;
#1104=CARTESIAN_POINT('Vertex',(1.8,-37.9573444804,-112.5)) ;
#1107=CARTESIAN_POINT('Line Origine',(1.8,-36.7058406548,-112.5)) ;
#1112=CARTESIAN_POINT('Axis2P3D Location',(0.,0.,-112.5)) ;
#1117=CARTESIAN_POINT('Line Origine',(-1.8,-36.7058406548,-112.5)) ;
#1133=CARTESIAN_POINT('Axis2P3D Location',(0.,0.,0.)) ;
#1144=CARTESIAN_POINT('Axis2P3D Location',(0.,0.,-108.5)) ;
#1148=CARTESIAN_POINT('Vertex',(4.5,35.2136337233,-108.5)) ;
#1150=CARTESIAN_POINT('Vertex',(-4.5,35.2136337233,-108.5)) ;
#1153=CARTESIAN_POINT('Line Origine',(4.5,35.2136337233,-56.25)) ;
#1157=CARTESIAN_POINT('Vertex',(4.5,35.2136337233,-110.5)) ;
#1160=CARTESIAN_POINT('Axis2P3D Location',(0.,0.,-110.5)) ;
#1164=CARTESIAN_POINT('Vertex',(-4.5,35.2136337233,-110.5)) ;
#1167=CARTESIAN_POINT('Line Origine',(-4.5,35.2136337233,-56.25)) ;
#1179=CARTESIAN_POINT('Axis2P3D Location',(0.,0.,0.)) ;
#1188=CARTESIAN_POINT('Axis2P3D Location',(-4.4408920985E-016,-2.22044604925E-016,0.)) ;
#1192=CARTESIAN_POINT('Vertex',(-3.5,4.28612223838E-016,0.)) ;
#1194=CARTESIAN_POINT('Vertex',(3.5,0.,0.)) ;
#1197=CARTESIAN_POINT('Axis2P3D Location',(-4.4408920985E-016,0.,0.)) ;
#1207=CARTESIAN_POINT('Axis2P3D Location',(-1.8,-38.,-110.5)) ;
#1212=CARTESIAN_POINT('Line Origine',(-1.8,-37.9573444804,-111.5)) ;
#1216=CARTESIAN_POINT('Vertex',(-1.8,-37.9573444804,-110.5)) ;
#1219=CARTESIAN_POINT('Line Origine',(-1.8,-36.7058406548,-110.5)) ;
#1231=CARTESIAN_POINT('Axis2P3D Location',(2.92631180789E-014,-35.5,-110.5)) ;
#1236=CARTESIAN_POINT('Line Origine',(1.8,-35.5,-110.5)) ;
#1240=CARTESIAN_POINT('Vertex',(1.8,-37.9573444804,-110.5)) ;
#1244=CARTESIAN_POINT('Control Point',(1.8,-37.9573444804,-110.5)) ;
#1245=CARTESIAN_POINT('Control Point',(1.8,-37.9573444804,-109.934449086)) ;
#1246=CARTESIAN_POINT('Control Point',(1.57843586348,-37.9677744632,-109.368360629)) ;
#1247=CARTESIAN_POINT('Control Point',(1.1316145967,-37.9895901717,-108.921585905)) ;
#1248=CARTESIAN_POINT('Control Point',(0.565569207539,-37.9999980409,-108.699999609)) ;
#1249=CARTESIAN_POINT('Control Point',(-1.24446945441E-006,-37.9999980409,-108.7)) ;
#1250=CARTESIAN_POINT('Vertex',(-1.24446945416E-006,-38.,-108.7)) ;
#1254=CARTESIAN_POINT('Control Point',(-1.24446945406E-006,-37.9999980409,-108.7)) ;
#1255=CARTESIAN_POINT('Control Point',(-0.565571621989,-37.9999980409,-108.700000391)) ;
#1256=CARTESIAN_POINT('Control Point',(-1.13161660409,-37.9895901142,-108.921586077)) ;
#1257=CARTESIAN_POINT('Control Point',(-1.5784376383,-37.9677744323,-109.368365756)) ;
#1258=CARTESIAN_POINT('Control Point',(-1.8,-37.9573444804,-109.934449161)) ;
#1259=CARTESIAN_POINT('Control Point',(-1.8,-37.9573444804,-110.5)) ;
#1269=CARTESIAN_POINT('Axis2P3D Location',(1.8,-38.,-112.5)) ;
#1274=CARTESIAN_POINT('Line Origine',(1.8,-37.9573444804,-111.5)) ;
#1286=CARTESIAN_POINT('Axis2P3D Location',(-23.7307621135,-18.897114317,-110.5)) ;
#1291=CARTESIAN_POINT('Line Origine',(-25.9883317387,-20.2005227479,-110.5)) ;
#1295=CARTESIAN_POINT('Vertex',(-23.7307621135,-18.897114317,-110.5)) ;
#1298=CARTESIAN_POINT('Line Origine',(-23.7307621135,-18.897114317,-109.5)) ;
#1303=CARTESIAN_POINT('Line Origine',(-25.9883317387,-20.2005227479,-108.5)) ;
#1315=CARTESIAN_POINT('Axis2P3D Location',(0.,0.,-110.5)) ;
#1320=CARTESIAN_POINT('Line Origine',(-30.4883317387,-12.4062941138,-110.5)) ;
#1324=CARTESIAN_POINT('Vertex',(-28.2307621135,-11.102885683,-110.5)) ;
#1327=CARTESIAN_POINT('Axis2P3D Location',(-25.9807621135,-15.,-110.5)) ;
#1338=CARTESIAN_POINT('Axis2P3D Location',(-25.9807621135,-15.,-110.5)) ;
#1342=CARTESIAN_POINT('Vertex',(-24.5807621135,-15.,-110.5)) ;
#1344=CARTESIAN_POINT('Vertex',(-27.3807621135,-15.,-110.5)) ;
#1347=CARTESIAN_POINT('Axis2P3D Location',(-25.9807621135,-15.,-110.5)) ;
#1357=CARTESIAN_POINT('Axis2P3D Location',(-28.2307621135,-11.102885683,-110.5)) ;
#1362=CARTESIAN_POINT('Line Origine',(-28.2307621135,-11.102885683,-109.5)) ;
#1367=CARTESIAN_POINT('Line Origine',(-30.4883317387,-12.4062941138,-108.5)) ;
#1400=CARTESIAN_POINT('Axis2P3D Location',(0.,0.,-56.25)) ;
#1405=CARTESIAN_POINT('Line Origine',(38.,-2.84217094304E-014,-56.25)) ;
#1409=CARTESIAN_POINT('Vertex',(38.,9.30700828905E-015,2.)) ;
#1412=CARTESIAN_POINT('Axis2P3D Location',(0.,0.,2.)) ;
#1416=CARTESIAN_POINT('Vertex',(-38.,-4.65350414453E-015,2.)) ;
#1419=CARTESIAN_POINT('Line Origine',(-38.,-4.65350414453E-015,-56.25)) ;
#1436=CARTESIAN_POINT('Axis2P3D Location',(0.,0.,2.)) ;
#1448=CARTESIAN_POINT('Axis2P3D Location',(-4.5,30.,-110.5)) ;
#1453=CARTESIAN_POINT('Line Origine',(-4.5,32.6068168617,-110.5)) ;
#1457=CARTESIAN_POINT('Vertex',(-4.5,30.,-110.5)) ;
#1460=CARTESIAN_POINT('Line Origine',(-4.5,30.,-109.5)) ;
#1465=CARTESIAN_POINT('Line Origine',(-4.5,32.6068168617,-108.5)) ;
#1477=CARTESIAN_POINT('Axis2P3D Location',(4.5,30.,-110.5)) ;
#1482=CARTESIAN_POINT('Line Origine',(4.5,30.,-109.5)) ;
#1486=CARTESIAN_POINT('Vertex',(4.5,30.,-110.5)) ;
#1489=CARTESIAN_POINT('Line Origine',(4.5,32.6068168617,-110.5)) ;
#1494=CARTESIAN_POINT('Line Origine',(4.5,32.6068168617,-108.5)) ;
#1513=CARTESIAN_POINT('Axis2P3D Location',(0.,0.,-0.25)) ;
#1518=CARTESIAN_POINT('Line Origine',(3.5,0.,-0.25)) ;
#1522=CARTESIAN_POINT('Vertex',(3.5,0.,2.)) ;
#1525=CARTESIAN_POINT('Axis2P3D Location',(0.,0.,2.)) ;
#1529=CARTESIAN_POINT('Vertex',(-3.5,4.28612223838E-016,2.)) ;
#1532=CARTESIAN_POINT('Line Origine',(-3.5,4.28612223838E-016,-0.25)) ;
#1544=CARTESIAN_POINT('Axis2P3D Location',(0.,0.,2.)) ;
#1556=CARTESIAN_POINT('Axis2P3D Location',(-25.9807621135,-15.,-109.5)) ;
#1569=CARTESIAN_POINT('Axis2P3D Location',(-25.9807621135,-15.,-109.5)) ;
#1574=CARTESIAN_POINT('Axis2P3D Location',(-25.9807621135,-15.,-108.5)) ;
#1578=CARTESIAN_POINT('Vertex',(-27.3807621135,-15.,-108.5)) ;
#1580=CARTESIAN_POINT('Vertex',(-24.5807621135,-15.,-108.5)) ;
#1583=CARTESIAN_POINT('Line Origine',(-24.5807621135,-15.,-109.5)) ;
#1588=CARTESIAN_POINT('Line Origine',(-27.3807621135,-15.,-109.5)) ;
#1600=CARTESIAN_POINT('Axis2P3D Location',(-25.9807621135,-15.,-108.5)) ;
#1612=CARTESIAN_POINT('Axis2P3D Location',(0.,0.,2.)) ;
#1621=CARTESIAN_POINT('Axis2P3D Location',(0.,0.,2.)) ;
#1625=CARTESIAN_POINT('Vertex',(17.5,0.,2.)) ;
#1627=CARTESIAN_POINT('Vertex',(-17.5,2.14306111919E-015,2.)) ;
#1630=CARTESIAN_POINT('Axis2P3D Location',(0.,0.,2.)) ;
#1640=CARTESIAN_POINT('Axis2P3D Location',(0.,30.,-109.5)) ;
#1645=CARTESIAN_POINT('Axis2P3D Location',(0.,30.,-108.5)) ;
#1649=CARTESIAN_POINT('Vertex',(-1.4,30.,-108.5)) ;
#1651=CARTESIAN_POINT('Vertex',(1.4,30.,-108.5)) ;
#1654=CARTESIAN_POINT('Line Origine',(1.4,30.,-109.5)) ;
#1658=CARTESIAN_POINT('Vertex',(1.4,30.,-110.5)) ;
#1661=CARTESIAN_POINT('Axis2P3D Location',(0.,30.,-110.5)) ;
#1665=CARTESIAN_POINT('Vertex',(-1.4,30.,-110.5)) ;
#1668=CARTESIAN_POINT('Line Origine',(-1.4,30.,-109.5)) ;
#1680=CARTESIAN_POINT('Axis2P3D Location',(0.,30.,-108.5)) ;
#1685=CARTESIAN_POINT('Axis2P3D Location',(0.,30.,-110.5)) ;
#1697=CARTESIAN_POINT('Axis2P3D Location',(0.,0.,2.)) ;
#1701=CARTESIAN_POINT('Vertex',(14.5,-3.55135842608E-015,2.)) ;
#1703=CARTESIAN_POINT('Vertex',(-14.5,1.77567921304E-015,2.)) ;
#1706=CARTESIAN_POINT('Axis2P3D Location',(0.,0.,2.)) ;
#1733=CARTESIAN_POINT('Axis2P3D Location',(0.,0.,7.)) ;
#1738=CARTESIAN_POINT('Line Origine',(17.5,0.,7.)) ;
#1742=CARTESIAN_POINT('Vertex',(17.5,0.,12.)) ;
#1745=CARTESIAN_POINT('Line Origine',(-17.5,2.14306111919E-015,7.)) ;
#1749=CARTESIAN_POINT('Vertex',(-17.5,2.14306111919E-015,12.)) ;
#1752=CARTESIAN_POINT('Axis2P3D Location',(0.,0.,12.)) ;
#1764=CARTESIAN_POINT('Axis2P3D Location',(0.,0.,12.)) ;
#1789=CARTESIAN_POINT('Axis2P3D Location',(0.,0.,7.)) ;
#1794=CARTESIAN_POINT('Axis2P3D Location',(0.,0.,12.)) ;
#1798=CARTESIAN_POINT('Vertex',(14.5,0.,12.)) ;
#1800=CARTESIAN_POINT('Vertex',(-14.5,1.77567921304E-015,12.)) ;
#1803=CARTESIAN_POINT('Line Origine',(-14.5,1.77567921304E-015,7.)) ;
#1808=CARTESIAN_POINT('Line Origine',(14.5,0.,7.)) ;
#1820=CARTESIAN_POINT('Axis2P3D Location',(0.,0.,12.)) ;
#1832=CARTESIAN_POINT('Axis2P3D Location',(0.,0.,12.)) ;
#1846=CARTESIAN_POINT('Axis2P3D Location',(25.9807621135,-15.,-110.5)) ;
#1862=CARTESIAN_POINT('Axis2P3D Location',(0.,30.,-110.5)) ;
#53=DIRECTION('Axis2P3D Direction',(0.,0.,1.)) ;
#54=DIRECTION('Axis2P3D XDirection',(1.,0.,0.)) ;
#58=DIRECTION('Vector Direction',(0.,0.,1.)) ;
#67=DIRECTION('Axis2P3D Direction',(0.,0.,1.)) ;
#74=DIRECTION('Axis2P3D Direction',(0.,0.,1.)) ;
#81=DIRECTION('Vector Direction',(0.,0.,1.)) ;
#88=DIRECTION('Axis2P3D Direction',(0.,0.,1.)) ;
#101=DIRECTION('Axis2P3D Direction',(0.,0.,1.)) ;
#108=DIRECTION('Axis2P3D Direction',(0.,0.,1.)) ;
#113=DIRECTION('Axis2P3D Direction',(0.,0.,1.)) ;
#126=DIRECTION('Axis2P3D Direction',(0.,0.,1.)) ;
#127=DIRECTION('Axis2P3D XDirection',(1.,0.,0.)) ;
#135=DIRECTION('Vector Direction',(1.,0.,0.)) ;
#144=DIRECTION('Vector Direction',(0.5,-0.866025403784,0.)) ;
#151=DIRECTION('Vector Direction',(-0.5,-0.866025403784,0.)) ;
#158=DIRECTION('Vector Direction',(-1.,0.,0.)) ;
#165=DIRECTION('Vector Direction',(-0.5,0.866025403784,0.)) ;
#172=DIRECTION('Vector Direction',(0.5,0.866025403784,0.)) ;
#186=DIRECTION('Axis2P3D Direction',(0.,-1.,0.)) ;
#187=DIRECTION('Axis2P3D XDirection',(1.,0.,0.)) ;
#191=DIRECTION('Vector Direction',(0.,0.,1.)) ;
#198=DIRECTION('Vector Direction',(1.,0.,0.)) ;
#205=DIRECTION('Vector Direction',(0.,0.,1.)) ;
#217=DIRECTION('Axis2P3D Direction',(-0.866025403784,-0.5,0.)) ;
#218=DIRECTION('Axis2P3D XDirection',(0.5,-0.866025403784,0.)) ;
#222=DIRECTION('Vector Direction',(0.5,-0.866025403784,0.)) ;
#229=DIRECTION('Vector Direction',(0.,0.,1.)) ;
#241=DIRECTION('Axis2P3D Direction',(-0.866025403784,0.5,0.)) ;
#242=DIRECTION('Axis2P3D XDirection',(-0.5,-0.866025403784,-0.)) ;
#246=DIRECTION('Vector Direction',(-0.5,-0.866025403784,0.)) ;
#253=DIRECTION('Vector Direction',(0.,0.,1.)) ;
#265=DIRECTION('Axis2P3D Direction',(0.,1.,-0.)) ;
#266=DIRECTION('Axis2P3D XDirection',(-1.,0.,0.)) ;
#270=DIRECTION('Vector Direction',(-1.,0.,0.)) ;
#277=DIRECTION('Vector Direction',(0.,0.,1.)) ;
#289=DIRECTION('Axis2P3D Direction',(0.866025403784,0.5,-0.)) ;
#290=DIRECTION('Axis2P3D XDirection',(-0.5,0.866025403784,0.)) ;
#294=DIRECTION('Vector Direction',(-0.5,0.866025403784,0.)) ;
#301=DIRECTION('Vector Direction',(0.,0.,1.)) ;
#313=DIRECTION('Axis2P3D Direction',(0.866025403784,-0.5,0.)) ;
#314=DIRECTION('Axis2P3D XDirection',(0.5,0.866025403784,0.)) ;
#318=DIRECTION('Vector Direction',(0.5,0.866025403784,0.)) ;
#330=DIRECTION('Axis2P3D Direction',(0.,0.,1.)) ;
#331=DIRECTION('Axis2P3D XDirection',(1.,0.,0.)) ;
#335=DIRECTION('Vector Direction',(0.,0.,1.)) ;
#344=DIRECTION('Axis2P3D Direction',(0.,0.,1.)) ;
#351=DIRECTION('Vector Direction',(0.,0.,1.)) ;
#358=DIRECTION('Axis2P3D Direction',(0.,0.,1.)) ;
#370=DIRECTION('Axis2P3D Direction',(0.,0.,1.)) ;
#379=DIRECTION('Vector Direction',(1.,0.,0.)) ;
#388=DIRECTION('Vector Direction',(0.5,-0.866025403784,0.)) ;
#395=DIRECTION('Vector Direction',(-0.5,-0.866025403784,0.)) ;
#402=DIRECTION('Vector Direction',(-1.,0.,0.)) ;
#409=DIRECTION('Vector Direction',(-0.5,0.866025403784,0.)) ;
#416=DIRECTION('Vector Direction',(0.5,0.866025403784,0.)) ;
#430=DIRECTION('Axis2P3D Direction',(0.,-1.,0.)) ;
#431=DIRECTION('Axis2P3D XDirection',(1.,0.,0.)) ;
#435=DIRECTION('Vector Direction',(0.,0.,1.)) ;
#442=DIRECTION('Vector Direction',(1.,0.,0.)) ;
#449=DIRECTION('Vector Direction',(0.,0.,1.)) ;
#461=DIRECTION('Axis2P3D Direction',(-0.866025403784,-0.5,0.)) ;
#462=DIRECTION('Axis2P3D XDirection',(0.5,-0.866025403784,0.)) ;
#466=DIRECTION('Vector Direction',(0.5,-0.866025403784,0.)) ;
#473=DIRECTION('Vector Direction',(0.,0.,1.)) ;
#485=DIRECTION('Vector Direction',(-0.5,-0.866025403784,0.)) ;
#492=DIRECTION('Vector Direction',(0.,0.,1.)) ;
#504=DIRECTION('Axis2P3D Direction',(0.,1.,-0.)) ;
#505=DIRECTION('Axis2P3D XDirection',(-1.,0.,0.)) ;
#509=DIRECTION('Vector Direction',(-1.,0.,0.)) ;
#516=DIRECTION('Vector Direction',(0.,0.,1.)) ;
#528=DIRECTION('Axis2P3D Direction',(0.866025403784,0.5,-0.)) ;
#529=DIRECTION('Axis2P3D XDirection',(-0.5,0.866025403784,0.)) ;
#533=DIRECTION('Vector Direction',(-0.5,0.866025403784,0.)) ;
#540=DIRECTION('Vector Direction',(0.,0.,1.)) ;
#552=DIRECTION('Vector Direction',(0.5,0.866025403784,0.)) ;
#564=DIRECTION('Axis2P3D Direction',(0.,0.,1.)) ;
#565=DIRECTION('Axis2P3D XDirection',(1.,0.,0.)) ;
#569=DIRECTION('Vector Direction',(0.,0.,1.)) ;
#578=DIRECTION('Axis2P3D Direction',(0.,0.,1.)) ;
#585=DIRECTION('Axis2P3D Direction',(0.,0.,1.)) ;
#592=DIRECTION('Vector Direction',(0.,0.,1.)) ;
#599=DIRECTION('Axis2P3D Direction',(0.,0.,1.)) ;
#612=DIRECTION('Axis2P3D Direction',(0.,0.,1.)) ;
#621=DIRECTION('Vector Direction',(-0.5,-0.866025403784,0.)) ;
#630=DIRECTION('Vector Direction',(-1.,0.,0.)) ;
#637=DIRECTION('Vector Direction',(-0.5,0.866025403784,0.)) ;
#644=DIRECTION('Vector Direction',(0.5,0.866025403784,0.)) ;
#651=DIRECTION('Vector Direction',(1.,0.,0.)) ;
#658=DIRECTION('Vector Direction',(0.5,-0.866025403784,0.)) ;
#672=DIRECTION('Axis2P3D Direction',(-0.866025403784,0.5,0.)) ;
#673=DIRECTION('Axis2P3D XDirection',(-0.5,-0.866025403784,-0.)) ;
#677=DIRECTION('Vector Direction',(0.,0.,1.)) ;
#684=DIRECTION('Vector Direction',(-0.5,-0.866025403784,0.)) ;
#691=DIRECTION('Vector Direction',(0.,0.,1.)) ;
#703=DIRECTION('Vector Direction',(-1.,0.,0.)) ;
#710=DIRECTION('Vector Direction',(0.,0.,1.)) ;
#722=DIRECTION('Vector Direction',(-0.5,0.866025403784,0.)) ;
#729=DIRECTION('Vector Direction',(0.,0.,1.)) ;
#741=DIRECTION('Axis2P3D Direction',(0.866025403784,-0.5,0.)) ;
#742=DIRECTION('Axis2P3D XDirection',(0.5,0.866025403784,0.)) ;
#746=DIRECTION('Vector Direction',(0.5,0.866025403784,0.)) ;
#753=DIRECTION('Vector Direction',(0.,0.,1.)) ;
#765=DIRECTION('Vector Direction',(1.,0.,0.)) ;
#772=DIRECTION('Vector Direction',(0.,0.,1.)) ;
#784=DIRECTION('Vector Direction',(0.5,-0.866025403784,0.)) ;
#796=DIRECTION('Axis2P3D Direction',(-0.5,-0.866025403784,0.)) ;
#797=DIRECTION('Axis2P3D XDirection',(0.866025403784,-0.5,0.)) ;
#801=DIRECTION('Vector Direction',(0.,0.,1.)) ;
#810=DIRECTION('Vector Direction',(0.866025403784,-0.5,0.)) ;
#817=DIRECTION('Vector Direction',(0.,0.,1.)) ;
#822=DIRECTION('Vector Direction',(0.866025403784,-0.5,0.)) ;
#834=DIRECTION('Axis2P3D Direction',(-0.5,-0.866025403784,0.)) ;
#835=DIRECTION('Axis2P3D XDirection',(0.866025403784,-0.5,0.)) ;
#839=DIRECTION('Vector Direction',(0.,0.,1.)) ;
#848=DIRECTION('Vector Direction',(0.866025403784,-0.5,0.)) ;
#855=DIRECTION('Vector Direction',(0.,0.,1.)) ;
#862=DIRECTION('Vector Direction',(0.866025403784,-0.5,0.)) ;
#874=DIRECTION('Axis2P3D Direction',(0.,0.,1.)) ;
#875=DIRECTION('Axis2P3D XDirection',(1.,0.,0.)) ;
#879=DIRECTION('Axis2P3D Direction',(0.,0.,1.)) ;
#884=DIRECTION('Axis2P3D Direction',(0.,0.,1.)) ;
#897=DIRECTION('Axis2P3D Direction',(0.,0.,-1.)) ;
#898=DIRECTION('Axis2P3D XDirection',(1.,0.,0.)) ;
#902=DIRECTION('Vector Direction',(0.,0.,-1.)) ;
#927=DIRECTION('Vector Direction',(0.,0.,-1.)) ;
#934=DIRECTION('Axis2P3D Direction',(0.,0.,-1.)) ;
#941=DIRECTION('Vector Direction',(0.,0.,-1.)) ;
#948=DIRECTION('Axis2P3D Direction',(0.,0.,-1.)) ;
#955=DIRECTION('Vector Direction',(0.,0.,-1.)) ;
#962=DIRECTION('Axis2P3D Direction',(0.,0.,-1.)) ;
#977=DIRECTION('Axis2P3D Direction',(0.,0.,-1.)) ;
#988=DIRECTION('Axis2P3D Direction',(0.,0.,-1.)) ;
#997=DIRECTION('Vector Direction',(0.,0.,-1.)) ;
#1004=DIRECTION('Axis2P3D Direction',(0.,0.,-1.)) ;
#1011=DIRECTION('Vector Direction',(0.,0.,-1.)) ;
#1023=DIRECTION('Axis2P3D Direction',(0.,0.,1.)) ;
#1024=DIRECTION('Axis2P3D XDirection',(1.,0.,0.)) ;
#1028=DIRECTION('Axis2P3D Direction',(0.,0.,1.)) ;
#1037=DIRECTION('Vector Direction',(0.,0.,1.)) ;
#1044=DIRECTION('Axis2P3D Direction',(0.,0.,1.)) ;
#1051=DIRECTION('Vector Direction',(0.,0.,1.)) ;
#1063=DIRECTION('Axis2P3D Direction',(0.,0.,1.)) ;
#1068=DIRECTION('Axis2P3D Direction',(0.,0.,1.)) ;
#1080=DIRECTION('Axis2P3D Direction',(0.,0.,-1.)) ;
#1081=DIRECTION('Axis2P3D XDirection',(1.,0.,0.)) ;
#1085=DIRECTION('Axis2P3D Direction',(0.,0.,-1.)) ;
#1094=DIRECTION('Axis2P3D Direction',(0.,0.,-1.)) ;
#1101=DIRECTION('Axis2P3D Direction',(0.,0.,-1.)) ;
#1108=DIRECTION('Vector Direction',(0.,1.,0.)) ;
#1113=DIRECTION('Axis2P3D Direction',(0.,0.,-1.)) ;
#1118=DIRECTION('Vector Direction',(0.,1.,0.)) ;
#1134=DIRECTION('Axis2P3D Direction',(0.,0.,-1.)) ;
#1145=DIRECTION('Axis2P3D Direction',(0.,0.,-1.)) ;
#1154=DIRECTION('Vector Direction',(0.,0.,-1.)) ;
#1161=DIRECTION('Axis2P3D Direction',(0.,0.,-1.)) ;
#1168=DIRECTION('Vector Direction',(0.,0.,-1.)) ;
#1180=DIRECTION('Axis2P3D Direction',(0.,0.,1.)) ;
#1181=DIRECTION('Axis2P3D XDirection',(1.,0.,0.)) ;
#1189=DIRECTION('Axis2P3D Direction',(0.,0.,1.)) ;
#1198=DIRECTION('Axis2P3D Direction',(0.,0.,1.)) ;
#1208=DIRECTION('Axis2P3D Direction',(1.,6.12303176911E-017,-0.)) ;
#1209=DIRECTION('Axis2P3D XDirection',(-0.,-0.,-1.)) ;
#1213=DIRECTION('Vector Direction',(0.,0.,1.)) ;
#1220=DIRECTION('Vector Direction',(-8.87111171334E-017,1.,0.)) ;
#1232=DIRECTION('Axis2P3D Direction',(-6.12303176911E-017,1.,0.)) ;
#1233=DIRECTION('Axis2P3D XDirection',(-1.,-6.12303176911E-017,6.12303176911E-017)) ;
#1237=DIRECTION('Vector Direction',(-4.4408920985E-017,1.,0.)) ;
#1270=DIRECTION('Axis2P3D Direction',(-1.,-6.12303176911E-017,0.)) ;
#1271=DIRECTION('Axis2P3D XDirection',(0.,0.,1.)) ;
#1275=DIRECTION('Vector Direction',(0.,0.,1.)) ;
#1287=DIRECTION('Axis2P3D Direction',(-0.5,0.866025403784,0.)) ;
#1288=DIRECTION('Axis2P3D XDirection',(-0.866025403784,-0.5,-0.)) ;
#1292=DIRECTION('Vector Direction',(-0.866025403784,-0.5,0.)) ;
#1299=DIRECTION('Vector Direction',(0.,0.,1.)) ;
#1304=DIRECTION('Vector Direction',(-0.866025403784,-0.5,0.)) ;
#1316=DIRECTION('Axis2P3D Direction',(0.,0.,1.)) ;
#1317=DIRECTION('Axis2P3D XDirection',(1.,0.,0.)) ;
#1321=DIRECTION('Vector Direction',(-0.866025403784,-0.5,0.)) ;
#1328=DIRECTION('Axis2P3D Direction',(0.,0.,1.)) ;
#1339=DIRECTION('Axis2P3D Direction',(0.,0.,1.)) ;
#1348=DIRECTION('Axis2P3D Direction',(0.,0.,1.)) ;
#1358=DIRECTION('Axis2P3D Direction',(-0.5,0.866025403784,0.)) ;
#1359=DIRECTION('Axis2P3D XDirection',(-0.866025403784,-0.5,-0.)) ;
#1363=DIRECTION('Vector Direction',(0.,0.,1.)) ;
#1368=DIRECTION('Vector Direction',(-0.866025403784,-0.5,0.)) ;
#1401=DIRECTION('Axis2P3D Direction',(0.,0.,-1.)) ;
#1402=DIRECTION('Axis2P3D XDirection',(1.,0.,0.)) ;
#1406=DIRECTION('Vector Direction',(0.,0.,-1.)) ;
#1413=DIRECTION('Axis2P3D Direction',(0.,0.,-1.)) ;
#1420=DIRECTION('Vector Direction',(0.,0.,-1.)) ;
#1437=DIRECTION('Axis2P3D Direction',(0.,0.,-1.)) ;
#1449=DIRECTION('Axis2P3D Direction',(1.,0.,0.)) ;
#1450=DIRECTION('Axis2P3D XDirection',(0.,1.,0.)) ;
#1454=DIRECTION('Vector Direction',(0.,1.,0.)) ;
#1461=DIRECTION('Vector Direction',(0.,0.,1.)) ;
#1466=DIRECTION('Vector Direction',(0.,1.,0.)) ;
#1478=DIRECTION('Axis2P3D Direction',(1.,0.,0.)) ;
#1479=DIRECTION('Axis2P3D XDirection',(0.,1.,0.)) ;
#1483=DIRECTION('Vector Direction',(0.,0.,1.)) ;
#1490=DIRECTION('Vector Direction',(0.,1.,0.)) ;
#1495=DIRECTION('Vector Direction',(0.,1.,0.)) ;
#1514=DIRECTION('Axis2P3D Direction',(0.,0.,1.)) ;
#1515=DIRECTION('Axis2P3D XDirection',(1.,0.,0.)) ;
#1519=DIRECTION('Vector Direction',(0.,0.,1.)) ;
#1526=DIRECTION('Axis2P3D Direction',(0.,0.,1.)) ;
#1533=DIRECTION('Vector Direction',(0.,0.,1.)) ;
#1545=DIRECTION('Axis2P3D Direction',(0.,0.,1.)) ;
#1557=DIRECTION('Axis2P3D Direction',(0.,0.,1.)) ;
#1558=DIRECTION('Axis2P3D XDirection',(0.5,-0.866025403784,0.)) ;
#1570=DIRECTION('Axis2P3D Direction',(0.,0.,1.)) ;
#1571=DIRECTION('Axis2P3D XDirection',(1.,0.,0.)) ;
#1575=DIRECTION('Axis2P3D Direction',(0.,0.,1.)) ;
#1584=DIRECTION('Vector Direction',(0.,0.,1.)) ;
#1589=DIRECTION('Vector Direction',(0.,0.,1.)) ;
#1601=DIRECTION('Axis2P3D Direction',(0.,0.,1.)) ;
#1613=DIRECTION('Axis2P3D Direction',(0.,0.,1.)) ;
#1614=DIRECTION('Axis2P3D XDirection',(1.,0.,0.)) ;
#1622=DIRECTION('Axis2P3D Direction',(0.,0.,1.)) ;
#1631=DIRECTION('Axis2P3D Direction',(0.,0.,1.)) ;
#1641=DIRECTION('Axis2P3D Direction',(0.,0.,1.)) ;
#1642=DIRECTION('Axis2P3D XDirection',(1.,0.,0.)) ;
#1646=DIRECTION('Axis2P3D Direction',(0.,0.,1.)) ;
#1655=DIRECTION('Vector Direction',(0.,0.,1.)) ;
#1662=DIRECTION('Axis2P3D Direction',(0.,0.,1.)) ;
#1669=DIRECTION('Vector Direction',(0.,0.,1.)) ;
#1681=DIRECTION('Axis2P3D Direction',(0.,0.,1.)) ;
#1686=DIRECTION('Axis2P3D Direction',(0.,0.,1.)) ;
#1698=DIRECTION('Axis2P3D Direction',(0.,0.,1.)) ;
#1707=DIRECTION('Axis2P3D Direction',(0.,0.,1.)) ;
#1734=DIRECTION('Axis2P3D Direction',(0.,0.,1.)) ;
#1735=DIRECTION('Axis2P3D XDirection',(1.,0.,0.)) ;
#1739=DIRECTION('Vector Direction',(0.,0.,1.)) ;
#1746=DIRECTION('Vector Direction',(0.,0.,1.)) ;
#1753=DIRECTION('Axis2P3D Direction',(0.,0.,1.)) ;
#1765=DIRECTION('Axis2P3D Direction',(0.,0.,1.)) ;
#1790=DIRECTION('Axis2P3D Direction',(0.,0.,1.)) ;
#1791=DIRECTION('Axis2P3D XDirection',(1.,0.,0.)) ;
#1795=DIRECTION('Axis2P3D Direction',(0.,0.,1.)) ;
#1804=DIRECTION('Vector Direction',(0.,0.,1.)) ;
#1809=DIRECTION('Vector Direction',(0.,0.,1.)) ;
#1821=DIRECTION('Axis2P3D Direction',(0.,0.,1.)) ;
#1833=DIRECTION('Axis2P3D Direction',(0.,0.,1.)) ;
#1834=DIRECTION('Axis2P3D XDirection',(1.,0.,0.)) ;
#1847=DIRECTION('Axis2P3D Direction',(0.,0.,1.)) ;
#1863=DIRECTION('Axis2P3D Direction',(0.,0.,1.)) ;
#48=AXIS2_PLACEMENT_3D(' ',#47,$,$) ;
#55=AXIS2_PLACEMENT_3D('Cylinder Axis2P3D',#52,#53,#54) ;
#68=AXIS2_PLACEMENT_3D('Circle Axis2P3D',#66,#67,$) ;
#75=AXIS2_PLACEMENT_3D('Circle Axis2P3D',#73,#74,$) ;
#89=AXIS2_PLACEMENT_3D('Circle Axis2P3D',#87,#88,$) ;
#102=AXIS2_PLACEMENT_3D('Circle Axis2P3D',#100,#101,$) ;
#109=AXIS2_PLACEMENT_3D('Circle Axis2P3D',#107,#108,$) ;
#114=AXIS2_PLACEMENT_3D('Circle Axis2P3D',#112,#113,$) ;
#128=AXIS2_PLACEMENT_3D('Plane Axis2P3D',#125,#126,#127) ;
#188=AXIS2_PLACEMENT_3D('Plane Axis2P3D',#185,#186,#187) ;
#219=AXIS2_PLACEMENT_3D('Plane Axis2P3D',#216,#217,#218) ;
#243=AXIS2_PLACEMENT_3D('Plane Axis2P3D',#240,#241,#242) ;
#267=AXIS2_PLACEMENT_3D('Plane Axis2P3D',#264,#265,#266) ;
#291=AXIS2_PLACEMENT_3D('Plane Axis2P3D',#288,#289,#290) ;
#315=AXIS2_PLACEMENT_3D('Plane Axis2P3D',#312,#313,#314) ;
#332=AXIS2_PLACEMENT_3D('Cylinder Axis2P3D',#329,#330,#331) ;
#345=AXIS2_PLACEMENT_3D('Circle Axis2P3D',#343,#344,$) ;
#359=AXIS2_PLACEMENT_3D('Circle Axis2P3D',#357,#358,$) ;
#371=AXIS2_PLACEMENT_3D('Circle Axis2P3D',#369,#370,$) ;
#432=AXIS2_PLACEMENT_3D('Plane Axis2P3D',#429,#430,#431) ;
#463=AXIS2_PLACEMENT_3D('Plane Axis2P3D',#460,#461,#462) ;
#506=AXIS2_PLACEMENT_3D('Plane Axis2P3D',#503,#504,#505) ;
#530=AXIS2_PLACEMENT_3D('Plane Axis2P3D',#527,#528,#529) ;
#566=AXIS2_PLACEMENT_3D('Cylinder Axis2P3D',#563,#564,#565) ;
#579=AXIS2_PLACEMENT_3D('Circle Axis2P3D',#577,#578,$) ;
#586=AXIS2_PLACEMENT_3D('Circle Axis2P3D',#584,#585,$) ;
#600=AXIS2_PLACEMENT_3D('Circle Axis2P3D',#598,#599,$) ;
#613=AXIS2_PLACEMENT_3D('Circle Axis2P3D',#611,#612,$) ;
#674=AXIS2_PLACEMENT_3D('Plane Axis2P3D',#671,#672,#673) ;
#743=AXIS2_PLACEMENT_3D('Plane Axis2P3D',#740,#741,#742) ;
#798=AXIS2_PLACEMENT_3D('Plane Axis2P3D',#795,#796,#797) ;
#836=AXIS2_PLACEMENT_3D('Plane Axis2P3D',#833,#834,#835) ;
#876=AXIS2_PLACEMENT_3D('Plane Axis2P3D',#873,#874,#875) ;
#880=AXIS2_PLACEMENT_3D('Circle Axis2P3D',#878,#879,$) ;
#885=AXIS2_PLACEMENT_3D('Circle Axis2P3D',#883,#884,$) ;
#899=AXIS2_PLACEMENT_3D('Cylinder Axis2P3D',#896,#897,#898) ;
#935=AXIS2_PLACEMENT_3D('Circle Axis2P3D',#933,#934,$) ;
#949=AXIS2_PLACEMENT_3D('Circle Axis2P3D',#947,#948,$) ;
#963=AXIS2_PLACEMENT_3D('Circle Axis2P3D',#961,#962,$) ;
#978=AXIS2_PLACEMENT_3D('Circle Axis2P3D',#976,#977,$) ;
#989=AXIS2_PLACEMENT_3D('Circle Axis2P3D',#987,#988,$) ;
#1005=AXIS2_PLACEMENT_3D('Circle Axis2P3D',#1003,#1004,$) ;
#1025=AXIS2_PLACEMENT_3D('Cylinder Axis2P3D',#1022,#1023,#1024) ;
#1029=AXIS2_PLACEMENT_3D('Circle Axis2P3D',#1027,#1028,$) ;
#1045=AXIS2_PLACEMENT_3D('Circle Axis2P3D',#1043,#1044,$) ;
#1064=AXIS2_PLACEMENT_3D('Circle Axis2P3D',#1062,#1063,$) ;
#1069=AXIS2_PLACEMENT_3D('Circle Axis2P3D',#1067,#1068,$) ;
#1082=AXIS2_PLACEMENT_3D('Plane Axis2P3D',#1079,#1080,#1081) ;
#1086=AXIS2_PLACEMENT_3D('Circle Axis2P3D',#1084,#1085,$) ;
#1095=AXIS2_PLACEMENT_3D('Circle Axis2P3D',#1093,#1094,$) ;
#1102=AXIS2_PLACEMENT_3D('Circle Axis2P3D',#1100,#1101,$) ;
#1114=AXIS2_PLACEMENT_3D('Circle Axis2P3D',#1112,#1113,$) ;
#1135=AXIS2_PLACEMENT_3D('Circle Axis2P3D',#1133,#1134,$) ;
#1146=AXIS2_PLACEMENT_3D('Circle Axis2P3D',#1144,#1145,$) ;
#1162=AXIS2_PLACEMENT_3D('Circle Axis2P3D',#1160,#1161,$) ;
#1182=AXIS2_PLACEMENT_3D('Plane Axis2P3D',#1179,#1180,#1181) ;
#1190=AXIS2_PLACEMENT_3D('Circle Axis2P3D',#1188,#1189,$) ;
#1199=AXIS2_PLACEMENT_3D('Circle Axis2P3D',#1197,#1198,$) ;
#1210=AXIS2_PLACEMENT_3D('Plane Axis2P3D',#1207,#1208,#1209) ;
#1234=AXIS2_PLACEMENT_3D('Cylinder Axis2P3D',#1231,#1232,#1233) ;
#1272=AXIS2_PLACEMENT_3D('Plane Axis2P3D',#1269,#1270,#1271) ;
#1289=AXIS2_PLACEMENT_3D('Plane Axis2P3D',#1286,#1287,#1288) ;
#1318=AXIS2_PLACEMENT_3D('Plane Axis2P3D',#1315,#1316,#1317) ;
#1329=AXIS2_PLACEMENT_3D('Circle Axis2P3D',#1327,#1328,$) ;
#1340=AXIS2_PLACEMENT_3D('Circle Axis2P3D',#1338,#1339,$) ;
#1349=AXIS2_PLACEMENT_3D('Circle Axis2P3D',#1347,#1348,$) ;
#1360=AXIS2_PLACEMENT_3D('Plane Axis2P3D',#1357,#1358,#1359) ;
#1403=AXIS2_PLACEMENT_3D('Cylinder Axis2P3D',#1400,#1401,#1402) ;
#1414=AXIS2_PLACEMENT_3D('Circle Axis2P3D',#1412,#1413,$) ;
#1438=AXIS2_PLACEMENT_3D('Circle Axis2P3D',#1436,#1437,$) ;
#1451=AXIS2_PLACEMENT_3D('Plane Axis2P3D',#1448,#1449,#1450) ;
#1480=AXIS2_PLACEMENT_3D('Plane Axis2P3D',#1477,#1478,#1479) ;
#1516=AXIS2_PLACEMENT_3D('Cylinder Axis2P3D',#1513,#1514,#1515) ;
#1527=AXIS2_PLACEMENT_3D('Circle Axis2P3D',#1525,#1526,$) ;
#1546=AXIS2_PLACEMENT_3D('Circle Axis2P3D',#1544,#1545,$) ;
#1559=AXIS2_PLACEMENT_3D('Cylinder Axis2P3D',#1556,#1557,#1558) ;
#1572=AXIS2_PLACEMENT_3D('Cylinder Axis2P3D',#1569,#1570,#1571) ;
#1576=AXIS2_PLACEMENT_3D('Circle Axis2P3D',#1574,#1575,$) ;
#1602=AXIS2_PLACEMENT_3D('Circle Axis2P3D',#1600,#1601,$) ;
#1615=AXIS2_PLACEMENT_3D('Plane Axis2P3D',#1612,#1613,#1614) ;
#1623=AXIS2_PLACEMENT_3D('Circle Axis2P3D',#1621,#1622,$) ;
#1632=AXIS2_PLACEMENT_3D('Circle Axis2P3D',#1630,#1631,$) ;
#1643=AXIS2_PLACEMENT_3D('Cylinder Axis2P3D',#1640,#1641,#1642) ;
#1647=AXIS2_PLACEMENT_3D('Circle Axis2P3D',#1645,#1646,$) ;
#1663=AXIS2_PLACEMENT_3D('Circle Axis2P3D',#1661,#1662,$) ;
#1682=AXIS2_PLACEMENT_3D('Circle Axis2P3D',#1680,#1681,$) ;
#1687=AXIS2_PLACEMENT_3D('Circle Axis2P3D',#1685,#1686,$) ;
#1699=AXIS2_PLACEMENT_3D('Circle Axis2P3D',#1697,#1698,$) ;
#1708=AXIS2_PLACEMENT_3D('Circle Axis2P3D',#1706,#1707,$) ;
#1736=AXIS2_PLACEMENT_3D('Cylinder Axis2P3D',#1733,#1734,#1735) ;
#1754=AXIS2_PLACEMENT_3D('Circle Axis2P3D',#1752,#1753,$) ;
#1766=AXIS2_PLACEMENT_3D('Circle Axis2P3D',#1764,#1765,$) ;
#1792=AXIS2_PLACEMENT_3D('Cylinder Axis2P3D',#1789,#1790,#1791) ;
#1796=AXIS2_PLACEMENT_3D('Circle Axis2P3D',#1794,#1795,$) ;
#1822=AXIS2_PLACEMENT_3D('Circle Axis2P3D',#1820,#1821,$) ;
#1835=AXIS2_PLACEMENT_3D('Plane Axis2P3D',#1832,#1833,#1834) ;
#1848=AXIS2_PLACEMENT_3D('Circle Axis2P3D',#1846,#1847,$) ;
#1864=AXIS2_PLACEMENT_3D('Circle Axis2P3D',#1862,#1863,$) ;
#40=PRODUCT_DEFINITION_SHAPE(' ',' ',#14) ;
#31=APPROVAL_PERSON_ORGANIZATION(#25,#21,#19) ;
#25=PERSON_AND_ORGANIZATION(#22,#23) ;
#22=PERSON(' ',' ',' ',$,$,$) ;
#23=ORGANIZATION(' ',' ',' ') ;
#21=APPROVAL(#20,' ') ;
#20=APPROVAL_STATUS('not_yet_approved') ;
#19=APPROVAL_ROLE('APPROVER') ;
#13=DATE_AND_TIME(#11,#12) ;
#12=LOCAL_TIME(4,17,27.,#10) ;
#10=COORDINATED_UNIVERSAL_TIME_OFFSET(0,0,.AHEAD.) ;
#93=ORIENTED_EDGE('',*,*,#65,.F.) ;
#94=ORIENTED_EDGE('',*,*,#72,.T.) ;
#95=ORIENTED_EDGE('',*,*,#79,.T.) ;
#96=ORIENTED_EDGE('',*,*,#86,.T.) ;
#97=ORIENTED_EDGE('',*,*,#91,.F.) ;
#118=ORIENTED_EDGE('',*,*,#86,.F.) ;
#119=ORIENTED_EDGE('',*,*,#106,.T.) ;
#120=ORIENTED_EDGE('',*,*,#111,.T.) ;
#121=ORIENTED_EDGE('',*,*,#65,.T.) ;
#122=ORIENTED_EDGE('',*,*,#116,.F.) ;
#131=ORIENTED_EDGE('',*,*,#91,.T.) ;
#132=ORIENTED_EDGE('',*,*,#116,.T.) ;
#177=ORIENTED_EDGE('',*,*,#142,.F.) ;
#178=ORIENTED_EDGE('',*,*,#149,.F.) ;
#179=ORIENTED_EDGE('',*,*,#156,.F.) ;
#180=ORIENTED_EDGE('',*,*,#163,.F.) ;
#181=ORIENTED_EDGE('',*,*,#170,.F.) ;
#182=ORIENTED_EDGE('',*,*,#175,.F.) ;
#210=ORIENTED_EDGE('',*,*,#142,.T.) ;
#211=ORIENTED_EDGE('',*,*,#196,.F.) ;
#212=ORIENTED_EDGE('',*,*,#203,.F.) ;
#213=ORIENTED_EDGE('',*,*,#208,.T.) ;
#234=ORIENTED_EDGE('',*,*,#149,.T.) ;
#235=ORIENTED_EDGE('',*,*,#208,.F.) ;
#236=ORIENTED_EDGE('',*,*,#227,.F.) ;
#237=ORIENTED_EDGE('',*,*,#232,.T.) ;
#258=ORIENTED_EDGE('',*,*,#156,.T.) ;
#259=ORIENTED_EDGE('',*,*,#232,.F.) ;
#260=ORIENTED_EDGE('',*,*,#251,.F.) ;
#261=ORIENTED_EDGE('',*,*,#256,.T.) ;
#282=ORIENTED_EDGE('',*,*,#163,.T.) ;
#283=ORIENTED_EDGE('',*,*,#256,.F.) ;
#284=ORIENTED_EDGE('',*,*,#275,.F.) ;
#285=ORIENTED_EDGE('',*,*,#280,.T.) ;
#306=ORIENTED_EDGE('',*,*,#170,.T.) ;
#307=ORIENTED_EDGE('',*,*,#280,.F.) ;
#308=ORIENTED_EDGE('',*,*,#299,.F.) ;
#309=ORIENTED_EDGE('',*,*,#304,.T.) ;
#323=ORIENTED_EDGE('',*,*,#175,.T.) ;
#324=ORIENTED_EDGE('',*,*,#304,.F.) ;
#325=ORIENTED_EDGE('',*,*,#321,.F.) ;
#326=ORIENTED_EDGE('',*,*,#196,.T.) ;
#363=ORIENTED_EDGE('',*,*,#342,.F.) ;
#364=ORIENTED_EDGE('',*,*,#349,.T.) ;
#365=ORIENTED_EDGE('',*,*,#356,.T.) ;
#366=ORIENTED_EDGE('',*,*,#361,.F.) ;
#375=ORIENTED_EDGE('',*,*,#361,.T.) ;
#376=ORIENTED_EDGE('',*,*,#373,.T.) ;
#421=ORIENTED_EDGE('',*,*,#386,.F.) ;
#422=ORIENTED_EDGE('',*,*,#393,.F.) ;
#423=ORIENTED_EDGE('',*,*,#400,.F.) ;
#424=ORIENTED_EDGE('',*,*,#407,.F.) ;
#425=ORIENTED_EDGE('',*,*,#414,.F.) ;
#426=ORIENTED_EDGE('',*,*,#419,.F.) ;
#454=ORIENTED_EDGE('',*,*,#386,.T.) ;
#455=ORIENTED_EDGE('',*,*,#440,.F.) ;
#456=ORIENTED_EDGE('',*,*,#447,.F.) ;
#457=ORIENTED_EDGE('',*,*,#452,.T.) ;
#478=ORIENTED_EDGE('',*,*,#393,.T.) ;
#479=ORIENTED_EDGE('',*,*,#452,.F.) ;
#480=ORIENTED_EDGE('',*,*,#471,.F.) ;
#481=ORIENTED_EDGE('',*,*,#476,.T.) ;
#497=ORIENTED_EDGE('',*,*,#400,.T.) ;
#498=ORIENTED_EDGE('',*,*,#476,.F.) ;
#499=ORIENTED_EDGE('',*,*,#490,.F.) ;
#500=ORIENTED_EDGE('',*,*,#495,.T.) ;
#521=ORIENTED_EDGE('',*,*,#407,.T.) ;
#522=ORIENTED_EDGE('',*,*,#495,.F.) ;
#523=ORIENTED_EDGE('',*,*,#514,.F.) ;
#524=ORIENTED_EDGE('',*,*,#519,.T.) ;
#545=ORIENTED_EDGE('',*,*,#414,.T.) ;
#546=ORIENTED_EDGE('',*,*,#519,.F.) ;
#547=ORIENTED_EDGE('',*,*,#538,.F.) ;
#548=ORIENTED_EDGE('',*,*,#543,.T.) ;
#557=ORIENTED_EDGE('',*,*,#419,.T.) ;
#558=ORIENTED_EDGE('',*,*,#543,.F.) ;
#559=ORIENTED_EDGE('',*,*,#555,.F.) ;
#560=ORIENTED_EDGE('',*,*,#440,.T.) ;
#604=ORIENTED_EDGE('',*,*,#576,.F.) ;
#605=ORIENTED_EDGE('',*,*,#583,.T.) ;
#606=ORIENTED_EDGE('',*,*,#590,.T.) ;
#607=ORIENTED_EDGE('',*,*,#597,.T.) ;
#608=ORIENTED_EDGE('',*,*,#602,.F.) ;
#617=ORIENTED_EDGE('',*,*,#602,.T.) ;
#618=ORIENTED_EDGE('',*,*,#615,.T.) ;
#663=ORIENTED_EDGE('',*,*,#628,.F.) ;
#664=ORIENTED_EDGE('',*,*,#635,.F.) ;
#665=ORIENTED_EDGE('',*,*,#642,.F.) ;
#666=ORIENTED_EDGE('',*,*,#649,.F.) ;
#667=ORIENTED_EDGE('',*,*,#656,.F.) ;
#668=ORIENTED_EDGE('',*,*,#661,.F.) ;
#696=ORIENTED_EDGE('',*,*,#628,.T.) ;
#697=ORIENTED_EDGE('',*,*,#682,.F.) ;
#698=ORIENTED_EDGE('',*,*,#689,.F.) ;
#699=ORIENTED_EDGE('',*,*,#694,.T.) ;
#715=ORIENTED_EDGE('',*,*,#635,.T.) ;
#716=ORIENTED_EDGE('',*,*,#694,.F.) ;
#717=ORIENTED_EDGE('',*,*,#708,.F.) ;
#718=ORIENTED_EDGE('',*,*,#713,.T.) ;
#734=ORIENTED_EDGE('',*,*,#642,.T.) ;
#735=ORIENTED_EDGE('',*,*,#713,.F.) ;
#736=ORIENTED_EDGE('',*,*,#727,.F.) ;
#737=ORIENTED_EDGE('',*,*,#732,.T.) ;
#758=ORIENTED_EDGE('',*,*,#649,.T.) ;
#759=ORIENTED_EDGE('',*,*,#732,.F.) ;
#760=ORIENTED_EDGE('',*,*,#751,.F.) ;
#761=ORIENTED_EDGE('',*,*,#756,.T.) ;
#777=ORIENTED_EDGE('',*,*,#656,.T.) ;
#778=ORIENTED_EDGE('',*,*,#756,.F.) ;
#779=ORIENTED_EDGE('',*,*,#770,.F.) ;
#780=ORIENTED_EDGE('',*,*,#775,.T.) ;
#789=ORIENTED_EDGE('',*,*,#661,.T.) ;
#790=ORIENTED_EDGE('',*,*,#775,.F.) ;
#791=ORIENTED_EDGE('',*,*,#787,.F.) ;
#792=ORIENTED_EDGE('',*,*,#682,.T.) ;
#827=ORIENTED_EDGE('',*,*,#808,.F.) ;
#828=ORIENTED_EDGE('',*,*,#815,.T.) ;
#829=ORIENTED_EDGE('',*,*,#820,.T.) ;
#830=ORIENTED_EDGE('',*,*,#825,.F.) ;
#867=ORIENTED_EDGE('',*,*,#846,.F.) ;
#868=ORIENTED_EDGE('',*,*,#853,.T.) ;
#869=ORIENTED_EDGE('',*,*,#860,.T.) ;
#870=ORIENTED_EDGE('',*,*,#865,.F.) ;
#889=ORIENTED_EDGE('',*,*,#865,.T.) ;
#890=ORIENTED_EDGE('',*,*,#882,.T.) ;
#891=ORIENTED_EDGE('',*,*,#825,.T.) ;
#892=ORIENTED_EDGE('',*,*,#583,.F.) ;
#893=ORIENTED_EDGE('',*,*,#887,.F.) ;
#967=ORIENTED_EDGE('',*,*,#909,.T.) ;
#968=ORIENTED_EDGE('',*,*,#925,.F.) ;
#969=ORIENTED_EDGE('',*,*,#932,.F.) ;
#970=ORIENTED_EDGE('',*,*,#939,.T.) ;
#971=ORIENTED_EDGE('',*,*,#946,.F.) ;
#972=ORIENTED_EDGE('',*,*,#953,.F.) ;
#973=ORIENTED_EDGE('',*,*,#960,.T.) ;
#974=ORIENTED_EDGE('',*,*,#965,.T.) ;
#982=ORIENTED_EDGE('',*,*,#882,.F.) ;
#983=ORIENTED_EDGE('',*,*,#860,.F.) ;
#984=ORIENTED_EDGE('',*,*,#980,.T.) ;
#985=ORIENTED_EDGE('',*,*,#808,.T.) ;
#1016=ORIENTED_EDGE('',*,*,#995,.F.) ;
#1017=ORIENTED_EDGE('',*,*,#1002,.F.) ;
#1018=ORIENTED_EDGE('',*,*,#1009,.T.) ;
#1019=ORIENTED_EDGE('',*,*,#1014,.T.) ;
#1056=ORIENTED_EDGE('',*,*,#1035,.T.) ;
#1057=ORIENTED_EDGE('',*,*,#1042,.F.) ;
#1058=ORIENTED_EDGE('',*,*,#1049,.F.) ;
#1059=ORIENTED_EDGE('',*,*,#1054,.T.) ;
#1073=ORIENTED_EDGE('',*,*,#1066,.T.) ;
#1074=ORIENTED_EDGE('',*,*,#1054,.F.) ;
#1075=ORIENTED_EDGE('',*,*,#1071,.F.) ;
#1076=ORIENTED_EDGE('',*,*,#1042,.T.) ;
#1123=ORIENTED_EDGE('',*,*,#1092,.T.) ;
#1124=ORIENTED_EDGE('',*,*,#1099,.T.) ;
#1125=ORIENTED_EDGE('',*,*,#1106,.T.) ;
#1126=ORIENTED_EDGE('',*,*,#1111,.T.) ;
#1127=ORIENTED_EDGE('',*,*,#965,.F.) ;
#1128=ORIENTED_EDGE('',*,*,#1116,.F.) ;
#1129=ORIENTED_EDGE('',*,*,#939,.F.) ;
#1130=ORIENTED_EDGE('',*,*,#1121,.F.) ;
#1139=ORIENTED_EDGE('',*,*,#1116,.T.) ;
#1140=ORIENTED_EDGE('',*,*,#960,.F.) ;
#1141=ORIENTED_EDGE('',*,*,#1137,.F.) ;
#1142=ORIENTED_EDGE('',*,*,#946,.T.) ;
#1173=ORIENTED_EDGE('',*,*,#1152,.F.) ;
#1174=ORIENTED_EDGE('',*,*,#1159,.F.) ;
#1175=ORIENTED_EDGE('',*,*,#1166,.T.) ;
#1176=ORIENTED_EDGE('',*,*,#1171,.T.) ;
#1185=ORIENTED_EDGE('',*,*,#1137,.T.) ;
#1186=ORIENTED_EDGE('',*,*,#953,.T.) ;
#1203=ORIENTED_EDGE('',*,*,#1196,.T.) ;
#1204=ORIENTED_EDGE('',*,*,#1201,.T.) ;
#1225=ORIENTED_EDGE('',*,*,#1218,.F.) ;
#1226=ORIENTED_EDGE('',*,*,#1121,.T.) ;
#1227=ORIENTED_EDGE('',*,*,#932,.T.) ;
#1228=ORIENTED_EDGE('',*,*,#1223,.F.) ;
#1262=ORIENTED_EDGE('',*,*,#1223,.T.) ;
#1263=ORIENTED_EDGE('',*,*,#925,.T.) ;
#1264=ORIENTED_EDGE('',*,*,#1242,.F.) ;
#1265=ORIENTED_EDGE('',*,*,#1252,.T.) ;
#1266=ORIENTED_EDGE('',*,*,#1260,.T.) ;
#1280=ORIENTED_EDGE('',*,*,#1278,.T.) ;
#1281=ORIENTED_EDGE('',*,*,#1242,.T.) ;
#1282=ORIENTED_EDGE('',*,*,#909,.F.) ;
#1283=ORIENTED_EDGE('',*,*,#1111,.F.) ;
#1309=ORIENTED_EDGE('',*,*,#1014,.F.) ;
#1310=ORIENTED_EDGE('',*,*,#1297,.T.) ;
#1311=ORIENTED_EDGE('',*,*,#1302,.T.) ;
#1312=ORIENTED_EDGE('',*,*,#1307,.F.) ;
#1333=ORIENTED_EDGE('',*,*,#1297,.F.) ;
#1334=ORIENTED_EDGE('',*,*,#1009,.F.) ;
#1335=ORIENTED_EDGE('',*,*,#1326,.F.) ;
#1336=ORIENTED_EDGE('',*,*,#1331,.F.) ;
#1353=ORIENTED_EDGE('',*,*,#1346,.T.) ;
#1354=ORIENTED_EDGE('',*,*,#1351,.T.) ;
#1373=ORIENTED_EDGE('',*,*,#1366,.F.) ;
#1374=ORIENTED_EDGE('',*,*,#1326,.T.) ;
#1375=ORIENTED_EDGE('',*,*,#1002,.T.) ;
#1376=ORIENTED_EDGE('',*,*,#1371,.F.) ;
#1380=ORIENTED_EDGE('',*,*,#1371,.T.) ;
#1381=ORIENTED_EDGE('',*,*,#995,.T.) ;
#1382=ORIENTED_EDGE('',*,*,#1307,.T.) ;
#1383=ORIENTED_EDGE('',*,*,#106,.F.) ;
#1384=ORIENTED_EDGE('',*,*,#79,.F.) ;
#1388=ORIENTED_EDGE('',*,*,#751,.T.) ;
#1389=ORIENTED_EDGE('',*,*,#727,.T.) ;
#1390=ORIENTED_EDGE('',*,*,#708,.T.) ;
#1391=ORIENTED_EDGE('',*,*,#689,.T.) ;
#1392=ORIENTED_EDGE('',*,*,#787,.T.) ;
#1393=ORIENTED_EDGE('',*,*,#770,.T.) ;
#1396=ORIENTED_EDGE('',*,*,#1035,.F.) ;
#1397=ORIENTED_EDGE('',*,*,#1066,.F.) ;
#1425=ORIENTED_EDGE('',*,*,#1252,.F.) ;
#1426=ORIENTED_EDGE('',*,*,#1278,.F.) ;
#1427=ORIENTED_EDGE('',*,*,#1106,.F.) ;
#1428=ORIENTED_EDGE('',*,*,#1411,.T.) ;
#1429=ORIENTED_EDGE('',*,*,#1418,.F.) ;
#1430=ORIENTED_EDGE('',*,*,#1423,.F.) ;
#1431=ORIENTED_EDGE('',*,*,#1092,.F.) ;
#1432=ORIENTED_EDGE('',*,*,#1218,.T.) ;
#1433=ORIENTED_EDGE('',*,*,#1260,.F.) ;
#1442=ORIENTED_EDGE('',*,*,#1423,.T.) ;
#1443=ORIENTED_EDGE('',*,*,#1440,.F.) ;
#1444=ORIENTED_EDGE('',*,*,#1411,.F.) ;
#1445=ORIENTED_EDGE('',*,*,#1099,.F.) ;
#1471=ORIENTED_EDGE('',*,*,#1171,.F.) ;
#1472=ORIENTED_EDGE('',*,*,#1459,.T.) ;
#1473=ORIENTED_EDGE('',*,*,#1464,.T.) ;
#1474=ORIENTED_EDGE('',*,*,#1469,.F.) ;
#1500=ORIENTED_EDGE('',*,*,#1488,.F.) ;
#1501=ORIENTED_EDGE('',*,*,#1493,.T.) ;
#1502=ORIENTED_EDGE('',*,*,#1159,.T.) ;
#1503=ORIENTED_EDGE('',*,*,#1498,.F.) ;
#1507=ORIENTED_EDGE('',*,*,#1498,.T.) ;
#1508=ORIENTED_EDGE('',*,*,#1152,.T.) ;
#1509=ORIENTED_EDGE('',*,*,#1469,.T.) ;
#1510=ORIENTED_EDGE('',*,*,#349,.F.) ;
#1538=ORIENTED_EDGE('',*,*,#1201,.F.) ;
#1539=ORIENTED_EDGE('',*,*,#1524,.F.) ;
#1540=ORIENTED_EDGE('',*,*,#1531,.T.) ;
#1541=ORIENTED_EDGE('',*,*,#1536,.T.) ;
#1550=ORIENTED_EDGE('',*,*,#1196,.F.) ;
#1551=ORIENTED_EDGE('',*,*,#1536,.F.) ;
#1552=ORIENTED_EDGE('',*,*,#1548,.T.) ;
#1553=ORIENTED_EDGE('',*,*,#1524,.T.) ;
#1562=ORIENTED_EDGE('',*,*,#1302,.F.) ;
#1563=ORIENTED_EDGE('',*,*,#1331,.T.) ;
#1564=ORIENTED_EDGE('',*,*,#1366,.T.) ;
#1565=ORIENTED_EDGE('',*,*,#72,.F.) ;
#1566=ORIENTED_EDGE('',*,*,#111,.F.) ;
#1594=ORIENTED_EDGE('',*,*,#1582,.T.) ;
#1595=ORIENTED_EDGE('',*,*,#1587,.F.) ;
#1596=ORIENTED_EDGE('',*,*,#1351,.F.) ;
#1597=ORIENTED_EDGE('',*,*,#1592,.T.) ;
#1606=ORIENTED_EDGE('',*,*,#1604,.T.) ;
#1607=ORIENTED_EDGE('',*,*,#1592,.F.) ;
#1608=ORIENTED_EDGE('',*,*,#1346,.F.) ;
#1609=ORIENTED_EDGE('',*,*,#1587,.T.) ;
#1618=ORIENTED_EDGE('',*,*,#1440,.T.) ;
#1619=ORIENTED_EDGE('',*,*,#1418,.T.) ;
#1636=ORIENTED_EDGE('',*,*,#1629,.F.) ;
#1637=ORIENTED_EDGE('',*,*,#1634,.F.) ;
#1674=ORIENTED_EDGE('',*,*,#1653,.T.) ;
#1675=ORIENTED_EDGE('',*,*,#1660,.F.) ;
#1676=ORIENTED_EDGE('',*,*,#1667,.F.) ;
#1677=ORIENTED_EDGE('',*,*,#1672,.T.) ;
#1691=ORIENTED_EDGE('',*,*,#1684,.T.) ;
#1692=ORIENTED_EDGE('',*,*,#1672,.F.) ;
#1693=ORIENTED_EDGE('',*,*,#1689,.F.) ;
#1694=ORIENTED_EDGE('',*,*,#1660,.T.) ;
#1712=ORIENTED_EDGE('',*,*,#1705,.T.) ;
#1713=ORIENTED_EDGE('',*,*,#1710,.T.) ;
#1716=ORIENTED_EDGE('',*,*,#1531,.F.) ;
#1717=ORIENTED_EDGE('',*,*,#1548,.F.) ;
#1721=ORIENTED_EDGE('',*,*,#275,.T.) ;
#1722=ORIENTED_EDGE('',*,*,#251,.T.) ;
#1723=ORIENTED_EDGE('',*,*,#227,.T.) ;
#1724=ORIENTED_EDGE('',*,*,#203,.T.) ;
#1725=ORIENTED_EDGE('',*,*,#321,.T.) ;
#1726=ORIENTED_EDGE('',*,*,#299,.T.) ;
#1729=ORIENTED_EDGE('',*,*,#1582,.F.) ;
#1730=ORIENTED_EDGE('',*,*,#1604,.F.) ;
#1758=ORIENTED_EDGE('',*,*,#1744,.F.) ;
#1759=ORIENTED_EDGE('',*,*,#1629,.T.) ;
#1760=ORIENTED_EDGE('',*,*,#1751,.T.) ;
#1761=ORIENTED_EDGE('',*,*,#1756,.F.) ;
#1770=ORIENTED_EDGE('',*,*,#1751,.F.) ;
#1771=ORIENTED_EDGE('',*,*,#1634,.T.) ;
#1772=ORIENTED_EDGE('',*,*,#1744,.T.) ;
#1773=ORIENTED_EDGE('',*,*,#1768,.F.) ;
#1777=ORIENTED_EDGE('',*,*,#514,.T.) ;
#1778=ORIENTED_EDGE('',*,*,#490,.T.) ;
#1779=ORIENTED_EDGE('',*,*,#471,.T.) ;
#1780=ORIENTED_EDGE('',*,*,#447,.T.) ;
#1781=ORIENTED_EDGE('',*,*,#555,.T.) ;
#1782=ORIENTED_EDGE('',*,*,#538,.T.) ;
#1785=ORIENTED_EDGE('',*,*,#1653,.F.) ;
#1786=ORIENTED_EDGE('',*,*,#1684,.F.) ;
#1814=ORIENTED_EDGE('',*,*,#1802,.T.) ;
#1815=ORIENTED_EDGE('',*,*,#1807,.F.) ;
#1816=ORIENTED_EDGE('',*,*,#1705,.F.) ;
#1817=ORIENTED_EDGE('',*,*,#1812,.T.) ;
#1826=ORIENTED_EDGE('',*,*,#1824,.T.) ;
#1827=ORIENTED_EDGE('',*,*,#1812,.F.) ;
#1828=ORIENTED_EDGE('',*,*,#1710,.F.) ;
#1829=ORIENTED_EDGE('',*,*,#1807,.T.) ;
#1838=ORIENTED_EDGE('',*,*,#1756,.T.) ;
#1839=ORIENTED_EDGE('',*,*,#1768,.T.) ;
#1842=ORIENTED_EDGE('',*,*,#1824,.F.) ;
#1843=ORIENTED_EDGE('',*,*,#1802,.F.) ;
#1852=ORIENTED_EDGE('',*,*,#815,.F.) ;
#1853=ORIENTED_EDGE('',*,*,#980,.F.) ;
#1854=ORIENTED_EDGE('',*,*,#853,.F.) ;
#1855=ORIENTED_EDGE('',*,*,#1850,.F.) ;
#1858=ORIENTED_EDGE('',*,*,#1071,.T.) ;
#1859=ORIENTED_EDGE('',*,*,#1049,.T.) ;
#1868=ORIENTED_EDGE('',*,*,#1459,.F.) ;
#1869=ORIENTED_EDGE('',*,*,#1166,.F.) ;
#1870=ORIENTED_EDGE('',*,*,#1493,.F.) ;
#1871=ORIENTED_EDGE('',*,*,#1866,.F.) ;
#1874=ORIENTED_EDGE('',*,*,#1689,.T.) ;
#1875=ORIENTED_EDGE('',*,*,#1667,.T.) ;
#1879=ORIENTED_EDGE('',*,*,#597,.F.) ;
#1880=ORIENTED_EDGE('',*,*,#590,.F.) ;
#1881=ORIENTED_EDGE('',*,*,#820,.F.) ;
#1882=ORIENTED_EDGE('',*,*,#1850,.T.) ;
#1883=ORIENTED_EDGE('',*,*,#846,.T.) ;
#1884=ORIENTED_EDGE('',*,*,#887,.T.) ;
#1885=ORIENTED_EDGE('',*,*,#576,.T.) ;
#1886=ORIENTED_EDGE('',*,*,#615,.F.) ;
#1890=ORIENTED_EDGE('',*,*,#356,.F.) ;
#1891=ORIENTED_EDGE('',*,*,#1464,.F.) ;
#1892=ORIENTED_EDGE('',*,*,#1866,.T.) ;
#1893=ORIENTED_EDGE('',*,*,#1488,.T.) ;
#1894=ORIENTED_EDGE('',*,*,#342,.T.) ;
#1895=ORIENTED_EDGE('',*,*,#373,.F.) ;
#183=FACE_BOUND('',#176,.T.) ;
#427=FACE_BOUND('',#420,.T.) ;
#669=FACE_BOUND('',#662,.T.) ;
#986=FACE_BOUND('',#981,.T.) ;
#1020=FACE_BOUND('',#1015,.T.) ;
#1177=FACE_BOUND('',#1172,.T.) ;
#1205=FACE_BOUND('',#1202,.T.) ;
#1355=FACE_BOUND('',#1352,.T.) ;
#1398=FACE_BOUND('',#1395,.T.) ;
#1638=FACE_BOUND('',#1635,.T.) ;
#1718=FACE_BOUND('',#1715,.T.) ;
#1731=FACE_BOUND('',#1728,.T.) ;
#1787=FACE_BOUND('',#1784,.T.) ;
#1844=FACE_BOUND('',#1841,.T.) ;
#1860=FACE_BOUND('',#1857,.T.) ;
#1876=FACE_BOUND('',#1873,.T.) ;
#51=CLOSED_SHELL('Closed Shell',(#99,#124,#184,#215,#239,#263,#287,#311,#328,#368,#428,#459,#483,#502,#526,#550,#562,#610,#670,#701,#720,#739,#763,#782,#794,#832,#872,#895,#1021,#1061,#1078,#1132,#1178,#1206,#1230,#1268,#1285,#1314,#1356,#1378,#1386,#1399,#1435,#1447,#1476,#1505,#1512,#1543,#1555,#1568,#1599,#1611,#1639,#1679,#1696,#1719,#1732,#1763,#1775,#1788,#1819,#1831,#1845,#1861,#1877,#1888,#1897)) ;
#59=VECTOR('Line Direction',#58,1.) ;
#82=VECTOR('Line Direction',#81,1.) ;
#136=VECTOR('Line Direction',#135,1.) ;
#145=VECTOR('Line Direction',#144,1.) ;
#152=VECTOR('Line Direction',#151,1.) ;
#159=VECTOR('Line Direction',#158,1.) ;
#166=VECTOR('Line Direction',#165,1.) ;
#173=VECTOR('Line Direction',#172,1.) ;
#192=VECTOR('Line Direction',#191,1.) ;
#199=VECTOR('Line Direction',#198,1.) ;
#206=VECTOR('Line Direction',#205,1.) ;
#223=VECTOR('Line Direction',#222,1.) ;
#230=VECTOR('Line Direction',#229,1.) ;
#247=VECTOR('Line Direction',#246,1.) ;
#254=VECTOR('Line Direction',#253,1.) ;
#271=VECTOR('Line Direction',#270,1.) ;
#278=VECTOR('Line Direction',#277,1.) ;
#295=VECTOR('Line Direction',#294,1.) ;
#302=VECTOR('Line Direction',#301,1.) ;
#319=VECTOR('Line Direction',#318,1.) ;
#336=VECTOR('Line Direction',#335,1.) ;
#352=VECTOR('Line Direction',#351,1.) ;
#380=VECTOR('Line Direction',#379,1.) ;
#389=VECTOR('Line Direction',#388,1.) ;
#396=VECTOR('Line Direction',#395,1.) ;
#403=VECTOR('Line Direction',#402,1.) ;
#410=VECTOR('Line Direction',#409,1.) ;
#417=VECTOR('Line Direction',#416,1.) ;
#436=VECTOR('Line Direction',#435,1.) ;
#443=VECTOR('Line Direction',#442,1.) ;
#450=VECTOR('Line Direction',#449,1.) ;
#467=VECTOR('Line Direction',#466,1.) ;
#474=VECTOR('Line Direction',#473,1.) ;
#486=VECTOR('Line Direction',#485,1.) ;
#493=VECTOR('Line Direction',#492,1.) ;
#510=VECTOR('Line Direction',#509,1.) ;
#517=VECTOR('Line Direction',#516,1.) ;
#534=VECTOR('Line Direction',#533,1.) ;
#541=VECTOR('Line Direction',#540,1.) ;
#553=VECTOR('Line Direction',#552,1.) ;
#570=VECTOR('Line Direction',#569,1.) ;
#593=VECTOR('Line Direction',#592,1.) ;
#622=VECTOR('Line Direction',#621,1.) ;
#631=VECTOR('Line Direction',#630,1.) ;
#638=VECTOR('Line Direction',#637,1.) ;
#645=VECTOR('Line Direction',#644,1.) ;
#652=VECTOR('Line Direction',#651,1.) ;
#659=VECTOR('Line Direction',#658,1.) ;
#678=VECTOR('Line Direction',#677,1.) ;
#685=VECTOR('Line Direction',#684,1.) ;
#692=VECTOR('Line Direction',#691,1.) ;
#704=VECTOR('Line Direction',#703,1.) ;
#711=VECTOR('Line Direction',#710,1.) ;
#723=VECTOR('Line Direction',#722,1.) ;
#730=VECTOR('Line Direction',#729,1.) ;
#747=VECTOR('Line Direction',#746,1.) ;
#754=VECTOR('Line Direction',#753,1.) ;
#766=VECTOR('Line Direction',#765,1.) ;
#773=VECTOR('Line Direction',#772,1.) ;
#785=VECTOR('Line Direction',#784,1.) ;
#802=VECTOR('Line Direction',#801,1.) ;
#811=VECTOR('Line Direction',#810,1.) ;
#818=VECTOR('Line Direction',#817,1.) ;
#823=VECTOR('Line Direction',#822,1.) ;
#840=VECTOR('Line Direction',#839,1.) ;
#849=VECTOR('Line Direction',#848,1.) ;
#856=VECTOR('Line Direction',#855,1.) ;
#863=VECTOR('Line Direction',#862,1.) ;
#903=VECTOR('Line Direction',#902,1.) ;
#928=VECTOR('Line Direction',#927,1.) ;
#942=VECTOR('Line Direction',#941,1.) ;
#956=VECTOR('Line Direction',#955,1.) ;
#998=VECTOR('Line Direction',#997,1.) ;
#1012=VECTOR('Line Direction',#1011,1.) ;
#1038=VECTOR('Line Direction',#1037,1.) ;
#1052=VECTOR('Line Direction',#1051,1.) ;
#1109=VECTOR('Line Direction',#1108,1.) ;
#1119=VECTOR('Line Direction',#1118,1.) ;
#1155=VECTOR('Line Direction',#1154,1.) ;
#1169=VECTOR('Line Direction',#1168,1.) ;
#1214=VECTOR('Line Direction',#1213,1.) ;
#1221=VECTOR('Line Direction',#1220,1.) ;
#1238=VECTOR('Line Direction',#1237,1.) ;
#1276=VECTOR('Line Direction',#1275,1.) ;
#1293=VECTOR('Line Direction',#1292,1.) ;
#1300=VECTOR('Line Direction',#1299,1.) ;
#1305=VECTOR('Line Direction',#1304,1.) ;
#1322=VECTOR('Line Direction',#1321,1.) ;
#1364=VECTOR('Line Direction',#1363,1.) ;
#1369=VECTOR('Line Direction',#1368,1.) ;
#1407=VECTOR('Line Direction',#1406,1.) ;
#1421=VECTOR('Line Direction',#1420,1.) ;
#1455=VECTOR('Line Direction',#1454,1.) ;
#1462=VECTOR('Line Direction',#1461,1.) ;
#1467=VECTOR('Line Direction',#1466,1.) ;
#1484=VECTOR('Line Direction',#1483,1.) ;
#1491=VECTOR('Line Direction',#1490,1.) ;
#1496=VECTOR('Line Direction',#1495,1.) ;
#1520=VECTOR('Line Direction',#1519,1.) ;
#1534=VECTOR('Line Direction',#1533,1.) ;
#1585=VECTOR('Line Direction',#1584,1.) ;
#1590=VECTOR('Line Direction',#1589,1.) ;
#1656=VECTOR('Line Direction',#1655,1.) ;
#1670=VECTOR('Line Direction',#1669,1.) ;
#1740=VECTOR('Line Direction',#1739,1.) ;
#1747=VECTOR('Line Direction',#1746,1.) ;
#1805=VECTOR('Line Direction',#1804,1.) ;
#1810=VECTOR('Line Direction',#1809,1.) ;
#1899=ADVANCED_BREP_SHAPE_REPRESENTATION('NONE',(#1898),#46) ;
#49=SHAPE_REPRESENTATION(' ',(#48),#46) ;
#99=ADVANCED_FACE('PartBody',(#98),#56,.T.) ;
#124=ADVANCED_FACE('PartBody',(#123),#56,.T.) ;
#184=ADVANCED_FACE('PartBody',(#133,#183),#129,.T.) ;
#215=ADVANCED_FACE('PartBody',(#214),#189,.F.) ;
#239=ADVANCED_FACE('PartBody',(#238),#220,.F.) ;
#263=ADVANCED_FACE('PartBody',(#262),#244,.F.) ;
#287=ADVANCED_FACE('PartBody',(#286),#268,.F.) ;
#311=ADVANCED_FACE('PartBody',(#310),#292,.F.) ;
#328=ADVANCED_FACE('PartBody',(#327),#316,.F.) ;
#368=ADVANCED_FACE('PartBody',(#367),#333,.T.) ;
#428=ADVANCED_FACE('PartBody',(#377,#427),#129,.T.) ;
#459=ADVANCED_FACE('PartBody',(#458),#433,.F.) ;
#483=ADVANCED_FACE('PartBody',(#482),#464,.F.) ;
#502=ADVANCED_FACE('PartBody',(#501),#244,.F.) ;
#526=ADVANCED_FACE('PartBody',(#525),#507,.F.) ;
#550=ADVANCED_FACE('PartBody',(#549),#531,.F.) ;
#562=ADVANCED_FACE('PartBody',(#561),#316,.F.) ;
#610=ADVANCED_FACE('PartBody',(#609),#567,.T.) ;
#670=ADVANCED_FACE('PartBody',(#619,#669),#129,.T.) ;
#701=ADVANCED_FACE('PartBody',(#700),#675,.F.) ;
#720=ADVANCED_FACE('PartBody',(#719),#268,.F.) ;
#739=ADVANCED_FACE('PartBody',(#738),#531,.F.) ;
#763=ADVANCED_FACE('PartBody',(#762),#744,.F.) ;
#782=ADVANCED_FACE('PartBody',(#781),#189,.F.) ;
#794=ADVANCED_FACE('PartBody',(#793),#464,.F.) ;
#832=ADVANCED_FACE('PartBody',(#831),#799,.F.) ;
#872=ADVANCED_FACE('PartBody',(#871),#837,.T.) ;
#895=ADVANCED_FACE('PartBody',(#894),#877,.T.) ;
#1021=ADVANCED_FACE('PartBody',(#975,#986,#1020),#900,.F.) ;
#1061=ADVANCED_FACE('PartBody',(#1060),#1026,.F.) ;
#1078=ADVANCED_FACE('PartBody',(#1077),#1026,.F.) ;
#1132=ADVANCED_FACE('PartBody',(#1131),#1083,.T.) ;
#1178=ADVANCED_FACE('PartBody',(#1143,#1177),#900,.F.) ;
#1206=ADVANCED_FACE('PartBody',(#1187,#1205),#1183,.F.) ;
#1230=ADVANCED_FACE('PartBody',(#1229),#1211,.T.) ;
#1268=ADVANCED_FACE('PartBody',(#1267),#1235,.F.) ;
#1285=ADVANCED_FACE('PartBody',(#1284),#1273,.T.) ;
#1314=ADVANCED_FACE('PartBody',(#1313),#1290,.F.) ;
#1356=ADVANCED_FACE('PartBody',(#1337,#1355),#1319,.F.) ;
#1378=ADVANCED_FACE('PartBody',(#1377),#1361,.T.) ;
#1386=ADVANCED_FACE('PartBody',(#1385),#877,.T.) ;
#1399=ADVANCED_FACE('PartBody',(#1394,#1398),#877,.T.) ;
#1435=ADVANCED_FACE('PartBody',(#1434),#1404,.T.) ;
#1447=ADVANCED_FACE('PartBody',(#1446),#1404,.T.) ;
#1476=ADVANCED_FACE('PartBody',(#1475),#1452,.F.) ;
#1505=ADVANCED_FACE('PartBody',(#1504),#1481,.T.) ;
#1512=ADVANCED_FACE('PartBody',(#1511),#877,.T.) ;
#1543=ADVANCED_FACE('PartBody',(#1542),#1517,.F.) ;
#1555=ADVANCED_FACE('PartBody',(#1554),#1517,.F.) ;
#1568=ADVANCED_FACE('PartBody',(#1567),#1560,.T.) ;
#1599=ADVANCED_FACE('PartBody',(#1598),#1573,.F.) ;
#1611=ADVANCED_FACE('PartBody',(#1610),#1573,.F.) ;
#1639=ADVANCED_FACE('PartBody',(#1620,#1638),#1616,.T.) ;
#1679=ADVANCED_FACE('PartBody',(#1678),#1644,.F.) ;
#1696=ADVANCED_FACE('PartBody',(#1695),#1644,.F.) ;
#1719=ADVANCED_FACE('PartBody',(#1714,#1718),#1616,.T.) ;
#1732=ADVANCED_FACE('PartBody',(#1727,#1731),#877,.T.) ;
#1763=ADVANCED_FACE('PartBody',(#1762),#1737,.T.) ;
#1775=ADVANCED_FACE('PartBody',(#1774),#1737,.T.) ;
#1788=ADVANCED_FACE('PartBody',(#1783,#1787),#877,.T.) ;
#1819=ADVANCED_FACE('PartBody',(#1818),#1793,.F.) ;
#1831=ADVANCED_FACE('PartBody',(#1830),#1793,.F.) ;
#1845=ADVANCED_FACE('PartBody',(#1840,#1844),#1836,.T.) ;
#1861=ADVANCED_FACE('PartBody',(#1856,#1860),#1319,.F.) ;
#1877=ADVANCED_FACE('PartBody',(#1872,#1876),#1319,.F.) ;
#1888=ADVANCED_FACE('PartBody',(#1887),#567,.T.) ;
#1897=ADVANCED_FACE('PartBody',(#1896),#333,.T.) ;
#4=APPLICATION_PROTOCOL_DEFINITION('international standard','config_control_design',1994,#1) ;
#32=APPROVAL_DATE_TIME(#13,#21) ;
#910=B_SPLINE_CURVE_WITH_KNOTS('',5,(#911,#912,#913,#914,#915,#916,#917,#918,#919,#920,#921,#922),.UNSPECIFIED.,.F.,.U.,(6,3,3,6),(0.,3.25743178107,4.89135428641,7.99825913116),.UNSPECIFIED.) ;
#1243=B_SPLINE_CURVE_WITH_KNOTS('',5,(#1244,#1245,#1246,#1247,#1248,#1249),.UNSPECIFIED.,.F.,.U.,(6,6),(0.,3.99904886068),.UNSPECIFIED.) ;
#1253=B_SPLINE_CURVE_WITH_KNOTS('',5,(#1254,#1255,#1256,#1257,#1258,#1259),.UNSPECIFIED.,.F.,.U.,(6,6),(3.99904886068,7.99809719467),.UNSPECIFIED.) ;
#1898=MANIFOLD_SOLID_BREP('PartBody',#51) ;
#11=CALENDAR_DATE(2026,23,7) ;
#30=CC_DESIGN_APPROVAL(#21,(#16,#6,#14)) ;
#18=CC_DESIGN_DATE_AND_TIME_ASSIGNMENT(#13,#17,(#16)) ;
#29=CC_DESIGN_DATE_AND_TIME_ASSIGNMENT(#13,#28,(#14)) ;
#17=DATE_TIME_ROLE('classification_date') ;
#28=DATE_TIME_ROLE('creation_date') ;
#27=CC_DESIGN_PERSON_AND_ORGANIZATION_ASSIGNMENT(#25,#26,(#16)) ;
#33=CC_DESIGN_PERSON_AND_ORGANIZATION_ASSIGNMENT(#25,#34,(#6)) ;
#35=CC_DESIGN_PERSON_AND_ORGANIZATION_ASSIGNMENT(#25,#36,(#6,#14)) ;
#37=CC_DESIGN_PERSON_AND_ORGANIZATION_ASSIGNMENT(#25,#38,(#5)) ;
#26=PERSON_AND_ORGANIZATION_ROLE('classification_officer') ;
#34=PERSON_AND_ORGANIZATION_ROLE('design_supplier') ;
#36=PERSON_AND_ORGANIZATION_ROLE('creator') ;
#38=PERSON_AND_ORGANIZATION_ROLE('design_owner') ;
#39=CC_DESIGN_SECURITY_CLASSIFICATION(#16,(#6)) ;
#69=CIRCLE('generated circle',#68,4.5) ;
#76=CIRCLE('generated circle',#75,4.5) ;
#90=CIRCLE('generated circle',#89,4.5) ;
#103=CIRCLE('generated circle',#102,4.5) ;
#110=CIRCLE('generated circle',#109,4.5) ;
#115=CIRCLE('generated circle',#114,4.5) ;
#346=CIRCLE('generated circle',#345,4.5) ;
#360=CIRCLE('generated circle',#359,4.5) ;
#372=CIRCLE('generated circle',#371,4.5) ;
#580=CIRCLE('generated circle',#579,4.5) ;
#587=CIRCLE('generated circle',#586,4.5) ;
#601=CIRCLE('generated circle',#600,4.5) ;
#614=CIRCLE('generated circle',#613,4.5) ;
#881=CIRCLE('generated circle',#880,35.5) ;
#886=CIRCLE('generated circle',#885,4.5) ;
#936=CIRCLE('generated circle',#935,35.5) ;
#950=CIRCLE('generated circle',#949,35.5) ;
#964=CIRCLE('generated circle',#963,35.5) ;
#979=CIRCLE('generated circle',#978,35.5) ;
#990=CIRCLE('generated circle',#989,35.5) ;
#1006=CIRCLE('generated circle',#1005,35.5) ;
#1030=CIRCLE('generated circle',#1029,1.4) ;
#1046=CIRCLE('generated circle',#1045,1.4) ;
#1065=CIRCLE('generated circle',#1064,1.4) ;
#1070=CIRCLE('generated circle',#1069,1.4) ;
#1087=CIRCLE('generated circle',#1086,38.) ;
#1096=CIRCLE('generated circle',#1095,38.) ;
#1103=CIRCLE('generated circle',#1102,38.) ;
#1115=CIRCLE('generated circle',#1114,35.5) ;
#1136=CIRCLE('generated circle',#1135,35.5) ;
#1147=CIRCLE('generated circle',#1146,35.5) ;
#1163=CIRCLE('generated circle',#1162,35.5) ;
#1191=CIRCLE('generated circle',#1190,3.5) ;
#1200=CIRCLE('generated circle',#1199,3.5) ;
#1330=CIRCLE('generated circle',#1329,4.5) ;
#1341=CIRCLE('generated circle',#1340,1.4) ;
#1350=CIRCLE('generated circle',#1349,1.4) ;
#1415=CIRCLE('generated circle',#1414,38.) ;
#1439=CIRCLE('generated circle',#1438,38.) ;
#1528=CIRCLE('generated circle',#1527,3.5) ;
#1547=CIRCLE('generated circle',#1546,3.5) ;
#1577=CIRCLE('generated circle',#1576,1.4) ;
#1603=CIRCLE('generated circle',#1602,1.4) ;
#1624=CIRCLE('generated circle',#1623,17.5) ;
#1633=CIRCLE('generated circle',#1632,17.5) ;
#1648=CIRCLE('generated circle',#1647,1.4) ;
#1664=CIRCLE('generated circle',#1663,1.4) ;
#1683=CIRCLE('generated circle',#1682,1.4) ;
#1688=CIRCLE('generated circle',#1687,1.4) ;
#1700=CIRCLE('generated circle',#1699,14.5) ;
#1709=CIRCLE('generated circle',#1708,14.5) ;
#1755=CIRCLE('generated circle',#1754,17.5) ;
#1767=CIRCLE('generated circle',#1766,17.5) ;
#1797=CIRCLE('generated circle',#1796,14.5) ;
#1823=CIRCLE('generated circle',#1822,14.5) ;
#1849=CIRCLE('generated circle',#1848,4.5) ;
#1865=CIRCLE('generated circle',#1864,4.5) ;
#1900=SHAPE_REPRESENTATION_RELATIONSHIP(' ',' ',#49,#1899) ;
#56=CYLINDRICAL_SURFACE('generated cylinder',#55,4.5) ;
#333=CYLINDRICAL_SURFACE('generated cylinder',#332,4.5) ;
#567=CYLINDRICAL_SURFACE('generated cylinder',#566,4.5) ;
#900=CYLINDRICAL_SURFACE('generated cylinder',#899,35.5) ;
#1026=CYLINDRICAL_SURFACE('generated cylinder',#1025,1.4) ;
#1235=CYLINDRICAL_SURFACE('generated cylinder',#1234,1.8) ;
#1404=CYLINDRICAL_SURFACE('generated cylinder',#1403,38.) ;
#1517=CYLINDRICAL_SURFACE('generated cylinder',#1516,3.5) ;
#1560=CYLINDRICAL_SURFACE('generated cylinder',#1559,4.5) ;
#1573=CYLINDRICAL_SURFACE('generated cylinder',#1572,1.4) ;
#1644=CYLINDRICAL_SURFACE('generated cylinder',#1643,1.4) ;
#1737=CYLINDRICAL_SURFACE('generated cylinder',#1736,17.5) ;
#1793=CYLINDRICAL_SURFACE('generated cylinder',#1792,14.5) ;
#3=DESIGN_CONTEXT(' ',#1,'design') ;
#65=EDGE_CURVE('',#62,#64,#60,.T.) ;
#72=EDGE_CURVE('',#62,#71,#69,.T.) ;
#79=EDGE_CURVE('',#71,#78,#76,.T.) ;
#86=EDGE_CURVE('',#78,#85,#83,.T.) ;
#91=EDGE_CURVE('',#64,#85,#90,.T.) ;
#106=EDGE_CURVE('',#78,#105,#103,.T.) ;
#111=EDGE_CURVE('',#105,#62,#110,.T.) ;
#116=EDGE_CURVE('',#85,#64,#115,.T.) ;
#142=EDGE_CURVE('',#139,#141,#137,.T.) ;
#149=EDGE_CURVE('',#148,#139,#146,.T.) ;
#156=EDGE_CURVE('',#155,#148,#153,.T.) ;
#163=EDGE_CURVE('',#162,#155,#160,.T.) ;
#170=EDGE_CURVE('',#169,#162,#167,.T.) ;
#175=EDGE_CURVE('',#141,#169,#174,.T.) ;
#196=EDGE_CURVE('',#195,#141,#193,.T.) ;
#203=EDGE_CURVE('',#202,#195,#200,.T.) ;
#208=EDGE_CURVE('',#202,#139,#207,.T.) ;
#227=EDGE_CURVE('',#226,#202,#224,.T.) ;
#232=EDGE_CURVE('',#226,#148,#231,.T.) ;
#251=EDGE_CURVE('',#250,#226,#248,.T.) ;
#256=EDGE_CURVE('',#250,#155,#255,.T.) ;
#275=EDGE_CURVE('',#274,#250,#272,.T.) ;
#280=EDGE_CURVE('',#274,#162,#279,.T.) ;
#299=EDGE_CURVE('',#298,#274,#296,.T.) ;
#304=EDGE_CURVE('',#298,#169,#303,.T.) ;
#321=EDGE_CURVE('',#195,#298,#320,.T.) ;
#342=EDGE_CURVE('',#339,#341,#337,.T.) ;
#349=EDGE_CURVE('',#339,#348,#346,.T.) ;
#356=EDGE_CURVE('',#348,#355,#353,.T.) ;
#361=EDGE_CURVE('',#341,#355,#360,.T.) ;
#373=EDGE_CURVE('',#355,#341,#372,.T.) ;
#386=EDGE_CURVE('',#383,#385,#381,.T.) ;
#393=EDGE_CURVE('',#392,#383,#390,.T.) ;
#400=EDGE_CURVE('',#399,#392,#397,.T.) ;
#407=EDGE_CURVE('',#406,#399,#404,.T.) ;
#414=EDGE_CURVE('',#413,#406,#411,.T.) ;
#419=EDGE_CURVE('',#385,#413,#418,.T.) ;
#440=EDGE_CURVE('',#439,#385,#437,.T.) ;
#447=EDGE_CURVE('',#446,#439,#444,.T.) ;
#452=EDGE_CURVE('',#446,#383,#451,.T.) ;
#471=EDGE_CURVE('',#470,#446,#468,.T.) ;
#476=EDGE_CURVE('',#470,#392,#475,.T.) ;
#490=EDGE_CURVE('',#489,#470,#487,.T.) ;
#495=EDGE_CURVE('',#489,#399,#494,.T.) ;
#514=EDGE_CURVE('',#513,#489,#511,.T.) ;
#519=EDGE_CURVE('',#513,#406,#518,.T.) ;
#538=EDGE_CURVE('',#537,#513,#535,.T.) ;
#543=EDGE_CURVE('',#537,#413,#542,.T.) ;
#555=EDGE_CURVE('',#439,#537,#554,.T.) ;
#576=EDGE_CURVE('',#573,#575,#571,.T.) ;
#583=EDGE_CURVE('',#573,#582,#580,.T.) ;
#590=EDGE_CURVE('',#582,#589,#587,.T.) ;
#597=EDGE_CURVE('',#589,#596,#594,.T.) ;
#602=EDGE_CURVE('',#575,#596,#601,.T.) ;
#615=EDGE_CURVE('',#596,#575,#614,.T.) ;
#628=EDGE_CURVE('',#625,#627,#623,.T.) ;
#635=EDGE_CURVE('',#634,#625,#632,.T.) ;
#642=EDGE_CURVE('',#641,#634,#639,.T.) ;
#649=EDGE_CURVE('',#648,#641,#646,.T.) ;
#656=EDGE_CURVE('',#655,#648,#653,.T.) ;
#661=EDGE_CURVE('',#627,#655,#660,.T.) ;
#682=EDGE_CURVE('',#681,#627,#679,.T.) ;
#689=EDGE_CURVE('',#688,#681,#686,.T.) ;
#694=EDGE_CURVE('',#688,#625,#693,.T.) ;
#708=EDGE_CURVE('',#707,#688,#705,.T.) ;
#713=EDGE_CURVE('',#707,#634,#712,.T.) ;
#727=EDGE_CURVE('',#726,#707,#724,.T.) ;
#732=EDGE_CURVE('',#726,#641,#731,.T.) ;
#751=EDGE_CURVE('',#750,#726,#748,.T.) ;
#756=EDGE_CURVE('',#750,#648,#755,.T.) ;
#770=EDGE_CURVE('',#769,#750,#767,.T.) ;
#775=EDGE_CURVE('',#769,#655,#774,.T.) ;
#787=EDGE_CURVE('',#681,#769,#786,.T.) ;
#808=EDGE_CURVE('',#805,#807,#803,.T.) ;
#815=EDGE_CURVE('',#805,#814,#812,.F.) ;
#820=EDGE_CURVE('',#814,#582,#819,.T.) ;
#825=EDGE_CURVE('',#807,#582,#824,.F.) ;
#846=EDGE_CURVE('',#843,#845,#841,.T.) ;
#853=EDGE_CURVE('',#843,#852,#850,.T.) ;
#860=EDGE_CURVE('',#852,#859,#857,.T.) ;
#865=EDGE_CURVE('',#845,#859,#864,.T.) ;
#882=EDGE_CURVE('',#859,#807,#881,.T.) ;
#887=EDGE_CURVE('',#845,#573,#886,.T.) ;
#909=EDGE_CURVE('',#906,#908,#904,.F.) ;
#925=EDGE_CURVE('',#924,#908,#910,.T.) ;
#932=EDGE_CURVE('',#931,#924,#929,.F.) ;
#939=EDGE_CURVE('',#931,#938,#936,.T.) ;
#946=EDGE_CURVE('',#945,#938,#943,.T.) ;
#953=EDGE_CURVE('',#952,#945,#950,.T.) ;
#960=EDGE_CURVE('',#952,#959,#957,.T.) ;
#965=EDGE_CURVE('',#959,#906,#964,.T.) ;
#980=EDGE_CURVE('',#852,#805,#979,.F.) ;
#995=EDGE_CURVE('',#992,#994,#990,.F.) ;
#1002=EDGE_CURVE('',#1001,#992,#999,.F.) ;
#1009=EDGE_CURVE('',#1001,#1008,#1006,.F.) ;
#1014=EDGE_CURVE('',#1008,#994,#1013,.F.) ;
#1035=EDGE_CURVE('',#1032,#1034,#1030,.T.) ;
#1042=EDGE_CURVE('',#1041,#1034,#1039,.T.) ;
#1049=EDGE_CURVE('',#1048,#1041,#1046,.T.) ;
#1054=EDGE_CURVE('',#1048,#1032,#1053,.T.) ;
#1066=EDGE_CURVE('',#1034,#1032,#1065,.T.) ;
#1071=EDGE_CURVE('',#1041,#1048,#1070,.T.) ;
#1092=EDGE_CURVE('',#1089,#1091,#1087,.T.) ;
#1099=EDGE_CURVE('',#1091,#1098,#1096,.T.) ;
#1106=EDGE_CURVE('',#1098,#1105,#1103,.T.) ;
#1111=EDGE_CURVE('',#1105,#906,#1110,.T.) ;
#1116=EDGE_CURVE('',#938,#959,#1115,.T.) ;
#1121=EDGE_CURVE('',#1089,#931,#1120,.T.) ;
#1137=EDGE_CURVE('',#945,#952,#1136,.T.) ;
#1152=EDGE_CURVE('',#1149,#1151,#1147,.F.) ;
#1159=EDGE_CURVE('',#1158,#1149,#1156,.F.) ;
#1166=EDGE_CURVE('',#1158,#1165,#1163,.F.) ;
#1171=EDGE_CURVE('',#1165,#1151,#1170,.F.) ;
#1196=EDGE_CURVE('',#1193,#1195,#1191,.T.) ;
#1201=EDGE_CURVE('',#1195,#1193,#1200,.T.) ;
#1218=EDGE_CURVE('',#1089,#1217,#1215,.T.) ;
#1223=EDGE_CURVE('',#1217,#924,#1222,.T.) ;
#1242=EDGE_CURVE('',#1241,#908,#1239,.T.) ;
#1252=EDGE_CURVE('',#1241,#1251,#1243,.T.) ;
#1260=EDGE_CURVE('',#1251,#1217,#1253,.T.) ;
#1278=EDGE_CURVE('',#1105,#1241,#1277,.T.) ;
#1297=EDGE_CURVE('',#1008,#1296,#1294,.F.) ;
#1302=EDGE_CURVE('',#1296,#105,#1301,.T.) ;
#1307=EDGE_CURVE('',#994,#105,#1306,.F.) ;
#1326=EDGE_CURVE('',#1325,#1001,#1323,.T.) ;
#1331=EDGE_CURVE('',#1296,#1325,#1330,.T.) ;
#1346=EDGE_CURVE('',#1343,#1345,#1341,.T.) ;
#1351=EDGE_CURVE('',#1345,#1343,#1350,.T.) ;
#1366=EDGE_CURVE('',#1325,#71,#1365,.T.) ;
#1371=EDGE_CURVE('',#71,#992,#1370,.T.) ;
#1411=EDGE_CURVE('',#1098,#1410,#1408,.F.) ;
#1418=EDGE_CURVE('',#1417,#1410,#1415,.F.) ;
#1423=EDGE_CURVE('',#1091,#1417,#1422,.F.) ;
#1440=EDGE_CURVE('',#1410,#1417,#1439,.F.) ;
#1459=EDGE_CURVE('',#1165,#1458,#1456,.F.) ;
#1464=EDGE_CURVE('',#1458,#348,#1463,.T.) ;
#1469=EDGE_CURVE('',#1151,#348,#1468,.F.) ;
#1488=EDGE_CURVE('',#1487,#339,#1485,.T.) ;
#1493=EDGE_CURVE('',#1487,#1158,#1492,.T.) ;
#1498=EDGE_CURVE('',#339,#1149,#1497,.T.) ;
#1524=EDGE_CURVE('',#1523,#1195,#1521,.F.) ;
#1531=EDGE_CURVE('',#1523,#1530,#1528,.T.) ;
#1536=EDGE_CURVE('',#1530,#1193,#1535,.F.) ;
#1548=EDGE_CURVE('',#1530,#1523,#1547,.T.) ;
#1582=EDGE_CURVE('',#1579,#1581,#1577,.T.) ;
#1587=EDGE_CURVE('',#1343,#1581,#1586,.T.) ;
#1592=EDGE_CURVE('',#1345,#1579,#1591,.T.) ;
#1604=EDGE_CURVE('',#1581,#1579,#1603,.T.) ;
#1629=EDGE_CURVE('',#1626,#1628,#1624,.T.) ;
#1634=EDGE_CURVE('',#1628,#1626,#1633,.T.) ;
#1653=EDGE_CURVE('',#1650,#1652,#1648,.T.) ;
#1660=EDGE_CURVE('',#1659,#1652,#1657,.T.) ;
#1667=EDGE_CURVE('',#1666,#1659,#1664,.T.) ;
#1672=EDGE_CURVE('',#1666,#1650,#1671,.T.) ;
#1684=EDGE_CURVE('',#1652,#1650,#1683,.T.) ;
#1689=EDGE_CURVE('',#1659,#1666,#1688,.T.) ;
#1705=EDGE_CURVE('',#1702,#1704,#1700,.T.) ;
#1710=EDGE_CURVE('',#1704,#1702,#1709,.T.) ;
#1744=EDGE_CURVE('',#1626,#1743,#1741,.T.) ;
#1751=EDGE_CURVE('',#1628,#1750,#1748,.T.) ;
#1756=EDGE_CURVE('',#1743,#1750,#1755,.T.) ;
#1768=EDGE_CURVE('',#1750,#1743,#1767,.T.) ;
#1802=EDGE_CURVE('',#1799,#1801,#1797,.T.) ;
#1807=EDGE_CURVE('',#1704,#1801,#1806,.T.) ;
#1812=EDGE_CURVE('',#1702,#1799,#1811,.T.) ;
#1824=EDGE_CURVE('',#1801,#1799,#1823,.T.) ;
#1850=EDGE_CURVE('',#814,#843,#1849,.T.) ;
#1866=EDGE_CURVE('',#1458,#1487,#1865,.T.) ;
#92=EDGE_LOOP('',(#93,#94,#95,#96,#97)) ;
#117=EDGE_LOOP('',(#118,#119,#120,#121,#122)) ;
#130=EDGE_LOOP('',(#131,#132)) ;
#176=EDGE_LOOP('',(#177,#178,#179,#180,#181,#182)) ;
#209=EDGE_LOOP('',(#210,#211,#212,#213)) ;
#233=EDGE_LOOP('',(#234,#235,#236,#237)) ;
#257=EDGE_LOOP('',(#258,#259,#260,#261)) ;
#281=EDGE_LOOP('',(#282,#283,#284,#285)) ;
#305=EDGE_LOOP('',(#306,#307,#308,#309)) ;
#322=EDGE_LOOP('',(#323,#324,#325,#326)) ;
#362=EDGE_LOOP('',(#363,#364,#365,#366)) ;
#374=EDGE_LOOP('',(#375,#376)) ;
#420=EDGE_LOOP('',(#421,#422,#423,#424,#425,#426)) ;
#453=EDGE_LOOP('',(#454,#455,#456,#457)) ;
#477=EDGE_LOOP('',(#478,#479,#480,#481)) ;
#496=EDGE_LOOP('',(#497,#498,#499,#500)) ;
#520=EDGE_LOOP('',(#521,#522,#523,#524)) ;
#544=EDGE_LOOP('',(#545,#546,#547,#548)) ;
#556=EDGE_LOOP('',(#557,#558,#559,#560)) ;
#603=EDGE_LOOP('',(#604,#605,#606,#607,#608)) ;
#616=EDGE_LOOP('',(#617,#618)) ;
#662=EDGE_LOOP('',(#663,#664,#665,#666,#667,#668)) ;
#695=EDGE_LOOP('',(#696,#697,#698,#699)) ;
#714=EDGE_LOOP('',(#715,#716,#717,#718)) ;
#733=EDGE_LOOP('',(#734,#735,#736,#737)) ;
#757=EDGE_LOOP('',(#758,#759,#760,#761)) ;
#776=EDGE_LOOP('',(#777,#778,#779,#780)) ;
#788=EDGE_LOOP('',(#789,#790,#791,#792)) ;
#826=EDGE_LOOP('',(#827,#828,#829,#830)) ;
#866=EDGE_LOOP('',(#867,#868,#869,#870)) ;
#888=EDGE_LOOP('',(#889,#890,#891,#892,#893)) ;
#966=EDGE_LOOP('',(#967,#968,#969,#970,#971,#972,#973,#974)) ;
#981=EDGE_LOOP('',(#982,#983,#984,#985)) ;
#1015=EDGE_LOOP('',(#1016,#1017,#1018,#1019)) ;
#1055=EDGE_LOOP('',(#1056,#1057,#1058,#1059)) ;
#1072=EDGE_LOOP('',(#1073,#1074,#1075,#1076)) ;
#1122=EDGE_LOOP('',(#1123,#1124,#1125,#1126,#1127,#1128,#1129,#1130)) ;
#1138=EDGE_LOOP('',(#1139,#1140,#1141,#1142)) ;
#1172=EDGE_LOOP('',(#1173,#1174,#1175,#1176)) ;
#1184=EDGE_LOOP('',(#1185,#1186)) ;
#1202=EDGE_LOOP('',(#1203,#1204)) ;
#1224=EDGE_LOOP('',(#1225,#1226,#1227,#1228)) ;
#1261=EDGE_LOOP('',(#1262,#1263,#1264,#1265,#1266)) ;
#1279=EDGE_LOOP('',(#1280,#1281,#1282,#1283)) ;
#1308=EDGE_LOOP('',(#1309,#1310,#1311,#1312)) ;
#1332=EDGE_LOOP('',(#1333,#1334,#1335,#1336)) ;
#1352=EDGE_LOOP('',(#1353,#1354)) ;
#1372=EDGE_LOOP('',(#1373,#1374,#1375,#1376)) ;
#1379=EDGE_LOOP('',(#1380,#1381,#1382,#1383,#1384)) ;
#1387=EDGE_LOOP('',(#1388,#1389,#1390,#1391,#1392,#1393)) ;
#1395=EDGE_LOOP('',(#1396,#1397)) ;
#1424=EDGE_LOOP('',(#1425,#1426,#1427,#1428,#1429,#1430,#1431,#1432,#1433)) ;
#1441=EDGE_LOOP('',(#1442,#1443,#1444,#1445)) ;
#1470=EDGE_LOOP('',(#1471,#1472,#1473,#1474)) ;
#1499=EDGE_LOOP('',(#1500,#1501,#1502,#1503)) ;
#1506=EDGE_LOOP('',(#1507,#1508,#1509,#1510)) ;
#1537=EDGE_LOOP('',(#1538,#1539,#1540,#1541)) ;
#1549=EDGE_LOOP('',(#1550,#1551,#1552,#1553)) ;
#1561=EDGE_LOOP('',(#1562,#1563,#1564,#1565,#1566)) ;
#1593=EDGE_LOOP('',(#1594,#1595,#1596,#1597)) ;
#1605=EDGE_LOOP('',(#1606,#1607,#1608,#1609)) ;
#1617=EDGE_LOOP('',(#1618,#1619)) ;
#1635=EDGE_LOOP('',(#1636,#1637)) ;
#1673=EDGE_LOOP('',(#1674,#1675,#1676,#1677)) ;
#1690=EDGE_LOOP('',(#1691,#1692,#1693,#1694)) ;
#1711=EDGE_LOOP('',(#1712,#1713)) ;
#1715=EDGE_LOOP('',(#1716,#1717)) ;
#1720=EDGE_LOOP('',(#1721,#1722,#1723,#1724,#1725,#1726)) ;
#1728=EDGE_LOOP('',(#1729,#1730)) ;
#1757=EDGE_LOOP('',(#1758,#1759,#1760,#1761)) ;
#1769=EDGE_LOOP('',(#1770,#1771,#1772,#1773)) ;
#1776=EDGE_LOOP('',(#1777,#1778,#1779,#1780,#1781,#1782)) ;
#1784=EDGE_LOOP('',(#1785,#1786)) ;
#1813=EDGE_LOOP('',(#1814,#1815,#1816,#1817)) ;
#1825=EDGE_LOOP('',(#1826,#1827,#1828,#1829)) ;
#1837=EDGE_LOOP('',(#1838,#1839)) ;
#1841=EDGE_LOOP('',(#1842,#1843)) ;
#1851=EDGE_LOOP('',(#1852,#1853,#1854,#1855)) ;
#1857=EDGE_LOOP('',(#1858,#1859)) ;
#1867=EDGE_LOOP('',(#1868,#1869,#1870,#1871)) ;
#1873=EDGE_LOOP('',(#1874,#1875)) ;
#1878=EDGE_LOOP('',(#1879,#1880,#1881,#1882,#1883,#1884,#1885,#1886)) ;
#1889=EDGE_LOOP('',(#1890,#1891,#1892,#1893,#1894,#1895)) ;
#98=FACE_OUTER_BOUND('',#92,.T.) ;
#123=FACE_OUTER_BOUND('',#117,.T.) ;
#133=FACE_OUTER_BOUND('',#130,.T.) ;
#214=FACE_OUTER_BOUND('',#209,.T.) ;
#238=FACE_OUTER_BOUND('',#233,.T.) ;
#262=FACE_OUTER_BOUND('',#257,.T.) ;
#286=FACE_OUTER_BOUND('',#281,.T.) ;
#310=FACE_OUTER_BOUND('',#305,.T.) ;
#327=FACE_OUTER_BOUND('',#322,.T.) ;
#367=FACE_OUTER_BOUND('',#362,.T.) ;
#377=FACE_OUTER_BOUND('',#374,.T.) ;
#458=FACE_OUTER_BOUND('',#453,.T.) ;
#482=FACE_OUTER_BOUND('',#477,.T.) ;
#501=FACE_OUTER_BOUND('',#496,.T.) ;
#525=FACE_OUTER_BOUND('',#520,.T.) ;
#549=FACE_OUTER_BOUND('',#544,.T.) ;
#561=FACE_OUTER_BOUND('',#556,.T.) ;
#609=FACE_OUTER_BOUND('',#603,.T.) ;
#619=FACE_OUTER_BOUND('',#616,.T.) ;
#700=FACE_OUTER_BOUND('',#695,.T.) ;
#719=FACE_OUTER_BOUND('',#714,.T.) ;
#738=FACE_OUTER_BOUND('',#733,.T.) ;
#762=FACE_OUTER_BOUND('',#757,.T.) ;
#781=FACE_OUTER_BOUND('',#776,.T.) ;
#793=FACE_OUTER_BOUND('',#788,.T.) ;
#831=FACE_OUTER_BOUND('',#826,.T.) ;
#871=FACE_OUTER_BOUND('',#866,.T.) ;
#894=FACE_OUTER_BOUND('',#888,.T.) ;
#975=FACE_OUTER_BOUND('',#966,.T.) ;
#1060=FACE_OUTER_BOUND('',#1055,.T.) ;
#1077=FACE_OUTER_BOUND('',#1072,.T.) ;
#1131=FACE_OUTER_BOUND('',#1122,.T.) ;
#1143=FACE_OUTER_BOUND('',#1138,.T.) ;
#1187=FACE_OUTER_BOUND('',#1184,.T.) ;
#1229=FACE_OUTER_BOUND('',#1224,.T.) ;
#1267=FACE_OUTER_BOUND('',#1261,.T.) ;
#1284=FACE_OUTER_BOUND('',#1279,.T.) ;
#1313=FACE_OUTER_BOUND('',#1308,.T.) ;
#1337=FACE_OUTER_BOUND('',#1332,.T.) ;
#1377=FACE_OUTER_BOUND('',#1372,.T.) ;
#1385=FACE_OUTER_BOUND('',#1379,.T.) ;
#1394=FACE_OUTER_BOUND('',#1387,.T.) ;
#1434=FACE_OUTER_BOUND('',#1424,.T.) ;
#1446=FACE_OUTER_BOUND('',#1441,.T.) ;
#1475=FACE_OUTER_BOUND('',#1470,.T.) ;
#1504=FACE_OUTER_BOUND('',#1499,.T.) ;
#1511=FACE_OUTER_BOUND('',#1506,.T.) ;
#1542=FACE_OUTER_BOUND('',#1537,.T.) ;
#1554=FACE_OUTER_BOUND('',#1549,.T.) ;
#1567=FACE_OUTER_BOUND('',#1561,.T.) ;
#1598=FACE_OUTER_BOUND('',#1593,.T.) ;
#1610=FACE_OUTER_BOUND('',#1605,.T.) ;
#1620=FACE_OUTER_BOUND('',#1617,.T.) ;
#1678=FACE_OUTER_BOUND('',#1673,.T.) ;
#1695=FACE_OUTER_BOUND('',#1690,.T.) ;
#1714=FACE_OUTER_BOUND('',#1711,.T.) ;
#1727=FACE_OUTER_BOUND('',#1720,.T.) ;
#1762=FACE_OUTER_BOUND('',#1757,.T.) ;
#1774=FACE_OUTER_BOUND('',#1769,.T.) ;
#1783=FACE_OUTER_BOUND('',#1776,.T.) ;
#1818=FACE_OUTER_BOUND('',#1813,.T.) ;
#1830=FACE_OUTER_BOUND('',#1825,.T.) ;
#1840=FACE_OUTER_BOUND('',#1837,.T.) ;
#1856=FACE_OUTER_BOUND('',#1851,.T.) ;
#1872=FACE_OUTER_BOUND('',#1867,.T.) ;
#1887=FACE_OUTER_BOUND('',#1878,.T.) ;
#1896=FACE_OUTER_BOUND('',#1889,.T.) ;
#45=UNCERTAINTY_MEASURE_WITH_UNIT(LENGTH_MEASURE(0.005),#41,'distance_accuracy_value','CONFUSED CURVE UNCERTAINTY') ;
#60=LINE('Line',#57,#59) ;
#83=LINE('Line',#80,#82) ;
#137=LINE('Line',#134,#136) ;
#146=LINE('Line',#143,#145) ;
#153=LINE('Line',#150,#152) ;
#160=LINE('Line',#157,#159) ;
#167=LINE('Line',#164,#166) ;
#174=LINE('Line',#171,#173) ;
#193=LINE('Line',#190,#192) ;
#200=LINE('Line',#197,#199) ;
#207=LINE('Line',#204,#206) ;
#224=LINE('Line',#221,#223) ;
#231=LINE('Line',#228,#230) ;
#248=LINE('Line',#245,#247) ;
#255=LINE('Line',#252,#254) ;
#272=LINE('Line',#269,#271) ;
#279=LINE('Line',#276,#278) ;
#296=LINE('Line',#293,#295) ;
#303=LINE('Line',#300,#302) ;
#320=LINE('Line',#317,#319) ;
#337=LINE('Line',#334,#336) ;
#353=LINE('Line',#350,#352) ;
#381=LINE('Line',#378,#380) ;
#390=LINE('Line',#387,#389) ;
#397=LINE('Line',#394,#396) ;
#404=LINE('Line',#401,#403) ;
#411=LINE('Line',#408,#410) ;
#418=LINE('Line',#415,#417) ;
#437=LINE('Line',#434,#436) ;
#444=LINE('Line',#441,#443) ;
#451=LINE('Line',#448,#450) ;
#468=LINE('Line',#465,#467) ;
#475=LINE('Line',#472,#474) ;
#487=LINE('Line',#484,#486) ;
#494=LINE('Line',#491,#493) ;
#511=LINE('Line',#508,#510) ;
#518=LINE('Line',#515,#517) ;
#535=LINE('Line',#532,#534) ;
#542=LINE('Line',#539,#541) ;
#554=LINE('Line',#551,#553) ;
#571=LINE('Line',#568,#570) ;
#594=LINE('Line',#591,#593) ;
#623=LINE('Line',#620,#622) ;
#632=LINE('Line',#629,#631) ;
#639=LINE('Line',#636,#638) ;
#646=LINE('Line',#643,#645) ;
#653=LINE('Line',#650,#652) ;
#660=LINE('Line',#657,#659) ;
#679=LINE('Line',#676,#678) ;
#686=LINE('Line',#683,#685) ;
#693=LINE('Line',#690,#692) ;
#705=LINE('Line',#702,#704) ;
#712=LINE('Line',#709,#711) ;
#724=LINE('Line',#721,#723) ;
#731=LINE('Line',#728,#730) ;
#748=LINE('Line',#745,#747) ;
#755=LINE('Line',#752,#754) ;
#767=LINE('Line',#764,#766) ;
#774=LINE('Line',#771,#773) ;
#786=LINE('Line',#783,#785) ;
#803=LINE('Line',#800,#802) ;
#812=LINE('Line',#809,#811) ;
#819=LINE('Line',#816,#818) ;
#824=LINE('Line',#821,#823) ;
#841=LINE('Line',#838,#840) ;
#850=LINE('Line',#847,#849) ;
#857=LINE('Line',#854,#856) ;
#864=LINE('Line',#861,#863) ;
#904=LINE('Line',#901,#903) ;
#929=LINE('Line',#926,#928) ;
#943=LINE('Line',#940,#942) ;
#957=LINE('Line',#954,#956) ;
#999=LINE('Line',#996,#998) ;
#1013=LINE('Line',#1010,#1012) ;
#1039=LINE('Line',#1036,#1038) ;
#1053=LINE('Line',#1050,#1052) ;
#1110=LINE('Line',#1107,#1109) ;
#1120=LINE('Line',#1117,#1119) ;
#1156=LINE('Line',#1153,#1155) ;
#1170=LINE('Line',#1167,#1169) ;
#1215=LINE('Line',#1212,#1214) ;
#1222=LINE('Line',#1219,#1221) ;
#1239=LINE('Line',#1236,#1238) ;
#1277=LINE('Line',#1274,#1276) ;
#1294=LINE('Line',#1291,#1293) ;
#1301=LINE('Line',#1298,#1300) ;
#1306=LINE('Line',#1303,#1305) ;
#1323=LINE('Line',#1320,#1322) ;
#1365=LINE('Line',#1362,#1364) ;
#1370=LINE('Line',#1367,#1369) ;
#1408=LINE('Line',#1405,#1407) ;
#1422=LINE('Line',#1419,#1421) ;
#1456=LINE('Line',#1453,#1455) ;
#1463=LINE('Line',#1460,#1462) ;
#1468=LINE('Line',#1465,#1467) ;
#1485=LINE('Line',#1482,#1484) ;
#1492=LINE('Line',#1489,#1491) ;
#1497=LINE('Line',#1494,#1496) ;
#1521=LINE('Line',#1518,#1520) ;
#1535=LINE('Line',#1532,#1534) ;
#1586=LINE('Line',#1583,#1585) ;
#1591=LINE('Line',#1588,#1590) ;
#1657=LINE('Line',#1654,#1656) ;
#1671=LINE('Line',#1668,#1670) ;
#1741=LINE('Line',#1738,#1740) ;
#1748=LINE('Line',#1745,#1747) ;
#1806=LINE('Line',#1803,#1805) ;
#1811=LINE('Line',#1808,#1810) ;
#2=MECHANICAL_CONTEXT(' ',#1,'mechanical') ;
#24=PERSONAL_ADDRESS(' ',' ',' ',' ',' ',' ',' ',' ',' ',' ',' ',' ',(#22),' ') ;
#129=PLANE('',#128) ;
#189=PLANE('',#188) ;
#220=PLANE('',#219) ;
#244=PLANE('',#243) ;
#268=PLANE('',#267) ;
#292=PLANE('',#291) ;
#316=PLANE('',#315) ;
#433=PLANE('',#432) ;
#464=PLANE('',#463) ;
#507=PLANE('',#506) ;
#531=PLANE('',#530) ;
#675=PLANE('',#674) ;
#744=PLANE('',#743) ;
#799=PLANE('',#798) ;
#837=PLANE('',#836) ;
#877=PLANE('',#876) ;
#1083=PLANE('',#1082) ;
#1183=PLANE('',#1182) ;
#1211=PLANE('',#1210) ;
#1273=PLANE('',#1272) ;
#1290=PLANE('',#1289) ;
#1319=PLANE('',#1318) ;
#1361=PLANE('',#1360) ;
#1452=PLANE('',#1451) ;
#1481=PLANE('',#1480) ;
#1616=PLANE('',#1615) ;
#1836=PLANE('',#1835) ;
#43=PLANE_ANGLE_MEASURE_WITH_UNIT(PLANE_ANGLE_MEASURE(0.0174532925199),#42) ;
#7=PRODUCT_CATEGORY('part',$) ;
#9=PRODUCT_CATEGORY_RELATIONSHIP(' ',' ',#7,#8) ;
#6=PRODUCT_DEFINITION_FORMATION_WITH_SPECIFIED_SOURCE('',' ',#5,.NOT_KNOWN.) ;
#8=PRODUCT_RELATED_PRODUCT_CATEGORY('detail',$,(#5)) ;
#50=SHAPE_DEFINITION_REPRESENTATION(#40,#49) ;
#62=VERTEX_POINT('',#61) ;
#64=VERTEX_POINT('',#63) ;
#71=VERTEX_POINT('',#70) ;
#78=VERTEX_POINT('',#77) ;
#85=VERTEX_POINT('',#84) ;
#105=VERTEX_POINT('',#104) ;
#139=VERTEX_POINT('',#138) ;
#141=VERTEX_POINT('',#140) ;
#148=VERTEX_POINT('',#147) ;
#155=VERTEX_POINT('',#154) ;
#162=VERTEX_POINT('',#161) ;
#169=VERTEX_POINT('',#168) ;
#195=VERTEX_POINT('',#194) ;
#202=VERTEX_POINT('',#201) ;
#226=VERTEX_POINT('',#225) ;
#250=VERTEX_POINT('',#249) ;
#274=VERTEX_POINT('',#273) ;
#298=VERTEX_POINT('',#297) ;
#339=VERTEX_POINT('',#338) ;
#341=VERTEX_POINT('',#340) ;
#348=VERTEX_POINT('',#347) ;
#355=VERTEX_POINT('',#354) ;
#383=VERTEX_POINT('',#382) ;
#385=VERTEX_POINT('',#384) ;
#392=VERTEX_POINT('',#391) ;
#399=VERTEX_POINT('',#398) ;
#406=VERTEX_POINT('',#405) ;
#413=VERTEX_POINT('',#412) ;
#439=VERTEX_POINT('',#438) ;
#446=VERTEX_POINT('',#445) ;
#470=VERTEX_POINT('',#469) ;
#489=VERTEX_POINT('',#488) ;
#513=VERTEX_POINT('',#512) ;
#537=VERTEX_POINT('',#536) ;
#573=VERTEX_POINT('',#572) ;
#575=VERTEX_POINT('',#574) ;
#582=VERTEX_POINT('',#581) ;
#589=VERTEX_POINT('',#588) ;
#596=VERTEX_POINT('',#595) ;
#625=VERTEX_POINT('',#624) ;
#627=VERTEX_POINT('',#626) ;
#634=VERTEX_POINT('',#633) ;
#641=VERTEX_POINT('',#640) ;
#648=VERTEX_POINT('',#647) ;
#655=VERTEX_POINT('',#654) ;
#681=VERTEX_POINT('',#680) ;
#688=VERTEX_POINT('',#687) ;
#707=VERTEX_POINT('',#706) ;
#726=VERTEX_POINT('',#725) ;
#750=VERTEX_POINT('',#749) ;
#769=VERTEX_POINT('',#768) ;
#805=VERTEX_POINT('',#804) ;
#807=VERTEX_POINT('',#806) ;
#814=VERTEX_POINT('',#813) ;
#843=VERTEX_POINT('',#842) ;
#845=VERTEX_POINT('',#844) ;
#852=VERTEX_POINT('',#851) ;
#859=VERTEX_POINT('',#858) ;
#906=VERTEX_POINT('',#905) ;
#908=VERTEX_POINT('',#907) ;
#924=VERTEX_POINT('',#923) ;
#931=VERTEX_POINT('',#930) ;
#938=VERTEX_POINT('',#937) ;
#945=VERTEX_POINT('',#944) ;
#952=VERTEX_POINT('',#951) ;
#959=VERTEX_POINT('',#958) ;
#992=VERTEX_POINT('',#991) ;
#994=VERTEX_POINT('',#993) ;
#1001=VERTEX_POINT('',#1000) ;
#1008=VERTEX_POINT('',#1007) ;
#1032=VERTEX_POINT('',#1031) ;
#1034=VERTEX_POINT('',#1033) ;
#1041=VERTEX_POINT('',#1040) ;
#1048=VERTEX_POINT('',#1047) ;
#1089=VERTEX_POINT('',#1088) ;
#1091=VERTEX_POINT('',#1090) ;
#1098=VERTEX_POINT('',#1097) ;
#1105=VERTEX_POINT('',#1104) ;
#1149=VERTEX_POINT('',#1148) ;
#1151=VERTEX_POINT('',#1150) ;
#1158=VERTEX_POINT('',#1157) ;
#1165=VERTEX_POINT('',#1164) ;
#1193=VERTEX_POINT('',#1192) ;
#1195=VERTEX_POINT('',#1194) ;
#1217=VERTEX_POINT('',#1216) ;
#1241=VERTEX_POINT('',#1240) ;
#1251=VERTEX_POINT('',#1250) ;
#1296=VERTEX_POINT('',#1295) ;
#1325=VERTEX_POINT('',#1324) ;
#1343=VERTEX_POINT('',#1342) ;
#1345=VERTEX_POINT('',#1344) ;
#1410=VERTEX_POINT('',#1409) ;
#1417=VERTEX_POINT('',#1416) ;
#1458=VERTEX_POINT('',#1457) ;
#1487=VERTEX_POINT('',#1486) ;
#1523=VERTEX_POINT('',#1522) ;
#1530=VERTEX_POINT('',#1529) ;
#1579=VERTEX_POINT('',#1578) ;
#1581=VERTEX_POINT('',#1580) ;
#1626=VERTEX_POINT('',#1625) ;
#1628=VERTEX_POINT('',#1627) ;
#1650=VERTEX_POINT('',#1649) ;
#1652=VERTEX_POINT('',#1651) ;
#1659=VERTEX_POINT('',#1658) ;
#1666=VERTEX_POINT('',#1665) ;
#1702=VERTEX_POINT('',#1701) ;
#1704=VERTEX_POINT('',#1703) ;
#1743=VERTEX_POINT('',#1742) ;
#1750=VERTEX_POINT('',#1749) ;
#1799=VERTEX_POINT('',#1798) ;
#1801=VERTEX_POINT('',#1800) ;
#41=(LENGTH_UNIT()NAMED_UNIT(*)SI_UNIT(.MILLI.,.METRE.)) ;
#42=(NAMED_UNIT(*)PLANE_ANGLE_UNIT()SI_UNIT($,.RADIAN.)) ;
#44=(NAMED_UNIT(*)SI_UNIT($,.STERADIAN.)SOLID_ANGLE_UNIT()) ;
#46=(GEOMETRIC_REPRESENTATION_CONTEXT(3)GLOBAL_UNCERTAINTY_ASSIGNED_CONTEXT((#45))GLOBAL_UNIT_ASSIGNED_CONTEXT((#41,#42,#44))REPRESENTATION_CONTEXT(' ',' ')) ;
ENDSEC;
END-ISO-10303-21;
