%TF.GenerationSoftware,KiCad,Pcbnew,10.0.3*%
%TF.CreationDate,2026-06-04T19:53:53+09:00*%
%TF.ProjectId,fsk-traffic,66736b2d-7472-4616-9666-69632e6b6963,rev?*%
%TF.SameCoordinates,Original*%
%TF.FileFunction,Copper,L2,Bot*%
%TF.FilePolarity,Positive*%
%FSLAX46Y46*%
G04 Gerber Fmt 4.6, Leading zero omitted, Abs format (unit mm)*
G04 Created by KiCad (PCBNEW 10.0.3) date 2026-06-04 19:53:53*
%MOMM*%
%LPD*%
G01*
G04 APERTURE LIST*
G04 Aperture macros list*
%AMRoundRect*
0 Rectangle with rounded corners*
0 $1 Rounding radius*
0 $2 $3 $4 $5 $6 $7 $8 $9 X,Y pos of 4 corners*
0 Add a 4 corners polygon primitive as box body*
4,1,4,$2,$3,$4,$5,$6,$7,$8,$9,$2,$3,0*
0 Add four circle primitives for the rounded corners*
1,1,$1+$1,$2,$3*
1,1,$1+$1,$4,$5*
1,1,$1+$1,$6,$7*
1,1,$1+$1,$8,$9*
0 Add four rect primitives between the rounded corners*
20,1,$1+$1,$2,$3,$4,$5,0*
20,1,$1+$1,$4,$5,$6,$7,0*
20,1,$1+$1,$6,$7,$8,$9,0*
20,1,$1+$1,$8,$9,$2,$3,0*%
G04 Aperture macros list end*
%TA.AperFunction,ComponentPad*%
%ADD10C,4.400000*%
%TD*%
%TA.AperFunction,ComponentPad*%
%ADD11RoundRect,0.250001X1.599999X-1.099999X1.599999X1.099999X-1.599999X1.099999X-1.599999X-1.099999X0*%
%TD*%
%TA.AperFunction,ComponentPad*%
%ADD12O,3.700000X2.700000*%
%TD*%
%TA.AperFunction,ComponentPad*%
%ADD13C,1.600000*%
%TD*%
%TA.AperFunction,ComponentPad*%
%ADD14C,1.574800*%
%TD*%
%TA.AperFunction,ViaPad*%
%ADD15C,0.600000*%
%TD*%
%TA.AperFunction,Conductor*%
%ADD16C,0.600000*%
%TD*%
%TA.AperFunction,Conductor*%
%ADD17C,0.200000*%
%TD*%
G04 APERTURE END LIST*
D10*
%TO.P,REF\u002A\u002A,1*%
%TO.N,N/C*%
X99000000Y-165000000D03*
%TD*%
D11*
%TO.P,J1,1,Pin_1_1*%
%TO.N,+12V*%
X106700000Y-140650000D03*
D12*
%TO.P,J1,2,Pin_2_2*%
%TO.N,unconnected-(J1-Pin_2-Pad2)*%
X106700000Y-136450000D03*
%TO.P,J1,3,Pin_3_3*%
%TO.N,/SENSE*%
X112200000Y-140650000D03*
%TO.P,J1,4,Pin_4_4*%
%TO.N,GND*%
X112200000Y-136450000D03*
%TD*%
D13*
%TO.P,U1,1,P0.06_1*%
%TO.N,unconnected-(U1-P0.06-Pad1)_1*%
X155711559Y-163654148D03*
%TO.P,U1,2,P0.08_2*%
%TO.N,/NSS*%
X155711559Y-161114148D03*
%TO.P,U1,3,GND_3*%
%TO.N,GND*%
X155711559Y-158574148D03*
%TO.P,U1,4,GND_4*%
X155711559Y-156034148D03*
%TO.P,U1,5,P0.17_5*%
%TO.N,/MOSI*%
X155711559Y-153494148D03*
%TO.P,U1,6,P0.20_6*%
%TO.N,/MISO*%
X155711559Y-150954148D03*
%TO.P,U1,7,P0.22_7*%
%TO.N,/SCK*%
X155711559Y-148414148D03*
%TO.P,U1,8,P0.24_8*%
%TO.N,/RXEN*%
X155711559Y-145874148D03*
%TO.P,U1,9,P1.00_9*%
%TO.N,/BUSY*%
X155711559Y-143334148D03*
%TO.P,U1,10,P0.11_10*%
%TO.N,/NRST*%
X155711559Y-140794148D03*
%TO.P,U1,11,P1.04-LF_11*%
%TO.N,/TXEN*%
X155711559Y-138254148D03*
%TO.P,U1,12,P1.06-LF_12*%
%TO.N,/DIO1*%
X155711559Y-135714148D03*
%TO.P,U1,13,BAT+_13*%
%TO.N,+BATT*%
X140471549Y-163654158D03*
%TO.P,U1,14,GND_14*%
%TO.N,GND*%
X140471549Y-161114158D03*
%TO.P,U1,15,RST_15*%
%TO.N,unconnected-(U1-RST-Pad15)_1*%
X140471549Y-158574158D03*
%TO.P,U1,16,3V3_16*%
%TO.N,+3.3V*%
X140471549Y-156034158D03*
%TO.P,U1,17,P0.31-LF_17*%
%TO.N,unconnected-(U1-P0.31-LF-Pad17)*%
X140471549Y-153494158D03*
%TO.P,U1,18,P0.29-LF_18*%
%TO.N,/RED*%
X140471549Y-150954158D03*
%TO.P,U1,19,P0.02-LF_19*%
%TO.N,/GREEN*%
X140471549Y-148414158D03*
%TO.P,U1,20,P1.15-LF_20*%
%TO.N,unconnected-(U1-P1.15-LF-Pad20)*%
X140471549Y-145874158D03*
%TO.P,U1,21,P1.13-LF_21*%
%TO.N,unconnected-(U1-P1.13-LF-Pad21)*%
X140471549Y-143334158D03*
%TO.P,U1,22,P1.11-LF_22*%
%TO.N,/SENSOR*%
X140471549Y-140794158D03*
%TO.P,U1,23,P0.10-LF_23*%
%TO.N,unconnected-(U1-P0.10-LF-Pad23)*%
X140471549Y-138254158D03*
%TO.P,U1,24,P0.09-LF_24*%
%TO.N,unconnected-(U1-P0.09-LF-Pad24)*%
X140471549Y-135714158D03*
D14*
%TO.P,U1,25,P1.01-LF_25*%
%TO.N,unconnected-(U1-P1.01-LF-Pad25)*%
X152631559Y-138808948D03*
%TO.P,U1,26,P1.02-LF_26*%
%TO.N,unconnected-(U1-P1.02-LF-Pad26)*%
X150091559Y-138808948D03*
%TO.P,U1,27,P1.07-LF_27*%
%TO.N,unconnected-(U1-P1.07-LF-Pad27)*%
X147551559Y-138808948D03*
D13*
%TO.P,U1,28,GND_28*%
%TO.N,GND*%
X155711559Y-166194148D03*
%TO.P,U1,29,BAT+_29*%
%TO.N,+BATT*%
X140471549Y-166194158D03*
%TD*%
D10*
%TO.P,REF\u002A\u002A,1*%
%TO.N,N/C*%
X185000000Y-165000000D03*
%TD*%
%TO.P,REF\u002A\u002A,1*%
%TO.N,N/C*%
X99000000Y-114000000D03*
%TD*%
%TO.P,REF\u002A\u002A,1*%
%TO.N,N/C*%
X185000000Y-114000000D03*
%TD*%
D11*
%TO.P,J2,1,Pin_1_1*%
%TO.N,GND*%
X106700000Y-152850000D03*
D12*
%TO.P,J2,2,Pin_2_2*%
%TO.N,unconnected-(J2-Pin_2-Pad2)*%
X106700000Y-148650000D03*
%TO.P,J2,3,Pin_3_3*%
%TO.N,/RD*%
X112200000Y-152850000D03*
%TO.P,J2,4,Pin_4_4*%
%TO.N,/GN*%
X112200000Y-148650000D03*
%TD*%
D15*
%TO.N,GND*%
X128550000Y-144300000D03*
X132400000Y-141200000D03*
X104050000Y-131900000D03*
X176400000Y-152400000D03*
X183000000Y-153250000D03*
X168550000Y-158800000D03*
X136900000Y-165950000D03*
X138350000Y-148600000D03*
X128300000Y-140450000D03*
X174000000Y-149000000D03*
X181100000Y-153250000D03*
X130050000Y-137087500D03*
X118450000Y-158300000D03*
X137100000Y-137950000D03*
X122950000Y-154100000D03*
X160400000Y-140400000D03*
X132400000Y-145300000D03*
X168750000Y-133950000D03*
X138000000Y-152800000D03*
X123100000Y-165950000D03*
X181650000Y-126050000D03*
X114150000Y-154900000D03*
X176000000Y-141150000D03*
X158500000Y-133900000D03*
X119900000Y-137700000D03*
X115300000Y-141900000D03*
X118000000Y-149200000D03*
X164200000Y-140400000D03*
X130650000Y-166250000D03*
X133650000Y-164400000D03*
X128200000Y-162500000D03*
X164250000Y-154400000D03*
X126250000Y-137750000D03*
%TO.N,+12V*%
X109450000Y-145900000D03*
%TO.N,/GN*%
X123240500Y-140326987D03*
%TO.N,/NSS*%
X159512000Y-153517600D03*
%TO.N,/RD*%
X123329674Y-144557974D03*
%TD*%
%TO.N,+12V*%
D16*
X106700000Y-143150000D02*
X106700000Y-140650000D01*
X109450000Y-145900000D02*
X106700000Y-143150000D01*
%TO.N,/GN*%
D17*
X120523013Y-140326987D02*
X112200000Y-148650000D01*
X123240500Y-140326987D02*
X120523013Y-140326987D01*
%TO.N,/NSS*%
X159512000Y-153517600D02*
X159512000Y-157313707D01*
X159512000Y-157313707D02*
X155711559Y-161114148D01*
%TO.N,/RD*%
X120492026Y-144557974D02*
X123329674Y-144557974D01*
X112200000Y-152850000D02*
X120492026Y-144557974D01*
%TD*%
%TA.AperFunction,Conductor*%
%TO.N,GND*%
G36*
X183390907Y-111619685D02*
G01*
X183436662Y-111672489D01*
X183446606Y-111741647D01*
X183417581Y-111805203D01*
X183401181Y-111820947D01*
X183197696Y-111983220D01*
X182983220Y-112197696D01*
X182794107Y-112434837D01*
X182632733Y-112691661D01*
X182501133Y-112964931D01*
X182400957Y-113251216D01*
X182400953Y-113251228D01*
X182333460Y-113546937D01*
X182333457Y-113546951D01*
X182299500Y-113848336D01*
X182299500Y-114151663D01*
X182333457Y-114453048D01*
X182333459Y-114453060D01*
X182333460Y-114453063D01*
X182348864Y-114520556D01*
X182400953Y-114748771D01*
X182400957Y-114748783D01*
X182501133Y-115035068D01*
X182632733Y-115308338D01*
X182632735Y-115308341D01*
X182794108Y-115565164D01*
X182983221Y-115802304D01*
X183197696Y-116016779D01*
X183434836Y-116205892D01*
X183691659Y-116367265D01*
X183964935Y-116498868D01*
X184179951Y-116574105D01*
X184251216Y-116599042D01*
X184251228Y-116599046D01*
X184546937Y-116666540D01*
X184546946Y-116666541D01*
X184546951Y-116666542D01*
X184747874Y-116689180D01*
X184848337Y-116700499D01*
X184848340Y-116700500D01*
X184848343Y-116700500D01*
X185151660Y-116700500D01*
X185151661Y-116700499D01*
X185305694Y-116683144D01*
X185453048Y-116666542D01*
X185453051Y-116666541D01*
X185453063Y-116666540D01*
X185748772Y-116599046D01*
X186035065Y-116498868D01*
X186308341Y-116367265D01*
X186565164Y-116205892D01*
X186802304Y-116016779D01*
X187016779Y-115802304D01*
X187179054Y-115598816D01*
X187236241Y-115558678D01*
X187306053Y-115555828D01*
X187366323Y-115591173D01*
X187397916Y-115653492D01*
X187400000Y-115676131D01*
X187400000Y-163323868D01*
X187380315Y-163390907D01*
X187327511Y-163436662D01*
X187258353Y-163446606D01*
X187194797Y-163417581D01*
X187179053Y-163401181D01*
X187016779Y-163197696D01*
X186802303Y-162983220D01*
X186742078Y-162935193D01*
X186565164Y-162794108D01*
X186387785Y-162682653D01*
X186308338Y-162632733D01*
X186035068Y-162501133D01*
X185748783Y-162400957D01*
X185748771Y-162400953D01*
X185520556Y-162348864D01*
X185453063Y-162333460D01*
X185453060Y-162333459D01*
X185453048Y-162333457D01*
X185151663Y-162299500D01*
X185151657Y-162299500D01*
X184848343Y-162299500D01*
X184848336Y-162299500D01*
X184546951Y-162333457D01*
X184546937Y-162333460D01*
X184251228Y-162400953D01*
X184251216Y-162400957D01*
X183964931Y-162501133D01*
X183691661Y-162632733D01*
X183434837Y-162794107D01*
X183197696Y-162983220D01*
X182983220Y-163197696D01*
X182794107Y-163434837D01*
X182632733Y-163691661D01*
X182501133Y-163964931D01*
X182400957Y-164251216D01*
X182400953Y-164251228D01*
X182333460Y-164546937D01*
X182333457Y-164546951D01*
X182299500Y-164848336D01*
X182299500Y-165151663D01*
X182333457Y-165453048D01*
X182333459Y-165453060D01*
X182333460Y-165453063D01*
X182336921Y-165468225D01*
X182400953Y-165748771D01*
X182400957Y-165748783D01*
X182501133Y-166035068D01*
X182632733Y-166308338D01*
X182632735Y-166308341D01*
X182794108Y-166565164D01*
X182896197Y-166693179D01*
X182983220Y-166802303D01*
X183197696Y-167016779D01*
X183401181Y-167179053D01*
X183441321Y-167236241D01*
X183444171Y-167306053D01*
X183408826Y-167366323D01*
X183346507Y-167397916D01*
X183323868Y-167400000D01*
X156561678Y-167400000D01*
X156494639Y-167380315D01*
X156448884Y-167327511D01*
X156439762Y-167275903D01*
X155739006Y-166575148D01*
X155761719Y-166575148D01*
X155858620Y-166549184D01*
X155945499Y-166499024D01*
X156016435Y-166428088D01*
X156066595Y-166341209D01*
X156092559Y-166244308D01*
X156092559Y-166221595D01*
X156791033Y-166920069D01*
X156823418Y-166875497D01*
X156916314Y-166693179D01*
X156979549Y-166498565D01*
X157011559Y-166296465D01*
X157011559Y-166091830D01*
X156979549Y-165889730D01*
X156916314Y-165695116D01*
X156823418Y-165512798D01*
X156791033Y-165468225D01*
X156791033Y-165468224D01*
X156092559Y-166166699D01*
X156092559Y-166143988D01*
X156066595Y-166047087D01*
X156016435Y-165960208D01*
X155945499Y-165889272D01*
X155858620Y-165839112D01*
X155761719Y-165813148D01*
X155739005Y-165813148D01*
X156437481Y-165114672D01*
X156437480Y-165114671D01*
X156392918Y-165082295D01*
X156392909Y-165082289D01*
X156299928Y-165034913D01*
X156249132Y-164986938D01*
X156232337Y-164919117D01*
X156254874Y-164852983D01*
X156299929Y-164813943D01*
X156300459Y-164813673D01*
X156393169Y-164766435D01*
X156442703Y-164730446D01*
X156558772Y-164646119D01*
X156558774Y-164646116D01*
X156558778Y-164646114D01*
X156703525Y-164501367D01*
X156703527Y-164501363D01*
X156703530Y-164501361D01*
X156756291Y-164428738D01*
X156823846Y-164335758D01*
X156916779Y-164153367D01*
X156980036Y-163958682D01*
X157012059Y-163756500D01*
X157012059Y-163551796D01*
X156990801Y-163417581D01*
X156980036Y-163349613D01*
X156916782Y-163154939D01*
X156916779Y-163154929D01*
X156916777Y-163154926D01*
X156916777Y-163154924D01*
X156883062Y-163088755D01*
X156823846Y-162972538D01*
X156816115Y-162961897D01*
X156703530Y-162806934D01*
X156558772Y-162662176D01*
X156393173Y-162541863D01*
X156386565Y-162538496D01*
X156300476Y-162494631D01*
X156249682Y-162446659D01*
X156232887Y-162378838D01*
X156255424Y-162312703D01*
X156300476Y-162273664D01*
X156393169Y-162226435D01*
X156438319Y-162193632D01*
X156558772Y-162106119D01*
X156558774Y-162106116D01*
X156558778Y-162106114D01*
X156703525Y-161961367D01*
X156703527Y-161961363D01*
X156703530Y-161961361D01*
X156791645Y-161840079D01*
X156823846Y-161795758D01*
X156916779Y-161613367D01*
X156980036Y-161418682D01*
X157012059Y-161216500D01*
X157012059Y-161011796D01*
X156980036Y-160809614D01*
X156975384Y-160795299D01*
X156973391Y-160725460D01*
X157005634Y-160669306D01*
X159870506Y-157804435D01*
X159870511Y-157804431D01*
X159880714Y-157794227D01*
X159880716Y-157794227D01*
X159992520Y-157682423D01*
X160050388Y-157582192D01*
X160071577Y-157545492D01*
X160112500Y-157392765D01*
X160112500Y-157234650D01*
X160112500Y-154097365D01*
X160132185Y-154030326D01*
X160133398Y-154028474D01*
X160152443Y-153999972D01*
X160221394Y-153896779D01*
X160281737Y-153751097D01*
X160312500Y-153596442D01*
X160312500Y-153438758D01*
X160312500Y-153438755D01*
X160312499Y-153438753D01*
X160309508Y-153423717D01*
X160281737Y-153284103D01*
X160242603Y-153189624D01*
X160221397Y-153138427D01*
X160221390Y-153138414D01*
X160133789Y-153007311D01*
X160133786Y-153007307D01*
X160022292Y-152895813D01*
X160022288Y-152895810D01*
X159891181Y-152808207D01*
X159891172Y-152808202D01*
X159745501Y-152747864D01*
X159745489Y-152747861D01*
X159590845Y-152717100D01*
X159590842Y-152717100D01*
X159433158Y-152717100D01*
X159433155Y-152717100D01*
X159278510Y-152747861D01*
X159278498Y-152747864D01*
X159132827Y-152808202D01*
X159132819Y-152808207D01*
X159001711Y-152895810D01*
X159001707Y-152895813D01*
X158890213Y-153007307D01*
X158890210Y-153007311D01*
X158802609Y-153138414D01*
X158802602Y-153138427D01*
X158742264Y-153284098D01*
X158742261Y-153284110D01*
X158711500Y-153438753D01*
X158711500Y-153596446D01*
X158742261Y-153751089D01*
X158742264Y-153751101D01*
X158802602Y-153896772D01*
X158802609Y-153896785D01*
X158890602Y-154028474D01*
X158911480Y-154095151D01*
X158911500Y-154097365D01*
X158911500Y-157013609D01*
X158891815Y-157080648D01*
X158875181Y-157101290D01*
X157223240Y-158753230D01*
X157161917Y-158786715D01*
X157092225Y-158781731D01*
X157036292Y-158739859D01*
X157011875Y-158674395D01*
X157011559Y-158665549D01*
X157011559Y-158471830D01*
X156979549Y-158269730D01*
X156916314Y-158075116D01*
X156823418Y-157892798D01*
X156791033Y-157848225D01*
X156791033Y-157848224D01*
X156159575Y-158479684D01*
X156137601Y-158397675D01*
X156077410Y-158293421D01*
X155992286Y-158208297D01*
X155888032Y-158148106D01*
X155806021Y-158126131D01*
X156437481Y-157494672D01*
X156437480Y-157494671D01*
X156392918Y-157462295D01*
X156392909Y-157462289D01*
X156299378Y-157414633D01*
X156248582Y-157366659D01*
X156231787Y-157298838D01*
X156254324Y-157232703D01*
X156299379Y-157193663D01*
X156392905Y-157146009D01*
X156392906Y-157146009D01*
X156437480Y-157113622D01*
X155806022Y-156482164D01*
X155888032Y-156460190D01*
X155992286Y-156399999D01*
X156077410Y-156314875D01*
X156137601Y-156210621D01*
X156159575Y-156128611D01*
X156791033Y-156760069D01*
X156823418Y-156715497D01*
X156916314Y-156533179D01*
X156979549Y-156338565D01*
X157011559Y-156136465D01*
X157011559Y-155931830D01*
X156979549Y-155729730D01*
X156916314Y-155535116D01*
X156823418Y-155352798D01*
X156791033Y-155308225D01*
X156791033Y-155308224D01*
X156159575Y-155939683D01*
X156137601Y-155857675D01*
X156077410Y-155753421D01*
X155992286Y-155668297D01*
X155888032Y-155608106D01*
X155806021Y-155586131D01*
X156437481Y-154954672D01*
X156437480Y-154954671D01*
X156392918Y-154922295D01*
X156392909Y-154922289D01*
X156299928Y-154874913D01*
X156249132Y-154826938D01*
X156232337Y-154759117D01*
X156254874Y-154692983D01*
X156299929Y-154653943D01*
X156300459Y-154653673D01*
X156393169Y-154606435D01*
X156442703Y-154570446D01*
X156558772Y-154486119D01*
X156558774Y-154486116D01*
X156558778Y-154486114D01*
X156703525Y-154341367D01*
X156703527Y-154341363D01*
X156703530Y-154341361D01*
X156774077Y-154244260D01*
X156823846Y-154175758D01*
X156916779Y-153993367D01*
X156980036Y-153798682D01*
X157012059Y-153596500D01*
X157012059Y-153391796D01*
X156980038Y-153189624D01*
X156980036Y-153189613D01*
X156916782Y-152994939D01*
X156916779Y-152994929D01*
X156916777Y-152994926D01*
X156916777Y-152994924D01*
X156866275Y-152895810D01*
X156823846Y-152812538D01*
X156776858Y-152747864D01*
X156703530Y-152646934D01*
X156558772Y-152502176D01*
X156393173Y-152381863D01*
X156386565Y-152378496D01*
X156300476Y-152334631D01*
X156249682Y-152286659D01*
X156232887Y-152218838D01*
X156255424Y-152152703D01*
X156300476Y-152113664D01*
X156393169Y-152066435D01*
X156414329Y-152051061D01*
X156558772Y-151946119D01*
X156558774Y-151946116D01*
X156558778Y-151946114D01*
X156703525Y-151801367D01*
X156703527Y-151801363D01*
X156703530Y-151801361D01*
X156777152Y-151700027D01*
X156823846Y-151635758D01*
X156916779Y-151453367D01*
X156980036Y-151258682D01*
X157012059Y-151056500D01*
X157012059Y-150851796D01*
X156980038Y-150649624D01*
X156980036Y-150649613D01*
X156916782Y-150454939D01*
X156916779Y-150454929D01*
X156916777Y-150454926D01*
X156916777Y-150454924D01*
X156883062Y-150388755D01*
X156823846Y-150272538D01*
X156765283Y-150191932D01*
X156703530Y-150106934D01*
X156558772Y-149962176D01*
X156393173Y-149841863D01*
X156386565Y-149838496D01*
X156300476Y-149794631D01*
X156249682Y-149746659D01*
X156232887Y-149678838D01*
X156255424Y-149612703D01*
X156300476Y-149573664D01*
X156393169Y-149526435D01*
X156414329Y-149511061D01*
X156558772Y-149406119D01*
X156558774Y-149406116D01*
X156558778Y-149406114D01*
X156703525Y-149261367D01*
X156703527Y-149261363D01*
X156703530Y-149261361D01*
X156765075Y-149176650D01*
X156823846Y-149095758D01*
X156916779Y-148913367D01*
X156980036Y-148718682D01*
X157012059Y-148516500D01*
X157012059Y-148311796D01*
X156980038Y-148109624D01*
X156980036Y-148109613D01*
X156916782Y-147914939D01*
X156916779Y-147914929D01*
X156916777Y-147914926D01*
X156916777Y-147914924D01*
X156873395Y-147829784D01*
X156823846Y-147732538D01*
X156741880Y-147619720D01*
X156703530Y-147566934D01*
X156558772Y-147422176D01*
X156393173Y-147301863D01*
X156386565Y-147298496D01*
X156300476Y-147254631D01*
X156249682Y-147206659D01*
X156232887Y-147138838D01*
X156255424Y-147072703D01*
X156300476Y-147033664D01*
X156393169Y-146986435D01*
X156520469Y-146893947D01*
X156558772Y-146866119D01*
X156558774Y-146866116D01*
X156558778Y-146866114D01*
X156703525Y-146721367D01*
X156703527Y-146721363D01*
X156703530Y-146721361D01*
X156784880Y-146609390D01*
X156823846Y-146555758D01*
X156916779Y-146373367D01*
X156980036Y-146178682D01*
X157012059Y-145976500D01*
X157012059Y-145771796D01*
X156980038Y-145569624D01*
X156980036Y-145569613D01*
X156921582Y-145389711D01*
X156916779Y-145374929D01*
X156916777Y-145374926D01*
X156916777Y-145374924D01*
X156883062Y-145308755D01*
X156823846Y-145192538D01*
X156816115Y-145181897D01*
X156703530Y-145026934D01*
X156558772Y-144882176D01*
X156393173Y-144761863D01*
X156386565Y-144758496D01*
X156300476Y-144714631D01*
X156249682Y-144666659D01*
X156232887Y-144598838D01*
X156255424Y-144532703D01*
X156300476Y-144493664D01*
X156393169Y-144446435D01*
X156414329Y-144431061D01*
X156558772Y-144326119D01*
X156558774Y-144326116D01*
X156558778Y-144326114D01*
X156703525Y-144181367D01*
X156703527Y-144181363D01*
X156703530Y-144181361D01*
X156779021Y-144077455D01*
X156823846Y-144015758D01*
X156916779Y-143833367D01*
X156980036Y-143638682D01*
X157012059Y-143436500D01*
X157012059Y-143231796D01*
X156980038Y-143029624D01*
X156980036Y-143029613D01*
X156916782Y-142834939D01*
X156916779Y-142834929D01*
X156916777Y-142834926D01*
X156916777Y-142834924D01*
X156882198Y-142767060D01*
X156823846Y-142652538D01*
X156816115Y-142641897D01*
X156703530Y-142486934D01*
X156558772Y-142342176D01*
X156393173Y-142221863D01*
X156386565Y-142218496D01*
X156300476Y-142174631D01*
X156249682Y-142126659D01*
X156232887Y-142058838D01*
X156255424Y-141992703D01*
X156300476Y-141953664D01*
X156393169Y-141906435D01*
X156414329Y-141891061D01*
X156558772Y-141786119D01*
X156558774Y-141786116D01*
X156558778Y-141786114D01*
X156703525Y-141641367D01*
X156703527Y-141641363D01*
X156703530Y-141641361D01*
X156756291Y-141568738D01*
X156823846Y-141475758D01*
X156916779Y-141293367D01*
X156980036Y-141098682D01*
X157012059Y-140896500D01*
X157012059Y-140691796D01*
X156986229Y-140528712D01*
X156980036Y-140489613D01*
X156918589Y-140300500D01*
X156916779Y-140294929D01*
X156916777Y-140294926D01*
X156916777Y-140294924D01*
X156829354Y-140123349D01*
X156823846Y-140112538D01*
X156789406Y-140065135D01*
X156703530Y-139946934D01*
X156558772Y-139802176D01*
X156393173Y-139681863D01*
X156386565Y-139678496D01*
X156300476Y-139634631D01*
X156249682Y-139586659D01*
X156232887Y-139518838D01*
X156255424Y-139452703D01*
X156300476Y-139413664D01*
X156393169Y-139366435D01*
X156480024Y-139303332D01*
X156558772Y-139246119D01*
X156558774Y-139246116D01*
X156558778Y-139246114D01*
X156703525Y-139101367D01*
X156703527Y-139101363D01*
X156703530Y-139101361D01*
X156760228Y-139023321D01*
X156823846Y-138935758D01*
X156916779Y-138753367D01*
X156980036Y-138558682D01*
X157012059Y-138356500D01*
X157012059Y-138151796D01*
X156980038Y-137949624D01*
X156980036Y-137949613D01*
X156940062Y-137826587D01*
X156916779Y-137754929D01*
X156916777Y-137754926D01*
X156916777Y-137754924D01*
X156874903Y-137672743D01*
X156823846Y-137572538D01*
X156756824Y-137480289D01*
X156703530Y-137406934D01*
X156558772Y-137262176D01*
X156393173Y-137141863D01*
X156386565Y-137138496D01*
X156300476Y-137094631D01*
X156249682Y-137046659D01*
X156232887Y-136978838D01*
X156255424Y-136912703D01*
X156300476Y-136873664D01*
X156393169Y-136826435D01*
X156430242Y-136799500D01*
X156558772Y-136706119D01*
X156558774Y-136706116D01*
X156558778Y-136706114D01*
X156703525Y-136561367D01*
X156703527Y-136561363D01*
X156703530Y-136561361D01*
X156756291Y-136488738D01*
X156823846Y-136395758D01*
X156916779Y-136213367D01*
X156980036Y-136018682D01*
X157012059Y-135816500D01*
X157012059Y-135611796D01*
X157002271Y-135550000D01*
X156980036Y-135409613D01*
X156920892Y-135227587D01*
X156916779Y-135214929D01*
X156916777Y-135214926D01*
X156916777Y-135214924D01*
X156883062Y-135148755D01*
X156823846Y-135032538D01*
X156816115Y-135021897D01*
X156703530Y-134866934D01*
X156558772Y-134722176D01*
X156393172Y-134601863D01*
X156393171Y-134601862D01*
X156393169Y-134601861D01*
X156336212Y-134572839D01*
X156210782Y-134508929D01*
X156016093Y-134445670D01*
X155841554Y-134418026D01*
X155813911Y-134413648D01*
X155609207Y-134413648D01*
X155584888Y-134417499D01*
X155407024Y-134445670D01*
X155212335Y-134508929D01*
X155029945Y-134601863D01*
X154864345Y-134722176D01*
X154719587Y-134866934D01*
X154599274Y-135032534D01*
X154506340Y-135214924D01*
X154443081Y-135409613D01*
X154415369Y-135584586D01*
X154411059Y-135611796D01*
X154411059Y-135816500D01*
X154411061Y-135816510D01*
X154443081Y-136018682D01*
X154506340Y-136213371D01*
X154599274Y-136395761D01*
X154719587Y-136561361D01*
X154864345Y-136706119D01*
X154992876Y-136799500D01*
X155029949Y-136826435D01*
X155121399Y-136873031D01*
X155122639Y-136873663D01*
X155173435Y-136921638D01*
X155190230Y-136989459D01*
X155167693Y-137055594D01*
X155122639Y-137094633D01*
X155029945Y-137141863D01*
X154864345Y-137262176D01*
X154719587Y-137406934D01*
X154599274Y-137572534D01*
X154506340Y-137754924D01*
X154443081Y-137949613D01*
X154417168Y-138113224D01*
X154411059Y-138151796D01*
X154411059Y-138356500D01*
X154411061Y-138356510D01*
X154443081Y-138558682D01*
X154506340Y-138753371D01*
X154563314Y-138865186D01*
X154577098Y-138892240D01*
X154599274Y-138935761D01*
X154719587Y-139101361D01*
X154864345Y-139246119D01*
X154974140Y-139325888D01*
X155029949Y-139366435D01*
X155121399Y-139413031D01*
X155122639Y-139413663D01*
X155173435Y-139461638D01*
X155190230Y-139529459D01*
X155167693Y-139595594D01*
X155122639Y-139634633D01*
X155029945Y-139681863D01*
X154864345Y-139802176D01*
X154719587Y-139946934D01*
X154599274Y-140112534D01*
X154506340Y-140294924D01*
X154443081Y-140489613D01*
X154431856Y-140560488D01*
X154411059Y-140691796D01*
X154411059Y-140896500D01*
X154411061Y-140896510D01*
X154443081Y-141098682D01*
X154506340Y-141293371D01*
X154570250Y-141418801D01*
X154596447Y-141470214D01*
X154599274Y-141475761D01*
X154719587Y-141641361D01*
X154864345Y-141786119D01*
X155019308Y-141898704D01*
X155029949Y-141906435D01*
X155121399Y-141953031D01*
X155122639Y-141953663D01*
X155173435Y-142001638D01*
X155190230Y-142069459D01*
X155167693Y-142135594D01*
X155122639Y-142174633D01*
X155029945Y-142221863D01*
X154864345Y-142342176D01*
X154719587Y-142486934D01*
X154599274Y-142652534D01*
X154506340Y-142834924D01*
X154443081Y-143029613D01*
X154411527Y-143228842D01*
X154411059Y-143231796D01*
X154411059Y-143436500D01*
X154411061Y-143436510D01*
X154443081Y-143638682D01*
X154506340Y-143833371D01*
X154599274Y-144015761D01*
X154719587Y-144181361D01*
X154864345Y-144326119D01*
X155019308Y-144438704D01*
X155029949Y-144446435D01*
X155121399Y-144493031D01*
X155122639Y-144493663D01*
X155173435Y-144541638D01*
X155190230Y-144609459D01*
X155167693Y-144675594D01*
X155122639Y-144714633D01*
X155029945Y-144761863D01*
X154864345Y-144882176D01*
X154719587Y-145026934D01*
X154599274Y-145192534D01*
X154506340Y-145374924D01*
X154443081Y-145569613D01*
X154411059Y-145771796D01*
X154411059Y-145976500D01*
X154411061Y-145976510D01*
X154443081Y-146178682D01*
X154506340Y-146373371D01*
X154525153Y-146410292D01*
X154581962Y-146521786D01*
X154599274Y-146555761D01*
X154719587Y-146721361D01*
X154864345Y-146866119D01*
X155019308Y-146978704D01*
X155029949Y-146986435D01*
X155121399Y-147033031D01*
X155122639Y-147033663D01*
X155173435Y-147081638D01*
X155190230Y-147149459D01*
X155167693Y-147215594D01*
X155122639Y-147254633D01*
X155029945Y-147301863D01*
X154864345Y-147422176D01*
X154719587Y-147566934D01*
X154599274Y-147732534D01*
X154506340Y-147914924D01*
X154443081Y-148109613D01*
X154414794Y-148288214D01*
X154411059Y-148311796D01*
X154411059Y-148516500D01*
X154411061Y-148516510D01*
X154443081Y-148718682D01*
X154506340Y-148913371D01*
X154565487Y-149029451D01*
X154595748Y-149088842D01*
X154599274Y-149095761D01*
X154719587Y-149261361D01*
X154864345Y-149406119D01*
X155019308Y-149518704D01*
X155029949Y-149526435D01*
X155121399Y-149573031D01*
X155122639Y-149573663D01*
X155173435Y-149621638D01*
X155190230Y-149689459D01*
X155167693Y-149755594D01*
X155122639Y-149794633D01*
X155029945Y-149841863D01*
X154864345Y-149962176D01*
X154719587Y-150106934D01*
X154599274Y-150272534D01*
X154506340Y-150454924D01*
X154443081Y-150649613D01*
X154411059Y-150851796D01*
X154411059Y-151056500D01*
X154411061Y-151056510D01*
X154443081Y-151258682D01*
X154506340Y-151453371D01*
X154599274Y-151635761D01*
X154719587Y-151801361D01*
X154864345Y-151946119D01*
X155010673Y-152052430D01*
X155029949Y-152066435D01*
X155121399Y-152113031D01*
X155122639Y-152113663D01*
X155173435Y-152161638D01*
X155190230Y-152229459D01*
X155167693Y-152295594D01*
X155122639Y-152334633D01*
X155029945Y-152381863D01*
X154864345Y-152502176D01*
X154719587Y-152646934D01*
X154599274Y-152812534D01*
X154506340Y-152994924D01*
X154443081Y-153189613D01*
X154411059Y-153391796D01*
X154411059Y-153596500D01*
X154411061Y-153596510D01*
X154443081Y-153798682D01*
X154506340Y-153993371D01*
X154599274Y-154175761D01*
X154719587Y-154341361D01*
X154864345Y-154486119D01*
X155029944Y-154606432D01*
X155029946Y-154606433D01*
X155029949Y-154606435D01*
X155122659Y-154653673D01*
X155123189Y-154653943D01*
X155173985Y-154701918D01*
X155190780Y-154769739D01*
X155168243Y-154835873D01*
X155123189Y-154874913D01*
X155030203Y-154922291D01*
X154985636Y-154954671D01*
X154985636Y-154954672D01*
X155617095Y-155586131D01*
X155535086Y-155608106D01*
X155430832Y-155668297D01*
X155345708Y-155753421D01*
X155285517Y-155857675D01*
X155263542Y-155939684D01*
X154632083Y-155308225D01*
X154632082Y-155308225D01*
X154599702Y-155352792D01*
X154506803Y-155535116D01*
X154443568Y-155729730D01*
X154411559Y-155931830D01*
X154411559Y-156136465D01*
X154443568Y-156338565D01*
X154506803Y-156533179D01*
X154599700Y-156715498D01*
X154599706Y-156715507D01*
X154632082Y-156760069D01*
X154632083Y-156760070D01*
X155263542Y-156128611D01*
X155285517Y-156210621D01*
X155345708Y-156314875D01*
X155430832Y-156399999D01*
X155535086Y-156460190D01*
X155617094Y-156482164D01*
X154985635Y-157113622D01*
X155030209Y-157146007D01*
X155123739Y-157193663D01*
X155174535Y-157241637D01*
X155191330Y-157309458D01*
X155168793Y-157375593D01*
X155123739Y-157414633D01*
X155030203Y-157462291D01*
X154985636Y-157494671D01*
X154985636Y-157494672D01*
X155617095Y-158126131D01*
X155535086Y-158148106D01*
X155430832Y-158208297D01*
X155345708Y-158293421D01*
X155285517Y-158397675D01*
X155263542Y-158479684D01*
X154632083Y-157848225D01*
X154632082Y-157848225D01*
X154599702Y-157892792D01*
X154506803Y-158075116D01*
X154443568Y-158269730D01*
X154411559Y-158471830D01*
X154411559Y-158676465D01*
X154443568Y-158878565D01*
X154506803Y-159073179D01*
X154599700Y-159255498D01*
X154599706Y-159255507D01*
X154632082Y-159300069D01*
X154632083Y-159300070D01*
X155263542Y-158668611D01*
X155285517Y-158750621D01*
X155345708Y-158854875D01*
X155430832Y-158939999D01*
X155535086Y-159000190D01*
X155617095Y-159022164D01*
X154985635Y-159653622D01*
X155030211Y-159686009D01*
X155123187Y-159733382D01*
X155173984Y-159781356D01*
X155190779Y-159849177D01*
X155168242Y-159915312D01*
X155123189Y-159954351D01*
X155029947Y-160001861D01*
X154864345Y-160122176D01*
X154719587Y-160266934D01*
X154599274Y-160432534D01*
X154506340Y-160614924D01*
X154443081Y-160809613D01*
X154411059Y-161011796D01*
X154411059Y-161216499D01*
X154443081Y-161418682D01*
X154506340Y-161613371D01*
X154570250Y-161738801D01*
X154599149Y-161795517D01*
X154599274Y-161795761D01*
X154719587Y-161961361D01*
X154864345Y-162106119D01*
X154984799Y-162193632D01*
X155029949Y-162226435D01*
X155121399Y-162273031D01*
X155122639Y-162273663D01*
X155173435Y-162321638D01*
X155190230Y-162389459D01*
X155167693Y-162455594D01*
X155122639Y-162494633D01*
X155029945Y-162541863D01*
X154864345Y-162662176D01*
X154719587Y-162806934D01*
X154599274Y-162972534D01*
X154506340Y-163154924D01*
X154443081Y-163349613D01*
X154411059Y-163551796D01*
X154411059Y-163756500D01*
X154411061Y-163756510D01*
X154443081Y-163958682D01*
X154506340Y-164153371D01*
X154599274Y-164335761D01*
X154719587Y-164501361D01*
X154864345Y-164646119D01*
X155029944Y-164766432D01*
X155029946Y-164766433D01*
X155029949Y-164766435D01*
X155122659Y-164813673D01*
X155123189Y-164813943D01*
X155173985Y-164861918D01*
X155190780Y-164929739D01*
X155168243Y-164995873D01*
X155123189Y-165034913D01*
X155030203Y-165082291D01*
X154985636Y-165114671D01*
X154985636Y-165114672D01*
X155684113Y-165813148D01*
X155661399Y-165813148D01*
X155564498Y-165839112D01*
X155477619Y-165889272D01*
X155406683Y-165960208D01*
X155356523Y-166047087D01*
X155330559Y-166143988D01*
X155330559Y-166166701D01*
X154632083Y-165468225D01*
X154632082Y-165468225D01*
X154599702Y-165512792D01*
X154506803Y-165695116D01*
X154443568Y-165889730D01*
X154411559Y-166091830D01*
X154411559Y-166296465D01*
X154443568Y-166498565D01*
X154506803Y-166693179D01*
X154599700Y-166875498D01*
X154599706Y-166875507D01*
X154632082Y-166920069D01*
X154632083Y-166920070D01*
X155330559Y-166221594D01*
X155330559Y-166244308D01*
X155356523Y-166341209D01*
X155406683Y-166428088D01*
X155477619Y-166499024D01*
X155564498Y-166549184D01*
X155661399Y-166575148D01*
X155684112Y-166575148D01*
X154982948Y-167276309D01*
X154970692Y-167334649D01*
X154921640Y-167384406D01*
X154861439Y-167400000D01*
X141404254Y-167400000D01*
X141337215Y-167380315D01*
X141291460Y-167327511D01*
X141281516Y-167258353D01*
X141310541Y-167194797D01*
X141316573Y-167188319D01*
X141325839Y-167179053D01*
X141463515Y-167041377D01*
X141463517Y-167041373D01*
X141463520Y-167041371D01*
X141551649Y-166920070D01*
X141583836Y-166875768D01*
X141676769Y-166693377D01*
X141740026Y-166498692D01*
X141772049Y-166296510D01*
X141772049Y-166091806D01*
X141740026Y-165889624D01*
X141676769Y-165694939D01*
X141676767Y-165694936D01*
X141676767Y-165694934D01*
X141643052Y-165628765D01*
X141583836Y-165512548D01*
X141540618Y-165453063D01*
X141463520Y-165346944D01*
X141318762Y-165202186D01*
X141153163Y-165081873D01*
X141146555Y-165078506D01*
X141060466Y-165034641D01*
X141009672Y-164986669D01*
X140992877Y-164918848D01*
X141015414Y-164852713D01*
X141060466Y-164813674D01*
X141153159Y-164766445D01*
X141174319Y-164751071D01*
X141318762Y-164646129D01*
X141318764Y-164646126D01*
X141318768Y-164646124D01*
X141463515Y-164501377D01*
X141463517Y-164501373D01*
X141463520Y-164501371D01*
X141516281Y-164428748D01*
X141583836Y-164335768D01*
X141676769Y-164153377D01*
X141740026Y-163958692D01*
X141772049Y-163756510D01*
X141772049Y-163551806D01*
X141753523Y-163434837D01*
X141740026Y-163349623D01*
X141710676Y-163259295D01*
X141676769Y-163154939D01*
X141676767Y-163154936D01*
X141676767Y-163154934D01*
X141643052Y-163088765D01*
X141583836Y-162972548D01*
X141576105Y-162961907D01*
X141463520Y-162806944D01*
X141318762Y-162662186D01*
X141153160Y-162541871D01*
X141059918Y-162494361D01*
X141009123Y-162446387D01*
X140992328Y-162378565D01*
X141014866Y-162312431D01*
X141059920Y-162273392D01*
X141152895Y-162226019D01*
X141152896Y-162226019D01*
X141197470Y-162193632D01*
X140566012Y-161562174D01*
X140648022Y-161540200D01*
X140752276Y-161480009D01*
X140837400Y-161394885D01*
X140897591Y-161290631D01*
X140919565Y-161208622D01*
X141551023Y-161840080D01*
X141551023Y-161840079D01*
X141583408Y-161795507D01*
X141676304Y-161613189D01*
X141739539Y-161418575D01*
X141771549Y-161216475D01*
X141771549Y-161011840D01*
X141739539Y-160809740D01*
X141676304Y-160615126D01*
X141583408Y-160432808D01*
X141551023Y-160388235D01*
X141551023Y-160388234D01*
X140919565Y-161019693D01*
X140897591Y-160937685D01*
X140837400Y-160833431D01*
X140752276Y-160748307D01*
X140648022Y-160688116D01*
X140566011Y-160666141D01*
X141197471Y-160034682D01*
X141197470Y-160034681D01*
X141152908Y-160002305D01*
X141152899Y-160002299D01*
X141059918Y-159954923D01*
X141009122Y-159906948D01*
X140992327Y-159839127D01*
X141014864Y-159772993D01*
X141059919Y-159733953D01*
X141061040Y-159733382D01*
X141153159Y-159686445D01*
X141202693Y-159650456D01*
X141318762Y-159566129D01*
X141318764Y-159566126D01*
X141318768Y-159566124D01*
X141463515Y-159421377D01*
X141463517Y-159421373D01*
X141463520Y-159421371D01*
X141551649Y-159300070D01*
X141583836Y-159255768D01*
X141676769Y-159073377D01*
X141740026Y-158878692D01*
X141772049Y-158676510D01*
X141772049Y-158471806D01*
X141740026Y-158269624D01*
X141676769Y-158074939D01*
X141676767Y-158074936D01*
X141676767Y-158074934D01*
X141643052Y-158008765D01*
X141583836Y-157892548D01*
X141519816Y-157804431D01*
X141463520Y-157726944D01*
X141318762Y-157582186D01*
X141153163Y-157461873D01*
X141146555Y-157458506D01*
X141060466Y-157414641D01*
X141009672Y-157366669D01*
X140992877Y-157298848D01*
X141015414Y-157232713D01*
X141060466Y-157193674D01*
X141153159Y-157146445D01*
X141265298Y-157064972D01*
X141318762Y-157026129D01*
X141318764Y-157026126D01*
X141318768Y-157026124D01*
X141463515Y-156881377D01*
X141463517Y-156881373D01*
X141463520Y-156881371D01*
X141551649Y-156760070D01*
X141583836Y-156715768D01*
X141676769Y-156533377D01*
X141740026Y-156338692D01*
X141772049Y-156136510D01*
X141772049Y-155931806D01*
X141740026Y-155729624D01*
X141676769Y-155534939D01*
X141676767Y-155534936D01*
X141676767Y-155534934D01*
X141643052Y-155468765D01*
X141583836Y-155352548D01*
X141551633Y-155308224D01*
X141463520Y-155186944D01*
X141318762Y-155042186D01*
X141153163Y-154921873D01*
X141146555Y-154918506D01*
X141060466Y-154874641D01*
X141009672Y-154826669D01*
X140992877Y-154758848D01*
X141015414Y-154692713D01*
X141060466Y-154653674D01*
X141153159Y-154606445D01*
X141174319Y-154591071D01*
X141318762Y-154486129D01*
X141318764Y-154486126D01*
X141318768Y-154486124D01*
X141463515Y-154341377D01*
X141463517Y-154341373D01*
X141463520Y-154341371D01*
X141516281Y-154268748D01*
X141583836Y-154175768D01*
X141676769Y-153993377D01*
X141740026Y-153798692D01*
X141772049Y-153596510D01*
X141772049Y-153391806D01*
X141754990Y-153284103D01*
X141740026Y-153189623D01*
X141680789Y-153007311D01*
X141676769Y-152994939D01*
X141676767Y-152994936D01*
X141676767Y-152994934D01*
X141643052Y-152928765D01*
X141583836Y-152812548D01*
X141536839Y-152747861D01*
X141463520Y-152646944D01*
X141318762Y-152502186D01*
X141153163Y-152381873D01*
X141146555Y-152378506D01*
X141060466Y-152334641D01*
X141009672Y-152286669D01*
X140992877Y-152218848D01*
X141015414Y-152152713D01*
X141060466Y-152113674D01*
X141153159Y-152066445D01*
X141203605Y-152029794D01*
X141318762Y-151946129D01*
X141318764Y-151946126D01*
X141318768Y-151946124D01*
X141463515Y-151801377D01*
X141463517Y-151801373D01*
X141463520Y-151801371D01*
X141537159Y-151700014D01*
X141583836Y-151635768D01*
X141674421Y-151457985D01*
X141676767Y-151453381D01*
X141676767Y-151453380D01*
X141676769Y-151453377D01*
X141740026Y-151258692D01*
X141772049Y-151056510D01*
X141772049Y-150851806D01*
X141740026Y-150649624D01*
X141740022Y-150649613D01*
X141710676Y-150559295D01*
X141676769Y-150454939D01*
X141676767Y-150454936D01*
X141676767Y-150454934D01*
X141643052Y-150388765D01*
X141583836Y-150272548D01*
X141576105Y-150261907D01*
X141463520Y-150106944D01*
X141318762Y-149962186D01*
X141153163Y-149841873D01*
X141146555Y-149838506D01*
X141060466Y-149794641D01*
X141009672Y-149746669D01*
X140992877Y-149678848D01*
X141015414Y-149612713D01*
X141060466Y-149573674D01*
X141153159Y-149526445D01*
X141230558Y-149470212D01*
X141318762Y-149406129D01*
X141318764Y-149406126D01*
X141318768Y-149406124D01*
X141463515Y-149261377D01*
X141463517Y-149261373D01*
X141463520Y-149261371D01*
X141525072Y-149176650D01*
X141583836Y-149095768D01*
X141676769Y-148913377D01*
X141740026Y-148718692D01*
X141772049Y-148516510D01*
X141772049Y-148311806D01*
X141740026Y-148109624D01*
X141740022Y-148109613D01*
X141676767Y-147914934D01*
X141633380Y-147829784D01*
X141583836Y-147732548D01*
X141576105Y-147721907D01*
X141463520Y-147566944D01*
X141318762Y-147422186D01*
X141153163Y-147301873D01*
X141146555Y-147298506D01*
X141060466Y-147254641D01*
X141009672Y-147206669D01*
X140992877Y-147138848D01*
X141015414Y-147072713D01*
X141060466Y-147033674D01*
X141153159Y-146986445D01*
X141280473Y-146893947D01*
X141318762Y-146866129D01*
X141318764Y-146866126D01*
X141318768Y-146866124D01*
X141463515Y-146721377D01*
X141463517Y-146721373D01*
X141463520Y-146721371D01*
X141516281Y-146648748D01*
X141583836Y-146555768D01*
X141676769Y-146373377D01*
X141740026Y-146178692D01*
X141772049Y-145976510D01*
X141772049Y-145771806D01*
X141772047Y-145771796D01*
X141740026Y-145569623D01*
X141710676Y-145479295D01*
X141676769Y-145374939D01*
X141676767Y-145374936D01*
X141676767Y-145374934D01*
X141643052Y-145308765D01*
X141583836Y-145192548D01*
X141559080Y-145158474D01*
X141463520Y-145026944D01*
X141318762Y-144882186D01*
X141153163Y-144761873D01*
X141146555Y-144758506D01*
X141060466Y-144714641D01*
X141009672Y-144666669D01*
X140992877Y-144598848D01*
X141015414Y-144532713D01*
X141060466Y-144493674D01*
X141153159Y-144446445D01*
X141174319Y-144431071D01*
X141318762Y-144326129D01*
X141318764Y-144326126D01*
X141318768Y-144326124D01*
X141463515Y-144181377D01*
X141463517Y-144181373D01*
X141463520Y-144181371D01*
X141560647Y-144047685D01*
X141583836Y-144015768D01*
X141676769Y-143833377D01*
X141740026Y-143638692D01*
X141772049Y-143436510D01*
X141772049Y-143231806D01*
X141771580Y-143228842D01*
X141740026Y-143029623D01*
X141676767Y-142834934D01*
X141642183Y-142767060D01*
X141583836Y-142652548D01*
X141563458Y-142624500D01*
X141463520Y-142486944D01*
X141318762Y-142342186D01*
X141153163Y-142221873D01*
X141094400Y-142191932D01*
X141060466Y-142174641D01*
X141009672Y-142126669D01*
X140992877Y-142058848D01*
X141015414Y-141992713D01*
X141060466Y-141953674D01*
X141153159Y-141906445D01*
X141299649Y-141800015D01*
X141318762Y-141786129D01*
X141318764Y-141786126D01*
X141318768Y-141786124D01*
X141463515Y-141641377D01*
X141463517Y-141641373D01*
X141463520Y-141641371D01*
X141516281Y-141568748D01*
X141583836Y-141475768D01*
X141676769Y-141293377D01*
X141740026Y-141098692D01*
X141772049Y-140896510D01*
X141772049Y-140691806D01*
X141740026Y-140489624D01*
X141740022Y-140489613D01*
X141678576Y-140300500D01*
X141676769Y-140294939D01*
X141676767Y-140294936D01*
X141676767Y-140294934D01*
X141589339Y-140123349D01*
X141583836Y-140112548D01*
X141549389Y-140065135D01*
X141463520Y-139946944D01*
X141318762Y-139802186D01*
X141153163Y-139681873D01*
X141146555Y-139678506D01*
X141060466Y-139634641D01*
X141009672Y-139586669D01*
X140992877Y-139518848D01*
X141015414Y-139452713D01*
X141060466Y-139413674D01*
X141153159Y-139366445D01*
X141208979Y-139325890D01*
X141318762Y-139246129D01*
X141318764Y-139246126D01*
X141318768Y-139246124D01*
X141463515Y-139101377D01*
X141463517Y-139101373D01*
X141463520Y-139101371D01*
X141516281Y-139028748D01*
X141583836Y-138935768D01*
X141676769Y-138753377D01*
X141691647Y-138707588D01*
X146263659Y-138707588D01*
X146263659Y-138910308D01*
X146267692Y-138935768D01*
X146294981Y-139108067D01*
X146295372Y-139110532D01*
X146358016Y-139303330D01*
X146438683Y-139461648D01*
X146450051Y-139483957D01*
X146569198Y-139647952D01*
X146712554Y-139791308D01*
X146866015Y-139902802D01*
X146876553Y-139910458D01*
X147057177Y-140002491D01*
X147249975Y-140065135D01*
X147450199Y-140096848D01*
X147450200Y-140096848D01*
X147652918Y-140096848D01*
X147652919Y-140096848D01*
X147853143Y-140065135D01*
X148045941Y-140002491D01*
X148226565Y-139910458D01*
X148318644Y-139843558D01*
X148390563Y-139791308D01*
X148390569Y-139791303D01*
X148455405Y-139726467D01*
X148533914Y-139647958D01*
X148533916Y-139647954D01*
X148533919Y-139647952D01*
X148599818Y-139557248D01*
X148653069Y-139483954D01*
X148711074Y-139370112D01*
X148759049Y-139319317D01*
X148826870Y-139302522D01*
X148893005Y-139325059D01*
X148932043Y-139370112D01*
X148978683Y-139461648D01*
X148990051Y-139483957D01*
X149109198Y-139647952D01*
X149252554Y-139791308D01*
X149406015Y-139902802D01*
X149416553Y-139910458D01*
X149597177Y-140002491D01*
X149789975Y-140065135D01*
X149990199Y-140096848D01*
X149990200Y-140096848D01*
X150192918Y-140096848D01*
X150192919Y-140096848D01*
X150393143Y-140065135D01*
X150585941Y-140002491D01*
X150766565Y-139910458D01*
X150858644Y-139843558D01*
X150930563Y-139791308D01*
X150930569Y-139791303D01*
X150995405Y-139726467D01*
X151073914Y-139647958D01*
X151073916Y-139647954D01*
X151073919Y-139647952D01*
X151139818Y-139557248D01*
X151193069Y-139483954D01*
X151251074Y-139370112D01*
X151299049Y-139319317D01*
X151366870Y-139302522D01*
X151433005Y-139325059D01*
X151472043Y-139370112D01*
X151518683Y-139461648D01*
X151530051Y-139483957D01*
X151649198Y-139647952D01*
X151792554Y-139791308D01*
X151946015Y-139902802D01*
X151956553Y-139910458D01*
X152137177Y-140002491D01*
X152329975Y-140065135D01*
X152530199Y-140096848D01*
X152530200Y-140096848D01*
X152732918Y-140096848D01*
X152732919Y-140096848D01*
X152933143Y-140065135D01*
X153125941Y-140002491D01*
X153306565Y-139910458D01*
X153398644Y-139843558D01*
X153470563Y-139791308D01*
X153470569Y-139791303D01*
X153535405Y-139726467D01*
X153613914Y-139647958D01*
X153613916Y-139647954D01*
X153613919Y-139647952D01*
X153679818Y-139557248D01*
X153733069Y-139483954D01*
X153825102Y-139303330D01*
X153887746Y-139110532D01*
X153919459Y-138910308D01*
X153919459Y-138707588D01*
X153887746Y-138507364D01*
X153825102Y-138314566D01*
X153733069Y-138133942D01*
X153717688Y-138112772D01*
X153613919Y-137969943D01*
X153470563Y-137826587D01*
X153306568Y-137707440D01*
X153306567Y-137707439D01*
X153306565Y-137707438D01*
X153125941Y-137615405D01*
X152933143Y-137552761D01*
X152933141Y-137552760D01*
X152933139Y-137552760D01*
X152793341Y-137530618D01*
X152732919Y-137521048D01*
X152530199Y-137521048D01*
X152483783Y-137528399D01*
X152329978Y-137552760D01*
X152137174Y-137615406D01*
X151956549Y-137707440D01*
X151792554Y-137826587D01*
X151649198Y-137969943D01*
X151530051Y-138133938D01*
X151472044Y-138247782D01*
X151424069Y-138298578D01*
X151356248Y-138315373D01*
X151290113Y-138292835D01*
X151251074Y-138247782D01*
X151229811Y-138206052D01*
X151193069Y-138133942D01*
X151177688Y-138112772D01*
X151073919Y-137969943D01*
X150930563Y-137826587D01*
X150766568Y-137707440D01*
X150766567Y-137707439D01*
X150766565Y-137707438D01*
X150585941Y-137615405D01*
X150393143Y-137552761D01*
X150393141Y-137552760D01*
X150393139Y-137552760D01*
X150253341Y-137530618D01*
X150192919Y-137521048D01*
X149990199Y-137521048D01*
X149943783Y-137528399D01*
X149789978Y-137552760D01*
X149597174Y-137615406D01*
X149416549Y-137707440D01*
X149252554Y-137826587D01*
X149109198Y-137969943D01*
X148990051Y-138133938D01*
X148932044Y-138247782D01*
X148884069Y-138298578D01*
X148816248Y-138315373D01*
X148750113Y-138292835D01*
X148711074Y-138247782D01*
X148689811Y-138206052D01*
X148653069Y-138133942D01*
X148637688Y-138112772D01*
X148533919Y-137969943D01*
X148390563Y-137826587D01*
X148226568Y-137707440D01*
X148226567Y-137707439D01*
X148226565Y-137707438D01*
X148045941Y-137615405D01*
X147853143Y-137552761D01*
X147853141Y-137552760D01*
X147853139Y-137552760D01*
X147713341Y-137530618D01*
X147652919Y-137521048D01*
X147450199Y-137521048D01*
X147403783Y-137528399D01*
X147249978Y-137552760D01*
X147057174Y-137615406D01*
X146876549Y-137707440D01*
X146712554Y-137826587D01*
X146569198Y-137969943D01*
X146450051Y-138133938D01*
X146358017Y-138314563D01*
X146295371Y-138507367D01*
X146270445Y-138664741D01*
X146263659Y-138707588D01*
X141691647Y-138707588D01*
X141740026Y-138558692D01*
X141772049Y-138356510D01*
X141772049Y-138151806D01*
X141746662Y-137991519D01*
X141740026Y-137949623D01*
X141683002Y-137774123D01*
X141676769Y-137754939D01*
X141676767Y-137754936D01*
X141676767Y-137754934D01*
X141605673Y-137615406D01*
X141583836Y-137572548D01*
X141569459Y-137552760D01*
X141463520Y-137406944D01*
X141318762Y-137262186D01*
X141153163Y-137141873D01*
X141146555Y-137138506D01*
X141060466Y-137094641D01*
X141009672Y-137046669D01*
X140992877Y-136978848D01*
X141015414Y-136912713D01*
X141060466Y-136873674D01*
X141153159Y-136826445D01*
X141309965Y-136712520D01*
X141318762Y-136706129D01*
X141318764Y-136706126D01*
X141318768Y-136706124D01*
X141463515Y-136561377D01*
X141463517Y-136561373D01*
X141463520Y-136561371D01*
X141516281Y-136488748D01*
X141583836Y-136395768D01*
X141676769Y-136213377D01*
X141740026Y-136018692D01*
X141772049Y-135816510D01*
X141772049Y-135611806D01*
X141740026Y-135409624D01*
X141740022Y-135409613D01*
X141680881Y-135227594D01*
X141676769Y-135214939D01*
X141676767Y-135214936D01*
X141676767Y-135214934D01*
X141643052Y-135148765D01*
X141583836Y-135032548D01*
X141576105Y-135021907D01*
X141463520Y-134866944D01*
X141318762Y-134722186D01*
X141153162Y-134601873D01*
X141153161Y-134601872D01*
X141153159Y-134601871D01*
X141096202Y-134572849D01*
X140970772Y-134508939D01*
X140776083Y-134445680D01*
X140601544Y-134418036D01*
X140573901Y-134413658D01*
X140369197Y-134413658D01*
X140344878Y-134417509D01*
X140167014Y-134445680D01*
X139972325Y-134508939D01*
X139789935Y-134601873D01*
X139624335Y-134722186D01*
X139479577Y-134866944D01*
X139359264Y-135032544D01*
X139266330Y-135214934D01*
X139203071Y-135409623D01*
X139171049Y-135611806D01*
X139171049Y-135816509D01*
X139203071Y-136018692D01*
X139266330Y-136213381D01*
X139325095Y-136328711D01*
X139359258Y-136395761D01*
X139359264Y-136395771D01*
X139479577Y-136561371D01*
X139624335Y-136706129D01*
X139779298Y-136818714D01*
X139789939Y-136826445D01*
X139881389Y-136873041D01*
X139882629Y-136873673D01*
X139933425Y-136921648D01*
X139950220Y-136989469D01*
X139927683Y-137055604D01*
X139882629Y-137094643D01*
X139789935Y-137141873D01*
X139624335Y-137262186D01*
X139479577Y-137406944D01*
X139359264Y-137572544D01*
X139266330Y-137754934D01*
X139203071Y-137949623D01*
X139171049Y-138151806D01*
X139171049Y-138356509D01*
X139203071Y-138558692D01*
X139266330Y-138753381D01*
X139295180Y-138810001D01*
X139359258Y-138935761D01*
X139359264Y-138935771D01*
X139479577Y-139101371D01*
X139624335Y-139246129D01*
X139734119Y-139325890D01*
X139789939Y-139366445D01*
X139850307Y-139397204D01*
X139882629Y-139413673D01*
X139933425Y-139461648D01*
X139950220Y-139529469D01*
X139927683Y-139595604D01*
X139882629Y-139634643D01*
X139789935Y-139681873D01*
X139624335Y-139802186D01*
X139479577Y-139946944D01*
X139359264Y-140112544D01*
X139266330Y-140294934D01*
X139203071Y-140489623D01*
X139171049Y-140691806D01*
X139171049Y-140896509D01*
X139203071Y-141098692D01*
X139266330Y-141293381D01*
X139330240Y-141418811D01*
X139359258Y-141475761D01*
X139359264Y-141475771D01*
X139479577Y-141641371D01*
X139624335Y-141786129D01*
X139779298Y-141898714D01*
X139789939Y-141906445D01*
X139881389Y-141953041D01*
X139882629Y-141953673D01*
X139933425Y-142001648D01*
X139950220Y-142069469D01*
X139927683Y-142135604D01*
X139882629Y-142174643D01*
X139789935Y-142221873D01*
X139624335Y-142342186D01*
X139479577Y-142486944D01*
X139359264Y-142652544D01*
X139266330Y-142834934D01*
X139203071Y-143029623D01*
X139171049Y-143231806D01*
X139171049Y-143436509D01*
X139203071Y-143638692D01*
X139266330Y-143833381D01*
X139329549Y-143957454D01*
X139359258Y-144015761D01*
X139359264Y-144015771D01*
X139479577Y-144181371D01*
X139624335Y-144326129D01*
X139779298Y-144438714D01*
X139789939Y-144446445D01*
X139854085Y-144479129D01*
X139882629Y-144493673D01*
X139933425Y-144541648D01*
X139950220Y-144609469D01*
X139927683Y-144675604D01*
X139882629Y-144714643D01*
X139789935Y-144761873D01*
X139624335Y-144882186D01*
X139479577Y-145026944D01*
X139359264Y-145192544D01*
X139266330Y-145374934D01*
X139203071Y-145569623D01*
X139171051Y-145771796D01*
X139171049Y-145771806D01*
X139171049Y-145976510D01*
X139171419Y-145978844D01*
X139203071Y-146178692D01*
X139266330Y-146373381D01*
X139330240Y-146498811D01*
X139359258Y-146555761D01*
X139359264Y-146555771D01*
X139479577Y-146721371D01*
X139624335Y-146866129D01*
X139779298Y-146978714D01*
X139789939Y-146986445D01*
X139881389Y-147033041D01*
X139882629Y-147033673D01*
X139933425Y-147081648D01*
X139950220Y-147149469D01*
X139927683Y-147215604D01*
X139882629Y-147254643D01*
X139789935Y-147301873D01*
X139624335Y-147422186D01*
X139479577Y-147566944D01*
X139359264Y-147732544D01*
X139266330Y-147914934D01*
X139203071Y-148109623D01*
X139174786Y-148288211D01*
X139171049Y-148311806D01*
X139171049Y-148516510D01*
X139172982Y-148528712D01*
X139203071Y-148718692D01*
X139266330Y-148913381D01*
X139310211Y-148999500D01*
X139359258Y-149095761D01*
X139359264Y-149095771D01*
X139479577Y-149261371D01*
X139624335Y-149406129D01*
X139779298Y-149518714D01*
X139789939Y-149526445D01*
X139881389Y-149573041D01*
X139882629Y-149573673D01*
X139933425Y-149621648D01*
X139950220Y-149689469D01*
X139927683Y-149755604D01*
X139882629Y-149794643D01*
X139789935Y-149841873D01*
X139624335Y-149962186D01*
X139479577Y-150106944D01*
X139359264Y-150272544D01*
X139266330Y-150454934D01*
X139203071Y-150649623D01*
X139171049Y-150851806D01*
X139171049Y-151056509D01*
X139203071Y-151258692D01*
X139266330Y-151453381D01*
X139303269Y-151525876D01*
X139359258Y-151635761D01*
X139359264Y-151635771D01*
X139479577Y-151801371D01*
X139624335Y-151946129D01*
X139770649Y-152052430D01*
X139789939Y-152066445D01*
X139881389Y-152113041D01*
X139882629Y-152113673D01*
X139933425Y-152161648D01*
X139950220Y-152229469D01*
X139927683Y-152295604D01*
X139882629Y-152334643D01*
X139789935Y-152381873D01*
X139624335Y-152502186D01*
X139479577Y-152646944D01*
X139359264Y-152812544D01*
X139266330Y-152994934D01*
X139203071Y-153189623D01*
X139171049Y-153391806D01*
X139171049Y-153596509D01*
X139203071Y-153798692D01*
X139266330Y-153993381D01*
X139322026Y-154102689D01*
X139359258Y-154175761D01*
X139359264Y-154175771D01*
X139479577Y-154341371D01*
X139624335Y-154486129D01*
X139779298Y-154598714D01*
X139789939Y-154606445D01*
X139881389Y-154653041D01*
X139882629Y-154653673D01*
X139933425Y-154701648D01*
X139950220Y-154769469D01*
X139927683Y-154835604D01*
X139882629Y-154874643D01*
X139789935Y-154921873D01*
X139624335Y-155042186D01*
X139479577Y-155186944D01*
X139359264Y-155352544D01*
X139266330Y-155534934D01*
X139203071Y-155729623D01*
X139171049Y-155931806D01*
X139171049Y-156136509D01*
X139203071Y-156338692D01*
X139266330Y-156533381D01*
X139330240Y-156658811D01*
X139359124Y-156715498D01*
X139359264Y-156715771D01*
X139479577Y-156881371D01*
X139624335Y-157026129D01*
X139779298Y-157138714D01*
X139789939Y-157146445D01*
X139881389Y-157193041D01*
X139882629Y-157193673D01*
X139933425Y-157241648D01*
X139950220Y-157309469D01*
X139927683Y-157375604D01*
X139882629Y-157414643D01*
X139789935Y-157461873D01*
X139624335Y-157582186D01*
X139479577Y-157726944D01*
X139359264Y-157892544D01*
X139266330Y-158074934D01*
X139203071Y-158269623D01*
X139171049Y-158471806D01*
X139171049Y-158676509D01*
X139203071Y-158878692D01*
X139266330Y-159073381D01*
X139330240Y-159198811D01*
X139359124Y-159255498D01*
X139359264Y-159255771D01*
X139479577Y-159421371D01*
X139624335Y-159566129D01*
X139789934Y-159686442D01*
X139789936Y-159686443D01*
X139789939Y-159686445D01*
X139882058Y-159733382D01*
X139883179Y-159733953D01*
X139933975Y-159781928D01*
X139950770Y-159849749D01*
X139928233Y-159915883D01*
X139883179Y-159954923D01*
X139790193Y-160002301D01*
X139745626Y-160034681D01*
X139745626Y-160034682D01*
X140377085Y-160666141D01*
X140295076Y-160688116D01*
X140190822Y-160748307D01*
X140105698Y-160833431D01*
X140045507Y-160937685D01*
X140023532Y-161019694D01*
X139392073Y-160388235D01*
X139392072Y-160388235D01*
X139359692Y-160432802D01*
X139266793Y-160615126D01*
X139203558Y-160809740D01*
X139171549Y-161011840D01*
X139171549Y-161216475D01*
X139203558Y-161418575D01*
X139266793Y-161613189D01*
X139359690Y-161795508D01*
X139359696Y-161795517D01*
X139392072Y-161840079D01*
X139392073Y-161840080D01*
X140023532Y-161208621D01*
X140045507Y-161290631D01*
X140105698Y-161394885D01*
X140190822Y-161480009D01*
X140295076Y-161540200D01*
X140377084Y-161562174D01*
X139745625Y-162193632D01*
X139790201Y-162226019D01*
X139883177Y-162273392D01*
X139933974Y-162321366D01*
X139950769Y-162389187D01*
X139928232Y-162455322D01*
X139883179Y-162494361D01*
X139789937Y-162541871D01*
X139624335Y-162662186D01*
X139479577Y-162806944D01*
X139359264Y-162972544D01*
X139266330Y-163154934D01*
X139203071Y-163349623D01*
X139171049Y-163551806D01*
X139171049Y-163756509D01*
X139203071Y-163958692D01*
X139266330Y-164153381D01*
X139330240Y-164278811D01*
X139359258Y-164335761D01*
X139359264Y-164335771D01*
X139479577Y-164501371D01*
X139624335Y-164646129D01*
X139779298Y-164758714D01*
X139789939Y-164766445D01*
X139881389Y-164813041D01*
X139882629Y-164813673D01*
X139933425Y-164861648D01*
X139950220Y-164929469D01*
X139927683Y-164995604D01*
X139882629Y-165034643D01*
X139789935Y-165081873D01*
X139624335Y-165202186D01*
X139479577Y-165346944D01*
X139359264Y-165512544D01*
X139266330Y-165694934D01*
X139203071Y-165889623D01*
X139171049Y-166091806D01*
X139171049Y-166296509D01*
X139203071Y-166498692D01*
X139266330Y-166693381D01*
X139321567Y-166801787D01*
X139359124Y-166875498D01*
X139359264Y-166875771D01*
X139479577Y-167041371D01*
X139626525Y-167188319D01*
X139660010Y-167249642D01*
X139655026Y-167319334D01*
X139613154Y-167375267D01*
X139547690Y-167399684D01*
X139538844Y-167400000D01*
X100676132Y-167400000D01*
X100609093Y-167380315D01*
X100563338Y-167327511D01*
X100553394Y-167258353D01*
X100582419Y-167194797D01*
X100598819Y-167179053D01*
X100802304Y-167016779D01*
X101016779Y-166802304D01*
X101205892Y-166565164D01*
X101367265Y-166308341D01*
X101498868Y-166035065D01*
X101599046Y-165748772D01*
X101666540Y-165453063D01*
X101700500Y-165151657D01*
X101700500Y-164848343D01*
X101677715Y-164646119D01*
X101666542Y-164546951D01*
X101666541Y-164546946D01*
X101666540Y-164546937D01*
X101599046Y-164251228D01*
X101498868Y-163964935D01*
X101367265Y-163691659D01*
X101205892Y-163434836D01*
X101016779Y-163197696D01*
X100802304Y-162983221D01*
X100788920Y-162972548D01*
X100742078Y-162935193D01*
X100565164Y-162794108D01*
X100387785Y-162682653D01*
X100308338Y-162632733D01*
X100035068Y-162501133D01*
X99748783Y-162400957D01*
X99748771Y-162400953D01*
X99520556Y-162348864D01*
X99453063Y-162333460D01*
X99453060Y-162333459D01*
X99453048Y-162333457D01*
X99151663Y-162299500D01*
X99151657Y-162299500D01*
X98848343Y-162299500D01*
X98848336Y-162299500D01*
X98546951Y-162333457D01*
X98546937Y-162333460D01*
X98251228Y-162400953D01*
X98251216Y-162400957D01*
X97964931Y-162501133D01*
X97691661Y-162632733D01*
X97434837Y-162794107D01*
X97197696Y-162983220D01*
X96983220Y-163197696D01*
X96820947Y-163401181D01*
X96763759Y-163441321D01*
X96693947Y-163444171D01*
X96633677Y-163408826D01*
X96602084Y-163346507D01*
X96600000Y-163323868D01*
X96600000Y-150635258D01*
X97649500Y-150635258D01*
X97649500Y-150864741D01*
X97667308Y-151000000D01*
X97679452Y-151092238D01*
X97724050Y-151258682D01*
X97738842Y-151313887D01*
X97826650Y-151525876D01*
X97826657Y-151525890D01*
X97941392Y-151724617D01*
X98081081Y-151906661D01*
X98081089Y-151906670D01*
X98243330Y-152068911D01*
X98243338Y-152068918D01*
X98425382Y-152208607D01*
X98425385Y-152208608D01*
X98425388Y-152208611D01*
X98624112Y-152323344D01*
X98624117Y-152323346D01*
X98624123Y-152323349D01*
X98715480Y-152361190D01*
X98836113Y-152411158D01*
X99057762Y-152470548D01*
X99285266Y-152500500D01*
X99285273Y-152500500D01*
X99514727Y-152500500D01*
X99514734Y-152500500D01*
X99742238Y-152470548D01*
X99963887Y-152411158D01*
X100175888Y-152323344D01*
X100374612Y-152208611D01*
X100556661Y-152068919D01*
X100556665Y-152068914D01*
X100556670Y-152068911D01*
X100718911Y-151906670D01*
X100718914Y-151906665D01*
X100718919Y-151906661D01*
X100858611Y-151724612D01*
X100872813Y-151700014D01*
X104350000Y-151700014D01*
X104350000Y-152600000D01*
X105832096Y-152600000D01*
X105800000Y-152761358D01*
X105800000Y-152938642D01*
X105832096Y-153100000D01*
X104350000Y-153100000D01*
X104350000Y-153999985D01*
X104360493Y-154102689D01*
X104360494Y-154102696D01*
X104415641Y-154269118D01*
X104415643Y-154269123D01*
X104507684Y-154418344D01*
X104631655Y-154542315D01*
X104780876Y-154634356D01*
X104780881Y-154634358D01*
X104947303Y-154689505D01*
X104947310Y-154689506D01*
X105050014Y-154699999D01*
X105050027Y-154700000D01*
X106450000Y-154700000D01*
X106450000Y-153717904D01*
X106611358Y-153750000D01*
X106788642Y-153750000D01*
X106950000Y-153717904D01*
X106950000Y-154700000D01*
X108349973Y-154700000D01*
X108349985Y-154699999D01*
X108452689Y-154689506D01*
X108452696Y-154689505D01*
X108619118Y-154634358D01*
X108619123Y-154634356D01*
X108768344Y-154542315D01*
X108892315Y-154418344D01*
X108984356Y-154269123D01*
X108984358Y-154269118D01*
X109039505Y-154102696D01*
X109039506Y-154102689D01*
X109049999Y-153999985D01*
X109050000Y-153999972D01*
X109050000Y-153100000D01*
X107567904Y-153100000D01*
X107600000Y-152938642D01*
X107600000Y-152761358D01*
X107567904Y-152600000D01*
X109050000Y-152600000D01*
X109050000Y-151700027D01*
X109049999Y-151700014D01*
X109039506Y-151597310D01*
X109039505Y-151597303D01*
X108984358Y-151430881D01*
X108984356Y-151430876D01*
X108892315Y-151281655D01*
X108768344Y-151157684D01*
X108619123Y-151065643D01*
X108619118Y-151065641D01*
X108452696Y-151010494D01*
X108452689Y-151010493D01*
X108349985Y-151000000D01*
X106950000Y-151000000D01*
X106950000Y-151982095D01*
X106788642Y-151950000D01*
X106611358Y-151950000D01*
X106450000Y-151982095D01*
X106450000Y-151000000D01*
X105050014Y-151000000D01*
X104947310Y-151010493D01*
X104947303Y-151010494D01*
X104780881Y-151065641D01*
X104780876Y-151065643D01*
X104631655Y-151157684D01*
X104507684Y-151281655D01*
X104415643Y-151430876D01*
X104415641Y-151430881D01*
X104360494Y-151597303D01*
X104360493Y-151597310D01*
X104350000Y-151700014D01*
X100872813Y-151700014D01*
X100973344Y-151525888D01*
X101061158Y-151313887D01*
X101120548Y-151092238D01*
X101150500Y-150864734D01*
X101150500Y-150635266D01*
X101120548Y-150407762D01*
X101061158Y-150186113D01*
X101002403Y-150044266D01*
X100973349Y-149974123D01*
X100973346Y-149974117D01*
X100973344Y-149974112D01*
X100858611Y-149775388D01*
X100858608Y-149775385D01*
X100858607Y-149775382D01*
X100740634Y-149621638D01*
X100718919Y-149593339D01*
X100718918Y-149593338D01*
X100718911Y-149593330D01*
X100556670Y-149431089D01*
X100556661Y-149431081D01*
X100374617Y-149291392D01*
X100322629Y-149261377D01*
X100175888Y-149176656D01*
X100175876Y-149176650D01*
X99963887Y-149088842D01*
X99742238Y-149029452D01*
X99704215Y-149024446D01*
X99514741Y-148999500D01*
X99514734Y-148999500D01*
X99285266Y-148999500D01*
X99285258Y-148999500D01*
X99068715Y-149028009D01*
X99057762Y-149029452D01*
X98964076Y-149054554D01*
X98836112Y-149088842D01*
X98624123Y-149176650D01*
X98624109Y-149176657D01*
X98425382Y-149291392D01*
X98243338Y-149431081D01*
X98081081Y-149593338D01*
X97941392Y-149775382D01*
X97826657Y-149974109D01*
X97826650Y-149974123D01*
X97738842Y-150186112D01*
X97679453Y-150407759D01*
X97679451Y-150407770D01*
X97649500Y-150635258D01*
X96600000Y-150635258D01*
X96600000Y-148528711D01*
X104349500Y-148528711D01*
X104349500Y-148771288D01*
X104381161Y-149011785D01*
X104443947Y-149246104D01*
X104510226Y-149406114D01*
X104536776Y-149470212D01*
X104658064Y-149680289D01*
X104658066Y-149680292D01*
X104658067Y-149680293D01*
X104805733Y-149872736D01*
X104805739Y-149872743D01*
X104977256Y-150044260D01*
X104977263Y-150044266D01*
X105058947Y-150106944D01*
X105169711Y-150191936D01*
X105379788Y-150313224D01*
X105603900Y-150406054D01*
X105838211Y-150468838D01*
X106018586Y-150492584D01*
X106078711Y-150500500D01*
X106078712Y-150500500D01*
X107321289Y-150500500D01*
X107369388Y-150494167D01*
X107561789Y-150468838D01*
X107796100Y-150406054D01*
X108020212Y-150313224D01*
X108230289Y-150191936D01*
X108422738Y-150044265D01*
X108594265Y-149872738D01*
X108741936Y-149680289D01*
X108863224Y-149470212D01*
X108956054Y-149246100D01*
X109018838Y-149011789D01*
X109050500Y-148771288D01*
X109050500Y-148528712D01*
X109050500Y-148528711D01*
X109849500Y-148528711D01*
X109849500Y-148771288D01*
X109881161Y-149011785D01*
X109943947Y-149246104D01*
X110010226Y-149406114D01*
X110036776Y-149470212D01*
X110158064Y-149680289D01*
X110158066Y-149680292D01*
X110158067Y-149680293D01*
X110305733Y-149872736D01*
X110305739Y-149872743D01*
X110477256Y-150044260D01*
X110477263Y-150044266D01*
X110558947Y-150106944D01*
X110669711Y-150191936D01*
X110879788Y-150313224D01*
X111103900Y-150406054D01*
X111338211Y-150468838D01*
X111518586Y-150492584D01*
X111578711Y-150500500D01*
X111578712Y-150500500D01*
X112821289Y-150500500D01*
X112869388Y-150494167D01*
X113061789Y-150468838D01*
X113296100Y-150406054D01*
X113520212Y-150313224D01*
X113573632Y-150282381D01*
X113641531Y-150265908D01*
X113707558Y-150288760D01*
X113750749Y-150343680D01*
X113757391Y-150413234D01*
X113725376Y-150475337D01*
X113723313Y-150477449D01*
X113197440Y-151003322D01*
X113136117Y-151036807D01*
X113077665Y-151035416D01*
X113061791Y-151031162D01*
X112821289Y-150999500D01*
X112821288Y-150999500D01*
X111578712Y-150999500D01*
X111578711Y-150999500D01*
X111338214Y-151031161D01*
X111103895Y-151093947D01*
X110879794Y-151186773D01*
X110879785Y-151186777D01*
X110669706Y-151308067D01*
X110477263Y-151455733D01*
X110477256Y-151455739D01*
X110305739Y-151627256D01*
X110305733Y-151627263D01*
X110158067Y-151819706D01*
X110036777Y-152029785D01*
X110036773Y-152029794D01*
X109943947Y-152253895D01*
X109881161Y-152488214D01*
X109849500Y-152728711D01*
X109849500Y-152971288D01*
X109881161Y-153211785D01*
X109943947Y-153446104D01*
X110027397Y-153647570D01*
X110036776Y-153670212D01*
X110158064Y-153880289D01*
X110158066Y-153880292D01*
X110158067Y-153880293D01*
X110305733Y-154072736D01*
X110305739Y-154072743D01*
X110477256Y-154244260D01*
X110477263Y-154244266D01*
X110590321Y-154331018D01*
X110669711Y-154391936D01*
X110879788Y-154513224D01*
X111103900Y-154606054D01*
X111338211Y-154668838D01*
X111495203Y-154689506D01*
X111578711Y-154700500D01*
X111578712Y-154700500D01*
X112821289Y-154700500D01*
X112880437Y-154692713D01*
X113061789Y-154668838D01*
X113296100Y-154606054D01*
X113520212Y-154513224D01*
X113730289Y-154391936D01*
X113922738Y-154244265D01*
X114094265Y-154072738D01*
X114241936Y-153880289D01*
X114363224Y-153670212D01*
X114456054Y-153446100D01*
X114518838Y-153211789D01*
X114550500Y-152971288D01*
X114550500Y-152728712D01*
X114518838Y-152488211D01*
X114456054Y-152253900D01*
X114363224Y-152029788D01*
X114241936Y-151819711D01*
X114237620Y-151814086D01*
X114212426Y-151748917D01*
X114226464Y-151680472D01*
X114248312Y-151650922D01*
X120704443Y-145194793D01*
X120765766Y-145161308D01*
X120792124Y-145158474D01*
X122749908Y-145158474D01*
X122816947Y-145178159D01*
X122818799Y-145179372D01*
X122950488Y-145267364D01*
X122950501Y-145267371D01*
X123096172Y-145327709D01*
X123096177Y-145327711D01*
X123250827Y-145358473D01*
X123250830Y-145358474D01*
X123250832Y-145358474D01*
X123408518Y-145358474D01*
X123408519Y-145358473D01*
X123563171Y-145327711D01*
X123675840Y-145281041D01*
X123708846Y-145267371D01*
X123708846Y-145267370D01*
X123708853Y-145267368D01*
X123839963Y-145179763D01*
X123951463Y-145068263D01*
X124039068Y-144937153D01*
X124099411Y-144791471D01*
X124130174Y-144636816D01*
X124130174Y-144479132D01*
X124130174Y-144479129D01*
X124130173Y-144479127D01*
X124123672Y-144446445D01*
X124099411Y-144324477D01*
X124099409Y-144324472D01*
X124039071Y-144178801D01*
X124039064Y-144178788D01*
X123951463Y-144047685D01*
X123951460Y-144047681D01*
X123839966Y-143936187D01*
X123839962Y-143936184D01*
X123708859Y-143848583D01*
X123708846Y-143848576D01*
X123563175Y-143788238D01*
X123563163Y-143788235D01*
X123408519Y-143757474D01*
X123408516Y-143757474D01*
X123250832Y-143757474D01*
X123250829Y-143757474D01*
X123096184Y-143788235D01*
X123096172Y-143788238D01*
X122950501Y-143848576D01*
X122950488Y-143848583D01*
X122818799Y-143936576D01*
X122752121Y-143957454D01*
X122749908Y-143957474D01*
X120578696Y-143957474D01*
X120578680Y-143957473D01*
X120571084Y-143957473D01*
X120412969Y-143957473D01*
X120336605Y-143977935D01*
X120260240Y-143998397D01*
X120260235Y-143998400D01*
X120123316Y-144077449D01*
X120123308Y-144077455D01*
X114527449Y-149673313D01*
X114466126Y-149706798D01*
X114396434Y-149701814D01*
X114340501Y-149659942D01*
X114316084Y-149594478D01*
X114330936Y-149526205D01*
X114332362Y-149523664D01*
X114363224Y-149470212D01*
X114456054Y-149246100D01*
X114518838Y-149011789D01*
X114550500Y-148771288D01*
X114550500Y-148528712D01*
X114548893Y-148516509D01*
X114518838Y-148288214D01*
X114518838Y-148288211D01*
X114456054Y-148053900D01*
X114363224Y-147829788D01*
X114363222Y-147829784D01*
X114241942Y-147619720D01*
X114241939Y-147619717D01*
X114241936Y-147619711D01*
X114237618Y-147614084D01*
X114212425Y-147548919D01*
X114226462Y-147480474D01*
X114248311Y-147450922D01*
X120735429Y-140963806D01*
X120796752Y-140930321D01*
X120823110Y-140927487D01*
X122660734Y-140927487D01*
X122727773Y-140947172D01*
X122729625Y-140948385D01*
X122861314Y-141036377D01*
X122861327Y-141036384D01*
X123006998Y-141096722D01*
X123007003Y-141096724D01*
X123161653Y-141127486D01*
X123161656Y-141127487D01*
X123161658Y-141127487D01*
X123319344Y-141127487D01*
X123319345Y-141127486D01*
X123473997Y-141096724D01*
X123619679Y-141036381D01*
X123750789Y-140948776D01*
X123862289Y-140837276D01*
X123949894Y-140706166D01*
X124010237Y-140560484D01*
X124041000Y-140405829D01*
X124041000Y-140248145D01*
X124041000Y-140248142D01*
X124040999Y-140248140D01*
X124033643Y-140211158D01*
X124010237Y-140093490D01*
X123998492Y-140065135D01*
X123949897Y-139947814D01*
X123949890Y-139947801D01*
X123862289Y-139816698D01*
X123862286Y-139816694D01*
X123750792Y-139705200D01*
X123750788Y-139705197D01*
X123619685Y-139617596D01*
X123619672Y-139617589D01*
X123474001Y-139557251D01*
X123473989Y-139557248D01*
X123319345Y-139526487D01*
X123319342Y-139526487D01*
X123161658Y-139526487D01*
X123161655Y-139526487D01*
X123007010Y-139557248D01*
X123006998Y-139557251D01*
X122861327Y-139617589D01*
X122861314Y-139617596D01*
X122729625Y-139705589D01*
X122662947Y-139726467D01*
X122660734Y-139726487D01*
X120609682Y-139726487D01*
X120609666Y-139726486D01*
X120602070Y-139726486D01*
X120443956Y-139726486D01*
X120364023Y-139747904D01*
X120291229Y-139767409D01*
X120249843Y-139791304D01*
X120249842Y-139791303D01*
X120154300Y-139846464D01*
X120154295Y-139846468D01*
X120042491Y-139958273D01*
X113197441Y-146803322D01*
X113136118Y-146836807D01*
X113077667Y-146835416D01*
X113061793Y-146831162D01*
X112821289Y-146799500D01*
X112821288Y-146799500D01*
X111578712Y-146799500D01*
X111578711Y-146799500D01*
X111338214Y-146831161D01*
X111103895Y-146893947D01*
X110879794Y-146986773D01*
X110879785Y-146986777D01*
X110669706Y-147108067D01*
X110477263Y-147255733D01*
X110477256Y-147255739D01*
X110305739Y-147427256D01*
X110305733Y-147427263D01*
X110158067Y-147619706D01*
X110036777Y-147829785D01*
X110036773Y-147829794D01*
X109943947Y-148053895D01*
X109881161Y-148288214D01*
X109849500Y-148528711D01*
X109050500Y-148528711D01*
X109048893Y-148516509D01*
X109018838Y-148288214D01*
X109018838Y-148288211D01*
X108956054Y-148053900D01*
X108863224Y-147829788D01*
X108741936Y-147619711D01*
X108594265Y-147427262D01*
X108594260Y-147427256D01*
X108422743Y-147255739D01*
X108422736Y-147255733D01*
X108230293Y-147108067D01*
X108230292Y-147108066D01*
X108230289Y-147108064D01*
X108020212Y-146986776D01*
X108019382Y-146986432D01*
X107796104Y-146893947D01*
X107678944Y-146862554D01*
X107561789Y-146831162D01*
X107561788Y-146831161D01*
X107561785Y-146831161D01*
X107321289Y-146799500D01*
X107321288Y-146799500D01*
X106078712Y-146799500D01*
X106078711Y-146799500D01*
X105838214Y-146831161D01*
X105603895Y-146893947D01*
X105379794Y-146986773D01*
X105379785Y-146986777D01*
X105169706Y-147108067D01*
X104977263Y-147255733D01*
X104977256Y-147255739D01*
X104805739Y-147427256D01*
X104805733Y-147427263D01*
X104658067Y-147619706D01*
X104536777Y-147829785D01*
X104536773Y-147829794D01*
X104443947Y-148053895D01*
X104381161Y-148288214D01*
X104349500Y-148528711D01*
X96600000Y-148528711D01*
X96600000Y-138435258D01*
X97649500Y-138435258D01*
X97649500Y-138664741D01*
X97668625Y-138810000D01*
X97679452Y-138892238D01*
X97730123Y-139081348D01*
X97738842Y-139113887D01*
X97826650Y-139325876D01*
X97826657Y-139325890D01*
X97852189Y-139370113D01*
X97903720Y-139459368D01*
X97941392Y-139524617D01*
X98081081Y-139706661D01*
X98081089Y-139706670D01*
X98243330Y-139868911D01*
X98243338Y-139868918D01*
X98425382Y-140008607D01*
X98425385Y-140008608D01*
X98425388Y-140008611D01*
X98624112Y-140123344D01*
X98624117Y-140123346D01*
X98624123Y-140123349D01*
X98715480Y-140161190D01*
X98836113Y-140211158D01*
X99057762Y-140270548D01*
X99285266Y-140300500D01*
X99285273Y-140300500D01*
X99514727Y-140300500D01*
X99514734Y-140300500D01*
X99742238Y-140270548D01*
X99963887Y-140211158D01*
X100175888Y-140123344D01*
X100374612Y-140008611D01*
X100556661Y-139868919D01*
X100556665Y-139868914D01*
X100556670Y-139868911D01*
X100718911Y-139706670D01*
X100718914Y-139706665D01*
X100718919Y-139706661D01*
X100858611Y-139524612D01*
X100872830Y-139499984D01*
X104349500Y-139499984D01*
X104349500Y-141800015D01*
X104360000Y-141902795D01*
X104360001Y-141902796D01*
X104415186Y-142069335D01*
X104415187Y-142069337D01*
X104507286Y-142218651D01*
X104507289Y-142218655D01*
X104631344Y-142342710D01*
X104631348Y-142342713D01*
X104780662Y-142434812D01*
X104780664Y-142434813D01*
X104780666Y-142434814D01*
X104947203Y-142489999D01*
X105049992Y-142500500D01*
X105775500Y-142500500D01*
X105842539Y-142520185D01*
X105888294Y-142572989D01*
X105899500Y-142624500D01*
X105899500Y-143228846D01*
X105930261Y-143383489D01*
X105930264Y-143383501D01*
X105990602Y-143529172D01*
X105990609Y-143529185D01*
X106078210Y-143660288D01*
X106078213Y-143660292D01*
X108823870Y-146405947D01*
X108823891Y-146405970D01*
X108939707Y-146521786D01*
X108939711Y-146521789D01*
X109070814Y-146609390D01*
X109070827Y-146609397D01*
X109216498Y-146669735D01*
X109216503Y-146669737D01*
X109216507Y-146669737D01*
X109216508Y-146669738D01*
X109371154Y-146700500D01*
X109371157Y-146700500D01*
X109528844Y-146700500D01*
X109528845Y-146700499D01*
X109683497Y-146669737D01*
X109829179Y-146609394D01*
X109960289Y-146521789D01*
X110071789Y-146410289D01*
X110159394Y-146279179D01*
X110219737Y-146133497D01*
X110250500Y-145978842D01*
X110250500Y-145821158D01*
X110250500Y-145821155D01*
X110250499Y-145821153D01*
X110219738Y-145666510D01*
X110219737Y-145666503D01*
X110179609Y-145569624D01*
X110159397Y-145520827D01*
X110159390Y-145520814D01*
X110071789Y-145389711D01*
X110071786Y-145389707D01*
X109955970Y-145273891D01*
X109955947Y-145273870D01*
X107536819Y-142854741D01*
X107522115Y-142827813D01*
X107505523Y-142801995D01*
X107504631Y-142795794D01*
X107503334Y-142793418D01*
X107500500Y-142767060D01*
X107500500Y-142624500D01*
X107520185Y-142557461D01*
X107572989Y-142511706D01*
X107624500Y-142500500D01*
X108350003Y-142500500D01*
X108350008Y-142500500D01*
X108452797Y-142489999D01*
X108619334Y-142434814D01*
X108768655Y-142342711D01*
X108892711Y-142218655D01*
X108984814Y-142069334D01*
X109039999Y-141902797D01*
X109050500Y-141800008D01*
X109050500Y-140528711D01*
X109849500Y-140528711D01*
X109849500Y-140771288D01*
X109870436Y-140930321D01*
X109881162Y-141011789D01*
X109887752Y-141036384D01*
X109943947Y-141246104D01*
X109963530Y-141293381D01*
X110036776Y-141470212D01*
X110158064Y-141680289D01*
X110158066Y-141680292D01*
X110158067Y-141680293D01*
X110305733Y-141872736D01*
X110305739Y-141872743D01*
X110477256Y-142044260D01*
X110477263Y-142044266D01*
X110584640Y-142126659D01*
X110669711Y-142191936D01*
X110879788Y-142313224D01*
X111103900Y-142406054D01*
X111338211Y-142468838D01*
X111498940Y-142489998D01*
X111578711Y-142500500D01*
X111578712Y-142500500D01*
X112821289Y-142500500D01*
X112901052Y-142489999D01*
X113061789Y-142468838D01*
X113296100Y-142406054D01*
X113520212Y-142313224D01*
X113730289Y-142191936D01*
X113922738Y-142044265D01*
X114094265Y-141872738D01*
X114241936Y-141680289D01*
X114363224Y-141470212D01*
X114456054Y-141246100D01*
X114518838Y-141011789D01*
X114550500Y-140771288D01*
X114550500Y-140528712D01*
X114518838Y-140288211D01*
X114456054Y-140053900D01*
X114363224Y-139829788D01*
X114241936Y-139619711D01*
X114150073Y-139499992D01*
X114094266Y-139427263D01*
X114094260Y-139427256D01*
X113922743Y-139255739D01*
X113922736Y-139255733D01*
X113730293Y-139108067D01*
X113730292Y-139108066D01*
X113730289Y-139108064D01*
X113520212Y-138986776D01*
X113520205Y-138986773D01*
X113296104Y-138893947D01*
X113061785Y-138831161D01*
X112821289Y-138799500D01*
X112821288Y-138799500D01*
X111578712Y-138799500D01*
X111578711Y-138799500D01*
X111338214Y-138831161D01*
X111103895Y-138893947D01*
X110879794Y-138986773D01*
X110879785Y-138986777D01*
X110669706Y-139108067D01*
X110477263Y-139255733D01*
X110477256Y-139255739D01*
X110305739Y-139427256D01*
X110305733Y-139427263D01*
X110158067Y-139619706D01*
X110036777Y-139829785D01*
X110036773Y-139829794D01*
X109943947Y-140053895D01*
X109881161Y-140288214D01*
X109849500Y-140528711D01*
X109050500Y-140528711D01*
X109050500Y-139499992D01*
X109039999Y-139397203D01*
X108984814Y-139230666D01*
X108912783Y-139113887D01*
X108892713Y-139081348D01*
X108892710Y-139081344D01*
X108768655Y-138957289D01*
X108768651Y-138957286D01*
X108619337Y-138865187D01*
X108619335Y-138865186D01*
X108536065Y-138837593D01*
X108452797Y-138810001D01*
X108452795Y-138810000D01*
X108350015Y-138799500D01*
X108350008Y-138799500D01*
X105049992Y-138799500D01*
X105049984Y-138799500D01*
X104947204Y-138810000D01*
X104947203Y-138810001D01*
X104780664Y-138865186D01*
X104780662Y-138865187D01*
X104631348Y-138957286D01*
X104631344Y-138957289D01*
X104507289Y-139081344D01*
X104507286Y-139081348D01*
X104415187Y-139230662D01*
X104415186Y-139230664D01*
X104360001Y-139397203D01*
X104360000Y-139397204D01*
X104349500Y-139499984D01*
X100872830Y-139499984D01*
X100973344Y-139325888D01*
X101061158Y-139113887D01*
X101120548Y-138892238D01*
X101150500Y-138664734D01*
X101150500Y-138435266D01*
X101120548Y-138207762D01*
X101061158Y-137986113D01*
X101002403Y-137844266D01*
X100973349Y-137774123D01*
X100973346Y-137774117D01*
X100973344Y-137774112D01*
X100858611Y-137575388D01*
X100858608Y-137575385D01*
X100858607Y-137575382D01*
X100757764Y-137443962D01*
X100718919Y-137393339D01*
X100718918Y-137393338D01*
X100718911Y-137393330D01*
X100556670Y-137231089D01*
X100556661Y-137231081D01*
X100374617Y-137091392D01*
X100175890Y-136976657D01*
X100175876Y-136976650D01*
X99963887Y-136888842D01*
X99917116Y-136876310D01*
X99742238Y-136829452D01*
X99704215Y-136824446D01*
X99514741Y-136799500D01*
X99514734Y-136799500D01*
X99285266Y-136799500D01*
X99285258Y-136799500D01*
X99080602Y-136826445D01*
X99057762Y-136829452D01*
X98964076Y-136854554D01*
X98836112Y-136888842D01*
X98624123Y-136976650D01*
X98624109Y-136976657D01*
X98425382Y-137091392D01*
X98243338Y-137231081D01*
X98081081Y-137393338D01*
X97941392Y-137575382D01*
X97826657Y-137774109D01*
X97826650Y-137774123D01*
X97738842Y-137986112D01*
X97679453Y-138207759D01*
X97679451Y-138207770D01*
X97649500Y-138435258D01*
X96600000Y-138435258D01*
X96600000Y-136328711D01*
X104349500Y-136328711D01*
X104349500Y-136571288D01*
X104381161Y-136811785D01*
X104443947Y-137046104D01*
X104533454Y-137262192D01*
X104536776Y-137270212D01*
X104658064Y-137480289D01*
X104658066Y-137480292D01*
X104658067Y-137480293D01*
X104805733Y-137672736D01*
X104805739Y-137672743D01*
X104977256Y-137844260D01*
X104977262Y-137844265D01*
X105169711Y-137991936D01*
X105379788Y-138113224D01*
X105603900Y-138206054D01*
X105838211Y-138268838D01*
X106018586Y-138292584D01*
X106078711Y-138300500D01*
X106078712Y-138300500D01*
X107321289Y-138300500D01*
X107379510Y-138292835D01*
X107561789Y-138268838D01*
X107796100Y-138206054D01*
X108020212Y-138113224D01*
X108230289Y-137991936D01*
X108422738Y-137844265D01*
X108594265Y-137672738D01*
X108741936Y-137480289D01*
X108863224Y-137270212D01*
X108956054Y-137046100D01*
X109018838Y-136811789D01*
X109050500Y-136571288D01*
X109050500Y-136328712D01*
X109033555Y-136200000D01*
X109866950Y-136200000D01*
X111332096Y-136200000D01*
X111300000Y-136361358D01*
X111300000Y-136538642D01*
X111332096Y-136700000D01*
X109866950Y-136700000D01*
X109881653Y-136811687D01*
X109944421Y-137045939D01*
X110037220Y-137269978D01*
X110037227Y-137269993D01*
X110158480Y-137480009D01*
X110306110Y-137672405D01*
X110306116Y-137672412D01*
X110477587Y-137843883D01*
X110477594Y-137843889D01*
X110669990Y-137991519D01*
X110880006Y-138112772D01*
X110880021Y-138112779D01*
X111104060Y-138205578D01*
X111338312Y-138268346D01*
X111578735Y-138299998D01*
X111578752Y-138300000D01*
X111950000Y-138300000D01*
X111950000Y-137317904D01*
X112111358Y-137350000D01*
X112288642Y-137350000D01*
X112450000Y-137317904D01*
X112450000Y-138300000D01*
X112821248Y-138300000D01*
X112821264Y-138299998D01*
X113061687Y-138268346D01*
X113295939Y-138205578D01*
X113519978Y-138112779D01*
X113519993Y-138112772D01*
X113730009Y-137991519D01*
X113922405Y-137843889D01*
X113922412Y-137843883D01*
X114093883Y-137672412D01*
X114093889Y-137672405D01*
X114241519Y-137480009D01*
X114362772Y-137269993D01*
X114362779Y-137269978D01*
X114455578Y-137045939D01*
X114518346Y-136811687D01*
X114533050Y-136700000D01*
X113067904Y-136700000D01*
X113100000Y-136538642D01*
X113100000Y-136361358D01*
X113067904Y-136200000D01*
X114533049Y-136200000D01*
X114518346Y-136088312D01*
X114455579Y-135854063D01*
X114372871Y-135654387D01*
X114372870Y-135654385D01*
X114362775Y-135630013D01*
X114362772Y-135630006D01*
X114241519Y-135419990D01*
X114093889Y-135227594D01*
X114093883Y-135227587D01*
X113922412Y-135056116D01*
X113922405Y-135056110D01*
X113730009Y-134908480D01*
X113519993Y-134787227D01*
X113519978Y-134787220D01*
X113295939Y-134694421D01*
X113061687Y-134631653D01*
X112821264Y-134600001D01*
X112821248Y-134600000D01*
X112450000Y-134600000D01*
X112450000Y-135582095D01*
X112288642Y-135550000D01*
X112111358Y-135550000D01*
X111950000Y-135582095D01*
X111950000Y-134600000D01*
X111578752Y-134600000D01*
X111578735Y-134600001D01*
X111338312Y-134631653D01*
X111104060Y-134694421D01*
X110880021Y-134787220D01*
X110880006Y-134787227D01*
X110669990Y-134908480D01*
X110477594Y-135056110D01*
X110477587Y-135056116D01*
X110306116Y-135227587D01*
X110306110Y-135227594D01*
X110158480Y-135419990D01*
X110037227Y-135630006D01*
X110037220Y-135630021D01*
X109944421Y-135854060D01*
X109881653Y-136088312D01*
X109866950Y-136200000D01*
X109033555Y-136200000D01*
X109018838Y-136088211D01*
X108956054Y-135853900D01*
X108863224Y-135629788D01*
X108741936Y-135419711D01*
X108594520Y-135227594D01*
X108594266Y-135227263D01*
X108594260Y-135227256D01*
X108422743Y-135055739D01*
X108422736Y-135055733D01*
X108230293Y-134908067D01*
X108230292Y-134908066D01*
X108230289Y-134908064D01*
X108020212Y-134786776D01*
X108020205Y-134786773D01*
X107796104Y-134693947D01*
X107561785Y-134631161D01*
X107321289Y-134599500D01*
X107321288Y-134599500D01*
X106078712Y-134599500D01*
X106078711Y-134599500D01*
X105838214Y-134631161D01*
X105603895Y-134693947D01*
X105379794Y-134786773D01*
X105379785Y-134786777D01*
X105169706Y-134908067D01*
X104977263Y-135055733D01*
X104977256Y-135055739D01*
X104805739Y-135227256D01*
X104805733Y-135227263D01*
X104658067Y-135419706D01*
X104536777Y-135629785D01*
X104536773Y-135629794D01*
X104443947Y-135853895D01*
X104381161Y-136088214D01*
X104349500Y-136328711D01*
X96600000Y-136328711D01*
X96600000Y-129790525D01*
X112339700Y-129790525D01*
X112339700Y-130049474D01*
X112339701Y-130049491D01*
X112373499Y-130306217D01*
X112373500Y-130306222D01*
X112373501Y-130306228D01*
X112373502Y-130306230D01*
X112440524Y-130556364D01*
X112539623Y-130795609D01*
X112539627Y-130795619D01*
X112669106Y-131019883D01*
X112826751Y-131225331D01*
X112826757Y-131225338D01*
X113009861Y-131408442D01*
X113009868Y-131408448D01*
X113215316Y-131566093D01*
X113439580Y-131695572D01*
X113439581Y-131695572D01*
X113439584Y-131695574D01*
X113678834Y-131794675D01*
X113928972Y-131861699D01*
X114185719Y-131895500D01*
X114185726Y-131895500D01*
X114444674Y-131895500D01*
X114444681Y-131895500D01*
X114701428Y-131861699D01*
X114951566Y-131794675D01*
X115190816Y-131695574D01*
X115415084Y-131566093D01*
X115620533Y-131408447D01*
X115803647Y-131225333D01*
X115961293Y-131019884D01*
X116090774Y-130795616D01*
X116189875Y-130556366D01*
X116256899Y-130306228D01*
X116290700Y-130049481D01*
X116290700Y-129790519D01*
X116256899Y-129533772D01*
X116189875Y-129283634D01*
X116090774Y-129044384D01*
X115961293Y-128820116D01*
X115803647Y-128614667D01*
X115803642Y-128614661D01*
X115620538Y-128431557D01*
X115620531Y-128431551D01*
X115415083Y-128273906D01*
X115190819Y-128144427D01*
X115190809Y-128144423D01*
X114951564Y-128045324D01*
X114826497Y-128011813D01*
X114701428Y-127978301D01*
X114701422Y-127978300D01*
X114701417Y-127978299D01*
X114444691Y-127944501D01*
X114444686Y-127944500D01*
X114444681Y-127944500D01*
X114185719Y-127944500D01*
X114185713Y-127944500D01*
X114185708Y-127944501D01*
X113928982Y-127978299D01*
X113928975Y-127978300D01*
X113928972Y-127978301D01*
X113876108Y-127992465D01*
X113678835Y-128045324D01*
X113439590Y-128144423D01*
X113439580Y-128144427D01*
X113215316Y-128273906D01*
X113009868Y-128431551D01*
X113009861Y-128431557D01*
X112826757Y-128614661D01*
X112826751Y-128614668D01*
X112669106Y-128820116D01*
X112539627Y-129044380D01*
X112539623Y-129044390D01*
X112440524Y-129283635D01*
X112373502Y-129533769D01*
X112373499Y-129533782D01*
X112339701Y-129790508D01*
X112339700Y-129790525D01*
X96600000Y-129790525D01*
X96600000Y-115676131D01*
X96619685Y-115609092D01*
X96672489Y-115563337D01*
X96741647Y-115553393D01*
X96805203Y-115582418D01*
X96820942Y-115598813D01*
X96983221Y-115802304D01*
X97197696Y-116016779D01*
X97434836Y-116205892D01*
X97691659Y-116367265D01*
X97964935Y-116498868D01*
X98179951Y-116574105D01*
X98251216Y-116599042D01*
X98251228Y-116599046D01*
X98546937Y-116666540D01*
X98546946Y-116666541D01*
X98546951Y-116666542D01*
X98747874Y-116689180D01*
X98848337Y-116700499D01*
X98848340Y-116700500D01*
X98848343Y-116700500D01*
X99151660Y-116700500D01*
X99151661Y-116700499D01*
X99305694Y-116683144D01*
X99453048Y-116666542D01*
X99453051Y-116666541D01*
X99453063Y-116666540D01*
X99748772Y-116599046D01*
X100035065Y-116498868D01*
X100308341Y-116367265D01*
X100565164Y-116205892D01*
X100802304Y-116016779D01*
X101016779Y-115802304D01*
X101205892Y-115565164D01*
X101367265Y-115308341D01*
X101498868Y-115035065D01*
X101599046Y-114748772D01*
X101666540Y-114453063D01*
X101700500Y-114151657D01*
X101700500Y-113848343D01*
X101700499Y-113848334D01*
X101696772Y-113815247D01*
X101695756Y-113806231D01*
X104359700Y-113806231D01*
X104359700Y-114033768D01*
X104395293Y-114258490D01*
X104465600Y-114474876D01*
X104465601Y-114474879D01*
X104568897Y-114677607D01*
X104702634Y-114861680D01*
X104863520Y-115022566D01*
X105047593Y-115156303D01*
X105147025Y-115206966D01*
X105250320Y-115259598D01*
X105250323Y-115259599D01*
X105358516Y-115294752D01*
X105466711Y-115329907D01*
X105570791Y-115346391D01*
X105691432Y-115365500D01*
X105691437Y-115365500D01*
X105918968Y-115365500D01*
X106027910Y-115348244D01*
X106143689Y-115329907D01*
X106360079Y-115259598D01*
X106562807Y-115156303D01*
X106746880Y-115022566D01*
X106907766Y-114861680D01*
X107041503Y-114677607D01*
X107144798Y-114474879D01*
X107215107Y-114258489D01*
X107233444Y-114142710D01*
X107250700Y-114033768D01*
X107250700Y-113806232D01*
X107250640Y-113805854D01*
X107250640Y-113805852D01*
X107248212Y-113790525D01*
X167579700Y-113790525D01*
X167579700Y-114049474D01*
X167579701Y-114049491D01*
X167613499Y-114306217D01*
X167613500Y-114306222D01*
X167613501Y-114306228D01*
X167613502Y-114306230D01*
X167680524Y-114556364D01*
X167779623Y-114795609D01*
X167779627Y-114795619D01*
X167909106Y-115019883D01*
X168066751Y-115225331D01*
X168066757Y-115225338D01*
X168249861Y-115408442D01*
X168249868Y-115408448D01*
X168455316Y-115566093D01*
X168679580Y-115695572D01*
X168679581Y-115695572D01*
X168679584Y-115695574D01*
X168918834Y-115794675D01*
X169168972Y-115861699D01*
X169425719Y-115895500D01*
X169425726Y-115895500D01*
X169684674Y-115895500D01*
X169684681Y-115895500D01*
X169941428Y-115861699D01*
X170191566Y-115794675D01*
X170430816Y-115695574D01*
X170655084Y-115566093D01*
X170860533Y-115408447D01*
X171043647Y-115225333D01*
X171201293Y-115019884D01*
X171330774Y-114795616D01*
X171429875Y-114556366D01*
X171496899Y-114306228D01*
X171530700Y-114049481D01*
X171530700Y-113790519D01*
X171496899Y-113533772D01*
X171429875Y-113283634D01*
X171330774Y-113044384D01*
X171201293Y-112820116D01*
X171199235Y-112817434D01*
X171043648Y-112614668D01*
X171043642Y-112614661D01*
X170860538Y-112431557D01*
X170860531Y-112431551D01*
X170655083Y-112273906D01*
X170430819Y-112144427D01*
X170430809Y-112144423D01*
X170191564Y-112045324D01*
X170066497Y-112011813D01*
X169941428Y-111978301D01*
X169941422Y-111978300D01*
X169941417Y-111978299D01*
X169684691Y-111944501D01*
X169684686Y-111944500D01*
X169684681Y-111944500D01*
X169425719Y-111944500D01*
X169425713Y-111944500D01*
X169425708Y-111944501D01*
X169168982Y-111978299D01*
X169168975Y-111978300D01*
X169168972Y-111978301D01*
X169116108Y-111992465D01*
X168918835Y-112045324D01*
X168679590Y-112144423D01*
X168679580Y-112144427D01*
X168455316Y-112273906D01*
X168249868Y-112431551D01*
X168249861Y-112431557D01*
X168066757Y-112614661D01*
X168066751Y-112614668D01*
X167909106Y-112820116D01*
X167779627Y-113044380D01*
X167779623Y-113044390D01*
X167680524Y-113283635D01*
X167613502Y-113533769D01*
X167613499Y-113533782D01*
X167579701Y-113790508D01*
X167579700Y-113790525D01*
X107248212Y-113790525D01*
X107215107Y-113581509D01*
X107144799Y-113365123D01*
X107144798Y-113365120D01*
X107086767Y-113251228D01*
X107041503Y-113162393D01*
X106907766Y-112978320D01*
X106746880Y-112817434D01*
X106562807Y-112683697D01*
X106360079Y-112580401D01*
X106360076Y-112580400D01*
X106143690Y-112510093D01*
X105918968Y-112474500D01*
X105918963Y-112474500D01*
X105691437Y-112474500D01*
X105691432Y-112474500D01*
X105466709Y-112510093D01*
X105250323Y-112580400D01*
X105250320Y-112580401D01*
X105047592Y-112683697D01*
X104942572Y-112759998D01*
X104863520Y-112817434D01*
X104863518Y-112817436D01*
X104863517Y-112817436D01*
X104702636Y-112978317D01*
X104702636Y-112978318D01*
X104702634Y-112978320D01*
X104654639Y-113044380D01*
X104568897Y-113162392D01*
X104465601Y-113365120D01*
X104465600Y-113365123D01*
X104395293Y-113581509D01*
X104359700Y-113806231D01*
X101695756Y-113806231D01*
X101674467Y-113617296D01*
X101666540Y-113546937D01*
X101599046Y-113251228D01*
X101498868Y-112964935D01*
X101367265Y-112691659D01*
X101205892Y-112434836D01*
X101016779Y-112197696D01*
X100802304Y-111983221D01*
X100753749Y-111944500D01*
X100598819Y-111820947D01*
X100558679Y-111763759D01*
X100555829Y-111693947D01*
X100591174Y-111633677D01*
X100653493Y-111602084D01*
X100676132Y-111600000D01*
X183323868Y-111600000D01*
X183390907Y-111619685D01*
G37*
%TD.AperFunction*%
%TD*%
M02*
