M48
; DRILL file KiCad 10.0.3 date 2026-06-04T19:53:53
; FORMAT={-:-/ absolute / inch / decimal}
; #@! TF.CreationDate,2026-06-04T19:53:53+09:00
; #@! TF.GenerationSoftware,Kicad,Pcbnew,10.0.3
; #@! TF.FileFunction,Plated,1,2,PTH
FMAT,2
INCH
; #@! TA.AperFunction,Plated,PTH,ViaDrill
T1C0.0118
; #@! TA.AperFunction,Plated,PTH,ComponentDrill
T2C0.0300
; #@! TA.AperFunction,Plated,PTH,ComponentDrill
T3C0.0350
; #@! TA.AperFunction,Plated,PTH,ComponentDrill
T4C0.0360
; #@! TA.AperFunction,Plated,PTH,ComponentDrill
T5C0.0360
; #@! TA.AperFunction,Plated,PTH,ComponentDrill
T6C0.0709
; #@! TA.AperFunction,Plated,PTH,ComponentDrill
T7C0.0866
%
G90
G05
T1
X4.0965Y-5.1929
X4.3091Y-5.7441
X4.4941Y-6.0984
X4.5394Y-5.5866
X4.6457Y-5.874
X4.6634Y-6.2323
X4.7205Y-5.4213
X4.8406Y-6.0669
X4.8465Y-6.5335
X4.852Y-5.5247
X4.8555Y-5.6913
X4.9705Y-5.4232
X5.0472Y-6.3976
X5.0512Y-5.5295
X5.061Y-5.6811
X5.1201Y-5.3971
X5.1437Y-6.5453
X5.2126Y-5.5591
X5.2126Y-5.7205
X5.2618Y-6.4724
X5.3898Y-6.5335
X5.3976Y-5.4311
X5.4331Y-6.0157
X5.4469Y-5.8504
X6.2402Y-5.2717
X6.28Y-6.044
X6.315Y-5.5276
X6.4646Y-5.5276
X6.4665Y-6.0787
X6.6358Y-6.252
X6.6437Y-5.2736
X6.8504Y-5.8661
X6.9291Y-5.5571
X6.9449Y-6.0
X7.1299Y-6.0335
X7.1516Y-4.9626
X7.2047Y-6.0335
T2
X5.5304Y-6.5431
X6.1304Y-6.5431
T3
X5.8091Y-5.4649
X5.9091Y-5.4649
X6.0091Y-5.4649
T4
X6.1304Y-5.3431
T5
X5.5304Y-5.3431
X5.5304Y-5.4431
X5.5304Y-5.5431
X5.5304Y-5.6431
X5.5304Y-5.7431
X5.5304Y-5.8431
X5.5304Y-5.9431
X5.5304Y-6.0431
X5.5304Y-6.1431
X5.5304Y-6.2431
X5.5304Y-6.3431
X5.5304Y-6.4431
X6.1304Y-5.4431
X6.1304Y-5.5431
X6.1304Y-5.6431
X6.1304Y-5.7431
X6.1304Y-5.8431
X6.1304Y-5.9431
X6.1304Y-6.0431
X6.1304Y-6.1431
X6.1304Y-6.2431
X6.1304Y-6.3431
X6.1304Y-6.4431
T6
X4.2008Y-5.372
X4.2008Y-5.5374
X4.2008Y-5.8524
X4.2008Y-6.0177
X4.4173Y-5.372
X4.4173Y-5.5374
X4.4173Y-5.8524
X4.4173Y-6.0177
T7
X3.8976Y-4.4882
X3.8976Y-6.4961
X7.2835Y-4.4882
X7.2835Y-6.4961
M30
