%TF.GenerationSoftware,KiCad,Pcbnew,10.0.3*%
%TF.CreationDate,2026-06-03T20:15:05+09:00*%
%TF.ProjectId,pcb,7063622e-6b69-4636-9164-5f7063625858,rev?*%
%TF.SameCoordinates,Original*%
%TF.FileFunction,Copper,L1,Top*%
%TF.FilePolarity,Positive*%
%FSLAX46Y46*%
G04 Gerber Fmt 4.6, Leading zero omitted, Abs format (unit mm)*
G04 Created by KiCad (PCBNEW 10.0.3) date 2026-06-03 20:15:05*
%MOMM*%
%LPD*%
G01*
G04 APERTURE LIST*
G04 Aperture macros list*
%AMRoundRect*
0 Rectangle with rounded corners*
0 $1 Rounding radius*
0 $2 $3 $4 $5 $6 $7 $8 $9 X,Y pos of 4 corners*
0 Add a 4 corners polygon primitive as box body*
4,1,4,$2,$3,$4,$5,$6,$7,$8,$9,$2,$3,0*
0 Add four circle primitives for the rounded corners*
1,1,$1+$1,$2,$3*
1,1,$1+$1,$4,$5*
1,1,$1+$1,$6,$7*
1,1,$1+$1,$8,$9*
0 Add four rect primitives between the rounded corners*
20,1,$1+$1,$2,$3,$4,$5,0*
20,1,$1+$1,$4,$5,$6,$7,0*
20,1,$1+$1,$6,$7,$8,$9,0*
20,1,$1+$1,$8,$9,$2,$3,0*%
G04 Aperture macros list end*
%TA.AperFunction,ComponentPad*%
%ADD10RoundRect,0.250000X0.725000X-0.600000X0.725000X0.600000X-0.725000X0.600000X-0.725000X-0.600000X0*%
%TD*%
%TA.AperFunction,ComponentPad*%
%ADD11O,1.950000X1.700000*%
%TD*%
%TA.AperFunction,ComponentPad*%
%ADD12RoundRect,0.250000X-0.600000X-0.750000X0.600000X-0.750000X0.600000X0.750000X-0.600000X0.750000X0*%
%TD*%
%TA.AperFunction,ComponentPad*%
%ADD13O,1.700000X2.000000*%
%TD*%
%TA.AperFunction,SMDPad,CuDef*%
%ADD14RoundRect,0.250000X-0.350000X-0.450000X0.350000X-0.450000X0.350000X0.450000X-0.350000X0.450000X0*%
%TD*%
%TA.AperFunction,ComponentPad*%
%ADD15RoundRect,0.250000X-0.725000X0.600000X-0.725000X-0.600000X0.725000X-0.600000X0.725000X0.600000X0*%
%TD*%
%TA.AperFunction,SMDPad,CuDef*%
%ADD16RoundRect,0.250000X-0.475000X0.337500X-0.475000X-0.337500X0.475000X-0.337500X0.475000X0.337500X0*%
%TD*%
%TA.AperFunction,ComponentPad*%
%ADD17C,4.400000*%
%TD*%
%TA.AperFunction,SMDPad,CuDef*%
%ADD18RoundRect,0.250000X-0.450000X0.350000X-0.450000X-0.350000X0.450000X-0.350000X0.450000X0.350000X0*%
%TD*%
%TA.AperFunction,ComponentPad*%
%ADD19RoundRect,0.250000X0.750000X0.750000X-0.750000X0.750000X-0.750000X-0.750000X0.750000X-0.750000X0*%
%TD*%
%TA.AperFunction,ComponentPad*%
%ADD20C,2.000000*%
%TD*%
%TA.AperFunction,SMDPad,CuDef*%
%ADD21RoundRect,0.150000X-0.587500X-0.150000X0.587500X-0.150000X0.587500X0.150000X-0.587500X0.150000X0*%
%TD*%
%TA.AperFunction,SMDPad,CuDef*%
%ADD22RoundRect,0.250000X0.350000X0.450000X-0.350000X0.450000X-0.350000X-0.450000X0.350000X-0.450000X0*%
%TD*%
%TA.AperFunction,ComponentPad*%
%ADD23R,1.600000X1.600000*%
%TD*%
%TA.AperFunction,ComponentPad*%
%ADD24O,1.600000X1.600000*%
%TD*%
%TA.AperFunction,ComponentPad*%
%ADD25RoundRect,0.250000X-0.600000X-0.725000X0.600000X-0.725000X0.600000X0.725000X-0.600000X0.725000X0*%
%TD*%
%TA.AperFunction,ComponentPad*%
%ADD26O,1.700000X1.950000*%
%TD*%
%TA.AperFunction,ComponentPad*%
%ADD27RoundRect,0.250000X0.600000X0.750000X-0.600000X0.750000X-0.600000X-0.750000X0.600000X-0.750000X0*%
%TD*%
%TA.AperFunction,ComponentPad*%
%ADD28R,1.508000X1.508000*%
%TD*%
%TA.AperFunction,ComponentPad*%
%ADD29C,1.508000*%
%TD*%
%TA.AperFunction,SMDPad,CuDef*%
%ADD30RoundRect,0.250000X0.450000X-0.350000X0.450000X0.350000X-0.450000X0.350000X-0.450000X-0.350000X0*%
%TD*%
%TA.AperFunction,ViaPad*%
%ADD31C,0.600000*%
%TD*%
%TA.AperFunction,Conductor*%
%ADD32C,0.600000*%
%TD*%
%TA.AperFunction,Conductor*%
%ADD33C,0.200000*%
%TD*%
G04 APERTURE END LIST*
D10*
%TO.P,J3,1,Pin_1_1*%
%TO.N,/NAV*%
X125500000Y-137600000D03*
D11*
%TO.P,J3,2,Pin_2_2*%
%TO.N,+5V*%
X125500000Y-135100000D03*
%TO.P,J3,3,Pin_3_3*%
%TO.N,GND*%
X125500000Y-132600000D03*
%TD*%
D12*
%TO.P,J1,1,Pin_1_1*%
%TO.N,+BATT*%
X116000000Y-155475000D03*
D13*
%TO.P,J1,2,Pin_2_2*%
%TO.N,GND*%
X118500000Y-155475000D03*
%TD*%
D14*
%TO.P,R3,1*%
%TO.N,/DOUT*%
X113000000Y-139000000D03*
%TO.P,R3,2*%
%TO.N,GND*%
X115000000Y-139000000D03*
%TD*%
D15*
%TO.P,J7,1,Pin_1_1*%
%TO.N,/ENC(L)-A*%
X90500000Y-120750000D03*
D11*
%TO.P,J7,2,Pin_2_2*%
%TO.N,/ENC(L)-B*%
X90500000Y-123250000D03*
%TO.P,J7,3,Pin_3_3*%
%TO.N,GND*%
X90500000Y-125750000D03*
%TO.P,J7,4,Pin_4_4*%
%TO.N,+3.3V*%
X90500000Y-128250000D03*
%TD*%
D16*
%TO.P,C1,1*%
%TO.N,/SENSE*%
X113000000Y-147800000D03*
%TO.P,C1,2*%
%TO.N,GND*%
X113000000Y-149875000D03*
%TD*%
D15*
%TO.P,J8,1,Pin_1_1*%
%TO.N,/ENC(R)-A*%
X90475000Y-107000000D03*
D11*
%TO.P,J8,2,Pin_2_2*%
%TO.N,/ENC(R)-B*%
X90475000Y-109500000D03*
%TO.P,J8,3,Pin_3_3*%
%TO.N,GND*%
X90475000Y-112000000D03*
%TO.P,J8,4,Pin_4_4*%
%TO.N,+3.3V*%
X90475000Y-114500000D03*
%TD*%
D17*
%TO.P,H4,1,1_1*%
%TO.N,GND*%
X126000000Y-156000000D03*
%TD*%
D18*
%TO.P,R2,1*%
%TO.N,/SENSE*%
X116000000Y-147800000D03*
%TO.P,R2,2*%
%TO.N,GND*%
X116000000Y-149800000D03*
%TD*%
D19*
%TO.P,C2,1*%
%TO.N,+5V*%
X105367677Y-114300000D03*
D20*
%TO.P,C2,2*%
%TO.N,GND*%
X100367677Y-114300000D03*
%TD*%
D21*
%TO.P,Q1,1,G_1*%
%TO.N,/DOUT*%
X113000000Y-142250000D03*
%TO.P,Q1,2,S_2*%
%TO.N,GND*%
X113000000Y-144150000D03*
%TO.P,Q1,3,D_3*%
%TO.N,Net-(Q1-D)*%
X114875000Y-143200000D03*
%TD*%
D10*
%TO.P,J6,1,Pin_1_1*%
%TO.N,/TSAL*%
X125500000Y-149300000D03*
D11*
%TO.P,J6,2,Pin_2_2*%
%TO.N,+5V*%
X125500000Y-146800000D03*
%TO.P,J6,3,Pin_3_3*%
%TO.N,GND*%
X125500000Y-144300000D03*
%TD*%
D22*
%TO.P,R4,1*%
%TO.N,+5V*%
X120000000Y-140000000D03*
%TO.P,R4,2*%
%TO.N,Net-(Q1-D)*%
X118000000Y-140000000D03*
%TD*%
D14*
%TO.P,R5,1*%
%TO.N,Net-(Q1-D)*%
X118000000Y-143200000D03*
%TO.P,R5,2*%
%TO.N,/TSAL*%
X120000000Y-143200000D03*
%TD*%
D23*
%TO.P,U2,1,IN+_1*%
%TO.N,+BATT*%
X124000500Y-127152000D03*
X126540500Y-127152000D03*
D24*
%TO.P,U2,2,IN-_2*%
%TO.N,GND*%
X115745500Y-127177400D03*
X113205500Y-127152000D03*
D23*
%TO.P,U2,3,OUT+_3*%
%TO.N,+5V*%
X124127500Y-108356000D03*
X126667500Y-108356000D03*
D24*
%TO.P,U2,4,OUT-_4*%
%TO.N,GND*%
X115745500Y-108254400D03*
X113205500Y-108229000D03*
%TD*%
D25*
%TO.P,J5,1,Pin_1_1*%
%TO.N,/DUMP*%
X99100000Y-99475000D03*
D26*
%TO.P,J5,2,Pin_2_2*%
%TO.N,+5V*%
X101600000Y-99475000D03*
%TO.P,J5,3,Pin_3_3*%
%TO.N,GND*%
X104100000Y-99475000D03*
%TD*%
D25*
%TO.P,J4,1,Pin_1_1*%
%TO.N,/STEER*%
X112200000Y-99475000D03*
D26*
%TO.P,J4,2,Pin_2_2*%
%TO.N,+5V*%
X114700000Y-99475000D03*
%TO.P,J4,3,Pin_3_3*%
%TO.N,GND*%
X117200000Y-99475000D03*
%TD*%
D17*
%TO.P,H3,1,1_1*%
%TO.N,GND*%
X90000000Y-156000000D03*
%TD*%
D25*
%TO.P,J9,1,Pin_1_1*%
%TO.N,/DIR(R)*%
X97500000Y-155450000D03*
D26*
%TO.P,J9,2,Pin_2_2*%
%TO.N,/PWM(R)*%
X100000000Y-155450000D03*
%TO.P,J9,3,Pin_3_3*%
%TO.N,/DIR(L)*%
X102500000Y-155450000D03*
%TO.P,J9,4,Pin_4_4*%
%TO.N,/PWM(L)*%
X105000000Y-155450000D03*
%TO.P,J9,5,Pin_5_5*%
%TO.N,GND*%
X107500000Y-155450000D03*
%TD*%
D17*
%TO.P,H1,1,1_1*%
%TO.N,GND*%
X90000000Y-100000000D03*
%TD*%
D27*
%TO.P,J2,1,Pin_1_1*%
%TO.N,/ESTOP*%
X104800000Y-128100000D03*
D13*
%TO.P,J2,2,Pin_2_2*%
%TO.N,GND*%
X102300000Y-128100000D03*
%TD*%
D28*
%TO.P,U1,1,GP0_1*%
%TO.N,unconnected-(U1-GP0-Pad1)*%
X88340000Y-133880000D03*
D29*
%TO.P,U1,2,GP1_2*%
%TO.N,unconnected-(U1-GP1-Pad2)*%
X90880000Y-133880000D03*
%TO.P,U1,3,GP2_3*%
%TO.N,/ENC(L)-B*%
X93420000Y-133880000D03*
%TO.P,U1,4,GP3_4*%
%TO.N,/ENC(L)-A*%
X95960000Y-133880000D03*
%TO.P,U1,5,GP4_5*%
%TO.N,/ENC(R)-B*%
X98500000Y-133880000D03*
%TO.P,U1,6,GP5_6*%
%TO.N,/ENC(R)-A*%
X101040000Y-133880000D03*
%TO.P,U1,7,GP6_7*%
%TO.N,/DUMP*%
X103580000Y-133880000D03*
%TO.P,U1,8,GP7_8*%
%TO.N,/ESTOP*%
X106120000Y-133880000D03*
%TO.P,U1,9,GP8_9*%
%TO.N,/STEER*%
X108660000Y-133880000D03*
%TO.P,U1,10,GP9_10*%
%TO.N,/NAV*%
X108660000Y-136420000D03*
%TO.P,U1,11,GP10_11*%
%TO.N,unconnected-(U1-GP10-Pad11)*%
X108660000Y-138960000D03*
%TO.P,U1,12,GP11_12*%
%TO.N,/DOUT*%
X108660000Y-141500000D03*
%TO.P,U1,13,GP12_13*%
%TO.N,unconnected-(U1-GP12-Pad13)*%
X108660000Y-144040000D03*
%TO.P,U1,14,GP13_14*%
%TO.N,unconnected-(U1-GP13-Pad14)*%
X108660000Y-146580000D03*
%TO.P,U1,15,GP14_15*%
%TO.N,unconnected-(U1-GP14-Pad15)*%
X108660000Y-149120000D03*
%TO.P,U1,16,GP15_16*%
%TO.N,/PWM(L)*%
X106120000Y-149120000D03*
%TO.P,U1,17,GP26_17*%
%TO.N,/SENSE*%
X103580000Y-149120000D03*
%TO.P,U1,18,GP27_18*%
%TO.N,/DIR(L)*%
X101040000Y-149120000D03*
%TO.P,U1,19,GP28_19*%
%TO.N,/PWM(R)*%
X98500000Y-149120000D03*
%TO.P,U1,20,GP29_20*%
%TO.N,/DIR(R)*%
X95960000Y-149120000D03*
%TO.P,U1,21,3V3_21*%
%TO.N,+3.3V*%
X93420000Y-149120000D03*
%TO.P,U1,22,GND_22*%
%TO.N,GND*%
X90880000Y-149120000D03*
%TO.P,U1,23,5V_23*%
%TO.N,unconnected-(U1-5V-Pad23)*%
X88340000Y-149120000D03*
%TD*%
D17*
%TO.P,H2,1,1_1*%
%TO.N,GND*%
X126000000Y-100000000D03*
%TD*%
D30*
%TO.P,R1,1*%
%TO.N,+BATT*%
X119000000Y-149800000D03*
%TO.P,R1,2*%
%TO.N,/SENSE*%
X119000000Y-147800000D03*
%TD*%
D31*
%TO.N,GND*%
X96700000Y-123600000D03*
X110500000Y-131000000D03*
X107100000Y-103200000D03*
X96600000Y-118400000D03*
X113000000Y-145200000D03*
X110700000Y-119300000D03*
X114500000Y-149875000D03*
X101700000Y-105100000D03*
X110800000Y-112200000D03*
X112100000Y-135700000D03*
X94300000Y-107300000D03*
X122000000Y-141600000D03*
X97300000Y-128900000D03*
X121700000Y-150000000D03*
X117700000Y-145500000D03*
X108100000Y-99500000D03*
X107200000Y-119300000D03*
X116500000Y-139000000D03*
X121100000Y-132500000D03*
X110700000Y-125000000D03*
X90500000Y-117600000D03*
X102300000Y-131800000D03*
%TD*%
%TO.N,+BATT*%
D32*
X126540500Y-127152000D02*
X128600000Y-129211500D01*
X128600000Y-148900000D02*
X125500000Y-152000000D01*
X128600000Y-129211500D02*
X128600000Y-148900000D01*
X119000000Y-151525000D02*
X119000000Y-149800000D01*
X124000500Y-127152000D02*
X126540500Y-127152000D01*
X119475000Y-152000000D02*
X119000000Y-151525000D01*
X119475000Y-152000000D02*
X116000000Y-155475000D01*
X125500000Y-152000000D02*
X119475000Y-152000000D01*
%TO.N,GND*%
D33*
X114500000Y-149875000D02*
X113000000Y-149875000D01*
X113000000Y-144150000D02*
X113000000Y-145200000D01*
X114500000Y-149875000D02*
X115925000Y-149875000D01*
X115925000Y-149875000D02*
X116000000Y-149800000D01*
X115000000Y-139000000D02*
X116500000Y-139000000D01*
X115700000Y-127222900D02*
X115745500Y-127177400D01*
%TO.N,/DOUT*%
X113000000Y-139000000D02*
X113000000Y-142250000D01*
X113000000Y-142250000D02*
X109410000Y-142250000D01*
X109410000Y-142250000D02*
X108660000Y-141500000D01*
%TO.N,/ENC(L)-A*%
X90500000Y-120750000D02*
X95960000Y-126210000D01*
X95960000Y-126210000D02*
X95960000Y-133880000D01*
%TO.N,/ENC(L)-B*%
X93420000Y-126170000D02*
X93420000Y-133880000D01*
X90500000Y-123250000D02*
X93420000Y-126170000D01*
%TO.N,+3.3V*%
X89600000Y-145300000D02*
X93420000Y-149120000D01*
X90500000Y-128250000D02*
X89600000Y-129150000D01*
X90475000Y-114500000D02*
X88700000Y-116275000D01*
X88700000Y-116275000D02*
X88700000Y-126450000D01*
X89600000Y-129150000D02*
X89600000Y-145300000D01*
X88700000Y-126450000D02*
X90500000Y-128250000D01*
%TO.N,/SENSE*%
X113000000Y-147800000D02*
X104900000Y-147800000D01*
X113000000Y-147800000D02*
X119000000Y-147800000D01*
X104900000Y-147800000D02*
X103580000Y-149120000D01*
%TO.N,/ENC(R)-A*%
X90475000Y-107000000D02*
X101040000Y-117565000D01*
X101040000Y-117565000D02*
X101040000Y-133880000D01*
%TO.N,/ENC(R)-B*%
X98500000Y-117525000D02*
X98500000Y-133880000D01*
X90475000Y-109500000D02*
X98500000Y-117525000D01*
%TO.N,+5V*%
D32*
X105367677Y-103242677D02*
X105367677Y-114300000D01*
X125850000Y-135100000D02*
X127300000Y-136550000D01*
X125500000Y-135100000D02*
X125800000Y-135100000D01*
D33*
X120000000Y-140000000D02*
X127300000Y-140000000D01*
D32*
X125500000Y-135100000D02*
X125850000Y-135100000D01*
X126667500Y-108356000D02*
X124127500Y-108356000D01*
X105367677Y-103242677D02*
X101600000Y-99475000D01*
X127300000Y-145000000D02*
X125500000Y-146800000D01*
X127300000Y-136550000D02*
X127300000Y-145000000D01*
%TO.N,Net-(Q1-D)*%
D33*
X118000000Y-143200000D02*
X118000000Y-140000000D01*
X118000000Y-143200000D02*
X115025000Y-143200000D01*
X115025000Y-143200000D02*
X114875000Y-143050000D01*
%TO.N,/TSAL*%
X120000000Y-145400000D02*
X120000000Y-143200000D01*
X125500000Y-149300000D02*
X123900000Y-149300000D01*
X123900000Y-149300000D02*
X120000000Y-145400000D01*
X125475000Y-148900000D02*
X125475000Y-148875000D01*
%TO.N,/DUMP*%
X103580000Y-133880000D02*
X103580000Y-103955000D01*
X98800000Y-99775000D02*
X99100000Y-99475000D01*
X103580000Y-103955000D02*
X99100000Y-99475000D01*
%TO.N,/STEER*%
X108660000Y-103015000D02*
X112200000Y-99475000D01*
X108660000Y-133880000D02*
X108660000Y-103015000D01*
%TO.N,/DIR(R)*%
X95960000Y-149120000D02*
X95960000Y-153910000D01*
X95960000Y-153910000D02*
X97500000Y-155450000D01*
%TO.N,/PWM(R)*%
X98500000Y-149120000D02*
X98500000Y-153950000D01*
X98500000Y-153950000D02*
X100000000Y-155450000D01*
%TO.N,/DIR(L)*%
X101040000Y-149120000D02*
X101040000Y-153990000D01*
X101040000Y-153990000D02*
X102500000Y-155450000D01*
%TO.N,/ESTOP*%
X106120000Y-129420000D02*
X104800000Y-128100000D01*
X106120000Y-133880000D02*
X106120000Y-129420000D01*
%TD*%
%TA.AperFunction,Conductor*%
%TO.N,GND*%
G36*
X111803271Y-148420185D02*
G01*
X111841769Y-148459401D01*
X111932288Y-148606156D01*
X112056344Y-148730212D01*
X112059628Y-148732237D01*
X112059653Y-148732253D01*
X112061445Y-148734246D01*
X112062011Y-148734693D01*
X112061934Y-148734789D01*
X112106379Y-148784199D01*
X112117603Y-148853161D01*
X112089761Y-148917244D01*
X112059665Y-148943326D01*
X112056660Y-148945179D01*
X112056655Y-148945183D01*
X111932684Y-149069154D01*
X111840643Y-149218375D01*
X111840641Y-149218380D01*
X111785494Y-149384802D01*
X111785493Y-149384809D01*
X111775000Y-149487513D01*
X111775000Y-149625000D01*
X114224999Y-149625000D01*
X114224999Y-149487528D01*
X114224998Y-149487513D01*
X114214505Y-149384802D01*
X114159358Y-149218380D01*
X114159356Y-149218375D01*
X114067315Y-149069154D01*
X113943344Y-148945183D01*
X113943341Y-148945181D01*
X113940339Y-148943329D01*
X113938713Y-148941521D01*
X113937677Y-148940702D01*
X113937817Y-148940524D01*
X113893617Y-148891380D01*
X113882397Y-148822417D01*
X113910243Y-148758336D01*
X113940344Y-148732254D01*
X113943656Y-148730212D01*
X114067712Y-148606156D01*
X114158229Y-148459402D01*
X114210177Y-148412679D01*
X114263768Y-148400500D01*
X114754092Y-148400500D01*
X114821131Y-148420185D01*
X114859636Y-148464271D01*
X114861395Y-148463187D01*
X114865185Y-148469331D01*
X114865186Y-148469334D01*
X114935973Y-148584098D01*
X114957289Y-148618657D01*
X115051304Y-148712672D01*
X115084789Y-148773995D01*
X115079805Y-148843687D01*
X115051305Y-148888034D01*
X114957682Y-148981657D01*
X114865643Y-149130875D01*
X114865641Y-149130880D01*
X114810494Y-149297302D01*
X114810493Y-149297309D01*
X114800000Y-149400013D01*
X114800000Y-149550000D01*
X117199999Y-149550000D01*
X117199999Y-149400028D01*
X117199998Y-149400013D01*
X117189505Y-149297302D01*
X117134358Y-149130880D01*
X117134356Y-149130875D01*
X117042315Y-148981654D01*
X116948695Y-148888034D01*
X116915210Y-148826711D01*
X116920194Y-148757019D01*
X116948691Y-148712676D01*
X117042712Y-148618656D01*
X117134814Y-148469334D01*
X117134815Y-148469331D01*
X117138605Y-148463187D01*
X117140399Y-148464293D01*
X117179687Y-148419663D01*
X117245908Y-148400500D01*
X117754092Y-148400500D01*
X117821131Y-148420185D01*
X117859636Y-148464271D01*
X117861395Y-148463187D01*
X117865185Y-148469331D01*
X117865186Y-148469334D01*
X117935973Y-148584098D01*
X117957289Y-148618657D01*
X118050951Y-148712319D01*
X118084436Y-148773642D01*
X118079452Y-148843334D01*
X118050951Y-148887681D01*
X117957289Y-148981342D01*
X117865187Y-149130663D01*
X117865185Y-149130668D01*
X117865115Y-149130880D01*
X117810001Y-149297203D01*
X117810001Y-149297204D01*
X117810000Y-149297204D01*
X117799500Y-149399983D01*
X117799500Y-150200001D01*
X117799501Y-150200019D01*
X117810000Y-150302796D01*
X117810001Y-150302799D01*
X117865185Y-150469331D01*
X117865187Y-150469336D01*
X117898037Y-150522594D01*
X117957288Y-150618656D01*
X118081344Y-150742712D01*
X118140596Y-150779258D01*
X118187321Y-150831204D01*
X118199500Y-150884797D01*
X118199500Y-151603846D01*
X118230261Y-151758489D01*
X118230264Y-151758501D01*
X118290602Y-151904172D01*
X118290609Y-151904185D01*
X118293403Y-151908366D01*
X118314281Y-151975044D01*
X118295796Y-152042424D01*
X118277982Y-152064938D01*
X116404739Y-153938181D01*
X116343416Y-153971666D01*
X116317058Y-153974500D01*
X115349998Y-153974500D01*
X115349980Y-153974501D01*
X115247203Y-153985000D01*
X115247200Y-153985001D01*
X115080668Y-154040185D01*
X115080663Y-154040187D01*
X114931342Y-154132289D01*
X114807289Y-154256342D01*
X114715187Y-154405663D01*
X114715186Y-154405666D01*
X114660001Y-154572203D01*
X114660001Y-154572204D01*
X114660000Y-154572204D01*
X114649500Y-154674983D01*
X114649500Y-156275001D01*
X114649501Y-156275018D01*
X114660000Y-156377796D01*
X114660001Y-156377799D01*
X114698618Y-156494336D01*
X114715186Y-156544334D01*
X114807288Y-156693656D01*
X114931344Y-156817712D01*
X115080666Y-156909814D01*
X115247203Y-156964999D01*
X115349991Y-156975500D01*
X116650008Y-156975499D01*
X116752797Y-156964999D01*
X116919334Y-156909814D01*
X117068656Y-156817712D01*
X117192712Y-156693656D01*
X117284814Y-156544334D01*
X117284814Y-156544331D01*
X117288448Y-156538441D01*
X117340395Y-156491716D01*
X117409358Y-156480493D01*
X117473440Y-156508336D01*
X117481668Y-156515856D01*
X117620535Y-156654723D01*
X117620540Y-156654727D01*
X117792442Y-156779620D01*
X117981782Y-156876095D01*
X118183871Y-156941757D01*
X118250000Y-156952231D01*
X118250000Y-155908012D01*
X118307007Y-155940925D01*
X118434174Y-155975000D01*
X118565826Y-155975000D01*
X118692993Y-155940925D01*
X118750000Y-155908012D01*
X118750000Y-156952230D01*
X118816126Y-156941757D01*
X118816129Y-156941757D01*
X119018217Y-156876095D01*
X119207557Y-156779620D01*
X119379459Y-156654727D01*
X119379464Y-156654723D01*
X119529723Y-156504464D01*
X119529727Y-156504459D01*
X119654620Y-156332557D01*
X119751095Y-156143217D01*
X119816757Y-155941130D01*
X119816757Y-155941127D01*
X119850000Y-155731246D01*
X119850000Y-155725000D01*
X118933012Y-155725000D01*
X118965925Y-155667993D01*
X119000000Y-155540826D01*
X119000000Y-155409174D01*
X118965925Y-155282007D01*
X118933012Y-155225000D01*
X119850000Y-155225000D01*
X119850000Y-155218753D01*
X119816757Y-155008872D01*
X119816757Y-155008869D01*
X119751095Y-154806782D01*
X119654620Y-154617442D01*
X119529727Y-154445540D01*
X119529723Y-154445535D01*
X119379464Y-154295276D01*
X119379459Y-154295272D01*
X119207557Y-154170379D01*
X119018216Y-154073904D01*
X118844568Y-154017482D01*
X118786892Y-153978044D01*
X118759694Y-153913686D01*
X118771609Y-153844839D01*
X118795198Y-153811879D01*
X119770259Y-152836819D01*
X119831582Y-152803334D01*
X119857940Y-152800500D01*
X125578844Y-152800500D01*
X125578845Y-152800499D01*
X125733497Y-152769737D01*
X125879179Y-152709394D01*
X126010289Y-152621789D01*
X128188319Y-150443759D01*
X128249642Y-150410274D01*
X128319334Y-150415258D01*
X128375267Y-150457130D01*
X128399684Y-150522594D01*
X128400000Y-150531440D01*
X128400000Y-155948638D01*
X128380315Y-156015677D01*
X128363681Y-156036319D01*
X126036319Y-158363681D01*
X125974996Y-158397166D01*
X125948638Y-158400000D01*
X90051362Y-158400000D01*
X89984323Y-158380315D01*
X89963681Y-158363681D01*
X87636319Y-156036319D01*
X87602834Y-155974996D01*
X87600000Y-155948638D01*
X87600000Y-150353258D01*
X87619685Y-150286219D01*
X87672489Y-150240464D01*
X87741647Y-150230520D01*
X87780292Y-150242772D01*
X87858439Y-150282591D01*
X88000181Y-150328645D01*
X88046236Y-150343610D01*
X88241264Y-150374500D01*
X88241269Y-150374500D01*
X88438736Y-150374500D01*
X88633763Y-150343610D01*
X88635262Y-150343123D01*
X88821561Y-150282591D01*
X88997501Y-150192944D01*
X89091019Y-150125000D01*
X89157246Y-150076884D01*
X89157248Y-150076881D01*
X89157252Y-150076879D01*
X89296879Y-149937252D01*
X89296881Y-149937248D01*
X89296884Y-149937246D01*
X89387161Y-149812988D01*
X89412944Y-149777501D01*
X89499797Y-149607043D01*
X89547768Y-149556250D01*
X89615589Y-149539455D01*
X89681724Y-149561992D01*
X89720763Y-149607045D01*
X89807481Y-149777236D01*
X89833457Y-149812988D01*
X89833457Y-149812989D01*
X90397037Y-149249408D01*
X90414075Y-149312993D01*
X90479901Y-149427007D01*
X90572993Y-149520099D01*
X90687007Y-149585925D01*
X90750590Y-149602962D01*
X90187009Y-150166541D01*
X90187010Y-150166542D01*
X90222755Y-150192512D01*
X90222768Y-150192520D01*
X90398626Y-150282126D01*
X90586353Y-150343123D01*
X90781303Y-150374000D01*
X90978697Y-150374000D01*
X91173646Y-150343123D01*
X91361373Y-150282126D01*
X91537241Y-150192516D01*
X91572988Y-150166543D01*
X91572988Y-150166541D01*
X91009410Y-149602962D01*
X91072993Y-149585925D01*
X91187007Y-149520099D01*
X91280099Y-149427007D01*
X91345925Y-149312993D01*
X91362962Y-149249408D01*
X91926541Y-149812988D01*
X91926543Y-149812988D01*
X91952516Y-149777241D01*
X92039235Y-149607046D01*
X92087210Y-149556250D01*
X92155031Y-149539455D01*
X92221165Y-149561992D01*
X92260202Y-149607042D01*
X92291627Y-149668716D01*
X92347058Y-149777505D01*
X92463115Y-149937246D01*
X92602753Y-150076884D01*
X92726158Y-150166541D01*
X92762499Y-150192944D01*
X92938439Y-150282591D01*
X93063637Y-150323270D01*
X93126236Y-150343610D01*
X93321264Y-150374500D01*
X93321269Y-150374500D01*
X93518736Y-150374500D01*
X93713763Y-150343610D01*
X93715262Y-150343123D01*
X93901561Y-150282591D01*
X94077501Y-150192944D01*
X94171019Y-150125000D01*
X94237246Y-150076884D01*
X94237248Y-150076881D01*
X94237252Y-150076879D01*
X94376879Y-149937252D01*
X94376881Y-149937248D01*
X94376884Y-149937246D01*
X94492941Y-149777505D01*
X94492943Y-149777502D01*
X94492944Y-149777501D01*
X94579517Y-149607593D01*
X94627490Y-149556800D01*
X94695311Y-149540005D01*
X94761446Y-149562542D01*
X94800482Y-149607593D01*
X94831627Y-149668716D01*
X94887058Y-149777505D01*
X95003115Y-149937246D01*
X95003121Y-149937252D01*
X95142748Y-150076879D01*
X95302499Y-150192944D01*
X95302503Y-150192946D01*
X95306441Y-150195807D01*
X95305399Y-150197241D01*
X95347159Y-150243390D01*
X95359500Y-150297317D01*
X95359500Y-153823330D01*
X95359499Y-153823348D01*
X95359499Y-153989054D01*
X95359498Y-153989054D01*
X95400423Y-154141786D01*
X95416682Y-154169945D01*
X95416683Y-154169950D01*
X95416685Y-154169950D01*
X95466563Y-154256342D01*
X95479479Y-154278714D01*
X95479481Y-154278717D01*
X95598349Y-154397585D01*
X95598355Y-154397590D01*
X96113181Y-154912416D01*
X96146666Y-154973739D01*
X96149500Y-155000097D01*
X96149500Y-156225001D01*
X96149501Y-156225018D01*
X96160000Y-156327796D01*
X96160001Y-156327799D01*
X96213378Y-156488879D01*
X96215186Y-156494334D01*
X96307288Y-156643656D01*
X96431344Y-156767712D01*
X96580666Y-156859814D01*
X96747203Y-156914999D01*
X96849991Y-156925500D01*
X98150008Y-156925499D01*
X98252797Y-156914999D01*
X98419334Y-156859814D01*
X98568656Y-156767712D01*
X98692712Y-156643656D01*
X98784814Y-156494334D01*
X98784814Y-156494331D01*
X98788178Y-156488879D01*
X98840126Y-156442154D01*
X98909088Y-156430931D01*
X98973170Y-156458774D01*
X98981398Y-156466294D01*
X99120213Y-156605109D01*
X99292179Y-156730048D01*
X99292181Y-156730049D01*
X99292184Y-156730051D01*
X99481588Y-156826557D01*
X99683757Y-156892246D01*
X99893713Y-156925500D01*
X99893714Y-156925500D01*
X100106286Y-156925500D01*
X100106287Y-156925500D01*
X100316243Y-156892246D01*
X100518412Y-156826557D01*
X100707816Y-156730051D01*
X100729789Y-156714086D01*
X100879786Y-156605109D01*
X100879788Y-156605106D01*
X100879792Y-156605104D01*
X101030104Y-156454792D01*
X101149683Y-156290204D01*
X101205011Y-156247540D01*
X101274624Y-156241561D01*
X101336420Y-156274166D01*
X101350313Y-156290199D01*
X101413958Y-156377799D01*
X101469896Y-156454792D01*
X101620213Y-156605109D01*
X101792179Y-156730048D01*
X101792181Y-156730049D01*
X101792184Y-156730051D01*
X101981588Y-156826557D01*
X102183757Y-156892246D01*
X102393713Y-156925500D01*
X102393714Y-156925500D01*
X102606286Y-156925500D01*
X102606287Y-156925500D01*
X102816243Y-156892246D01*
X103018412Y-156826557D01*
X103207816Y-156730051D01*
X103229789Y-156714086D01*
X103379786Y-156605109D01*
X103379788Y-156605106D01*
X103379792Y-156605104D01*
X103530104Y-156454792D01*
X103649683Y-156290204D01*
X103705011Y-156247540D01*
X103774624Y-156241561D01*
X103836420Y-156274166D01*
X103850313Y-156290199D01*
X103913958Y-156377799D01*
X103969896Y-156454792D01*
X104120213Y-156605109D01*
X104292179Y-156730048D01*
X104292181Y-156730049D01*
X104292184Y-156730051D01*
X104481588Y-156826557D01*
X104683757Y-156892246D01*
X104893713Y-156925500D01*
X104893714Y-156925500D01*
X105106286Y-156925500D01*
X105106287Y-156925500D01*
X105316243Y-156892246D01*
X105518412Y-156826557D01*
X105707816Y-156730051D01*
X105729789Y-156714086D01*
X105879786Y-156605109D01*
X105879788Y-156605106D01*
X105879792Y-156605104D01*
X106030104Y-156454792D01*
X106149991Y-156289779D01*
X106205320Y-156247115D01*
X106274933Y-156241136D01*
X106336729Y-156273741D01*
X106350627Y-156289781D01*
X106470272Y-156454459D01*
X106470276Y-156454464D01*
X106620535Y-156604723D01*
X106620540Y-156604727D01*
X106792442Y-156729620D01*
X106981782Y-156826095D01*
X107183871Y-156891757D01*
X107250000Y-156902231D01*
X107250000Y-155854145D01*
X107316657Y-155892630D01*
X107437465Y-155925000D01*
X107562535Y-155925000D01*
X107683343Y-155892630D01*
X107750000Y-155854145D01*
X107750000Y-156902230D01*
X107816126Y-156891757D01*
X107816129Y-156891757D01*
X108018217Y-156826095D01*
X108207557Y-156729620D01*
X108379459Y-156604727D01*
X108379464Y-156604723D01*
X108529723Y-156454464D01*
X108529727Y-156454459D01*
X108654620Y-156282557D01*
X108751095Y-156093217D01*
X108816757Y-155891130D01*
X108816757Y-155891127D01*
X108847030Y-155700000D01*
X107904146Y-155700000D01*
X107942630Y-155633343D01*
X107975000Y-155512535D01*
X107975000Y-155387465D01*
X107942630Y-155266657D01*
X107904146Y-155200000D01*
X108847030Y-155200000D01*
X108816757Y-155008872D01*
X108816757Y-155008869D01*
X108751095Y-154806782D01*
X108654620Y-154617442D01*
X108529727Y-154445540D01*
X108529723Y-154445535D01*
X108379464Y-154295276D01*
X108379459Y-154295272D01*
X108207557Y-154170379D01*
X108018215Y-154073903D01*
X107816124Y-154008241D01*
X107750000Y-153997768D01*
X107750000Y-155045854D01*
X107683343Y-155007370D01*
X107562535Y-154975000D01*
X107437465Y-154975000D01*
X107316657Y-155007370D01*
X107250000Y-155045854D01*
X107250000Y-153997768D01*
X107249999Y-153997768D01*
X107183875Y-154008241D01*
X106981784Y-154073903D01*
X106792442Y-154170379D01*
X106620540Y-154295272D01*
X106620535Y-154295276D01*
X106470276Y-154445535D01*
X106470272Y-154445540D01*
X106350627Y-154610218D01*
X106295297Y-154652884D01*
X106225684Y-154658863D01*
X106163889Y-154626257D01*
X106149991Y-154610218D01*
X106030109Y-154445214D01*
X106030105Y-154445209D01*
X105879786Y-154294890D01*
X105707818Y-154169950D01*
X105518414Y-154073444D01*
X105518413Y-154073443D01*
X105518412Y-154073443D01*
X105316243Y-154007754D01*
X105316241Y-154007753D01*
X105316240Y-154007753D01*
X105154957Y-153982208D01*
X105106287Y-153974500D01*
X104893713Y-153974500D01*
X104845042Y-153982208D01*
X104683760Y-154007753D01*
X104481585Y-154073444D01*
X104292182Y-154169950D01*
X104120213Y-154294890D01*
X103969894Y-154445209D01*
X103969890Y-154445214D01*
X103850318Y-154609793D01*
X103794989Y-154652459D01*
X103725375Y-154658438D01*
X103663580Y-154625833D01*
X103649682Y-154609793D01*
X103530109Y-154445214D01*
X103530105Y-154445209D01*
X103379786Y-154294890D01*
X103207818Y-154169950D01*
X103018414Y-154073444D01*
X103018413Y-154073443D01*
X103018412Y-154073443D01*
X102816243Y-154007754D01*
X102816241Y-154007753D01*
X102816240Y-154007753D01*
X102654957Y-153982208D01*
X102606287Y-153974500D01*
X102393713Y-153974500D01*
X102354202Y-153980757D01*
X102183759Y-154007753D01*
X102183755Y-154007754D01*
X102047130Y-154052146D01*
X101977289Y-154054141D01*
X101921132Y-154021896D01*
X101676819Y-153777583D01*
X101643334Y-153716260D01*
X101640500Y-153689902D01*
X101640500Y-150297317D01*
X101660185Y-150230278D01*
X101694326Y-150196863D01*
X101693559Y-150195807D01*
X101697496Y-150192946D01*
X101697501Y-150192944D01*
X101857252Y-150076879D01*
X101996879Y-149937252D01*
X101996881Y-149937248D01*
X101996884Y-149937246D01*
X102112941Y-149777505D01*
X102112943Y-149777502D01*
X102112944Y-149777501D01*
X102199517Y-149607593D01*
X102247490Y-149556800D01*
X102315311Y-149540005D01*
X102381446Y-149562542D01*
X102420482Y-149607593D01*
X102451627Y-149668716D01*
X102507058Y-149777505D01*
X102623115Y-149937246D01*
X102762753Y-150076884D01*
X102886158Y-150166541D01*
X102922499Y-150192944D01*
X103098439Y-150282591D01*
X103223637Y-150323270D01*
X103286236Y-150343610D01*
X103481264Y-150374500D01*
X103481269Y-150374500D01*
X103678736Y-150374500D01*
X103873763Y-150343610D01*
X103875262Y-150343123D01*
X104061561Y-150282591D01*
X104237501Y-150192944D01*
X104331019Y-150125000D01*
X104397246Y-150076884D01*
X104397248Y-150076881D01*
X104397252Y-150076879D01*
X104536879Y-149937252D01*
X104536881Y-149937248D01*
X104536884Y-149937246D01*
X104652941Y-149777505D01*
X104652943Y-149777502D01*
X104652944Y-149777501D01*
X104739517Y-149607593D01*
X104787490Y-149556800D01*
X104855311Y-149540005D01*
X104921446Y-149562542D01*
X104960482Y-149607593D01*
X104991627Y-149668716D01*
X105047058Y-149777505D01*
X105163115Y-149937246D01*
X105302753Y-150076884D01*
X105426158Y-150166541D01*
X105462499Y-150192944D01*
X105638439Y-150282591D01*
X105763637Y-150323270D01*
X105826236Y-150343610D01*
X106021264Y-150374500D01*
X106021269Y-150374500D01*
X106218736Y-150374500D01*
X106413763Y-150343610D01*
X106415262Y-150343123D01*
X106601561Y-150282591D01*
X106777501Y-150192944D01*
X106871019Y-150125000D01*
X106937246Y-150076884D01*
X106937248Y-150076881D01*
X106937252Y-150076879D01*
X107076879Y-149937252D01*
X107076881Y-149937248D01*
X107076884Y-149937246D01*
X107192941Y-149777505D01*
X107192943Y-149777502D01*
X107192944Y-149777501D01*
X107279517Y-149607593D01*
X107327490Y-149556800D01*
X107395311Y-149540005D01*
X107461446Y-149562542D01*
X107500482Y-149607593D01*
X107531627Y-149668716D01*
X107587058Y-149777505D01*
X107703115Y-149937246D01*
X107842753Y-150076884D01*
X107966158Y-150166541D01*
X108002499Y-150192944D01*
X108178439Y-150282591D01*
X108303637Y-150323270D01*
X108366236Y-150343610D01*
X108561264Y-150374500D01*
X108561269Y-150374500D01*
X108758736Y-150374500D01*
X108953763Y-150343610D01*
X108955262Y-150343123D01*
X109141561Y-150282591D01*
X109181019Y-150262486D01*
X111775001Y-150262486D01*
X111785494Y-150365197D01*
X111840641Y-150531619D01*
X111840643Y-150531624D01*
X111932684Y-150680845D01*
X112056654Y-150804815D01*
X112205875Y-150896856D01*
X112205880Y-150896858D01*
X112372302Y-150952005D01*
X112372309Y-150952006D01*
X112475019Y-150962499D01*
X112749999Y-150962499D01*
X113250000Y-150962499D01*
X113524972Y-150962499D01*
X113524986Y-150962498D01*
X113627697Y-150952005D01*
X113794119Y-150896858D01*
X113794124Y-150896856D01*
X113943345Y-150804815D01*
X114067315Y-150680845D01*
X114159356Y-150531624D01*
X114159358Y-150531619D01*
X114214505Y-150365197D01*
X114214506Y-150365190D01*
X114224999Y-150262486D01*
X114225000Y-150262473D01*
X114225000Y-150199986D01*
X114800001Y-150199986D01*
X114810494Y-150302697D01*
X114865641Y-150469119D01*
X114865643Y-150469124D01*
X114957684Y-150618345D01*
X115081654Y-150742315D01*
X115230875Y-150834356D01*
X115230880Y-150834358D01*
X115397302Y-150889505D01*
X115397309Y-150889506D01*
X115500019Y-150899999D01*
X115749999Y-150899999D01*
X116250000Y-150899999D01*
X116499972Y-150899999D01*
X116499986Y-150899998D01*
X116602697Y-150889505D01*
X116769119Y-150834358D01*
X116769124Y-150834356D01*
X116918345Y-150742315D01*
X117042315Y-150618345D01*
X117134356Y-150469124D01*
X117134358Y-150469119D01*
X117189505Y-150302697D01*
X117189506Y-150302690D01*
X117199999Y-150199986D01*
X117200000Y-150199973D01*
X117200000Y-150050000D01*
X116250000Y-150050000D01*
X116250000Y-150899999D01*
X115749999Y-150899999D01*
X115750000Y-150899998D01*
X115750000Y-150050000D01*
X114800001Y-150050000D01*
X114800001Y-150199986D01*
X114225000Y-150199986D01*
X114225000Y-150125000D01*
X113250000Y-150125000D01*
X113250000Y-150962499D01*
X112749999Y-150962499D01*
X112750000Y-150962498D01*
X112750000Y-150125000D01*
X111775001Y-150125000D01*
X111775001Y-150262486D01*
X109181019Y-150262486D01*
X109317501Y-150192944D01*
X109411019Y-150125000D01*
X109477246Y-150076884D01*
X109477248Y-150076881D01*
X109477252Y-150076879D01*
X109616879Y-149937252D01*
X109732944Y-149777501D01*
X109822591Y-149601561D01*
X109883610Y-149413763D01*
X109888197Y-149384802D01*
X109914500Y-149218736D01*
X109914500Y-149021263D01*
X109883610Y-148826236D01*
X109853073Y-148732253D01*
X109822591Y-148638439D01*
X109793218Y-148580793D01*
X109780323Y-148512126D01*
X109806599Y-148447385D01*
X109863706Y-148407128D01*
X109903704Y-148400500D01*
X111736232Y-148400500D01*
X111803271Y-148420185D01*
G37*
%TD.AperFunction*%
%TA.AperFunction,Conductor*%
G36*
X111921136Y-142859145D02*
G01*
X111951120Y-142865669D01*
X111956133Y-142869422D01*
X111958731Y-142870185D01*
X111979374Y-142886820D01*
X112010629Y-142918076D01*
X112010633Y-142918079D01*
X112010635Y-142918081D01*
X112152102Y-143001744D01*
X112193724Y-143013836D01*
X112309926Y-143047597D01*
X112309929Y-143047597D01*
X112309931Y-143047598D01*
X112346806Y-143050500D01*
X113513000Y-143050500D01*
X113521685Y-143053050D01*
X113530647Y-143051762D01*
X113554687Y-143062740D01*
X113580039Y-143070185D01*
X113585966Y-143077025D01*
X113594203Y-143080787D01*
X113608492Y-143103021D01*
X113625794Y-143122989D01*
X113628081Y-143133503D01*
X113631977Y-143139565D01*
X113637000Y-143174500D01*
X113637000Y-143226000D01*
X113617315Y-143293039D01*
X113564511Y-143338794D01*
X113513000Y-143350000D01*
X113250000Y-143350000D01*
X113250000Y-143900000D01*
X113905685Y-143900000D01*
X113968806Y-143917268D01*
X114027102Y-143951744D01*
X114068724Y-143963836D01*
X114184926Y-143997597D01*
X114184929Y-143997597D01*
X114184931Y-143997598D01*
X114221806Y-144000500D01*
X114221814Y-144000500D01*
X115528186Y-144000500D01*
X115528194Y-144000500D01*
X115565069Y-143997598D01*
X115565071Y-143997597D01*
X115565073Y-143997597D01*
X115612321Y-143983870D01*
X115722898Y-143951744D01*
X115864365Y-143868081D01*
X115895626Y-143836820D01*
X115956948Y-143803334D01*
X115983308Y-143800500D01*
X116819699Y-143800500D01*
X116886738Y-143820185D01*
X116932493Y-143872989D01*
X116937403Y-143885492D01*
X116965186Y-143969334D01*
X117057288Y-144118656D01*
X117181344Y-144242712D01*
X117330666Y-144334814D01*
X117497203Y-144389999D01*
X117599991Y-144400500D01*
X118400008Y-144400499D01*
X118400016Y-144400498D01*
X118400019Y-144400498D01*
X118456302Y-144394748D01*
X118502797Y-144389999D01*
X118669334Y-144334814D01*
X118818656Y-144242712D01*
X118912319Y-144149049D01*
X118973642Y-144115564D01*
X119043334Y-144120548D01*
X119087681Y-144149049D01*
X119181344Y-144242712D01*
X119330666Y-144334814D01*
X119330667Y-144334814D01*
X119336813Y-144338605D01*
X119335706Y-144340399D01*
X119380337Y-144379687D01*
X119399500Y-144445908D01*
X119399500Y-145313330D01*
X119399499Y-145313348D01*
X119399499Y-145479054D01*
X119399498Y-145479054D01*
X119406370Y-145504701D01*
X119440423Y-145631785D01*
X119461746Y-145668717D01*
X119469358Y-145681900D01*
X119469359Y-145681904D01*
X119469360Y-145681904D01*
X119516034Y-145762748D01*
X119519479Y-145768714D01*
X119519481Y-145768717D01*
X119638349Y-145887585D01*
X119638355Y-145887590D01*
X123415139Y-149664374D01*
X123415149Y-149664385D01*
X123419479Y-149668715D01*
X123419480Y-149668716D01*
X123531284Y-149780520D01*
X123618095Y-149830639D01*
X123618097Y-149830641D01*
X123656151Y-149852611D01*
X123668215Y-149859577D01*
X123820943Y-149900501D01*
X123820946Y-149900501D01*
X123907465Y-149900501D01*
X123974504Y-149920186D01*
X124020259Y-149972990D01*
X124030823Y-150011899D01*
X124035001Y-150052797D01*
X124035001Y-150052799D01*
X124090185Y-150219331D01*
X124090187Y-150219336D01*
X124103219Y-150240464D01*
X124182288Y-150368656D01*
X124306344Y-150492712D01*
X124455666Y-150584814D01*
X124622203Y-150639999D01*
X124724991Y-150650500D01*
X125418061Y-150650499D01*
X125485099Y-150670183D01*
X125530854Y-150722987D01*
X125540798Y-150792146D01*
X125511773Y-150855702D01*
X125505741Y-150862180D01*
X125204741Y-151163181D01*
X125143418Y-151196666D01*
X125117060Y-151199500D01*
X119924500Y-151199500D01*
X119915814Y-151196949D01*
X119906853Y-151198238D01*
X119882812Y-151187259D01*
X119857461Y-151179815D01*
X119851533Y-151172974D01*
X119843297Y-151169213D01*
X119829007Y-151146978D01*
X119811706Y-151127011D01*
X119809418Y-151116496D01*
X119805523Y-151110435D01*
X119800500Y-151075500D01*
X119800500Y-150884797D01*
X119820185Y-150817758D01*
X119859403Y-150779258D01*
X119918656Y-150742712D01*
X120042712Y-150618656D01*
X120134814Y-150469334D01*
X120189999Y-150302797D01*
X120200500Y-150200009D01*
X120200499Y-149399992D01*
X120198947Y-149384802D01*
X120189999Y-149297203D01*
X120189998Y-149297200D01*
X120184026Y-149279179D01*
X120134814Y-149130666D01*
X120042712Y-148981344D01*
X119949049Y-148887681D01*
X119915564Y-148826358D01*
X119920548Y-148756666D01*
X119949049Y-148712319D01*
X119983912Y-148677456D01*
X120042712Y-148618656D01*
X120134814Y-148469334D01*
X120189999Y-148302797D01*
X120200500Y-148200009D01*
X120200499Y-147399992D01*
X120189999Y-147297203D01*
X120134814Y-147130666D01*
X120042712Y-146981344D01*
X119918656Y-146857288D01*
X119825888Y-146800069D01*
X119769336Y-146765187D01*
X119769331Y-146765185D01*
X119767862Y-146764698D01*
X119602797Y-146710001D01*
X119602795Y-146710000D01*
X119500010Y-146699500D01*
X118499998Y-146699500D01*
X118499980Y-146699501D01*
X118397203Y-146710000D01*
X118397200Y-146710001D01*
X118230668Y-146765185D01*
X118230663Y-146765187D01*
X118081342Y-146857289D01*
X117957289Y-146981342D01*
X117957288Y-146981344D01*
X117867441Y-147127011D01*
X117861395Y-147136813D01*
X117859600Y-147135706D01*
X117820313Y-147180337D01*
X117754092Y-147199500D01*
X117245908Y-147199500D01*
X117178869Y-147179815D01*
X117140363Y-147135728D01*
X117138605Y-147136813D01*
X117134812Y-147130663D01*
X117042712Y-146981344D01*
X116918656Y-146857288D01*
X116825888Y-146800069D01*
X116769336Y-146765187D01*
X116769331Y-146765185D01*
X116767862Y-146764698D01*
X116602797Y-146710001D01*
X116602795Y-146710000D01*
X116500010Y-146699500D01*
X115499998Y-146699500D01*
X115499980Y-146699501D01*
X115397203Y-146710000D01*
X115397200Y-146710001D01*
X115230668Y-146765185D01*
X115230663Y-146765187D01*
X115081342Y-146857289D01*
X114957289Y-146981342D01*
X114957288Y-146981344D01*
X114867441Y-147127011D01*
X114861395Y-147136813D01*
X114859600Y-147135706D01*
X114820313Y-147180337D01*
X114754092Y-147199500D01*
X114263768Y-147199500D01*
X114196729Y-147179815D01*
X114158229Y-147140597D01*
X114155226Y-147135728D01*
X114067712Y-146993844D01*
X113943656Y-146869788D01*
X113794334Y-146777686D01*
X113627797Y-146722501D01*
X113627795Y-146722500D01*
X113525010Y-146712000D01*
X112474998Y-146712000D01*
X112474980Y-146712001D01*
X112372203Y-146722500D01*
X112372200Y-146722501D01*
X112205668Y-146777685D01*
X112205663Y-146777687D01*
X112056342Y-146869789D01*
X111932289Y-146993842D01*
X111932288Y-146993844D01*
X111844788Y-147135706D01*
X111841771Y-147140597D01*
X111789823Y-147187321D01*
X111736232Y-147199500D01*
X109948443Y-147199500D01*
X109881404Y-147179815D01*
X109835649Y-147127011D01*
X109825705Y-147057853D01*
X109830512Y-147037182D01*
X109848656Y-146981342D01*
X109883610Y-146873763D01*
X109898827Y-146777686D01*
X109914500Y-146678736D01*
X109914500Y-146481263D01*
X109883610Y-146286236D01*
X109863270Y-146223637D01*
X109822591Y-146098439D01*
X109732944Y-145922499D01*
X109725486Y-145912234D01*
X109616884Y-145762753D01*
X109477246Y-145623115D01*
X109317505Y-145507058D01*
X109269806Y-145482754D01*
X109147593Y-145420482D01*
X109096800Y-145372510D01*
X109080005Y-145304689D01*
X109102542Y-145238554D01*
X109147593Y-145199517D01*
X109317501Y-145112944D01*
X109436811Y-145026261D01*
X109477246Y-144996884D01*
X109477248Y-144996881D01*
X109477252Y-144996879D01*
X109616879Y-144857252D01*
X109616881Y-144857248D01*
X109616884Y-144857246D01*
X109700156Y-144742630D01*
X109732944Y-144697501D01*
X109822591Y-144521561D01*
X109862088Y-144400001D01*
X111765204Y-144400001D01*
X111765399Y-144402486D01*
X111811218Y-144560198D01*
X111894814Y-144701552D01*
X111894821Y-144701561D01*
X112010938Y-144817678D01*
X112010947Y-144817685D01*
X112152303Y-144901282D01*
X112152306Y-144901283D01*
X112310004Y-144947099D01*
X112310010Y-144947100D01*
X112346850Y-144949999D01*
X112346866Y-144950000D01*
X112750000Y-144950000D01*
X113250000Y-144950000D01*
X113653134Y-144950000D01*
X113653149Y-144949999D01*
X113689989Y-144947100D01*
X113689995Y-144947099D01*
X113847693Y-144901283D01*
X113847696Y-144901282D01*
X113989052Y-144817685D01*
X113989061Y-144817678D01*
X114105178Y-144701561D01*
X114105185Y-144701552D01*
X114188781Y-144560198D01*
X114234600Y-144402486D01*
X114234795Y-144400001D01*
X114234795Y-144400000D01*
X113250000Y-144400000D01*
X113250000Y-144950000D01*
X112750000Y-144950000D01*
X112750000Y-144400000D01*
X111765205Y-144400000D01*
X111765204Y-144400001D01*
X109862088Y-144400001D01*
X109883610Y-144333763D01*
X109888958Y-144300000D01*
X109914500Y-144138736D01*
X109914500Y-143941263D01*
X109907964Y-143899998D01*
X111765204Y-143899998D01*
X111765205Y-143900000D01*
X112750000Y-143900000D01*
X112750000Y-143350000D01*
X112346850Y-143350000D01*
X112310010Y-143352899D01*
X112310004Y-143352900D01*
X112152306Y-143398716D01*
X112152303Y-143398717D01*
X112010947Y-143482314D01*
X112010938Y-143482321D01*
X111894821Y-143598438D01*
X111894814Y-143598447D01*
X111811218Y-143739801D01*
X111765399Y-143897513D01*
X111765204Y-143899998D01*
X109907964Y-143899998D01*
X109883610Y-143746236D01*
X109833639Y-143592442D01*
X109822591Y-143558439D01*
X109732944Y-143382499D01*
X109701191Y-143338794D01*
X109616884Y-143222753D01*
X109477248Y-143083117D01*
X109465826Y-143074819D01*
X109423159Y-143019489D01*
X109417180Y-142949876D01*
X109449785Y-142888081D01*
X109510623Y-142853723D01*
X109538710Y-142850500D01*
X111891692Y-142850500D01*
X111921136Y-142859145D01*
G37*
%TD.AperFunction*%
%TA.AperFunction,Conductor*%
G36*
X88942539Y-135154184D02*
G01*
X88988294Y-135206988D01*
X88999500Y-135258499D01*
X88999500Y-145213330D01*
X88999499Y-145213348D01*
X88999499Y-145379054D01*
X88999498Y-145379054D01*
X89040423Y-145531785D01*
X89050041Y-145548443D01*
X89050042Y-145548446D01*
X89119475Y-145668709D01*
X89119481Y-145668717D01*
X89238349Y-145787585D01*
X89238355Y-145787590D01*
X91110531Y-147659766D01*
X91144016Y-147721089D01*
X91139032Y-147790781D01*
X91097160Y-147846714D01*
X91031696Y-147871131D01*
X91003455Y-147869921D01*
X90978695Y-147866000D01*
X90781303Y-147866000D01*
X90586353Y-147896876D01*
X90398626Y-147957873D01*
X90222762Y-148047482D01*
X90222760Y-148047483D01*
X90187010Y-148073456D01*
X90187010Y-148073457D01*
X90750591Y-148637037D01*
X90687007Y-148654075D01*
X90572993Y-148719901D01*
X90479901Y-148812993D01*
X90414075Y-148927007D01*
X90397037Y-148990590D01*
X89833457Y-148427010D01*
X89833456Y-148427010D01*
X89807483Y-148462760D01*
X89807479Y-148462767D01*
X89720763Y-148632954D01*
X89672788Y-148683749D01*
X89604967Y-148700544D01*
X89538833Y-148678006D01*
X89499798Y-148632957D01*
X89412944Y-148462499D01*
X89412942Y-148462496D01*
X89412941Y-148462494D01*
X89296884Y-148302753D01*
X89157246Y-148163115D01*
X88997504Y-148047058D01*
X88997503Y-148047057D01*
X88997501Y-148047056D01*
X88821561Y-147957409D01*
X88797577Y-147949616D01*
X88633763Y-147896389D01*
X88438736Y-147865500D01*
X88438731Y-147865500D01*
X88241269Y-147865500D01*
X88241264Y-147865500D01*
X88046236Y-147896389D01*
X87858441Y-147957408D01*
X87780295Y-147997226D01*
X87711625Y-148010122D01*
X87646885Y-147983845D01*
X87606628Y-147926739D01*
X87600000Y-147886741D01*
X87600000Y-135258499D01*
X87619685Y-135191460D01*
X87672489Y-135145705D01*
X87723995Y-135134499D01*
X88875500Y-135134499D01*
X88942539Y-135154184D01*
G37*
%TD.AperFunction*%
%TA.AperFunction,Conductor*%
G36*
X126442539Y-140620185D02*
G01*
X126488294Y-140672989D01*
X126499500Y-140724500D01*
X126499500Y-143028090D01*
X126479815Y-143095129D01*
X126427011Y-143140884D01*
X126357853Y-143150828D01*
X126319205Y-143138575D01*
X126143217Y-143048904D01*
X125941128Y-142983242D01*
X125750000Y-142952969D01*
X125750000Y-143895854D01*
X125683343Y-143857370D01*
X125562535Y-143825000D01*
X125437465Y-143825000D01*
X125316657Y-143857370D01*
X125250000Y-143895854D01*
X125250000Y-142952969D01*
X125058872Y-142983242D01*
X125058869Y-142983242D01*
X124856782Y-143048904D01*
X124667442Y-143145379D01*
X124495540Y-143270272D01*
X124495535Y-143270276D01*
X124345276Y-143420535D01*
X124345272Y-143420540D01*
X124220379Y-143592442D01*
X124123904Y-143781782D01*
X124058242Y-143983870D01*
X124058242Y-143983873D01*
X124047769Y-144050000D01*
X125095854Y-144050000D01*
X125057370Y-144116657D01*
X125025000Y-144237465D01*
X125025000Y-144362535D01*
X125057370Y-144483343D01*
X125095854Y-144550000D01*
X124047769Y-144550000D01*
X124058242Y-144616126D01*
X124058242Y-144616129D01*
X124123904Y-144818217D01*
X124220379Y-145007557D01*
X124345272Y-145179459D01*
X124345276Y-145179464D01*
X124495535Y-145329723D01*
X124495540Y-145329727D01*
X124660218Y-145449372D01*
X124702884Y-145504701D01*
X124708863Y-145574315D01*
X124676258Y-145636110D01*
X124660218Y-145650008D01*
X124495214Y-145769890D01*
X124495209Y-145769894D01*
X124344890Y-145920213D01*
X124219951Y-146092179D01*
X124123444Y-146281585D01*
X124057753Y-146483760D01*
X124024500Y-146693713D01*
X124024500Y-146906286D01*
X124056293Y-147107023D01*
X124057754Y-147116243D01*
X124105137Y-147262073D01*
X124123444Y-147318414D01*
X124219951Y-147507820D01*
X124344890Y-147679786D01*
X124483705Y-147818601D01*
X124517190Y-147879924D01*
X124512206Y-147949616D01*
X124470334Y-148005549D01*
X124461121Y-148011821D01*
X124306342Y-148107289D01*
X124182289Y-148231342D01*
X124090187Y-148380663D01*
X124090182Y-148380674D01*
X124088633Y-148385350D01*
X124048854Y-148442791D01*
X123984336Y-148469607D01*
X123915561Y-148457285D01*
X123883250Y-148434015D01*
X120636819Y-145187584D01*
X120603334Y-145126261D01*
X120600500Y-145099903D01*
X120600500Y-144445908D01*
X120620185Y-144378869D01*
X120664271Y-144340363D01*
X120663187Y-144338605D01*
X120669332Y-144334814D01*
X120669334Y-144334814D01*
X120818656Y-144242712D01*
X120942712Y-144118656D01*
X121034814Y-143969334D01*
X121089999Y-143802797D01*
X121100500Y-143700009D01*
X121100499Y-142699992D01*
X121096678Y-142662591D01*
X121089999Y-142597203D01*
X121089998Y-142597200D01*
X121062595Y-142514504D01*
X121034814Y-142430666D01*
X120942712Y-142281344D01*
X120818656Y-142157288D01*
X120669334Y-142065186D01*
X120502797Y-142010001D01*
X120502795Y-142010000D01*
X120400010Y-141999500D01*
X119599998Y-141999500D01*
X119599980Y-141999501D01*
X119497203Y-142010000D01*
X119497200Y-142010001D01*
X119330668Y-142065185D01*
X119330663Y-142065187D01*
X119181342Y-142157289D01*
X119087681Y-142250951D01*
X119026358Y-142284436D01*
X118956666Y-142279452D01*
X118912319Y-142250951D01*
X118818657Y-142157289D01*
X118818656Y-142157288D01*
X118669334Y-142065186D01*
X118669332Y-142065185D01*
X118663187Y-142061395D01*
X118664290Y-142059605D01*
X118619649Y-142020290D01*
X118600500Y-141954091D01*
X118600500Y-141245908D01*
X118620185Y-141178869D01*
X118664271Y-141140363D01*
X118663187Y-141138605D01*
X118669332Y-141134814D01*
X118669334Y-141134814D01*
X118818656Y-141042712D01*
X118912319Y-140949049D01*
X118973642Y-140915564D01*
X119043334Y-140920548D01*
X119087681Y-140949049D01*
X119181344Y-141042712D01*
X119330666Y-141134814D01*
X119497203Y-141189999D01*
X119599991Y-141200500D01*
X120400008Y-141200499D01*
X120400016Y-141200498D01*
X120400019Y-141200498D01*
X120456302Y-141194748D01*
X120502797Y-141189999D01*
X120669334Y-141134814D01*
X120818656Y-141042712D01*
X120942712Y-140918656D01*
X121034814Y-140769334D01*
X121062595Y-140685495D01*
X121102368Y-140628051D01*
X121166884Y-140601228D01*
X121180301Y-140600500D01*
X126375500Y-140600500D01*
X126442539Y-140620185D01*
G37*
%TD.AperFunction*%
%TA.AperFunction,Conductor*%
G36*
X114625777Y-126921685D02*
G01*
X114632869Y-126927400D01*
X115429814Y-126927400D01*
X115425420Y-126931794D01*
X115372759Y-127023006D01*
X115345500Y-127124739D01*
X115345500Y-127230061D01*
X115372759Y-127331794D01*
X115425420Y-127423006D01*
X115429814Y-127427400D01*
X114392262Y-127427400D01*
X114325223Y-127407715D01*
X114318131Y-127402000D01*
X113521186Y-127402000D01*
X113525580Y-127397606D01*
X113578241Y-127306394D01*
X113605500Y-127204661D01*
X113605500Y-127099339D01*
X113578241Y-126997606D01*
X113525580Y-126906394D01*
X113521186Y-126902000D01*
X114558738Y-126902000D01*
X114625777Y-126921685D01*
G37*
%TD.AperFunction*%
%TA.AperFunction,Conductor*%
G36*
X114625777Y-107998685D02*
G01*
X114632869Y-108004400D01*
X115429814Y-108004400D01*
X115425420Y-108008794D01*
X115372759Y-108100006D01*
X115345500Y-108201739D01*
X115345500Y-108307061D01*
X115372759Y-108408794D01*
X115425420Y-108500006D01*
X115429814Y-108504400D01*
X114392262Y-108504400D01*
X114325223Y-108484715D01*
X114318131Y-108479000D01*
X113521186Y-108479000D01*
X113525580Y-108474606D01*
X113578241Y-108383394D01*
X113605500Y-108281661D01*
X113605500Y-108176339D01*
X113578241Y-108074606D01*
X113525580Y-107983394D01*
X113521186Y-107979000D01*
X114558738Y-107979000D01*
X114625777Y-107998685D01*
G37*
%TD.AperFunction*%
%TA.AperFunction,Conductor*%
G36*
X126015677Y-97619685D02*
G01*
X126036319Y-97636319D01*
X128363681Y-99963681D01*
X128397166Y-100025004D01*
X128400000Y-100051362D01*
X128400000Y-127580060D01*
X128380315Y-127647099D01*
X128327511Y-127692854D01*
X128258353Y-127702798D01*
X128194797Y-127673773D01*
X128188319Y-127667741D01*
X127877318Y-127356740D01*
X127843833Y-127295417D01*
X127840999Y-127269059D01*
X127840999Y-126304129D01*
X127840998Y-126304123D01*
X127840997Y-126304116D01*
X127835799Y-126255757D01*
X127834591Y-126244516D01*
X127784297Y-126109671D01*
X127784293Y-126109664D01*
X127698047Y-125994455D01*
X127698044Y-125994452D01*
X127582835Y-125908206D01*
X127582828Y-125908202D01*
X127447982Y-125857908D01*
X127447983Y-125857908D01*
X127388383Y-125851501D01*
X127388381Y-125851500D01*
X127388373Y-125851500D01*
X127388364Y-125851500D01*
X125692629Y-125851500D01*
X125692623Y-125851501D01*
X125633016Y-125857908D01*
X125498171Y-125908202D01*
X125498164Y-125908206D01*
X125382955Y-125994452D01*
X125369766Y-126012071D01*
X125313832Y-126053941D01*
X125244140Y-126058925D01*
X125182817Y-126025439D01*
X125171234Y-126012071D01*
X125158046Y-125994454D01*
X125158044Y-125994453D01*
X125158044Y-125994452D01*
X125042835Y-125908206D01*
X125042828Y-125908202D01*
X124907982Y-125857908D01*
X124907983Y-125857908D01*
X124848383Y-125851501D01*
X124848381Y-125851500D01*
X124848373Y-125851500D01*
X124848364Y-125851500D01*
X123152629Y-125851500D01*
X123152623Y-125851501D01*
X123093016Y-125857908D01*
X122958171Y-125908202D01*
X122958164Y-125908206D01*
X122842955Y-125994452D01*
X122842952Y-125994455D01*
X122756706Y-126109664D01*
X122756702Y-126109671D01*
X122706408Y-126244517D01*
X122700001Y-126304116D01*
X122700001Y-126304123D01*
X122700000Y-126304135D01*
X122700000Y-127999870D01*
X122700001Y-127999876D01*
X122706408Y-128059483D01*
X122756702Y-128194328D01*
X122756706Y-128194335D01*
X122842952Y-128309544D01*
X122842955Y-128309547D01*
X122958164Y-128395793D01*
X122958171Y-128395797D01*
X123093017Y-128446091D01*
X123093016Y-128446091D01*
X123099944Y-128446835D01*
X123152627Y-128452500D01*
X124848372Y-128452499D01*
X124907983Y-128446091D01*
X125042831Y-128395796D01*
X125158046Y-128309546D01*
X125171233Y-128291929D01*
X125227166Y-128250058D01*
X125296858Y-128245074D01*
X125358181Y-128278558D01*
X125369764Y-128291927D01*
X125382953Y-128309544D01*
X125382954Y-128309546D01*
X125382955Y-128309547D01*
X125498164Y-128395793D01*
X125498171Y-128395797D01*
X125633017Y-128446091D01*
X125633016Y-128446091D01*
X125639944Y-128446835D01*
X125692627Y-128452500D01*
X126657559Y-128452499D01*
X126724598Y-128472183D01*
X126745240Y-128488818D01*
X127763181Y-129506759D01*
X127796666Y-129568082D01*
X127799500Y-129594440D01*
X127799500Y-135618060D01*
X127779815Y-135685099D01*
X127727011Y-135730854D01*
X127657853Y-135740798D01*
X127594297Y-135711773D01*
X127587819Y-135705741D01*
X127011819Y-135129741D01*
X126978334Y-135068418D01*
X126975500Y-135042060D01*
X126975500Y-134993713D01*
X126956908Y-134876331D01*
X126942246Y-134783757D01*
X126876557Y-134581588D01*
X126780051Y-134392184D01*
X126780049Y-134392181D01*
X126780048Y-134392179D01*
X126655109Y-134220213D01*
X126504790Y-134069894D01*
X126504785Y-134069890D01*
X126339781Y-133950008D01*
X126297115Y-133894678D01*
X126291136Y-133825065D01*
X126323741Y-133763270D01*
X126339781Y-133749371D01*
X126504466Y-133629721D01*
X126654723Y-133479464D01*
X126654727Y-133479459D01*
X126779620Y-133307557D01*
X126876095Y-133118217D01*
X126941757Y-132916129D01*
X126941757Y-132916126D01*
X126952231Y-132850000D01*
X125904146Y-132850000D01*
X125942630Y-132783343D01*
X125975000Y-132662535D01*
X125975000Y-132537465D01*
X125942630Y-132416657D01*
X125904146Y-132350000D01*
X126952231Y-132350000D01*
X126941757Y-132283873D01*
X126941757Y-132283870D01*
X126876095Y-132081782D01*
X126779620Y-131892442D01*
X126654727Y-131720540D01*
X126654723Y-131720535D01*
X126504464Y-131570276D01*
X126504459Y-131570272D01*
X126332557Y-131445379D01*
X126143217Y-131348904D01*
X125941128Y-131283242D01*
X125750000Y-131252969D01*
X125750000Y-132195854D01*
X125683343Y-132157370D01*
X125562535Y-132125000D01*
X125437465Y-132125000D01*
X125316657Y-132157370D01*
X125250000Y-132195854D01*
X125250000Y-131252969D01*
X125058872Y-131283242D01*
X125058869Y-131283242D01*
X124856782Y-131348904D01*
X124667442Y-131445379D01*
X124495540Y-131570272D01*
X124495535Y-131570276D01*
X124345276Y-131720535D01*
X124345272Y-131720540D01*
X124220379Y-131892442D01*
X124123904Y-132081782D01*
X124058242Y-132283870D01*
X124058242Y-132283873D01*
X124047769Y-132350000D01*
X125095854Y-132350000D01*
X125057370Y-132416657D01*
X125025000Y-132537465D01*
X125025000Y-132662535D01*
X125057370Y-132783343D01*
X125095854Y-132850000D01*
X124047769Y-132850000D01*
X124058242Y-132916126D01*
X124058242Y-132916129D01*
X124123904Y-133118217D01*
X124220379Y-133307557D01*
X124345272Y-133479459D01*
X124345276Y-133479464D01*
X124495535Y-133629723D01*
X124495540Y-133629727D01*
X124660218Y-133749372D01*
X124702884Y-133804701D01*
X124708863Y-133874315D01*
X124676258Y-133936110D01*
X124660218Y-133950008D01*
X124495214Y-134069890D01*
X124495209Y-134069894D01*
X124344890Y-134220213D01*
X124219951Y-134392179D01*
X124123444Y-134581585D01*
X124057753Y-134783760D01*
X124033489Y-134936960D01*
X124024500Y-134993713D01*
X124024500Y-135206287D01*
X124057754Y-135416243D01*
X124118353Y-135602748D01*
X124123444Y-135618414D01*
X124219951Y-135807820D01*
X124344890Y-135979786D01*
X124483705Y-136118601D01*
X124517190Y-136179924D01*
X124512206Y-136249616D01*
X124470334Y-136305549D01*
X124461121Y-136311821D01*
X124306342Y-136407289D01*
X124182289Y-136531342D01*
X124090187Y-136680663D01*
X124090186Y-136680666D01*
X124035001Y-136847203D01*
X124035001Y-136847204D01*
X124035000Y-136847204D01*
X124024500Y-136949983D01*
X124024500Y-138250001D01*
X124024501Y-138250018D01*
X124035000Y-138352796D01*
X124035001Y-138352799D01*
X124076635Y-138478439D01*
X124090186Y-138519334D01*
X124182288Y-138668656D01*
X124306344Y-138792712D01*
X124455666Y-138884814D01*
X124622203Y-138939999D01*
X124724991Y-138950500D01*
X126275008Y-138950499D01*
X126362900Y-138941520D01*
X126431590Y-138954289D01*
X126482475Y-139002170D01*
X126499500Y-139064878D01*
X126499500Y-139275500D01*
X126479815Y-139342539D01*
X126427011Y-139388294D01*
X126375500Y-139399500D01*
X121180301Y-139399500D01*
X121113262Y-139379815D01*
X121067507Y-139327011D01*
X121062595Y-139314504D01*
X121034814Y-139230666D01*
X120942712Y-139081344D01*
X120818656Y-138957288D01*
X120669334Y-138865186D01*
X120502797Y-138810001D01*
X120502795Y-138810000D01*
X120400010Y-138799500D01*
X119599998Y-138799500D01*
X119599980Y-138799501D01*
X119497203Y-138810000D01*
X119497200Y-138810001D01*
X119330668Y-138865185D01*
X119330663Y-138865187D01*
X119181342Y-138957289D01*
X119087681Y-139050951D01*
X119026358Y-139084436D01*
X118956666Y-139079452D01*
X118912319Y-139050951D01*
X118818657Y-138957289D01*
X118818656Y-138957288D01*
X118669334Y-138865186D01*
X118502797Y-138810001D01*
X118502795Y-138810000D01*
X118400010Y-138799500D01*
X117599998Y-138799500D01*
X117599980Y-138799501D01*
X117497203Y-138810000D01*
X117497200Y-138810001D01*
X117330668Y-138865185D01*
X117330663Y-138865187D01*
X117181342Y-138957289D01*
X117057289Y-139081342D01*
X116965187Y-139230663D01*
X116965186Y-139230666D01*
X116910001Y-139397203D01*
X116910001Y-139397204D01*
X116910000Y-139397204D01*
X116899500Y-139499983D01*
X116899500Y-140500001D01*
X116899501Y-140500019D01*
X116910000Y-140602796D01*
X116910001Y-140602799D01*
X116950329Y-140724500D01*
X116965186Y-140769334D01*
X117057288Y-140918656D01*
X117181344Y-141042712D01*
X117330666Y-141134814D01*
X117330667Y-141134814D01*
X117336813Y-141138605D01*
X117335706Y-141140399D01*
X117380337Y-141179687D01*
X117399500Y-141245908D01*
X117399500Y-141954091D01*
X117379815Y-142021130D01*
X117335731Y-142059641D01*
X117336813Y-142061395D01*
X117330667Y-142065185D01*
X117330666Y-142065186D01*
X117232419Y-142125784D01*
X117181342Y-142157289D01*
X117057289Y-142281342D01*
X116965187Y-142430663D01*
X116965185Y-142430668D01*
X116937405Y-142514504D01*
X116897632Y-142571949D01*
X116833116Y-142598772D01*
X116819699Y-142599500D01*
X115983308Y-142599500D01*
X115916269Y-142579815D01*
X115895626Y-142563180D01*
X115864370Y-142531923D01*
X115864362Y-142531917D01*
X115722896Y-142448255D01*
X115722893Y-142448254D01*
X115565073Y-142402402D01*
X115565067Y-142402401D01*
X115528201Y-142399500D01*
X115528194Y-142399500D01*
X114362000Y-142399500D01*
X114294961Y-142379815D01*
X114249206Y-142327011D01*
X114238000Y-142275500D01*
X114238000Y-142034313D01*
X114237999Y-142034298D01*
X114235098Y-141997432D01*
X114235097Y-141997426D01*
X114189245Y-141839606D01*
X114189244Y-141839603D01*
X114189244Y-141839602D01*
X114105581Y-141698135D01*
X114105579Y-141698133D01*
X114105576Y-141698129D01*
X113989370Y-141581923D01*
X113989362Y-141581917D01*
X113847896Y-141498255D01*
X113847895Y-141498254D01*
X113689904Y-141452353D01*
X113631019Y-141414746D01*
X113601813Y-141351274D01*
X113600500Y-141333277D01*
X113600500Y-140245908D01*
X113620185Y-140178869D01*
X113664271Y-140140363D01*
X113663187Y-140138605D01*
X113669332Y-140134814D01*
X113669334Y-140134814D01*
X113818656Y-140042712D01*
X113912675Y-139948692D01*
X113973994Y-139915210D01*
X114043686Y-139920194D01*
X114088034Y-139948695D01*
X114181654Y-140042315D01*
X114330875Y-140134356D01*
X114330880Y-140134358D01*
X114497302Y-140189505D01*
X114497309Y-140189506D01*
X114600019Y-140199999D01*
X114749999Y-140199999D01*
X115250000Y-140199999D01*
X115399972Y-140199999D01*
X115399986Y-140199998D01*
X115502697Y-140189505D01*
X115669119Y-140134358D01*
X115669124Y-140134356D01*
X115818345Y-140042315D01*
X115942315Y-139918345D01*
X116034356Y-139769124D01*
X116034358Y-139769119D01*
X116089505Y-139602697D01*
X116089506Y-139602690D01*
X116099999Y-139499986D01*
X116100000Y-139499973D01*
X116100000Y-139250000D01*
X115250000Y-139250000D01*
X115250000Y-140199999D01*
X114749999Y-140199999D01*
X114750000Y-140199998D01*
X114750000Y-138750000D01*
X115250000Y-138750000D01*
X116099999Y-138750000D01*
X116099999Y-138500028D01*
X116099998Y-138500013D01*
X116089505Y-138397302D01*
X116034358Y-138230880D01*
X116034356Y-138230875D01*
X115942315Y-138081654D01*
X115818345Y-137957684D01*
X115669124Y-137865643D01*
X115669119Y-137865641D01*
X115502697Y-137810494D01*
X115502690Y-137810493D01*
X115399986Y-137800000D01*
X115250000Y-137800000D01*
X115250000Y-138750000D01*
X114750000Y-138750000D01*
X114750000Y-137800000D01*
X114600027Y-137800000D01*
X114600012Y-137800001D01*
X114497302Y-137810494D01*
X114330880Y-137865641D01*
X114330875Y-137865643D01*
X114181657Y-137957682D01*
X114088034Y-138051305D01*
X114026710Y-138084789D01*
X113957019Y-138079805D01*
X113912672Y-138051304D01*
X113818657Y-137957289D01*
X113818656Y-137957288D01*
X113725888Y-137900069D01*
X113669336Y-137865187D01*
X113669331Y-137865185D01*
X113667862Y-137864698D01*
X113502797Y-137810001D01*
X113502795Y-137810000D01*
X113400010Y-137799500D01*
X112599998Y-137799500D01*
X112599980Y-137799501D01*
X112497203Y-137810000D01*
X112497200Y-137810001D01*
X112330668Y-137865185D01*
X112330663Y-137865187D01*
X112181342Y-137957289D01*
X112057289Y-138081342D01*
X111965187Y-138230663D01*
X111965185Y-138230668D01*
X111958773Y-138250018D01*
X111910001Y-138397203D01*
X111910001Y-138397204D01*
X111910000Y-138397204D01*
X111899500Y-138499983D01*
X111899500Y-139500001D01*
X111899501Y-139500019D01*
X111910000Y-139602796D01*
X111910001Y-139602799D01*
X111914873Y-139617501D01*
X111965186Y-139769334D01*
X112057288Y-139918656D01*
X112181344Y-140042712D01*
X112330666Y-140134814D01*
X112330667Y-140134814D01*
X112336813Y-140138605D01*
X112335706Y-140140399D01*
X112380337Y-140179687D01*
X112399500Y-140245908D01*
X112399500Y-141333277D01*
X112379815Y-141400316D01*
X112327011Y-141446071D01*
X112310096Y-141452353D01*
X112152104Y-141498254D01*
X112152103Y-141498255D01*
X112010637Y-141581917D01*
X112010629Y-141581923D01*
X111979374Y-141613180D01*
X111918052Y-141646666D01*
X111891692Y-141649500D01*
X110038500Y-141649500D01*
X109971461Y-141629815D01*
X109925706Y-141577011D01*
X109914500Y-141525500D01*
X109914500Y-141401263D01*
X109883610Y-141206236D01*
X109860403Y-141134812D01*
X109822591Y-141018439D01*
X109732944Y-140842499D01*
X109720794Y-140825776D01*
X109616884Y-140682753D01*
X109477246Y-140543115D01*
X109317505Y-140427058D01*
X109311119Y-140423804D01*
X109147593Y-140340482D01*
X109096800Y-140292510D01*
X109080005Y-140224689D01*
X109102542Y-140158554D01*
X109147593Y-140119517D01*
X109317501Y-140032944D01*
X109433461Y-139948695D01*
X109477246Y-139916884D01*
X109477248Y-139916881D01*
X109477252Y-139916879D01*
X109616879Y-139777252D01*
X109616881Y-139777248D01*
X109616884Y-139777246D01*
X109667779Y-139707192D01*
X109732944Y-139617501D01*
X109822591Y-139441561D01*
X109883610Y-139253763D01*
X109910429Y-139084436D01*
X109914500Y-139058736D01*
X109914500Y-138861263D01*
X109883610Y-138666236D01*
X109835879Y-138519336D01*
X109822591Y-138478439D01*
X109732944Y-138302499D01*
X109694815Y-138250018D01*
X109616884Y-138142753D01*
X109477246Y-138003115D01*
X109317505Y-137887058D01*
X109274577Y-137865185D01*
X109147593Y-137800482D01*
X109096800Y-137752510D01*
X109080005Y-137684689D01*
X109102542Y-137618554D01*
X109147593Y-137579517D01*
X109317501Y-137492944D01*
X109337912Y-137478114D01*
X109477246Y-137376884D01*
X109477248Y-137376881D01*
X109477252Y-137376879D01*
X109616879Y-137237252D01*
X109616881Y-137237248D01*
X109616884Y-137237246D01*
X109667779Y-137167192D01*
X109732944Y-137077501D01*
X109822591Y-136901561D01*
X109883610Y-136713763D01*
X109888853Y-136680663D01*
X109914500Y-136518736D01*
X109914500Y-136321263D01*
X109883610Y-136126236D01*
X109836025Y-135979786D01*
X109822591Y-135938439D01*
X109732944Y-135762499D01*
X109725486Y-135752234D01*
X109616884Y-135602753D01*
X109477246Y-135463115D01*
X109317505Y-135347058D01*
X109311119Y-135343804D01*
X109147593Y-135260482D01*
X109096800Y-135212510D01*
X109080005Y-135144689D01*
X109102542Y-135078554D01*
X109147593Y-135039517D01*
X109317501Y-134952944D01*
X109422951Y-134876331D01*
X109477246Y-134836884D01*
X109477248Y-134836881D01*
X109477252Y-134836879D01*
X109616879Y-134697252D01*
X109616881Y-134697248D01*
X109616884Y-134697246D01*
X109700915Y-134581585D01*
X109732944Y-134537501D01*
X109822591Y-134361561D01*
X109883610Y-134173763D01*
X109900061Y-134069896D01*
X109914500Y-133978736D01*
X109914500Y-133781263D01*
X109883610Y-133586236D01*
X109863270Y-133523637D01*
X109822591Y-133398439D01*
X109732944Y-133222499D01*
X109725486Y-133212234D01*
X109616884Y-133062753D01*
X109477246Y-132923115D01*
X109313560Y-132804192D01*
X109314599Y-132802761D01*
X109272833Y-132756593D01*
X109260500Y-132702682D01*
X109260500Y-126902000D01*
X111928891Y-126902000D01*
X112889814Y-126902000D01*
X112885420Y-126906394D01*
X112832759Y-126997606D01*
X112805500Y-127099339D01*
X112805500Y-127204661D01*
X112832759Y-127306394D01*
X112885420Y-127397606D01*
X112889814Y-127402000D01*
X111928891Y-127402000D01*
X111937509Y-127456413D01*
X112000744Y-127651029D01*
X112093640Y-127833349D01*
X112213917Y-127998894D01*
X112213917Y-127998895D01*
X112358604Y-128143582D01*
X112524150Y-128263859D01*
X112706468Y-128356754D01*
X112901078Y-128419988D01*
X112955500Y-128428607D01*
X112955500Y-127467686D01*
X112959894Y-127472080D01*
X113051106Y-127524741D01*
X113152839Y-127552000D01*
X113258161Y-127552000D01*
X113359894Y-127524741D01*
X113451106Y-127472080D01*
X113455500Y-127467686D01*
X113455500Y-128428606D01*
X113509921Y-128419988D01*
X113704531Y-128356754D01*
X113886849Y-128263859D01*
X114052394Y-128143582D01*
X114052395Y-128143582D01*
X114197082Y-127998895D01*
X114197082Y-127998894D01*
X114317359Y-127833349D01*
X114358544Y-127752520D01*
X114406518Y-127701724D01*
X114474339Y-127684929D01*
X114540474Y-127707466D01*
X114579514Y-127752520D01*
X114633640Y-127858749D01*
X114753917Y-128024294D01*
X114753917Y-128024295D01*
X114898604Y-128168982D01*
X115064150Y-128289259D01*
X115246468Y-128382154D01*
X115441078Y-128445388D01*
X115495500Y-128454007D01*
X115495500Y-127493086D01*
X115499894Y-127497480D01*
X115591106Y-127550141D01*
X115692839Y-127577400D01*
X115798161Y-127577400D01*
X115899894Y-127550141D01*
X115991106Y-127497480D01*
X115995500Y-127493086D01*
X115995500Y-128454006D01*
X116049921Y-128445388D01*
X116244531Y-128382154D01*
X116426849Y-128289259D01*
X116592394Y-128168982D01*
X116592395Y-128168982D01*
X116737082Y-128024295D01*
X116737082Y-128024294D01*
X116857359Y-127858749D01*
X116950255Y-127676429D01*
X117013490Y-127481813D01*
X117022109Y-127427400D01*
X116061186Y-127427400D01*
X116065580Y-127423006D01*
X116118241Y-127331794D01*
X116145500Y-127230061D01*
X116145500Y-127124739D01*
X116118241Y-127023006D01*
X116065580Y-126931794D01*
X116061186Y-126927400D01*
X117022109Y-126927400D01*
X117013490Y-126872986D01*
X116950255Y-126678370D01*
X116857359Y-126496050D01*
X116737082Y-126330505D01*
X116737082Y-126330504D01*
X116592395Y-126185817D01*
X116426849Y-126065540D01*
X116244529Y-125972644D01*
X116049913Y-125909409D01*
X115995500Y-125900790D01*
X115995500Y-126861714D01*
X115991106Y-126857320D01*
X115899894Y-126804659D01*
X115798161Y-126777400D01*
X115692839Y-126777400D01*
X115591106Y-126804659D01*
X115499894Y-126857320D01*
X115495500Y-126861714D01*
X115495500Y-125900790D01*
X115441086Y-125909409D01*
X115246470Y-125972644D01*
X115064150Y-126065540D01*
X114898605Y-126185817D01*
X114898604Y-126185817D01*
X114753917Y-126330504D01*
X114753917Y-126330505D01*
X114633638Y-126496053D01*
X114592454Y-126576880D01*
X114544479Y-126627676D01*
X114476658Y-126644470D01*
X114410523Y-126621932D01*
X114371485Y-126576878D01*
X114317361Y-126470652D01*
X114197082Y-126305105D01*
X114197082Y-126305104D01*
X114052395Y-126160417D01*
X113886849Y-126040140D01*
X113704529Y-125947244D01*
X113509913Y-125884009D01*
X113455500Y-125875390D01*
X113455500Y-126836314D01*
X113451106Y-126831920D01*
X113359894Y-126779259D01*
X113258161Y-126752000D01*
X113152839Y-126752000D01*
X113051106Y-126779259D01*
X112959894Y-126831920D01*
X112955500Y-126836314D01*
X112955500Y-125875390D01*
X112901086Y-125884009D01*
X112706470Y-125947244D01*
X112524150Y-126040140D01*
X112358605Y-126160417D01*
X112358604Y-126160417D01*
X112213917Y-126305104D01*
X112213917Y-126305105D01*
X112093640Y-126470650D01*
X112000744Y-126652970D01*
X111937509Y-126847586D01*
X111928891Y-126902000D01*
X109260500Y-126902000D01*
X109260500Y-107979000D01*
X111928891Y-107979000D01*
X112889814Y-107979000D01*
X112885420Y-107983394D01*
X112832759Y-108074606D01*
X112805500Y-108176339D01*
X112805500Y-108281661D01*
X112832759Y-108383394D01*
X112885420Y-108474606D01*
X112889814Y-108479000D01*
X111928891Y-108479000D01*
X111937509Y-108533413D01*
X112000744Y-108728029D01*
X112093640Y-108910349D01*
X112213917Y-109075894D01*
X112213917Y-109075895D01*
X112358604Y-109220582D01*
X112524150Y-109340859D01*
X112706468Y-109433754D01*
X112901078Y-109496988D01*
X112955500Y-109505607D01*
X112955500Y-108544686D01*
X112959894Y-108549080D01*
X113051106Y-108601741D01*
X113152839Y-108629000D01*
X113258161Y-108629000D01*
X113359894Y-108601741D01*
X113451106Y-108549080D01*
X113455500Y-108544686D01*
X113455500Y-109505606D01*
X113509921Y-109496988D01*
X113704531Y-109433754D01*
X113886849Y-109340859D01*
X114052394Y-109220582D01*
X114052395Y-109220582D01*
X114197082Y-109075895D01*
X114197082Y-109075894D01*
X114317359Y-108910349D01*
X114358544Y-108829520D01*
X114406518Y-108778724D01*
X114474339Y-108761929D01*
X114540474Y-108784466D01*
X114579514Y-108829520D01*
X114633640Y-108935749D01*
X114753917Y-109101294D01*
X114753917Y-109101295D01*
X114898604Y-109245982D01*
X115064150Y-109366259D01*
X115246468Y-109459154D01*
X115441078Y-109522388D01*
X115495500Y-109531007D01*
X115495500Y-108570086D01*
X115499894Y-108574480D01*
X115591106Y-108627141D01*
X115692839Y-108654400D01*
X115798161Y-108654400D01*
X115899894Y-108627141D01*
X115991106Y-108574480D01*
X115995500Y-108570086D01*
X115995500Y-109531006D01*
X116049921Y-109522388D01*
X116244531Y-109459154D01*
X116426849Y-109366259D01*
X116592394Y-109245982D01*
X116592395Y-109245982D01*
X116737082Y-109101295D01*
X116737082Y-109101294D01*
X116857359Y-108935749D01*
X116950255Y-108753429D01*
X117013490Y-108558813D01*
X117022109Y-108504400D01*
X116061186Y-108504400D01*
X116065580Y-108500006D01*
X116118241Y-108408794D01*
X116145500Y-108307061D01*
X116145500Y-108201739D01*
X116118241Y-108100006D01*
X116065580Y-108008794D01*
X116061186Y-108004400D01*
X117022109Y-108004400D01*
X117013490Y-107949986D01*
X116950255Y-107755370D01*
X116857359Y-107573050D01*
X116810195Y-107508135D01*
X122827000Y-107508135D01*
X122827000Y-109203870D01*
X122827001Y-109203876D01*
X122833408Y-109263483D01*
X122883702Y-109398328D01*
X122883706Y-109398335D01*
X122969952Y-109513544D01*
X122969955Y-109513547D01*
X123085164Y-109599793D01*
X123085171Y-109599797D01*
X123220017Y-109650091D01*
X123220016Y-109650091D01*
X123226944Y-109650835D01*
X123279627Y-109656500D01*
X124975372Y-109656499D01*
X125034983Y-109650091D01*
X125169831Y-109599796D01*
X125285046Y-109513546D01*
X125298233Y-109495929D01*
X125354166Y-109454058D01*
X125423858Y-109449074D01*
X125485181Y-109482558D01*
X125496767Y-109495930D01*
X125509954Y-109513546D01*
X125509955Y-109513547D01*
X125625164Y-109599793D01*
X125625171Y-109599797D01*
X125760017Y-109650091D01*
X125760016Y-109650091D01*
X125766944Y-109650835D01*
X125819627Y-109656500D01*
X127515372Y-109656499D01*
X127574983Y-109650091D01*
X127709831Y-109599796D01*
X127825046Y-109513546D01*
X127911296Y-109398331D01*
X127961591Y-109263483D01*
X127968000Y-109203873D01*
X127967999Y-107508128D01*
X127961591Y-107448517D01*
X127911296Y-107313669D01*
X127911295Y-107313668D01*
X127911293Y-107313664D01*
X127825047Y-107198455D01*
X127825044Y-107198452D01*
X127709835Y-107112206D01*
X127709828Y-107112202D01*
X127574982Y-107061908D01*
X127574983Y-107061908D01*
X127515383Y-107055501D01*
X127515381Y-107055500D01*
X127515373Y-107055500D01*
X127515364Y-107055500D01*
X125819629Y-107055500D01*
X125819623Y-107055501D01*
X125760016Y-107061908D01*
X125625171Y-107112202D01*
X125625164Y-107112206D01*
X125509955Y-107198452D01*
X125496766Y-107216071D01*
X125440832Y-107257941D01*
X125371140Y-107262925D01*
X125309817Y-107229439D01*
X125298234Y-107216071D01*
X125285046Y-107198454D01*
X125285044Y-107198453D01*
X125285044Y-107198452D01*
X125169835Y-107112206D01*
X125169828Y-107112202D01*
X125034982Y-107061908D01*
X125034983Y-107061908D01*
X124975383Y-107055501D01*
X124975381Y-107055500D01*
X124975373Y-107055500D01*
X124975364Y-107055500D01*
X123279629Y-107055500D01*
X123279623Y-107055501D01*
X123220016Y-107061908D01*
X123085171Y-107112202D01*
X123085164Y-107112206D01*
X122969955Y-107198452D01*
X122969952Y-107198455D01*
X122883706Y-107313664D01*
X122883702Y-107313671D01*
X122833408Y-107448517D01*
X122827001Y-107508116D01*
X122827001Y-107508123D01*
X122827000Y-107508135D01*
X116810195Y-107508135D01*
X116737082Y-107407505D01*
X116737082Y-107407504D01*
X116592395Y-107262817D01*
X116426849Y-107142540D01*
X116244529Y-107049644D01*
X116049913Y-106986409D01*
X115995500Y-106977790D01*
X115995500Y-107938714D01*
X115991106Y-107934320D01*
X115899894Y-107881659D01*
X115798161Y-107854400D01*
X115692839Y-107854400D01*
X115591106Y-107881659D01*
X115499894Y-107934320D01*
X115495500Y-107938714D01*
X115495500Y-106977790D01*
X115441086Y-106986409D01*
X115246470Y-107049644D01*
X115064150Y-107142540D01*
X114898605Y-107262817D01*
X114898604Y-107262817D01*
X114753917Y-107407504D01*
X114753917Y-107407505D01*
X114633638Y-107573053D01*
X114592454Y-107653880D01*
X114544479Y-107704676D01*
X114476658Y-107721470D01*
X114410523Y-107698932D01*
X114371485Y-107653878D01*
X114317361Y-107547652D01*
X114197082Y-107382105D01*
X114197082Y-107382104D01*
X114052395Y-107237417D01*
X113886849Y-107117140D01*
X113704529Y-107024244D01*
X113509913Y-106961009D01*
X113455500Y-106952390D01*
X113455500Y-107913314D01*
X113451106Y-107908920D01*
X113359894Y-107856259D01*
X113258161Y-107829000D01*
X113152839Y-107829000D01*
X113051106Y-107856259D01*
X112959894Y-107908920D01*
X112955500Y-107913314D01*
X112955500Y-106952390D01*
X112901086Y-106961009D01*
X112706470Y-107024244D01*
X112524150Y-107117140D01*
X112358605Y-107237417D01*
X112358604Y-107237417D01*
X112213917Y-107382104D01*
X112213917Y-107382105D01*
X112093640Y-107547650D01*
X112000744Y-107729970D01*
X111937509Y-107924586D01*
X111928891Y-107979000D01*
X109260500Y-107979000D01*
X109260500Y-103315096D01*
X109280185Y-103248057D01*
X109296814Y-103227420D01*
X111537416Y-100986817D01*
X111598739Y-100953333D01*
X111625097Y-100950499D01*
X112850002Y-100950499D01*
X112850008Y-100950499D01*
X112952797Y-100939999D01*
X113119334Y-100884814D01*
X113268656Y-100792712D01*
X113392712Y-100668656D01*
X113484814Y-100519334D01*
X113484814Y-100519331D01*
X113488178Y-100513879D01*
X113540126Y-100467154D01*
X113609088Y-100455931D01*
X113673170Y-100483774D01*
X113681398Y-100491294D01*
X113820213Y-100630109D01*
X113992179Y-100755048D01*
X113992181Y-100755049D01*
X113992184Y-100755051D01*
X114181588Y-100851557D01*
X114383757Y-100917246D01*
X114593713Y-100950500D01*
X114593714Y-100950500D01*
X114806286Y-100950500D01*
X114806287Y-100950500D01*
X115016243Y-100917246D01*
X115218412Y-100851557D01*
X115407816Y-100755051D01*
X115429789Y-100739086D01*
X115579786Y-100630109D01*
X115579788Y-100630106D01*
X115579792Y-100630104D01*
X115730104Y-100479792D01*
X115849991Y-100314779D01*
X115905320Y-100272115D01*
X115974933Y-100266136D01*
X116036729Y-100298741D01*
X116050627Y-100314781D01*
X116170272Y-100479459D01*
X116170276Y-100479464D01*
X116320535Y-100629723D01*
X116320540Y-100629727D01*
X116492442Y-100754620D01*
X116681782Y-100851095D01*
X116883871Y-100916757D01*
X116950000Y-100927231D01*
X116950000Y-99879145D01*
X117016657Y-99917630D01*
X117137465Y-99950000D01*
X117262535Y-99950000D01*
X117383343Y-99917630D01*
X117450000Y-99879145D01*
X117450000Y-100927230D01*
X117516126Y-100916757D01*
X117516129Y-100916757D01*
X117718217Y-100851095D01*
X117907557Y-100754620D01*
X118079459Y-100629727D01*
X118079464Y-100629723D01*
X118229723Y-100479464D01*
X118229727Y-100479459D01*
X118354620Y-100307557D01*
X118451095Y-100118217D01*
X118516757Y-99916130D01*
X118516757Y-99916127D01*
X118547030Y-99725000D01*
X117604146Y-99725000D01*
X117642630Y-99658343D01*
X117675000Y-99537535D01*
X117675000Y-99412465D01*
X117642630Y-99291657D01*
X117604146Y-99225000D01*
X118547030Y-99225000D01*
X118516757Y-99033872D01*
X118516757Y-99033869D01*
X118451095Y-98831782D01*
X118354620Y-98642442D01*
X118229727Y-98470540D01*
X118229723Y-98470535D01*
X118079464Y-98320276D01*
X118079459Y-98320272D01*
X117907557Y-98195379D01*
X117718215Y-98098903D01*
X117516124Y-98033241D01*
X117450000Y-98022768D01*
X117450000Y-99070854D01*
X117383343Y-99032370D01*
X117262535Y-99000000D01*
X117137465Y-99000000D01*
X117016657Y-99032370D01*
X116950000Y-99070854D01*
X116950000Y-98022768D01*
X116949999Y-98022768D01*
X116883875Y-98033241D01*
X116681784Y-98098903D01*
X116492442Y-98195379D01*
X116320540Y-98320272D01*
X116320535Y-98320276D01*
X116170276Y-98470535D01*
X116170272Y-98470540D01*
X116050627Y-98635218D01*
X115995297Y-98677884D01*
X115925684Y-98683863D01*
X115863889Y-98651257D01*
X115849991Y-98635218D01*
X115730109Y-98470214D01*
X115730105Y-98470209D01*
X115579786Y-98319890D01*
X115407820Y-98194951D01*
X115218414Y-98098444D01*
X115218413Y-98098443D01*
X115218412Y-98098443D01*
X115016243Y-98032754D01*
X115016241Y-98032753D01*
X115016240Y-98032753D01*
X114854957Y-98007208D01*
X114806287Y-97999500D01*
X114593713Y-97999500D01*
X114545042Y-98007208D01*
X114383760Y-98032753D01*
X114181585Y-98098444D01*
X113992179Y-98194951D01*
X113820215Y-98319889D01*
X113681398Y-98458706D01*
X113620075Y-98492190D01*
X113550383Y-98487206D01*
X113494450Y-98445334D01*
X113488178Y-98436120D01*
X113392712Y-98281344D01*
X113268657Y-98157289D01*
X113268656Y-98157288D01*
X113119334Y-98065186D01*
X112952797Y-98010001D01*
X112952795Y-98010000D01*
X112850010Y-97999500D01*
X111549998Y-97999500D01*
X111549981Y-97999501D01*
X111447203Y-98010000D01*
X111447200Y-98010001D01*
X111280668Y-98065185D01*
X111280663Y-98065187D01*
X111131342Y-98157289D01*
X111007289Y-98281342D01*
X110915187Y-98430663D01*
X110915185Y-98430668D01*
X110910325Y-98445334D01*
X110860001Y-98597203D01*
X110860001Y-98597204D01*
X110860000Y-98597204D01*
X110849500Y-98699983D01*
X110849500Y-99924902D01*
X110829815Y-99991941D01*
X110813181Y-100012583D01*
X108179481Y-102646282D01*
X108179477Y-102646287D01*
X108129768Y-102732388D01*
X108100423Y-102783215D01*
X108059499Y-102935943D01*
X108059499Y-102935945D01*
X108059499Y-103104046D01*
X108059500Y-103104059D01*
X108059500Y-132702682D01*
X108039815Y-132769721D01*
X108005675Y-132803139D01*
X108006440Y-132804192D01*
X107842753Y-132923115D01*
X107703115Y-133062753D01*
X107587058Y-133222495D01*
X107500485Y-133392403D01*
X107452510Y-133443199D01*
X107384689Y-133459994D01*
X107318554Y-133437456D01*
X107279515Y-133392403D01*
X107192944Y-133222499D01*
X107185486Y-133212234D01*
X107076884Y-133062753D01*
X106937246Y-132923115D01*
X106773560Y-132804192D01*
X106774599Y-132802761D01*
X106732833Y-132756593D01*
X106720500Y-132702682D01*
X106720500Y-129509059D01*
X106720501Y-129509046D01*
X106720501Y-129340945D01*
X106720501Y-129340943D01*
X106679577Y-129188215D01*
X106637004Y-129114477D01*
X106600520Y-129051284D01*
X106488716Y-128939480D01*
X106484385Y-128935149D01*
X106484374Y-128935139D01*
X106186818Y-128637583D01*
X106153333Y-128576260D01*
X106150499Y-128549902D01*
X106150499Y-127299998D01*
X106150498Y-127299981D01*
X106139999Y-127197203D01*
X106139998Y-127197200D01*
X106084814Y-127030666D01*
X105992712Y-126881344D01*
X105868656Y-126757288D01*
X105746249Y-126681787D01*
X105719336Y-126665187D01*
X105719331Y-126665185D01*
X105697597Y-126657983D01*
X105552797Y-126610001D01*
X105552795Y-126610000D01*
X105450016Y-126599500D01*
X105450009Y-126599500D01*
X104304500Y-126599500D01*
X104237461Y-126579815D01*
X104191706Y-126527011D01*
X104180500Y-126475500D01*
X104180500Y-115867484D01*
X104200185Y-115800445D01*
X104252989Y-115754690D01*
X104322147Y-115744746D01*
X104343494Y-115749775D01*
X104464880Y-115789999D01*
X104567668Y-115800500D01*
X106167685Y-115800499D01*
X106169477Y-115800316D01*
X106185572Y-115798671D01*
X106270474Y-115789999D01*
X106437011Y-115734814D01*
X106586333Y-115642712D01*
X106710389Y-115518656D01*
X106802491Y-115369334D01*
X106857676Y-115202797D01*
X106868177Y-115100009D01*
X106868176Y-113499992D01*
X106865101Y-113469894D01*
X106857676Y-113397203D01*
X106857675Y-113397200D01*
X106842037Y-113350008D01*
X106802491Y-113230666D01*
X106710389Y-113081344D01*
X106586333Y-112957288D01*
X106493565Y-112900069D01*
X106437013Y-112865187D01*
X106437008Y-112865185D01*
X106270472Y-112810000D01*
X106266210Y-112809088D01*
X106204779Y-112775801D01*
X106171096Y-112714586D01*
X106168177Y-112687837D01*
X106168177Y-103163832D01*
X106168176Y-103163830D01*
X106137415Y-103009187D01*
X106137414Y-103009180D01*
X106137412Y-103009175D01*
X106077074Y-102863504D01*
X106077067Y-102863491D01*
X105989466Y-102732388D01*
X105877966Y-102620888D01*
X104376337Y-101119259D01*
X104342852Y-101057936D01*
X104347836Y-100988244D01*
X104389708Y-100932311D01*
X104425701Y-100913647D01*
X104618215Y-100851096D01*
X104807557Y-100754620D01*
X104979459Y-100629727D01*
X104979464Y-100629723D01*
X105129723Y-100479464D01*
X105129727Y-100479459D01*
X105254620Y-100307557D01*
X105351095Y-100118217D01*
X105416757Y-99916130D01*
X105416757Y-99916127D01*
X105447030Y-99725000D01*
X104504146Y-99725000D01*
X104542630Y-99658343D01*
X104575000Y-99537535D01*
X104575000Y-99412465D01*
X104542630Y-99291657D01*
X104504146Y-99225000D01*
X105447030Y-99225000D01*
X105416757Y-99033872D01*
X105416757Y-99033869D01*
X105351095Y-98831782D01*
X105254620Y-98642442D01*
X105129727Y-98470540D01*
X105129723Y-98470535D01*
X104979464Y-98320276D01*
X104979459Y-98320272D01*
X104807557Y-98195379D01*
X104618215Y-98098903D01*
X104416124Y-98033241D01*
X104350000Y-98022768D01*
X104350000Y-99070854D01*
X104283343Y-99032370D01*
X104162535Y-99000000D01*
X104037465Y-99000000D01*
X103916657Y-99032370D01*
X103850000Y-99070854D01*
X103850000Y-98022768D01*
X103849999Y-98022768D01*
X103783875Y-98033241D01*
X103581784Y-98098903D01*
X103392442Y-98195379D01*
X103220540Y-98320272D01*
X103220535Y-98320276D01*
X103070276Y-98470535D01*
X103070272Y-98470540D01*
X102950627Y-98635218D01*
X102895297Y-98677884D01*
X102825684Y-98683863D01*
X102763889Y-98651257D01*
X102749991Y-98635218D01*
X102630109Y-98470214D01*
X102630105Y-98470209D01*
X102479786Y-98319890D01*
X102307820Y-98194951D01*
X102118414Y-98098444D01*
X102118413Y-98098443D01*
X102118412Y-98098443D01*
X101916243Y-98032754D01*
X101916241Y-98032753D01*
X101916240Y-98032753D01*
X101754957Y-98007208D01*
X101706287Y-97999500D01*
X101493713Y-97999500D01*
X101445042Y-98007208D01*
X101283760Y-98032753D01*
X101081585Y-98098444D01*
X100892179Y-98194951D01*
X100720215Y-98319889D01*
X100581398Y-98458706D01*
X100520075Y-98492190D01*
X100450383Y-98487206D01*
X100394450Y-98445334D01*
X100388178Y-98436120D01*
X100292712Y-98281344D01*
X100168657Y-98157289D01*
X100168656Y-98157288D01*
X100019334Y-98065186D01*
X99852797Y-98010001D01*
X99852795Y-98010000D01*
X99750010Y-97999500D01*
X98449998Y-97999500D01*
X98449981Y-97999501D01*
X98347203Y-98010000D01*
X98347200Y-98010001D01*
X98180668Y-98065185D01*
X98180663Y-98065187D01*
X98031342Y-98157289D01*
X97907289Y-98281342D01*
X97815187Y-98430663D01*
X97815185Y-98430668D01*
X97810325Y-98445334D01*
X97760001Y-98597203D01*
X97760001Y-98597204D01*
X97760000Y-98597204D01*
X97749500Y-98699983D01*
X97749500Y-100250001D01*
X97749501Y-100250018D01*
X97760000Y-100352796D01*
X97760001Y-100352799D01*
X97805894Y-100491294D01*
X97815186Y-100519334D01*
X97907288Y-100668656D01*
X98031344Y-100792712D01*
X98180666Y-100884814D01*
X98347203Y-100939999D01*
X98449991Y-100950500D01*
X99674901Y-100950499D01*
X99741940Y-100970184D01*
X99762582Y-100986818D01*
X102943181Y-104167416D01*
X102976666Y-104228739D01*
X102979500Y-104255097D01*
X102979500Y-126580637D01*
X102959815Y-126647676D01*
X102907011Y-126693431D01*
X102837853Y-126703375D01*
X102817183Y-126698568D01*
X102616124Y-126633241D01*
X102550000Y-126622768D01*
X102550000Y-127666988D01*
X102492993Y-127634075D01*
X102365826Y-127600000D01*
X102234174Y-127600000D01*
X102107007Y-127634075D01*
X102050000Y-127666988D01*
X102050000Y-126622768D01*
X102049999Y-126622768D01*
X101983874Y-126633241D01*
X101802817Y-126692069D01*
X101732976Y-126694064D01*
X101673143Y-126657983D01*
X101642316Y-126595282D01*
X101640500Y-126574138D01*
X101640500Y-117485945D01*
X101640500Y-117485943D01*
X101599577Y-117333216D01*
X101599577Y-117333215D01*
X101599577Y-117333214D01*
X101570639Y-117283095D01*
X101570637Y-117283092D01*
X101520520Y-117196284D01*
X101408716Y-117084480D01*
X101408715Y-117084479D01*
X101404385Y-117080149D01*
X101404374Y-117080139D01*
X100335916Y-116011681D01*
X100302431Y-115950358D01*
X100307415Y-115880666D01*
X100349287Y-115824733D01*
X100414751Y-115800316D01*
X100423597Y-115800000D01*
X100485729Y-115800000D01*
X100718924Y-115763065D01*
X100943479Y-115690102D01*
X101153840Y-115582918D01*
X101153846Y-115582914D01*
X101236781Y-115522658D01*
X101236782Y-115522658D01*
X100497085Y-114782962D01*
X100560670Y-114765925D01*
X100674684Y-114700099D01*
X100767776Y-114607007D01*
X100833602Y-114492993D01*
X100850639Y-114429409D01*
X101590335Y-115169105D01*
X101590335Y-115169104D01*
X101650591Y-115086169D01*
X101650595Y-115086163D01*
X101757779Y-114875802D01*
X101830742Y-114651247D01*
X101867677Y-114418052D01*
X101867677Y-114181947D01*
X101830742Y-113948752D01*
X101757779Y-113724197D01*
X101650591Y-113513828D01*
X101590335Y-113430894D01*
X101590335Y-113430893D01*
X100850639Y-114170590D01*
X100833602Y-114107007D01*
X100767776Y-113992993D01*
X100674684Y-113899901D01*
X100560670Y-113834075D01*
X100497086Y-113817037D01*
X101236782Y-113077340D01*
X101236781Y-113077338D01*
X101153851Y-113017087D01*
X100943479Y-112909897D01*
X100718924Y-112836934D01*
X100718925Y-112836934D01*
X100485729Y-112800000D01*
X100249625Y-112800000D01*
X100016429Y-112836934D01*
X99791874Y-112909897D01*
X99581507Y-113017084D01*
X99498571Y-113077340D01*
X100238268Y-113817037D01*
X100174684Y-113834075D01*
X100060670Y-113899901D01*
X99967578Y-113992993D01*
X99901752Y-114107007D01*
X99884714Y-114170591D01*
X99145017Y-113430894D01*
X99084761Y-113513830D01*
X98977574Y-113724197D01*
X98904611Y-113948752D01*
X98867677Y-114181947D01*
X98867677Y-114244080D01*
X98847992Y-114311119D01*
X98795188Y-114356874D01*
X98726030Y-114366818D01*
X98662474Y-114337793D01*
X98655996Y-114331761D01*
X91986818Y-107662583D01*
X91953333Y-107601260D01*
X91950499Y-107574902D01*
X91950499Y-106349998D01*
X91950498Y-106349981D01*
X91939999Y-106247203D01*
X91939998Y-106247200D01*
X91884814Y-106080666D01*
X91792712Y-105931344D01*
X91668656Y-105807288D01*
X91519334Y-105715186D01*
X91352797Y-105660001D01*
X91352795Y-105660000D01*
X91250010Y-105649500D01*
X89699998Y-105649500D01*
X89699981Y-105649501D01*
X89597203Y-105660000D01*
X89597200Y-105660001D01*
X89430668Y-105715185D01*
X89430663Y-105715187D01*
X89281342Y-105807289D01*
X89157289Y-105931342D01*
X89065187Y-106080663D01*
X89065186Y-106080666D01*
X89010001Y-106247203D01*
X89010001Y-106247204D01*
X89010000Y-106247204D01*
X88999500Y-106349983D01*
X88999500Y-107650001D01*
X88999501Y-107650018D01*
X89010000Y-107752796D01*
X89010001Y-107752799D01*
X89065185Y-107919331D01*
X89065187Y-107919336D01*
X89157289Y-108068657D01*
X89281344Y-108192712D01*
X89436120Y-108288178D01*
X89482845Y-108340126D01*
X89494068Y-108409088D01*
X89466224Y-108473171D01*
X89458706Y-108481398D01*
X89319889Y-108620215D01*
X89194951Y-108792179D01*
X89098444Y-108981585D01*
X89032753Y-109183760D01*
X88999500Y-109393713D01*
X88999500Y-109606286D01*
X89032753Y-109816239D01*
X89098444Y-110018414D01*
X89194951Y-110207820D01*
X89319890Y-110379786D01*
X89470209Y-110530105D01*
X89470214Y-110530109D01*
X89635218Y-110649991D01*
X89677884Y-110705320D01*
X89683863Y-110774934D01*
X89651258Y-110836729D01*
X89635218Y-110850627D01*
X89470540Y-110970272D01*
X89470535Y-110970276D01*
X89320276Y-111120535D01*
X89320272Y-111120540D01*
X89195379Y-111292442D01*
X89098904Y-111481782D01*
X89033242Y-111683870D01*
X89033242Y-111683873D01*
X89022769Y-111750000D01*
X90070854Y-111750000D01*
X90032370Y-111816657D01*
X90000000Y-111937465D01*
X90000000Y-112062535D01*
X90032370Y-112183343D01*
X90070854Y-112250000D01*
X89022769Y-112250000D01*
X89033242Y-112316126D01*
X89033242Y-112316129D01*
X89098904Y-112518217D01*
X89195379Y-112707557D01*
X89320272Y-112879459D01*
X89320276Y-112879464D01*
X89470535Y-113029723D01*
X89470540Y-113029727D01*
X89635218Y-113149372D01*
X89677884Y-113204701D01*
X89683863Y-113274315D01*
X89651258Y-113336110D01*
X89635218Y-113350008D01*
X89470214Y-113469890D01*
X89470209Y-113469894D01*
X89319890Y-113620213D01*
X89194951Y-113792179D01*
X89098444Y-113981585D01*
X89032753Y-114183760D01*
X88999500Y-114393713D01*
X88999500Y-114606286D01*
X89032753Y-114816240D01*
X89077146Y-114952868D01*
X89079141Y-115022709D01*
X89046896Y-115078867D01*
X88331286Y-115794478D01*
X88219481Y-115906282D01*
X88219479Y-115906285D01*
X88169361Y-115993094D01*
X88169359Y-115993096D01*
X88140425Y-116043209D01*
X88140424Y-116043210D01*
X88140423Y-116043215D01*
X88099499Y-116195943D01*
X88099499Y-116195945D01*
X88099499Y-116364046D01*
X88099500Y-116364059D01*
X88099500Y-126363330D01*
X88099499Y-126363348D01*
X88099499Y-126529054D01*
X88099498Y-126529054D01*
X88099499Y-126529057D01*
X88131283Y-126647676D01*
X88140423Y-126681784D01*
X88140424Y-126681787D01*
X88145467Y-126690521D01*
X88145468Y-126690523D01*
X88219477Y-126818712D01*
X88219481Y-126818717D01*
X88338349Y-126937585D01*
X88338355Y-126937590D01*
X89071897Y-127671132D01*
X89105382Y-127732455D01*
X89102147Y-127797131D01*
X89057753Y-127933760D01*
X89024500Y-128143713D01*
X89024500Y-128356286D01*
X89057753Y-128566240D01*
X89107631Y-128719750D01*
X89108596Y-128753542D01*
X89110205Y-128787299D01*
X89109603Y-128788801D01*
X89109626Y-128789592D01*
X89097089Y-128820066D01*
X89069360Y-128868095D01*
X89069359Y-128868096D01*
X89040425Y-128918209D01*
X89040424Y-128918210D01*
X89034725Y-128939480D01*
X88999499Y-129070943D01*
X88999499Y-129070945D01*
X88999499Y-129239046D01*
X88999500Y-129239059D01*
X88999500Y-132501500D01*
X88979815Y-132568539D01*
X88927011Y-132614294D01*
X88875500Y-132625500D01*
X87724000Y-132625500D01*
X87656961Y-132605815D01*
X87611206Y-132553011D01*
X87600000Y-132501500D01*
X87600000Y-100051362D01*
X87619685Y-99984323D01*
X87636319Y-99963681D01*
X89963681Y-97636319D01*
X90025004Y-97602834D01*
X90051362Y-97600000D01*
X125948638Y-97600000D01*
X126015677Y-97619685D01*
G37*
%TD.AperFunction*%
%TA.AperFunction,Conductor*%
G36*
X91916442Y-125519685D02*
G01*
X91937084Y-125536319D01*
X92783181Y-126382416D01*
X92816666Y-126443739D01*
X92819500Y-126470097D01*
X92819500Y-132702682D01*
X92799815Y-132769721D01*
X92765675Y-132803139D01*
X92766440Y-132804192D01*
X92602753Y-132923115D01*
X92463115Y-133062753D01*
X92347058Y-133222495D01*
X92260485Y-133392403D01*
X92212510Y-133443199D01*
X92144689Y-133459994D01*
X92078554Y-133437456D01*
X92039515Y-133392403D01*
X91952944Y-133222499D01*
X91945486Y-133212234D01*
X91836884Y-133062753D01*
X91697246Y-132923115D01*
X91537504Y-132807058D01*
X91537503Y-132807057D01*
X91537501Y-132807056D01*
X91361561Y-132717409D01*
X91348041Y-132713016D01*
X91173763Y-132656389D01*
X90978736Y-132625500D01*
X90978731Y-132625500D01*
X90781269Y-132625500D01*
X90781264Y-132625500D01*
X90586236Y-132656389D01*
X90398440Y-132717408D01*
X90380791Y-132726401D01*
X90312122Y-132739295D01*
X90247382Y-132713016D01*
X90207127Y-132655908D01*
X90200500Y-132615914D01*
X90200500Y-129724500D01*
X90220185Y-129657461D01*
X90272989Y-129611706D01*
X90324500Y-129600500D01*
X90731286Y-129600500D01*
X90731287Y-129600500D01*
X90941243Y-129567246D01*
X91143412Y-129501557D01*
X91332816Y-129405051D01*
X91421054Y-129340943D01*
X91504786Y-129280109D01*
X91504788Y-129280106D01*
X91504792Y-129280104D01*
X91655104Y-129129792D01*
X91655106Y-129129788D01*
X91655109Y-129129786D01*
X91780048Y-128957820D01*
X91780047Y-128957820D01*
X91780051Y-128957816D01*
X91876557Y-128768412D01*
X91942246Y-128566243D01*
X91975500Y-128356287D01*
X91975500Y-128143713D01*
X91942246Y-127933757D01*
X91876557Y-127731588D01*
X91780051Y-127542184D01*
X91780049Y-127542181D01*
X91780048Y-127542179D01*
X91655109Y-127370213D01*
X91504790Y-127219894D01*
X91504785Y-127219890D01*
X91339781Y-127100008D01*
X91297115Y-127044678D01*
X91291136Y-126975065D01*
X91323741Y-126913270D01*
X91339781Y-126899371D01*
X91504466Y-126779721D01*
X91654723Y-126629464D01*
X91654727Y-126629459D01*
X91779620Y-126457557D01*
X91876095Y-126268217D01*
X91941757Y-126066129D01*
X91941757Y-126066126D01*
X91952231Y-126000000D01*
X90904146Y-126000000D01*
X90942630Y-125933343D01*
X90975000Y-125812535D01*
X90975000Y-125687465D01*
X90942630Y-125566657D01*
X90904146Y-125500000D01*
X91849403Y-125500000D01*
X91916442Y-125519685D01*
G37*
%TD.AperFunction*%
%TA.AperFunction,Conductor*%
G36*
X91891442Y-111769685D02*
G01*
X91912084Y-111786319D01*
X97863181Y-117737416D01*
X97896666Y-117798739D01*
X97899500Y-117825097D01*
X97899500Y-132702682D01*
X97879815Y-132769721D01*
X97845675Y-132803139D01*
X97846440Y-132804192D01*
X97682753Y-132923115D01*
X97543115Y-133062753D01*
X97427058Y-133222495D01*
X97340485Y-133392403D01*
X97292510Y-133443199D01*
X97224689Y-133459994D01*
X97158554Y-133437456D01*
X97119515Y-133392403D01*
X97032944Y-133222499D01*
X97025486Y-133212234D01*
X96916884Y-133062753D01*
X96777246Y-132923115D01*
X96613560Y-132804192D01*
X96614599Y-132802761D01*
X96572833Y-132756593D01*
X96560500Y-132702682D01*
X96560500Y-126130945D01*
X96560500Y-126130943D01*
X96519577Y-125978216D01*
X96519577Y-125978215D01*
X96450118Y-125857909D01*
X96440520Y-125841284D01*
X96440519Y-125841283D01*
X96440518Y-125841281D01*
X96324397Y-125725160D01*
X96324374Y-125725139D01*
X92011818Y-121412583D01*
X91978333Y-121351260D01*
X91975499Y-121324902D01*
X91975499Y-120099998D01*
X91975498Y-120099981D01*
X91964999Y-119997203D01*
X91964998Y-119997200D01*
X91909814Y-119830666D01*
X91817712Y-119681344D01*
X91693656Y-119557288D01*
X91544334Y-119465186D01*
X91377797Y-119410001D01*
X91377795Y-119410000D01*
X91275010Y-119399500D01*
X89724998Y-119399500D01*
X89724981Y-119399501D01*
X89622203Y-119410000D01*
X89622200Y-119410001D01*
X89496489Y-119451658D01*
X89463503Y-119462589D01*
X89393676Y-119464991D01*
X89333634Y-119429259D01*
X89302441Y-119366739D01*
X89300500Y-119344883D01*
X89300500Y-116575096D01*
X89320185Y-116508057D01*
X89336815Y-116487419D01*
X89965974Y-115858259D01*
X90027295Y-115824776D01*
X90073047Y-115823469D01*
X90243713Y-115850500D01*
X90243714Y-115850500D01*
X90706286Y-115850500D01*
X90706287Y-115850500D01*
X90916243Y-115817246D01*
X91118412Y-115751557D01*
X91307816Y-115655051D01*
X91329789Y-115639086D01*
X91479786Y-115530109D01*
X91479788Y-115530106D01*
X91479792Y-115530104D01*
X91630104Y-115379792D01*
X91630106Y-115379788D01*
X91630109Y-115379786D01*
X91755048Y-115207820D01*
X91755047Y-115207820D01*
X91755051Y-115207816D01*
X91851557Y-115018412D01*
X91917246Y-114816243D01*
X91950500Y-114606287D01*
X91950500Y-114393713D01*
X91917246Y-114183757D01*
X91851557Y-113981588D01*
X91755051Y-113792184D01*
X91755049Y-113792181D01*
X91755048Y-113792179D01*
X91630109Y-113620213D01*
X91479790Y-113469894D01*
X91479785Y-113469890D01*
X91314781Y-113350008D01*
X91272115Y-113294678D01*
X91266136Y-113225065D01*
X91298741Y-113163270D01*
X91314781Y-113149371D01*
X91479466Y-113029721D01*
X91629723Y-112879464D01*
X91629727Y-112879459D01*
X91754620Y-112707557D01*
X91851095Y-112518217D01*
X91916757Y-112316129D01*
X91916757Y-112316126D01*
X91927231Y-112250000D01*
X90879146Y-112250000D01*
X90917630Y-112183343D01*
X90950000Y-112062535D01*
X90950000Y-111937465D01*
X90917630Y-111816657D01*
X90879146Y-111750000D01*
X91824403Y-111750000D01*
X91891442Y-111769685D01*
G37*
%TD.AperFunction*%
%TA.AperFunction,Conductor*%
G36*
X102550000Y-129577230D02*
G01*
X102616125Y-129566758D01*
X102817181Y-129501430D01*
X102887022Y-129499435D01*
X102946855Y-129535515D01*
X102977684Y-129598216D01*
X102979500Y-129619361D01*
X102979500Y-132702682D01*
X102959815Y-132769721D01*
X102925675Y-132803139D01*
X102926440Y-132804192D01*
X102762753Y-132923115D01*
X102623115Y-133062753D01*
X102507058Y-133222495D01*
X102420485Y-133392403D01*
X102372510Y-133443199D01*
X102304689Y-133459994D01*
X102238554Y-133437456D01*
X102199515Y-133392403D01*
X102112944Y-133222499D01*
X102105486Y-133212234D01*
X101996884Y-133062753D01*
X101857246Y-132923115D01*
X101693560Y-132804192D01*
X101694599Y-132802761D01*
X101652833Y-132756593D01*
X101640500Y-132702682D01*
X101640500Y-129625860D01*
X101660185Y-129558821D01*
X101712989Y-129513066D01*
X101782147Y-129503122D01*
X101802818Y-129507929D01*
X101983872Y-129566757D01*
X102050000Y-129577231D01*
X102050000Y-128533012D01*
X102107007Y-128565925D01*
X102234174Y-128600000D01*
X102365826Y-128600000D01*
X102492993Y-128565925D01*
X102550000Y-128533012D01*
X102550000Y-129577230D01*
G37*
%TD.AperFunction*%
%TD*%
M02*
