M48
; DRILL file KiCad 10.0.3 date 2026-06-03T20:15:05
; FORMAT={-:-/ absolute / inch / decimal}
; #@! TF.CreationDate,2026-06-03T20:15:05+09:00
; #@! TF.GenerationSoftware,Kicad,Pcbnew,10.0.3
; #@! TF.FileFunction,Plated,1,2,PTH
FMAT,2
INCH
; #@! TA.AperFunction,Plated,PTH,ViaDrill
T1C0.0118
; #@! TA.AperFunction,Plated,PTH,ComponentDrill
T2C0.0315
; #@! TA.AperFunction,Plated,PTH,ComponentDrill
T3C0.0374
; #@! TA.AperFunction,Plated,PTH,ComponentDrill
T4C0.0394
; #@! TA.AperFunction,Plated,PTH,ComponentDrill
T5C0.0866
%
G90
G05
T1
X3.563Y-4.6299
X3.7126Y-4.2244
X3.8031Y-4.6614
X3.8071Y-4.8661
X3.8307Y-5.0748
X4.0039Y-4.1378
X4.0276Y-5.189
X4.2165Y-4.063
X4.2205Y-4.6969
X4.2559Y-3.9173
X4.3504Y-5.1575
X4.3583Y-4.6969
X4.3583Y-4.9213
X4.3622Y-4.4173
X4.4134Y-5.3425
X4.4488Y-5.7165
X4.5079Y-5.9006
X4.5866Y-5.4724
X4.6339Y-5.7283
X4.7677Y-5.2165
X4.7913Y-5.9055
X4.8031Y-5.5748
T2
X4.4569Y-4.261
X4.4569Y-5.006
X4.5569Y-4.262
X4.5569Y-5.007
X4.8819Y-5.006
X4.8869Y-4.266
X4.9819Y-5.006
X4.9869Y-4.266
T3
X3.562Y-4.2126
X3.562Y-4.311
X3.562Y-4.4094
X3.562Y-4.5079
X3.563Y-4.7539
X3.563Y-4.8524
X3.563Y-4.9508
X3.563Y-5.0492
X3.8386Y-6.1201
X3.9016Y-3.9163
X3.937Y-6.1201
X4.0Y-3.9163
X4.0354Y-6.1201
X4.0984Y-3.9163
X4.1339Y-6.1201
X4.2323Y-6.1201
X4.4173Y-3.9163
X4.5157Y-3.9163
X4.6142Y-3.9163
X4.9409Y-5.2205
X4.9409Y-5.3189
X4.9409Y-5.4173
X4.9409Y-5.6811
X4.9409Y-5.7795
X4.9409Y-5.878
T4
X3.478Y-5.2709
X3.478Y-5.8709
X3.578Y-5.2709
X3.578Y-5.8709
X3.678Y-5.2709
X3.678Y-5.8709
X3.778Y-5.2709
X3.778Y-5.8709
X3.878Y-5.2709
X3.878Y-5.8709
X3.9515Y-4.5
X3.978Y-5.2709
X3.978Y-5.8709
X4.0276Y-5.0433
X4.078Y-5.2709
X4.078Y-5.8709
X4.126Y-5.0433
X4.1483Y-4.5
X4.178Y-5.2709
X4.178Y-5.8709
X4.278Y-5.2709
X4.278Y-5.3709
X4.278Y-5.4709
X4.278Y-5.5709
X4.278Y-5.6709
X4.278Y-5.7709
X4.278Y-5.8709
X4.5669Y-6.1211
X4.6654Y-6.1211
T5
X3.5433Y-3.937
X3.5433Y-6.1417
X4.9606Y-3.937
X4.9606Y-6.1417
M30
