%TF.GenerationSoftware,KiCad,Pcbnew,10.0.3*%
%TF.CreationDate,2026-06-03T20:15:05+09:00*%
%TF.ProjectId,pcb,7063622e-6b69-4636-9164-5f7063625858,rev?*%
%TF.SameCoordinates,Original*%
%TF.FileFunction,Soldermask,Top*%
%TF.FilePolarity,Negative*%
%FSLAX46Y46*%
G04 Gerber Fmt 4.6, Leading zero omitted, Abs format (unit mm)*
G04 Created by KiCad (PCBNEW 10.0.3) date 2026-06-03 20:15:05*
%MOMM*%
%LPD*%
G01*
G04 APERTURE LIST*
G04 Aperture macros list*
%AMRoundRect*
0 Rectangle with rounded corners*
0 $1 Rounding radius*
0 $2 $3 $4 $5 $6 $7 $8 $9 X,Y pos of 4 corners*
0 Add a 4 corners polygon primitive as box body*
4,1,4,$2,$3,$4,$5,$6,$7,$8,$9,$2,$3,0*
0 Add four circle primitives for the rounded corners*
1,1,$1+$1,$2,$3*
1,1,$1+$1,$4,$5*
1,1,$1+$1,$6,$7*
1,1,$1+$1,$8,$9*
0 Add four rect primitives between the rounded corners*
20,1,$1+$1,$2,$3,$4,$5,0*
20,1,$1+$1,$4,$5,$6,$7,0*
20,1,$1+$1,$6,$7,$8,$9,0*
20,1,$1+$1,$8,$9,$2,$3,0*%
G04 Aperture macros list end*
%ADD10RoundRect,0.250000X0.725000X-0.600000X0.725000X0.600000X-0.725000X0.600000X-0.725000X-0.600000X0*%
%ADD11O,1.950000X1.700000*%
%ADD12RoundRect,0.250000X-0.600000X-0.750000X0.600000X-0.750000X0.600000X0.750000X-0.600000X0.750000X0*%
%ADD13O,1.700000X2.000000*%
%ADD14RoundRect,0.250000X-0.350000X-0.450000X0.350000X-0.450000X0.350000X0.450000X-0.350000X0.450000X0*%
%ADD15RoundRect,0.250000X-0.725000X0.600000X-0.725000X-0.600000X0.725000X-0.600000X0.725000X0.600000X0*%
%ADD16RoundRect,0.250000X-0.475000X0.337500X-0.475000X-0.337500X0.475000X-0.337500X0.475000X0.337500X0*%
%ADD17C,4.400000*%
%ADD18RoundRect,0.250000X-0.450000X0.350000X-0.450000X-0.350000X0.450000X-0.350000X0.450000X0.350000X0*%
%ADD19RoundRect,0.250000X0.750000X0.750000X-0.750000X0.750000X-0.750000X-0.750000X0.750000X-0.750000X0*%
%ADD20C,2.000000*%
%ADD21RoundRect,0.150000X-0.587500X-0.150000X0.587500X-0.150000X0.587500X0.150000X-0.587500X0.150000X0*%
%ADD22RoundRect,0.250000X0.350000X0.450000X-0.350000X0.450000X-0.350000X-0.450000X0.350000X-0.450000X0*%
%ADD23RoundRect,0.250000X-0.600000X-0.725000X0.600000X-0.725000X0.600000X0.725000X-0.600000X0.725000X0*%
%ADD24O,1.700000X1.950000*%
%ADD25RoundRect,0.250000X0.600000X0.750000X-0.600000X0.750000X-0.600000X-0.750000X0.600000X-0.750000X0*%
%ADD26RoundRect,0.102000X0.754000X-0.754000X0.754000X0.754000X-0.754000X0.754000X-0.754000X-0.754000X0*%
%ADD27C,1.712000*%
%ADD28RoundRect,0.250000X0.450000X-0.350000X0.450000X0.350000X-0.450000X0.350000X-0.450000X-0.350000X0*%
G04 APERTURE END LIST*
D10*
%TO.C,J3*%
X125500000Y-137600000D03*
D11*
X125500000Y-135100000D03*
X125500000Y-132600000D03*
%TD*%
D12*
%TO.C,J1*%
X116000000Y-155475000D03*
D13*
X118500000Y-155475000D03*
%TD*%
D14*
%TO.C,R3*%
X113000000Y-139000000D03*
X115000000Y-139000000D03*
%TD*%
D15*
%TO.C,J7*%
X90500000Y-120750000D03*
D11*
X90500000Y-123250000D03*
X90500000Y-125750000D03*
X90500000Y-128250000D03*
%TD*%
D16*
%TO.C,C1*%
X113000000Y-147800000D03*
X113000000Y-149875000D03*
%TD*%
D15*
%TO.C,J8*%
X90475000Y-107000000D03*
D11*
X90475000Y-109500000D03*
X90475000Y-112000000D03*
X90475000Y-114500000D03*
%TD*%
D17*
%TO.C,H4*%
X126000000Y-156000000D03*
%TD*%
D18*
%TO.C,R2*%
X116000000Y-147800000D03*
X116000000Y-149800000D03*
%TD*%
D19*
%TO.C,C2*%
X105367677Y-114300000D03*
D20*
X100367677Y-114300000D03*
%TD*%
D21*
%TO.C,Q1*%
X113000000Y-142250000D03*
X113000000Y-144150000D03*
X114875000Y-143200000D03*
%TD*%
D10*
%TO.C,J6*%
X125500000Y-149300000D03*
D11*
X125500000Y-146800000D03*
X125500000Y-144300000D03*
%TD*%
D22*
%TO.C,R4*%
X120000000Y-140000000D03*
X118000000Y-140000000D03*
%TD*%
D14*
%TO.C,R5*%
X118000000Y-143200000D03*
X120000000Y-143200000D03*
%TD*%
D23*
%TO.C,J5*%
X99100000Y-99475000D03*
D24*
X101600000Y-99475000D03*
X104100000Y-99475000D03*
%TD*%
D23*
%TO.C,J4*%
X112200000Y-99475000D03*
D24*
X114700000Y-99475000D03*
X117200000Y-99475000D03*
%TD*%
D17*
%TO.C,H3*%
X90000000Y-156000000D03*
%TD*%
D23*
%TO.C,J9*%
X97500000Y-155450000D03*
D24*
X100000000Y-155450000D03*
X102500000Y-155450000D03*
X105000000Y-155450000D03*
X107500000Y-155450000D03*
%TD*%
D17*
%TO.C,H1*%
X90000000Y-100000000D03*
%TD*%
D25*
%TO.C,J2*%
X104800000Y-128100000D03*
D13*
X102300000Y-128100000D03*
%TD*%
D26*
%TO.C,U1*%
X88340000Y-133880000D03*
D27*
X90880000Y-133880000D03*
X93420000Y-133880000D03*
X95960000Y-133880000D03*
X98500000Y-133880000D03*
X101040000Y-133880000D03*
X103580000Y-133880000D03*
X106120000Y-133880000D03*
X108660000Y-133880000D03*
X108660000Y-136420000D03*
X108660000Y-138960000D03*
X108660000Y-141500000D03*
X108660000Y-144040000D03*
X108660000Y-146580000D03*
X108660000Y-149120000D03*
X106120000Y-149120000D03*
X103580000Y-149120000D03*
X101040000Y-149120000D03*
X98500000Y-149120000D03*
X95960000Y-149120000D03*
X93420000Y-149120000D03*
X90880000Y-149120000D03*
X88340000Y-149120000D03*
%TD*%
D17*
%TO.C,H2*%
X126000000Y-100000000D03*
%TD*%
D28*
%TO.C,R1*%
X119000000Y-149800000D03*
X119000000Y-147800000D03*
%TD*%
M02*
