%TF.GenerationSoftware,KiCad,Pcbnew,10.0.3*%
%TF.CreationDate,2026-06-04T19:53:53+09:00*%
%TF.ProjectId,fsk-traffic,66736b2d-7472-4616-9666-69632e6b6963,rev?*%
%TF.SameCoordinates,Original*%
%TF.FileFunction,Paste,Top*%
%TF.FilePolarity,Positive*%
%FSLAX46Y46*%
G04 Gerber Fmt 4.6, Leading zero omitted, Abs format (unit mm)*
G04 Created by KiCad (PCBNEW 10.0.3) date 2026-06-04 19:53:53*
%MOMM*%
%LPD*%
G01*
G04 APERTURE LIST*
G04 Aperture macros list*
%AMRoundRect*
0 Rectangle with rounded corners*
0 $1 Rounding radius*
0 $2 $3 $4 $5 $6 $7 $8 $9 X,Y pos of 4 corners*
0 Add a 4 corners polygon primitive as box body*
4,1,4,$2,$3,$4,$5,$6,$7,$8,$9,$2,$3,0*
0 Add four circle primitives for the rounded corners*
1,1,$1+$1,$2,$3*
1,1,$1+$1,$4,$5*
1,1,$1+$1,$6,$7*
1,1,$1+$1,$8,$9*
0 Add four rect primitives between the rounded corners*
20,1,$1+$1,$2,$3,$4,$5,0*
20,1,$1+$1,$4,$5,$6,$7,0*
20,1,$1+$1,$6,$7,$8,$9,0*
20,1,$1+$1,$8,$9,$2,$3,0*%
G04 Aperture macros list end*
%ADD10RoundRect,0.250000X0.925000X1.500000X-0.925000X1.500000X-0.925000X-1.500000X0.925000X-1.500000X0*%
%ADD11RoundRect,0.225000X-0.250000X0.225000X-0.250000X-0.225000X0.250000X-0.225000X0.250000X0.225000X0*%
%ADD12RoundRect,0.200000X-0.200000X-0.275000X0.200000X-0.275000X0.200000X0.275000X-0.200000X0.275000X0*%
%ADD13RoundRect,0.150000X0.587500X0.150000X-0.587500X0.150000X-0.587500X-0.150000X0.587500X-0.150000X0*%
%ADD14RoundRect,0.150000X0.150000X-0.587500X0.150000X0.587500X-0.150000X0.587500X-0.150000X-0.587500X0*%
%ADD15RoundRect,0.225000X-0.225000X-0.250000X0.225000X-0.250000X0.225000X0.250000X-0.225000X0.250000X0*%
%ADD16RoundRect,0.200000X-0.275000X0.200000X-0.275000X-0.200000X0.275000X-0.200000X0.275000X0.200000X0*%
%ADD17RoundRect,0.250003X-3.499997X-2.999997X3.499997X-2.999997X3.499997X2.999997X-3.499997X2.999997X0*%
%ADD18RoundRect,0.225000X-0.225000X-0.375000X0.225000X-0.375000X0.225000X0.375000X-0.225000X0.375000X0*%
%ADD19RoundRect,0.150000X-0.512500X-0.150000X0.512500X-0.150000X0.512500X0.150000X-0.512500X0.150000X0*%
%ADD20RoundRect,0.225000X0.250000X-0.225000X0.250000X0.225000X-0.250000X0.225000X-0.250000X-0.225000X0*%
%ADD21R,2.000000X1.500000*%
G04 APERTURE END LIST*
D10*
%TO.C,L1*%
X131750000Y-156200000D03*
X125700000Y-156200000D03*
%TD*%
D11*
%TO.C,C1*%
X181094699Y-150442499D03*
X181094699Y-151992499D03*
%TD*%
D12*
%TO.C,R7*%
X133336500Y-143131413D03*
X134986500Y-143131413D03*
%TD*%
%TO.C,R6*%
X120969074Y-146330400D03*
X122619074Y-146330400D03*
%TD*%
%TO.C,R5*%
X133324300Y-147229600D03*
X134974300Y-147229600D03*
%TD*%
D13*
%TO.C,Q4*%
X126400000Y-142151013D03*
X126400000Y-140251013D03*
X124525000Y-141201013D03*
%TD*%
D14*
%TO.C,D2*%
X131175000Y-137087500D03*
X133075000Y-137087500D03*
X132125000Y-135212500D03*
%TD*%
D15*
%TO.C,C4*%
X125613200Y-162552400D03*
X127163200Y-162552400D03*
%TD*%
D16*
%TO.C,R4*%
X128300000Y-137025000D03*
X128300000Y-138675000D03*
%TD*%
D12*
%TO.C,R1*%
X125664800Y-164940000D03*
X127314800Y-164940000D03*
%TD*%
D11*
%TO.C,C3*%
X133652600Y-161550350D03*
X133652600Y-163100350D03*
%TD*%
D17*
%TO.C,BT1*%
X102245200Y-121920000D03*
X181625200Y-121920000D03*
%TD*%
D18*
%TO.C,D1*%
X119658200Y-156200000D03*
X122958200Y-156200000D03*
%TD*%
D13*
%TO.C,Q3*%
X130898100Y-143101013D03*
X130898100Y-141201013D03*
X129023100Y-142151013D03*
%TD*%
D19*
%TO.C,U3*%
X129467100Y-161537500D03*
X129467100Y-162487500D03*
X129467100Y-163437500D03*
X131742100Y-163437500D03*
X131742100Y-161537500D03*
%TD*%
D15*
%TO.C,C6*%
X125714800Y-166768800D03*
X127264800Y-166768800D03*
%TD*%
D12*
%TO.C,R2*%
X128966800Y-164940000D03*
X130616800Y-164940000D03*
%TD*%
D20*
%TO.C,C5*%
X137100000Y-140775000D03*
X137100000Y-139225000D03*
%TD*%
D12*
%TO.C,R8*%
X120979900Y-142166213D03*
X122629900Y-142166213D03*
%TD*%
D21*
%TO.C,U2*%
X178332400Y-154421600D03*
X178332400Y-152421600D03*
X178332400Y-150421600D03*
X178332400Y-148421600D03*
X178332400Y-146421600D03*
X178332400Y-144421600D03*
X178332400Y-142421600D03*
X178332400Y-140421600D03*
X162332400Y-140421600D03*
X162332400Y-142421600D03*
X162332400Y-144421600D03*
X162332400Y-146421600D03*
X162332400Y-148421600D03*
X162332400Y-150421600D03*
X162332400Y-152421600D03*
X162332400Y-154421600D03*
%TD*%
D13*
%TO.C,Q1*%
X130898100Y-147229600D03*
X130898100Y-145329600D03*
X129023100Y-146279600D03*
%TD*%
D12*
%TO.C,R3*%
X126675000Y-135200000D03*
X128325000Y-135200000D03*
%TD*%
D13*
%TO.C,Q2*%
X126400000Y-146300000D03*
X126400000Y-144400000D03*
X124525000Y-145350000D03*
%TD*%
D11*
%TO.C,C2*%
X182974299Y-150442499D03*
X182974299Y-151992499D03*
%TD*%
M02*
