%TF.GenerationSoftware,KiCad,Pcbnew,10.0.3*%
%TF.CreationDate,2026-06-04T19:53:53+09:00*%
%TF.ProjectId,fsk-traffic,66736b2d-7472-4616-9666-69632e6b6963,rev?*%
%TF.SameCoordinates,Original*%
%TF.FileFunction,Legend,Bot*%
%TF.FilePolarity,Positive*%
%FSLAX46Y46*%
G04 Gerber Fmt 4.6, Leading zero omitted, Abs format (unit mm)*
G04 Created by KiCad (PCBNEW 10.0.3) date 2026-06-04 19:53:53*
%MOMM*%
%LPD*%
G01*
G04 APERTURE LIST*
G04 Aperture macros list*
%AMRoundRect*
0 Rectangle with rounded corners*
0 $1 Rounding radius*
0 $2 $3 $4 $5 $6 $7 $8 $9 X,Y pos of 4 corners*
0 Add a 4 corners polygon primitive as box body*
4,1,4,$2,$3,$4,$5,$6,$7,$8,$9,$2,$3,0*
0 Add four circle primitives for the rounded corners*
1,1,$1+$1,$2,$3*
1,1,$1+$1,$4,$5*
1,1,$1+$1,$6,$7*
1,1,$1+$1,$8,$9*
0 Add four rect primitives between the rounded corners*
20,1,$1+$1,$2,$3,$4,$5,0*
20,1,$1+$1,$4,$5,$6,$7,0*
20,1,$1+$1,$6,$7,$8,$9,0*
20,1,$1+$1,$8,$9,$2,$3,0*%
G04 Aperture macros list end*
%ADD10C,4.400000*%
%ADD11C,3.000000*%
%ADD12RoundRect,0.250001X1.599999X-1.099999X1.599999X1.099999X-1.599999X1.099999X-1.599999X-1.099999X0*%
%ADD13O,3.700000X2.700000*%
%ADD14C,1.600000*%
%ADD15C,1.574800*%
%ADD16C,2.390000*%
%ADD17C,3.450000*%
G04 APERTURE END LIST*
%LPC*%
D10*
%TO.C,REF\u002A\u002A*%
X99000000Y-165000000D03*
%TD*%
D11*
%TO.C,J1*%
X99400000Y-138550000D03*
D12*
X106700000Y-140650000D03*
D13*
X106700000Y-136450000D03*
X112200000Y-140650000D03*
X112200000Y-136450000D03*
%TD*%
D14*
%TO.C,U1*%
X155711559Y-163654148D03*
X155711559Y-161114148D03*
X155711559Y-158574148D03*
X155711559Y-156034148D03*
X155711559Y-153494148D03*
X155711559Y-150954148D03*
X155711559Y-148414148D03*
X155711559Y-145874148D03*
X155711559Y-143334148D03*
X155711559Y-140794148D03*
X155711559Y-138254148D03*
X155711559Y-135714148D03*
X140471549Y-163654158D03*
X140471549Y-161114158D03*
X140471549Y-158574158D03*
X140471549Y-156034158D03*
X140471549Y-153494158D03*
X140471549Y-150954158D03*
X140471549Y-148414158D03*
X140471549Y-145874158D03*
X140471549Y-143334158D03*
X140471549Y-140794158D03*
X140471549Y-138254158D03*
X140471549Y-135714158D03*
D15*
X152631559Y-138808948D03*
X150091559Y-138808948D03*
X147551559Y-138808948D03*
D14*
X155711559Y-166194148D03*
X140471549Y-166194158D03*
%TD*%
D10*
%TO.C,REF\u002A\u002A*%
X185000000Y-165000000D03*
%TD*%
D16*
%TO.C,BT1*%
X105805200Y-113920000D03*
D17*
X114315200Y-129920000D03*
X169555200Y-113920000D03*
%TD*%
D10*
%TO.C,REF\u002A\u002A*%
X99000000Y-114000000D03*
%TD*%
%TO.C,REF\u002A\u002A*%
X185000000Y-114000000D03*
%TD*%
D11*
%TO.C,J2*%
X99400000Y-150750000D03*
D12*
X106700000Y-152850000D03*
D13*
X106700000Y-148650000D03*
X112200000Y-152850000D03*
X112200000Y-148650000D03*
%TD*%
%LPD*%
M02*
