%TF.GenerationSoftware,KiCad,Pcbnew,10.0.3*%
%TF.CreationDate,2026-06-04T19:53:53+09:00*%
%TF.ProjectId,fsk-traffic,66736b2d-7472-4616-9666-69632e6b6963,rev?*%
%TF.SameCoordinates,Original*%
%TF.FileFunction,Legend,Top*%
%TF.FilePolarity,Positive*%
%FSLAX46Y46*%
G04 Gerber Fmt 4.6, Leading zero omitted, Abs format (unit mm)*
G04 Created by KiCad (PCBNEW 10.0.3) date 2026-06-04 19:53:53*
%MOMM*%
%LPD*%
G01*
G04 APERTURE LIST*
G04 Aperture macros list*
%AMRoundRect*
0 Rectangle with rounded corners*
0 $1 Rounding radius*
0 $2 $3 $4 $5 $6 $7 $8 $9 X,Y pos of 4 corners*
0 Add a 4 corners polygon primitive as box body*
4,1,4,$2,$3,$4,$5,$6,$7,$8,$9,$2,$3,0*
0 Add four circle primitives for the rounded corners*
1,1,$1+$1,$2,$3*
1,1,$1+$1,$4,$5*
1,1,$1+$1,$6,$7*
1,1,$1+$1,$8,$9*
0 Add four rect primitives between the rounded corners*
20,1,$1+$1,$2,$3,$4,$5,0*
20,1,$1+$1,$4,$5,$6,$7,0*
20,1,$1+$1,$6,$7,$8,$9,0*
20,1,$1+$1,$8,$9,$2,$3,0*%
G04 Aperture macros list end*
%ADD10C,0.150000*%
%ADD11C,0.100000*%
%ADD12C,0.000000*%
%ADD13C,0.120000*%
%ADD14C,0.254000*%
%ADD15C,0.200000*%
%ADD16RoundRect,0.250000X0.925000X1.500000X-0.925000X1.500000X-0.925000X-1.500000X0.925000X-1.500000X0*%
%ADD17C,4.400000*%
%ADD18RoundRect,0.225000X-0.250000X0.225000X-0.250000X-0.225000X0.250000X-0.225000X0.250000X0.225000X0*%
%ADD19RoundRect,0.200000X-0.200000X-0.275000X0.200000X-0.275000X0.200000X0.275000X-0.200000X0.275000X0*%
%ADD20C,3.000000*%
%ADD21RoundRect,0.250001X1.599999X-1.099999X1.599999X1.099999X-1.599999X1.099999X-1.599999X-1.099999X0*%
%ADD22O,3.700000X2.700000*%
%ADD23RoundRect,0.150000X0.587500X0.150000X-0.587500X0.150000X-0.587500X-0.150000X0.587500X-0.150000X0*%
%ADD24RoundRect,0.150000X0.150000X-0.587500X0.150000X0.587500X-0.150000X0.587500X-0.150000X-0.587500X0*%
%ADD25C,1.600000*%
%ADD26C,1.574800*%
%ADD27RoundRect,0.225000X-0.225000X-0.250000X0.225000X-0.250000X0.225000X0.250000X-0.225000X0.250000X0*%
%ADD28RoundRect,0.200000X-0.275000X0.200000X-0.275000X-0.200000X0.275000X-0.200000X0.275000X0.200000X0*%
%ADD29C,2.390000*%
%ADD30C,3.450000*%
%ADD31RoundRect,0.250003X-3.499997X-2.999997X3.499997X-2.999997X3.499997X2.999997X-3.499997X2.999997X0*%
%ADD32RoundRect,0.225000X-0.225000X-0.375000X0.225000X-0.375000X0.225000X0.375000X-0.225000X0.375000X0*%
%ADD33RoundRect,0.150000X-0.512500X-0.150000X0.512500X-0.150000X0.512500X0.150000X-0.512500X0.150000X0*%
%ADD34RoundRect,0.225000X0.250000X-0.225000X0.250000X0.225000X-0.250000X0.225000X-0.250000X-0.225000X0*%
%ADD35R,2.000000X1.500000*%
G04 APERTURE END LIST*
D10*
X103520112Y-165696009D02*
X103186779Y-165696009D01*
X103186779Y-166219819D02*
X103186779Y-165219819D01*
X103186779Y-165219819D02*
X103662969Y-165219819D01*
X103996303Y-166172200D02*
X104139160Y-166219819D01*
X104139160Y-166219819D02*
X104377255Y-166219819D01*
X104377255Y-166219819D02*
X104472493Y-166172200D01*
X104472493Y-166172200D02*
X104520112Y-166124580D01*
X104520112Y-166124580D02*
X104567731Y-166029342D01*
X104567731Y-166029342D02*
X104567731Y-165934104D01*
X104567731Y-165934104D02*
X104520112Y-165838866D01*
X104520112Y-165838866D02*
X104472493Y-165791247D01*
X104472493Y-165791247D02*
X104377255Y-165743628D01*
X104377255Y-165743628D02*
X104186779Y-165696009D01*
X104186779Y-165696009D02*
X104091541Y-165648390D01*
X104091541Y-165648390D02*
X104043922Y-165600771D01*
X104043922Y-165600771D02*
X103996303Y-165505533D01*
X103996303Y-165505533D02*
X103996303Y-165410295D01*
X103996303Y-165410295D02*
X104043922Y-165315057D01*
X104043922Y-165315057D02*
X104091541Y-165267438D01*
X104091541Y-165267438D02*
X104186779Y-165219819D01*
X104186779Y-165219819D02*
X104424874Y-165219819D01*
X104424874Y-165219819D02*
X104567731Y-165267438D01*
X104996303Y-166219819D02*
X104996303Y-165219819D01*
X105567731Y-166219819D02*
X105139160Y-165648390D01*
X105567731Y-165219819D02*
X104996303Y-165791247D01*
X105996303Y-165838866D02*
X106758208Y-165838866D01*
X107091541Y-165219819D02*
X107662969Y-165219819D01*
X107377255Y-166219819D02*
X107377255Y-165219819D01*
X108567731Y-166219819D02*
X108234398Y-165743628D01*
X107996303Y-166219819D02*
X107996303Y-165219819D01*
X107996303Y-165219819D02*
X108377255Y-165219819D01*
X108377255Y-165219819D02*
X108472493Y-165267438D01*
X108472493Y-165267438D02*
X108520112Y-165315057D01*
X108520112Y-165315057D02*
X108567731Y-165410295D01*
X108567731Y-165410295D02*
X108567731Y-165553152D01*
X108567731Y-165553152D02*
X108520112Y-165648390D01*
X108520112Y-165648390D02*
X108472493Y-165696009D01*
X108472493Y-165696009D02*
X108377255Y-165743628D01*
X108377255Y-165743628D02*
X107996303Y-165743628D01*
X108948684Y-165934104D02*
X109424874Y-165934104D01*
X108853446Y-166219819D02*
X109186779Y-165219819D01*
X109186779Y-165219819D02*
X109520112Y-166219819D01*
X110186779Y-165696009D02*
X109853446Y-165696009D01*
X109853446Y-166219819D02*
X109853446Y-165219819D01*
X109853446Y-165219819D02*
X110329636Y-165219819D01*
X111043922Y-165696009D02*
X110710589Y-165696009D01*
X110710589Y-166219819D02*
X110710589Y-165219819D01*
X110710589Y-165219819D02*
X111186779Y-165219819D01*
X111567732Y-166219819D02*
X111567732Y-165219819D01*
X112615350Y-166124580D02*
X112567731Y-166172200D01*
X112567731Y-166172200D02*
X112424874Y-166219819D01*
X112424874Y-166219819D02*
X112329636Y-166219819D01*
X112329636Y-166219819D02*
X112186779Y-166172200D01*
X112186779Y-166172200D02*
X112091541Y-166076961D01*
X112091541Y-166076961D02*
X112043922Y-165981723D01*
X112043922Y-165981723D02*
X111996303Y-165791247D01*
X111996303Y-165791247D02*
X111996303Y-165648390D01*
X111996303Y-165648390D02*
X112043922Y-165457914D01*
X112043922Y-165457914D02*
X112091541Y-165362676D01*
X112091541Y-165362676D02*
X112186779Y-165267438D01*
X112186779Y-165267438D02*
X112329636Y-165219819D01*
X112329636Y-165219819D02*
X112424874Y-165219819D01*
X112424874Y-165219819D02*
X112567731Y-165267438D01*
X112567731Y-165267438D02*
X112615350Y-165315057D01*
X113710589Y-165553152D02*
X113948684Y-166219819D01*
X113948684Y-166219819D02*
X114186779Y-165553152D01*
X114520113Y-165315057D02*
X114567732Y-165267438D01*
X114567732Y-165267438D02*
X114662970Y-165219819D01*
X114662970Y-165219819D02*
X114901065Y-165219819D01*
X114901065Y-165219819D02*
X114996303Y-165267438D01*
X114996303Y-165267438D02*
X115043922Y-165315057D01*
X115043922Y-165315057D02*
X115091541Y-165410295D01*
X115091541Y-165410295D02*
X115091541Y-165505533D01*
X115091541Y-165505533D02*
X115043922Y-165648390D01*
X115043922Y-165648390D02*
X114472494Y-166219819D01*
X114472494Y-166219819D02*
X115091541Y-166219819D01*
D11*
X128625000Y-152172371D02*
X128339286Y-152172371D01*
X128339286Y-152172371D02*
X128339286Y-151572371D01*
X129139285Y-152172371D02*
X128796428Y-152172371D01*
X128967857Y-152172371D02*
X128967857Y-151572371D01*
X128967857Y-151572371D02*
X128910714Y-151658085D01*
X128910714Y-151658085D02*
X128853571Y-151715228D01*
X128853571Y-151715228D02*
X128796428Y-151743800D01*
X181000000Y-149315228D02*
X180971428Y-149343800D01*
X180971428Y-149343800D02*
X180885714Y-149372371D01*
X180885714Y-149372371D02*
X180828571Y-149372371D01*
X180828571Y-149372371D02*
X180742857Y-149343800D01*
X180742857Y-149343800D02*
X180685714Y-149286657D01*
X180685714Y-149286657D02*
X180657143Y-149229514D01*
X180657143Y-149229514D02*
X180628571Y-149115228D01*
X180628571Y-149115228D02*
X180628571Y-149029514D01*
X180628571Y-149029514D02*
X180657143Y-148915228D01*
X180657143Y-148915228D02*
X180685714Y-148858085D01*
X180685714Y-148858085D02*
X180742857Y-148800942D01*
X180742857Y-148800942D02*
X180828571Y-148772371D01*
X180828571Y-148772371D02*
X180885714Y-148772371D01*
X180885714Y-148772371D02*
X180971428Y-148800942D01*
X180971428Y-148800942D02*
X181000000Y-148829514D01*
X181571428Y-149372371D02*
X181228571Y-149372371D01*
X181400000Y-149372371D02*
X181400000Y-148772371D01*
X181400000Y-148772371D02*
X181342857Y-148858085D01*
X181342857Y-148858085D02*
X181285714Y-148915228D01*
X181285714Y-148915228D02*
X181228571Y-148943800D01*
X134061500Y-141973784D02*
X133861500Y-141688070D01*
X133718643Y-141973784D02*
X133718643Y-141373784D01*
X133718643Y-141373784D02*
X133947214Y-141373784D01*
X133947214Y-141373784D02*
X134004357Y-141402355D01*
X134004357Y-141402355D02*
X134032928Y-141430927D01*
X134032928Y-141430927D02*
X134061500Y-141488070D01*
X134061500Y-141488070D02*
X134061500Y-141573784D01*
X134061500Y-141573784D02*
X134032928Y-141630927D01*
X134032928Y-141630927D02*
X134004357Y-141659498D01*
X134004357Y-141659498D02*
X133947214Y-141688070D01*
X133947214Y-141688070D02*
X133718643Y-141688070D01*
X134261500Y-141373784D02*
X134661500Y-141373784D01*
X134661500Y-141373784D02*
X134404357Y-141973784D01*
X121694074Y-145172771D02*
X121494074Y-144887057D01*
X121351217Y-145172771D02*
X121351217Y-144572771D01*
X121351217Y-144572771D02*
X121579788Y-144572771D01*
X121579788Y-144572771D02*
X121636931Y-144601342D01*
X121636931Y-144601342D02*
X121665502Y-144629914D01*
X121665502Y-144629914D02*
X121694074Y-144687057D01*
X121694074Y-144687057D02*
X121694074Y-144772771D01*
X121694074Y-144772771D02*
X121665502Y-144829914D01*
X121665502Y-144829914D02*
X121636931Y-144858485D01*
X121636931Y-144858485D02*
X121579788Y-144887057D01*
X121579788Y-144887057D02*
X121351217Y-144887057D01*
X122208360Y-144572771D02*
X122094074Y-144572771D01*
X122094074Y-144572771D02*
X122036931Y-144601342D01*
X122036931Y-144601342D02*
X122008360Y-144629914D01*
X122008360Y-144629914D02*
X121951217Y-144715628D01*
X121951217Y-144715628D02*
X121922645Y-144829914D01*
X121922645Y-144829914D02*
X121922645Y-145058485D01*
X121922645Y-145058485D02*
X121951217Y-145115628D01*
X121951217Y-145115628D02*
X121979788Y-145144200D01*
X121979788Y-145144200D02*
X122036931Y-145172771D01*
X122036931Y-145172771D02*
X122151217Y-145172771D01*
X122151217Y-145172771D02*
X122208360Y-145144200D01*
X122208360Y-145144200D02*
X122236931Y-145115628D01*
X122236931Y-145115628D02*
X122265502Y-145058485D01*
X122265502Y-145058485D02*
X122265502Y-144915628D01*
X122265502Y-144915628D02*
X122236931Y-144858485D01*
X122236931Y-144858485D02*
X122208360Y-144829914D01*
X122208360Y-144829914D02*
X122151217Y-144801342D01*
X122151217Y-144801342D02*
X122036931Y-144801342D01*
X122036931Y-144801342D02*
X121979788Y-144829914D01*
X121979788Y-144829914D02*
X121951217Y-144858485D01*
X121951217Y-144858485D02*
X121922645Y-144915628D01*
D10*
X116507200Y-141311904D02*
X116554819Y-141169047D01*
X116554819Y-141169047D02*
X116554819Y-140930952D01*
X116554819Y-140930952D02*
X116507200Y-140835714D01*
X116507200Y-140835714D02*
X116459580Y-140788095D01*
X116459580Y-140788095D02*
X116364342Y-140740476D01*
X116364342Y-140740476D02*
X116269104Y-140740476D01*
X116269104Y-140740476D02*
X116173866Y-140788095D01*
X116173866Y-140788095D02*
X116126247Y-140835714D01*
X116126247Y-140835714D02*
X116078628Y-140930952D01*
X116078628Y-140930952D02*
X116031009Y-141121428D01*
X116031009Y-141121428D02*
X115983390Y-141216666D01*
X115983390Y-141216666D02*
X115935771Y-141264285D01*
X115935771Y-141264285D02*
X115840533Y-141311904D01*
X115840533Y-141311904D02*
X115745295Y-141311904D01*
X115745295Y-141311904D02*
X115650057Y-141264285D01*
X115650057Y-141264285D02*
X115602438Y-141216666D01*
X115602438Y-141216666D02*
X115554819Y-141121428D01*
X115554819Y-141121428D02*
X115554819Y-140883333D01*
X115554819Y-140883333D02*
X115602438Y-140740476D01*
X116031009Y-140311904D02*
X116031009Y-139978571D01*
X116554819Y-139835714D02*
X116554819Y-140311904D01*
X116554819Y-140311904D02*
X115554819Y-140311904D01*
X115554819Y-140311904D02*
X115554819Y-139835714D01*
X116554819Y-139407142D02*
X115554819Y-139407142D01*
X115554819Y-139407142D02*
X116554819Y-138835714D01*
X116554819Y-138835714D02*
X115554819Y-138835714D01*
X116507200Y-138407142D02*
X116554819Y-138264285D01*
X116554819Y-138264285D02*
X116554819Y-138026190D01*
X116554819Y-138026190D02*
X116507200Y-137930952D01*
X116507200Y-137930952D02*
X116459580Y-137883333D01*
X116459580Y-137883333D02*
X116364342Y-137835714D01*
X116364342Y-137835714D02*
X116269104Y-137835714D01*
X116269104Y-137835714D02*
X116173866Y-137883333D01*
X116173866Y-137883333D02*
X116126247Y-137930952D01*
X116126247Y-137930952D02*
X116078628Y-138026190D01*
X116078628Y-138026190D02*
X116031009Y-138216666D01*
X116031009Y-138216666D02*
X115983390Y-138311904D01*
X115983390Y-138311904D02*
X115935771Y-138359523D01*
X115935771Y-138359523D02*
X115840533Y-138407142D01*
X115840533Y-138407142D02*
X115745295Y-138407142D01*
X115745295Y-138407142D02*
X115650057Y-138359523D01*
X115650057Y-138359523D02*
X115602438Y-138311904D01*
X115602438Y-138311904D02*
X115554819Y-138216666D01*
X115554819Y-138216666D02*
X115554819Y-137978571D01*
X115554819Y-137978571D02*
X115602438Y-137835714D01*
X115554819Y-137216666D02*
X115554819Y-137026190D01*
X115554819Y-137026190D02*
X115602438Y-136930952D01*
X115602438Y-136930952D02*
X115697676Y-136835714D01*
X115697676Y-136835714D02*
X115888152Y-136788095D01*
X115888152Y-136788095D02*
X116221485Y-136788095D01*
X116221485Y-136788095D02*
X116411961Y-136835714D01*
X116411961Y-136835714D02*
X116507200Y-136930952D01*
X116507200Y-136930952D02*
X116554819Y-137026190D01*
X116554819Y-137026190D02*
X116554819Y-137216666D01*
X116554819Y-137216666D02*
X116507200Y-137311904D01*
X116507200Y-137311904D02*
X116411961Y-137407142D01*
X116411961Y-137407142D02*
X116221485Y-137454761D01*
X116221485Y-137454761D02*
X115888152Y-137454761D01*
X115888152Y-137454761D02*
X115697676Y-137407142D01*
X115697676Y-137407142D02*
X115602438Y-137311904D01*
X115602438Y-137311904D02*
X115554819Y-137216666D01*
X116554819Y-135788095D02*
X116078628Y-136121428D01*
X116554819Y-136359523D02*
X115554819Y-136359523D01*
X115554819Y-136359523D02*
X115554819Y-135978571D01*
X115554819Y-135978571D02*
X115602438Y-135883333D01*
X115602438Y-135883333D02*
X115650057Y-135835714D01*
X115650057Y-135835714D02*
X115745295Y-135788095D01*
X115745295Y-135788095D02*
X115888152Y-135788095D01*
X115888152Y-135788095D02*
X115983390Y-135835714D01*
X115983390Y-135835714D02*
X116031009Y-135883333D01*
X116031009Y-135883333D02*
X116078628Y-135978571D01*
X116078628Y-135978571D02*
X116078628Y-136359523D01*
D11*
X134049300Y-146071971D02*
X133849300Y-145786257D01*
X133706443Y-146071971D02*
X133706443Y-145471971D01*
X133706443Y-145471971D02*
X133935014Y-145471971D01*
X133935014Y-145471971D02*
X133992157Y-145500542D01*
X133992157Y-145500542D02*
X134020728Y-145529114D01*
X134020728Y-145529114D02*
X134049300Y-145586257D01*
X134049300Y-145586257D02*
X134049300Y-145671971D01*
X134049300Y-145671971D02*
X134020728Y-145729114D01*
X134020728Y-145729114D02*
X133992157Y-145757685D01*
X133992157Y-145757685D02*
X133935014Y-145786257D01*
X133935014Y-145786257D02*
X133706443Y-145786257D01*
X134592157Y-145471971D02*
X134306443Y-145471971D01*
X134306443Y-145471971D02*
X134277871Y-145757685D01*
X134277871Y-145757685D02*
X134306443Y-145729114D01*
X134306443Y-145729114D02*
X134363586Y-145700542D01*
X134363586Y-145700542D02*
X134506443Y-145700542D01*
X134506443Y-145700542D02*
X134563586Y-145729114D01*
X134563586Y-145729114D02*
X134592157Y-145757685D01*
X134592157Y-145757685D02*
X134620728Y-145814828D01*
X134620728Y-145814828D02*
X134620728Y-145957685D01*
X134620728Y-145957685D02*
X134592157Y-146014828D01*
X134592157Y-146014828D02*
X134563586Y-146043400D01*
X134563586Y-146043400D02*
X134506443Y-146071971D01*
X134506443Y-146071971D02*
X134363586Y-146071971D01*
X134363586Y-146071971D02*
X134306443Y-146043400D01*
X134306443Y-146043400D02*
X134277871Y-146014828D01*
X125405357Y-139129514D02*
X125348214Y-139100942D01*
X125348214Y-139100942D02*
X125291071Y-139043800D01*
X125291071Y-139043800D02*
X125205357Y-138958085D01*
X125205357Y-138958085D02*
X125148214Y-138929514D01*
X125148214Y-138929514D02*
X125091071Y-138929514D01*
X125119642Y-139072371D02*
X125062500Y-139043800D01*
X125062500Y-139043800D02*
X125005357Y-138986657D01*
X125005357Y-138986657D02*
X124976785Y-138872371D01*
X124976785Y-138872371D02*
X124976785Y-138672371D01*
X124976785Y-138672371D02*
X125005357Y-138558085D01*
X125005357Y-138558085D02*
X125062500Y-138500942D01*
X125062500Y-138500942D02*
X125119642Y-138472371D01*
X125119642Y-138472371D02*
X125233928Y-138472371D01*
X125233928Y-138472371D02*
X125291071Y-138500942D01*
X125291071Y-138500942D02*
X125348214Y-138558085D01*
X125348214Y-138558085D02*
X125376785Y-138672371D01*
X125376785Y-138672371D02*
X125376785Y-138872371D01*
X125376785Y-138872371D02*
X125348214Y-138986657D01*
X125348214Y-138986657D02*
X125291071Y-139043800D01*
X125291071Y-139043800D02*
X125233928Y-139072371D01*
X125233928Y-139072371D02*
X125119642Y-139072371D01*
X125891071Y-138672371D02*
X125891071Y-139072371D01*
X125748213Y-138443800D02*
X125605356Y-138872371D01*
X125605356Y-138872371D02*
X125976785Y-138872371D01*
X130257143Y-134822371D02*
X130257143Y-134222371D01*
X130257143Y-134222371D02*
X130400000Y-134222371D01*
X130400000Y-134222371D02*
X130485714Y-134250942D01*
X130485714Y-134250942D02*
X130542857Y-134308085D01*
X130542857Y-134308085D02*
X130571428Y-134365228D01*
X130571428Y-134365228D02*
X130600000Y-134479514D01*
X130600000Y-134479514D02*
X130600000Y-134565228D01*
X130600000Y-134565228D02*
X130571428Y-134679514D01*
X130571428Y-134679514D02*
X130542857Y-134736657D01*
X130542857Y-134736657D02*
X130485714Y-134793800D01*
X130485714Y-134793800D02*
X130400000Y-134822371D01*
X130400000Y-134822371D02*
X130257143Y-134822371D01*
X130828571Y-134279514D02*
X130857143Y-134250942D01*
X130857143Y-134250942D02*
X130914286Y-134222371D01*
X130914286Y-134222371D02*
X131057143Y-134222371D01*
X131057143Y-134222371D02*
X131114286Y-134250942D01*
X131114286Y-134250942D02*
X131142857Y-134279514D01*
X131142857Y-134279514D02*
X131171428Y-134336657D01*
X131171428Y-134336657D02*
X131171428Y-134393800D01*
X131171428Y-134393800D02*
X131142857Y-134479514D01*
X131142857Y-134479514D02*
X130800000Y-134822371D01*
X130800000Y-134822371D02*
X131171428Y-134822371D01*
X137822371Y-167064286D02*
X138222371Y-167064286D01*
X137879514Y-167064286D02*
X137850942Y-167035715D01*
X137850942Y-167035715D02*
X137822371Y-166978572D01*
X137822371Y-166978572D02*
X137822371Y-166892858D01*
X137822371Y-166892858D02*
X137850942Y-166835715D01*
X137850942Y-166835715D02*
X137908085Y-166807144D01*
X137908085Y-166807144D02*
X138222371Y-166807144D01*
X138222371Y-166178572D02*
X137936657Y-166378572D01*
X138222371Y-166521429D02*
X137622371Y-166521429D01*
X137622371Y-166521429D02*
X137622371Y-166292858D01*
X137622371Y-166292858D02*
X137650942Y-166235715D01*
X137650942Y-166235715D02*
X137679514Y-166207144D01*
X137679514Y-166207144D02*
X137736657Y-166178572D01*
X137736657Y-166178572D02*
X137822371Y-166178572D01*
X137822371Y-166178572D02*
X137879514Y-166207144D01*
X137879514Y-166207144D02*
X137908085Y-166235715D01*
X137908085Y-166235715D02*
X137936657Y-166292858D01*
X137936657Y-166292858D02*
X137936657Y-166521429D01*
X137908085Y-165721429D02*
X137908085Y-165921429D01*
X138222371Y-165921429D02*
X137622371Y-165921429D01*
X137622371Y-165921429D02*
X137622371Y-165635715D01*
X137622371Y-165121429D02*
X137622371Y-165407143D01*
X137622371Y-165407143D02*
X137908085Y-165435715D01*
X137908085Y-165435715D02*
X137879514Y-165407143D01*
X137879514Y-165407143D02*
X137850942Y-165350001D01*
X137850942Y-165350001D02*
X137850942Y-165207143D01*
X137850942Y-165207143D02*
X137879514Y-165150001D01*
X137879514Y-165150001D02*
X137908085Y-165121429D01*
X137908085Y-165121429D02*
X137965228Y-165092858D01*
X137965228Y-165092858D02*
X138108085Y-165092858D01*
X138108085Y-165092858D02*
X138165228Y-165121429D01*
X138165228Y-165121429D02*
X138193800Y-165150001D01*
X138193800Y-165150001D02*
X138222371Y-165207143D01*
X138222371Y-165207143D02*
X138222371Y-165350001D01*
X138222371Y-165350001D02*
X138193800Y-165407143D01*
X138193800Y-165407143D02*
X138165228Y-165435715D01*
X137679514Y-164864286D02*
X137650942Y-164835714D01*
X137650942Y-164835714D02*
X137622371Y-164778572D01*
X137622371Y-164778572D02*
X137622371Y-164635714D01*
X137622371Y-164635714D02*
X137650942Y-164578572D01*
X137650942Y-164578572D02*
X137679514Y-164550000D01*
X137679514Y-164550000D02*
X137736657Y-164521429D01*
X137736657Y-164521429D02*
X137793800Y-164521429D01*
X137793800Y-164521429D02*
X137879514Y-164550000D01*
X137879514Y-164550000D02*
X138222371Y-164892857D01*
X138222371Y-164892857D02*
X138222371Y-164521429D01*
X137879514Y-164178571D02*
X137850942Y-164235714D01*
X137850942Y-164235714D02*
X137822371Y-164264285D01*
X137822371Y-164264285D02*
X137765228Y-164292857D01*
X137765228Y-164292857D02*
X137736657Y-164292857D01*
X137736657Y-164292857D02*
X137679514Y-164264285D01*
X137679514Y-164264285D02*
X137650942Y-164235714D01*
X137650942Y-164235714D02*
X137622371Y-164178571D01*
X137622371Y-164178571D02*
X137622371Y-164064285D01*
X137622371Y-164064285D02*
X137650942Y-164007143D01*
X137650942Y-164007143D02*
X137679514Y-163978571D01*
X137679514Y-163978571D02*
X137736657Y-163950000D01*
X137736657Y-163950000D02*
X137765228Y-163950000D01*
X137765228Y-163950000D02*
X137822371Y-163978571D01*
X137822371Y-163978571D02*
X137850942Y-164007143D01*
X137850942Y-164007143D02*
X137879514Y-164064285D01*
X137879514Y-164064285D02*
X137879514Y-164178571D01*
X137879514Y-164178571D02*
X137908085Y-164235714D01*
X137908085Y-164235714D02*
X137936657Y-164264285D01*
X137936657Y-164264285D02*
X137993800Y-164292857D01*
X137993800Y-164292857D02*
X138108085Y-164292857D01*
X138108085Y-164292857D02*
X138165228Y-164264285D01*
X138165228Y-164264285D02*
X138193800Y-164235714D01*
X138193800Y-164235714D02*
X138222371Y-164178571D01*
X138222371Y-164178571D02*
X138222371Y-164064285D01*
X138222371Y-164064285D02*
X138193800Y-164007143D01*
X138193800Y-164007143D02*
X138165228Y-163978571D01*
X138165228Y-163978571D02*
X138108085Y-163950000D01*
X138108085Y-163950000D02*
X137993800Y-163950000D01*
X137993800Y-163950000D02*
X137936657Y-163978571D01*
X137936657Y-163978571D02*
X137908085Y-164007143D01*
X137908085Y-164007143D02*
X137879514Y-164064285D01*
X137822371Y-163435714D02*
X138222371Y-163435714D01*
X137593800Y-163578571D02*
X138022371Y-163721428D01*
X138022371Y-163721428D02*
X138022371Y-163349999D01*
X137622371Y-163007142D02*
X137622371Y-162949999D01*
X137622371Y-162949999D02*
X137650942Y-162892856D01*
X137650942Y-162892856D02*
X137679514Y-162864285D01*
X137679514Y-162864285D02*
X137736657Y-162835713D01*
X137736657Y-162835713D02*
X137850942Y-162807142D01*
X137850942Y-162807142D02*
X137993800Y-162807142D01*
X137993800Y-162807142D02*
X138108085Y-162835713D01*
X138108085Y-162835713D02*
X138165228Y-162864285D01*
X138165228Y-162864285D02*
X138193800Y-162892856D01*
X138193800Y-162892856D02*
X138222371Y-162949999D01*
X138222371Y-162949999D02*
X138222371Y-163007142D01*
X138222371Y-163007142D02*
X138193800Y-163064285D01*
X138193800Y-163064285D02*
X138165228Y-163092856D01*
X138165228Y-163092856D02*
X138108085Y-163121427D01*
X138108085Y-163121427D02*
X137993800Y-163149999D01*
X137993800Y-163149999D02*
X137850942Y-163149999D01*
X137850942Y-163149999D02*
X137736657Y-163121427D01*
X137736657Y-163121427D02*
X137679514Y-163092856D01*
X137679514Y-163092856D02*
X137650942Y-163064285D01*
X137650942Y-163064285D02*
X137622371Y-163007142D01*
X138193800Y-162121427D02*
X138222371Y-162035713D01*
X138222371Y-162035713D02*
X138222371Y-161892855D01*
X138222371Y-161892855D02*
X138193800Y-161835713D01*
X138193800Y-161835713D02*
X138165228Y-161807141D01*
X138165228Y-161807141D02*
X138108085Y-161778570D01*
X138108085Y-161778570D02*
X138050942Y-161778570D01*
X138050942Y-161778570D02*
X137993800Y-161807141D01*
X137993800Y-161807141D02*
X137965228Y-161835713D01*
X137965228Y-161835713D02*
X137936657Y-161892855D01*
X137936657Y-161892855D02*
X137908085Y-162007141D01*
X137908085Y-162007141D02*
X137879514Y-162064284D01*
X137879514Y-162064284D02*
X137850942Y-162092855D01*
X137850942Y-162092855D02*
X137793800Y-162121427D01*
X137793800Y-162121427D02*
X137736657Y-162121427D01*
X137736657Y-162121427D02*
X137679514Y-162092855D01*
X137679514Y-162092855D02*
X137650942Y-162064284D01*
X137650942Y-162064284D02*
X137622371Y-162007141D01*
X137622371Y-162007141D02*
X137622371Y-161864284D01*
X137622371Y-161864284D02*
X137650942Y-161778570D01*
X137822371Y-161264284D02*
X138222371Y-161264284D01*
X137822371Y-161521426D02*
X138136657Y-161521426D01*
X138136657Y-161521426D02*
X138193800Y-161492855D01*
X138193800Y-161492855D02*
X138222371Y-161435712D01*
X138222371Y-161435712D02*
X138222371Y-161349998D01*
X138222371Y-161349998D02*
X138193800Y-161292855D01*
X138193800Y-161292855D02*
X138165228Y-161264284D01*
X137822371Y-160978569D02*
X138422371Y-160978569D01*
X137850942Y-160978569D02*
X137822371Y-160921427D01*
X137822371Y-160921427D02*
X137822371Y-160807141D01*
X137822371Y-160807141D02*
X137850942Y-160749998D01*
X137850942Y-160749998D02*
X137879514Y-160721427D01*
X137879514Y-160721427D02*
X137936657Y-160692855D01*
X137936657Y-160692855D02*
X138108085Y-160692855D01*
X138108085Y-160692855D02*
X138165228Y-160721427D01*
X138165228Y-160721427D02*
X138193800Y-160749998D01*
X138193800Y-160749998D02*
X138222371Y-160807141D01*
X138222371Y-160807141D02*
X138222371Y-160921427D01*
X138222371Y-160921427D02*
X138193800Y-160978569D01*
X138193800Y-160207141D02*
X138222371Y-160264284D01*
X138222371Y-160264284D02*
X138222371Y-160378570D01*
X138222371Y-160378570D02*
X138193800Y-160435712D01*
X138193800Y-160435712D02*
X138136657Y-160464284D01*
X138136657Y-160464284D02*
X137908085Y-160464284D01*
X137908085Y-160464284D02*
X137850942Y-160435712D01*
X137850942Y-160435712D02*
X137822371Y-160378570D01*
X137822371Y-160378570D02*
X137822371Y-160264284D01*
X137822371Y-160264284D02*
X137850942Y-160207141D01*
X137850942Y-160207141D02*
X137908085Y-160178570D01*
X137908085Y-160178570D02*
X137965228Y-160178570D01*
X137965228Y-160178570D02*
X138022371Y-160464284D01*
X138222371Y-159921426D02*
X137822371Y-159921426D01*
X137936657Y-159921426D02*
X137879514Y-159892855D01*
X137879514Y-159892855D02*
X137850942Y-159864284D01*
X137850942Y-159864284D02*
X137822371Y-159807141D01*
X137822371Y-159807141D02*
X137822371Y-159749998D01*
X138222371Y-159549997D02*
X137622371Y-159549997D01*
X137622371Y-159549997D02*
X138050942Y-159349997D01*
X138050942Y-159349997D02*
X137622371Y-159149997D01*
X137622371Y-159149997D02*
X138222371Y-159149997D01*
X138222371Y-158864283D02*
X137822371Y-158864283D01*
X137622371Y-158864283D02*
X137650942Y-158892855D01*
X137650942Y-158892855D02*
X137679514Y-158864283D01*
X137679514Y-158864283D02*
X137650942Y-158835712D01*
X137650942Y-158835712D02*
X137622371Y-158864283D01*
X137622371Y-158864283D02*
X137679514Y-158864283D01*
X137822371Y-158578569D02*
X138222371Y-158578569D01*
X137879514Y-158578569D02*
X137850942Y-158549998D01*
X137850942Y-158549998D02*
X137822371Y-158492855D01*
X137822371Y-158492855D02*
X137822371Y-158407141D01*
X137822371Y-158407141D02*
X137850942Y-158349998D01*
X137850942Y-158349998D02*
X137908085Y-158321427D01*
X137908085Y-158321427D02*
X138222371Y-158321427D01*
X138222371Y-158035712D02*
X137822371Y-158035712D01*
X137622371Y-158035712D02*
X137650942Y-158064284D01*
X137650942Y-158064284D02*
X137679514Y-158035712D01*
X137679514Y-158035712D02*
X137650942Y-158007141D01*
X137650942Y-158007141D02*
X137622371Y-158035712D01*
X137622371Y-158035712D02*
X137679514Y-158035712D01*
X124100000Y-162765228D02*
X124071428Y-162793800D01*
X124071428Y-162793800D02*
X123985714Y-162822371D01*
X123985714Y-162822371D02*
X123928571Y-162822371D01*
X123928571Y-162822371D02*
X123842857Y-162793800D01*
X123842857Y-162793800D02*
X123785714Y-162736657D01*
X123785714Y-162736657D02*
X123757143Y-162679514D01*
X123757143Y-162679514D02*
X123728571Y-162565228D01*
X123728571Y-162565228D02*
X123728571Y-162479514D01*
X123728571Y-162479514D02*
X123757143Y-162365228D01*
X123757143Y-162365228D02*
X123785714Y-162308085D01*
X123785714Y-162308085D02*
X123842857Y-162250942D01*
X123842857Y-162250942D02*
X123928571Y-162222371D01*
X123928571Y-162222371D02*
X123985714Y-162222371D01*
X123985714Y-162222371D02*
X124071428Y-162250942D01*
X124071428Y-162250942D02*
X124100000Y-162279514D01*
X124614286Y-162422371D02*
X124614286Y-162822371D01*
X124471428Y-162193800D02*
X124328571Y-162622371D01*
X124328571Y-162622371D02*
X124700000Y-162622371D01*
X126650000Y-138122371D02*
X126450000Y-137836657D01*
X126307143Y-138122371D02*
X126307143Y-137522371D01*
X126307143Y-137522371D02*
X126535714Y-137522371D01*
X126535714Y-137522371D02*
X126592857Y-137550942D01*
X126592857Y-137550942D02*
X126621428Y-137579514D01*
X126621428Y-137579514D02*
X126650000Y-137636657D01*
X126650000Y-137636657D02*
X126650000Y-137722371D01*
X126650000Y-137722371D02*
X126621428Y-137779514D01*
X126621428Y-137779514D02*
X126592857Y-137808085D01*
X126592857Y-137808085D02*
X126535714Y-137836657D01*
X126535714Y-137836657D02*
X126307143Y-137836657D01*
X127164286Y-137722371D02*
X127164286Y-138122371D01*
X127021428Y-137493800D02*
X126878571Y-137922371D01*
X126878571Y-137922371D02*
X127250000Y-137922371D01*
X124100000Y-165222371D02*
X123900000Y-164936657D01*
X123757143Y-165222371D02*
X123757143Y-164622371D01*
X123757143Y-164622371D02*
X123985714Y-164622371D01*
X123985714Y-164622371D02*
X124042857Y-164650942D01*
X124042857Y-164650942D02*
X124071428Y-164679514D01*
X124071428Y-164679514D02*
X124100000Y-164736657D01*
X124100000Y-164736657D02*
X124100000Y-164822371D01*
X124100000Y-164822371D02*
X124071428Y-164879514D01*
X124071428Y-164879514D02*
X124042857Y-164908085D01*
X124042857Y-164908085D02*
X123985714Y-164936657D01*
X123985714Y-164936657D02*
X123757143Y-164936657D01*
X124671428Y-165222371D02*
X124328571Y-165222371D01*
X124500000Y-165222371D02*
X124500000Y-164622371D01*
X124500000Y-164622371D02*
X124442857Y-164708085D01*
X124442857Y-164708085D02*
X124385714Y-164765228D01*
X124385714Y-164765228D02*
X124328571Y-164793800D01*
X133550000Y-160415228D02*
X133521428Y-160443800D01*
X133521428Y-160443800D02*
X133435714Y-160472371D01*
X133435714Y-160472371D02*
X133378571Y-160472371D01*
X133378571Y-160472371D02*
X133292857Y-160443800D01*
X133292857Y-160443800D02*
X133235714Y-160386657D01*
X133235714Y-160386657D02*
X133207143Y-160329514D01*
X133207143Y-160329514D02*
X133178571Y-160215228D01*
X133178571Y-160215228D02*
X133178571Y-160129514D01*
X133178571Y-160129514D02*
X133207143Y-160015228D01*
X133207143Y-160015228D02*
X133235714Y-159958085D01*
X133235714Y-159958085D02*
X133292857Y-159900942D01*
X133292857Y-159900942D02*
X133378571Y-159872371D01*
X133378571Y-159872371D02*
X133435714Y-159872371D01*
X133435714Y-159872371D02*
X133521428Y-159900942D01*
X133521428Y-159900942D02*
X133550000Y-159929514D01*
X133750000Y-159872371D02*
X134121428Y-159872371D01*
X134121428Y-159872371D02*
X133921428Y-160100942D01*
X133921428Y-160100942D02*
X134007143Y-160100942D01*
X134007143Y-160100942D02*
X134064286Y-160129514D01*
X134064286Y-160129514D02*
X134092857Y-160158085D01*
X134092857Y-160158085D02*
X134121428Y-160215228D01*
X134121428Y-160215228D02*
X134121428Y-160358085D01*
X134121428Y-160358085D02*
X134092857Y-160415228D01*
X134092857Y-160415228D02*
X134064286Y-160443800D01*
X134064286Y-160443800D02*
X134007143Y-160472371D01*
X134007143Y-160472371D02*
X133835714Y-160472371D01*
X133835714Y-160472371D02*
X133778571Y-160443800D01*
X133778571Y-160443800D02*
X133750000Y-160415228D01*
X182228571Y-126858085D02*
X182314285Y-126886657D01*
X182314285Y-126886657D02*
X182342856Y-126915228D01*
X182342856Y-126915228D02*
X182371428Y-126972371D01*
X182371428Y-126972371D02*
X182371428Y-127058085D01*
X182371428Y-127058085D02*
X182342856Y-127115228D01*
X182342856Y-127115228D02*
X182314285Y-127143800D01*
X182314285Y-127143800D02*
X182257142Y-127172371D01*
X182257142Y-127172371D02*
X182028571Y-127172371D01*
X182028571Y-127172371D02*
X182028571Y-126572371D01*
X182028571Y-126572371D02*
X182228571Y-126572371D01*
X182228571Y-126572371D02*
X182285714Y-126600942D01*
X182285714Y-126600942D02*
X182314285Y-126629514D01*
X182314285Y-126629514D02*
X182342856Y-126686657D01*
X182342856Y-126686657D02*
X182342856Y-126743800D01*
X182342856Y-126743800D02*
X182314285Y-126800942D01*
X182314285Y-126800942D02*
X182285714Y-126829514D01*
X182285714Y-126829514D02*
X182228571Y-126858085D01*
X182228571Y-126858085D02*
X182028571Y-126858085D01*
X182542856Y-126572371D02*
X182885714Y-126572371D01*
X182714285Y-127172371D02*
X182714285Y-126572371D01*
X183399999Y-127172371D02*
X183057142Y-127172371D01*
X183228571Y-127172371D02*
X183228571Y-126572371D01*
X183228571Y-126572371D02*
X183171428Y-126658085D01*
X183171428Y-126658085D02*
X183114285Y-126715228D01*
X183114285Y-126715228D02*
X183057142Y-126743800D01*
D10*
X101173295Y-117075533D02*
X102697105Y-117075533D01*
X101935200Y-117837438D02*
X101935200Y-116313628D01*
D11*
X120865343Y-154472371D02*
X120865343Y-153872371D01*
X120865343Y-153872371D02*
X121008200Y-153872371D01*
X121008200Y-153872371D02*
X121093914Y-153900942D01*
X121093914Y-153900942D02*
X121151057Y-153958085D01*
X121151057Y-153958085D02*
X121179628Y-154015228D01*
X121179628Y-154015228D02*
X121208200Y-154129514D01*
X121208200Y-154129514D02*
X121208200Y-154215228D01*
X121208200Y-154215228D02*
X121179628Y-154329514D01*
X121179628Y-154329514D02*
X121151057Y-154386657D01*
X121151057Y-154386657D02*
X121093914Y-154443800D01*
X121093914Y-154443800D02*
X121008200Y-154472371D01*
X121008200Y-154472371D02*
X120865343Y-154472371D01*
X121779628Y-154472371D02*
X121436771Y-154472371D01*
X121608200Y-154472371D02*
X121608200Y-153872371D01*
X121608200Y-153872371D02*
X121551057Y-153958085D01*
X121551057Y-153958085D02*
X121493914Y-154015228D01*
X121493914Y-154015228D02*
X121436771Y-154043800D01*
X129903457Y-140129514D02*
X129846314Y-140100942D01*
X129846314Y-140100942D02*
X129789171Y-140043800D01*
X129789171Y-140043800D02*
X129703457Y-139958085D01*
X129703457Y-139958085D02*
X129646314Y-139929514D01*
X129646314Y-139929514D02*
X129589171Y-139929514D01*
X129617742Y-140072371D02*
X129560600Y-140043800D01*
X129560600Y-140043800D02*
X129503457Y-139986657D01*
X129503457Y-139986657D02*
X129474885Y-139872371D01*
X129474885Y-139872371D02*
X129474885Y-139672371D01*
X129474885Y-139672371D02*
X129503457Y-139558085D01*
X129503457Y-139558085D02*
X129560600Y-139500942D01*
X129560600Y-139500942D02*
X129617742Y-139472371D01*
X129617742Y-139472371D02*
X129732028Y-139472371D01*
X129732028Y-139472371D02*
X129789171Y-139500942D01*
X129789171Y-139500942D02*
X129846314Y-139558085D01*
X129846314Y-139558085D02*
X129874885Y-139672371D01*
X129874885Y-139672371D02*
X129874885Y-139872371D01*
X129874885Y-139872371D02*
X129846314Y-139986657D01*
X129846314Y-139986657D02*
X129789171Y-140043800D01*
X129789171Y-140043800D02*
X129732028Y-140072371D01*
X129732028Y-140072371D02*
X129617742Y-140072371D01*
X130074885Y-139472371D02*
X130446313Y-139472371D01*
X130446313Y-139472371D02*
X130246313Y-139700942D01*
X130246313Y-139700942D02*
X130332028Y-139700942D01*
X130332028Y-139700942D02*
X130389171Y-139729514D01*
X130389171Y-139729514D02*
X130417742Y-139758085D01*
X130417742Y-139758085D02*
X130446313Y-139815228D01*
X130446313Y-139815228D02*
X130446313Y-139958085D01*
X130446313Y-139958085D02*
X130417742Y-140015228D01*
X130417742Y-140015228D02*
X130389171Y-140043800D01*
X130389171Y-140043800D02*
X130332028Y-140072371D01*
X130332028Y-140072371D02*
X130160599Y-140072371D01*
X130160599Y-140072371D02*
X130103456Y-140043800D01*
X130103456Y-140043800D02*
X130074885Y-140015228D01*
X127292857Y-160622371D02*
X127292857Y-161108085D01*
X127292857Y-161108085D02*
X127321428Y-161165228D01*
X127321428Y-161165228D02*
X127350000Y-161193800D01*
X127350000Y-161193800D02*
X127407142Y-161222371D01*
X127407142Y-161222371D02*
X127521428Y-161222371D01*
X127521428Y-161222371D02*
X127578571Y-161193800D01*
X127578571Y-161193800D02*
X127607142Y-161165228D01*
X127607142Y-161165228D02*
X127635714Y-161108085D01*
X127635714Y-161108085D02*
X127635714Y-160622371D01*
X127864285Y-160622371D02*
X128235713Y-160622371D01*
X128235713Y-160622371D02*
X128035713Y-160850942D01*
X128035713Y-160850942D02*
X128121428Y-160850942D01*
X128121428Y-160850942D02*
X128178571Y-160879514D01*
X128178571Y-160879514D02*
X128207142Y-160908085D01*
X128207142Y-160908085D02*
X128235713Y-160965228D01*
X128235713Y-160965228D02*
X128235713Y-161108085D01*
X128235713Y-161108085D02*
X128207142Y-161165228D01*
X128207142Y-161165228D02*
X128178571Y-161193800D01*
X128178571Y-161193800D02*
X128121428Y-161222371D01*
X128121428Y-161222371D02*
X127949999Y-161222371D01*
X127949999Y-161222371D02*
X127892856Y-161193800D01*
X127892856Y-161193800D02*
X127864285Y-161165228D01*
X124100000Y-166965228D02*
X124071428Y-166993800D01*
X124071428Y-166993800D02*
X123985714Y-167022371D01*
X123985714Y-167022371D02*
X123928571Y-167022371D01*
X123928571Y-167022371D02*
X123842857Y-166993800D01*
X123842857Y-166993800D02*
X123785714Y-166936657D01*
X123785714Y-166936657D02*
X123757143Y-166879514D01*
X123757143Y-166879514D02*
X123728571Y-166765228D01*
X123728571Y-166765228D02*
X123728571Y-166679514D01*
X123728571Y-166679514D02*
X123757143Y-166565228D01*
X123757143Y-166565228D02*
X123785714Y-166508085D01*
X123785714Y-166508085D02*
X123842857Y-166450942D01*
X123842857Y-166450942D02*
X123928571Y-166422371D01*
X123928571Y-166422371D02*
X123985714Y-166422371D01*
X123985714Y-166422371D02*
X124071428Y-166450942D01*
X124071428Y-166450942D02*
X124100000Y-166479514D01*
X124614286Y-166422371D02*
X124500000Y-166422371D01*
X124500000Y-166422371D02*
X124442857Y-166450942D01*
X124442857Y-166450942D02*
X124414286Y-166479514D01*
X124414286Y-166479514D02*
X124357143Y-166565228D01*
X124357143Y-166565228D02*
X124328571Y-166679514D01*
X124328571Y-166679514D02*
X124328571Y-166908085D01*
X124328571Y-166908085D02*
X124357143Y-166965228D01*
X124357143Y-166965228D02*
X124385714Y-166993800D01*
X124385714Y-166993800D02*
X124442857Y-167022371D01*
X124442857Y-167022371D02*
X124557143Y-167022371D01*
X124557143Y-167022371D02*
X124614286Y-166993800D01*
X124614286Y-166993800D02*
X124642857Y-166965228D01*
X124642857Y-166965228D02*
X124671428Y-166908085D01*
X124671428Y-166908085D02*
X124671428Y-166765228D01*
X124671428Y-166765228D02*
X124642857Y-166708085D01*
X124642857Y-166708085D02*
X124614286Y-166679514D01*
X124614286Y-166679514D02*
X124557143Y-166650942D01*
X124557143Y-166650942D02*
X124442857Y-166650942D01*
X124442857Y-166650942D02*
X124385714Y-166679514D01*
X124385714Y-166679514D02*
X124357143Y-166708085D01*
X124357143Y-166708085D02*
X124328571Y-166765228D01*
X132000000Y-165222371D02*
X131800000Y-164936657D01*
X131657143Y-165222371D02*
X131657143Y-164622371D01*
X131657143Y-164622371D02*
X131885714Y-164622371D01*
X131885714Y-164622371D02*
X131942857Y-164650942D01*
X131942857Y-164650942D02*
X131971428Y-164679514D01*
X131971428Y-164679514D02*
X132000000Y-164736657D01*
X132000000Y-164736657D02*
X132000000Y-164822371D01*
X132000000Y-164822371D02*
X131971428Y-164879514D01*
X131971428Y-164879514D02*
X131942857Y-164908085D01*
X131942857Y-164908085D02*
X131885714Y-164936657D01*
X131885714Y-164936657D02*
X131657143Y-164936657D01*
X132228571Y-164679514D02*
X132257143Y-164650942D01*
X132257143Y-164650942D02*
X132314286Y-164622371D01*
X132314286Y-164622371D02*
X132457143Y-164622371D01*
X132457143Y-164622371D02*
X132514286Y-164650942D01*
X132514286Y-164650942D02*
X132542857Y-164679514D01*
X132542857Y-164679514D02*
X132571428Y-164736657D01*
X132571428Y-164736657D02*
X132571428Y-164793800D01*
X132571428Y-164793800D02*
X132542857Y-164879514D01*
X132542857Y-164879514D02*
X132200000Y-165222371D01*
X132200000Y-165222371D02*
X132571428Y-165222371D01*
X137000000Y-142265228D02*
X136971428Y-142293800D01*
X136971428Y-142293800D02*
X136885714Y-142322371D01*
X136885714Y-142322371D02*
X136828571Y-142322371D01*
X136828571Y-142322371D02*
X136742857Y-142293800D01*
X136742857Y-142293800D02*
X136685714Y-142236657D01*
X136685714Y-142236657D02*
X136657143Y-142179514D01*
X136657143Y-142179514D02*
X136628571Y-142065228D01*
X136628571Y-142065228D02*
X136628571Y-141979514D01*
X136628571Y-141979514D02*
X136657143Y-141865228D01*
X136657143Y-141865228D02*
X136685714Y-141808085D01*
X136685714Y-141808085D02*
X136742857Y-141750942D01*
X136742857Y-141750942D02*
X136828571Y-141722371D01*
X136828571Y-141722371D02*
X136885714Y-141722371D01*
X136885714Y-141722371D02*
X136971428Y-141750942D01*
X136971428Y-141750942D02*
X137000000Y-141779514D01*
X137542857Y-141722371D02*
X137257143Y-141722371D01*
X137257143Y-141722371D02*
X137228571Y-142008085D01*
X137228571Y-142008085D02*
X137257143Y-141979514D01*
X137257143Y-141979514D02*
X137314286Y-141950942D01*
X137314286Y-141950942D02*
X137457143Y-141950942D01*
X137457143Y-141950942D02*
X137514286Y-141979514D01*
X137514286Y-141979514D02*
X137542857Y-142008085D01*
X137542857Y-142008085D02*
X137571428Y-142065228D01*
X137571428Y-142065228D02*
X137571428Y-142208085D01*
X137571428Y-142208085D02*
X137542857Y-142265228D01*
X137542857Y-142265228D02*
X137514286Y-142293800D01*
X137514286Y-142293800D02*
X137457143Y-142322371D01*
X137457143Y-142322371D02*
X137314286Y-142322371D01*
X137314286Y-142322371D02*
X137257143Y-142293800D01*
X137257143Y-142293800D02*
X137228571Y-142265228D01*
X121704900Y-141008584D02*
X121504900Y-140722870D01*
X121362043Y-141008584D02*
X121362043Y-140408584D01*
X121362043Y-140408584D02*
X121590614Y-140408584D01*
X121590614Y-140408584D02*
X121647757Y-140437155D01*
X121647757Y-140437155D02*
X121676328Y-140465727D01*
X121676328Y-140465727D02*
X121704900Y-140522870D01*
X121704900Y-140522870D02*
X121704900Y-140608584D01*
X121704900Y-140608584D02*
X121676328Y-140665727D01*
X121676328Y-140665727D02*
X121647757Y-140694298D01*
X121647757Y-140694298D02*
X121590614Y-140722870D01*
X121590614Y-140722870D02*
X121362043Y-140722870D01*
X122047757Y-140665727D02*
X121990614Y-140637155D01*
X121990614Y-140637155D02*
X121962043Y-140608584D01*
X121962043Y-140608584D02*
X121933471Y-140551441D01*
X121933471Y-140551441D02*
X121933471Y-140522870D01*
X121933471Y-140522870D02*
X121962043Y-140465727D01*
X121962043Y-140465727D02*
X121990614Y-140437155D01*
X121990614Y-140437155D02*
X122047757Y-140408584D01*
X122047757Y-140408584D02*
X122162043Y-140408584D01*
X122162043Y-140408584D02*
X122219186Y-140437155D01*
X122219186Y-140437155D02*
X122247757Y-140465727D01*
X122247757Y-140465727D02*
X122276328Y-140522870D01*
X122276328Y-140522870D02*
X122276328Y-140551441D01*
X122276328Y-140551441D02*
X122247757Y-140608584D01*
X122247757Y-140608584D02*
X122219186Y-140637155D01*
X122219186Y-140637155D02*
X122162043Y-140665727D01*
X122162043Y-140665727D02*
X122047757Y-140665727D01*
X122047757Y-140665727D02*
X121990614Y-140694298D01*
X121990614Y-140694298D02*
X121962043Y-140722870D01*
X121962043Y-140722870D02*
X121933471Y-140780013D01*
X121933471Y-140780013D02*
X121933471Y-140894298D01*
X121933471Y-140894298D02*
X121962043Y-140951441D01*
X121962043Y-140951441D02*
X121990614Y-140980013D01*
X121990614Y-140980013D02*
X122047757Y-141008584D01*
X122047757Y-141008584D02*
X122162043Y-141008584D01*
X122162043Y-141008584D02*
X122219186Y-140980013D01*
X122219186Y-140980013D02*
X122247757Y-140951441D01*
X122247757Y-140951441D02*
X122276328Y-140894298D01*
X122276328Y-140894298D02*
X122276328Y-140780013D01*
X122276328Y-140780013D02*
X122247757Y-140722870D01*
X122247757Y-140722870D02*
X122219186Y-140694298D01*
X122219186Y-140694298D02*
X122162043Y-140665727D01*
X168703828Y-157622371D02*
X168503828Y-157336657D01*
X168360971Y-157622371D02*
X168360971Y-157022371D01*
X168360971Y-157022371D02*
X168589542Y-157022371D01*
X168589542Y-157022371D02*
X168646685Y-157050942D01*
X168646685Y-157050942D02*
X168675256Y-157079514D01*
X168675256Y-157079514D02*
X168703828Y-157136657D01*
X168703828Y-157136657D02*
X168703828Y-157222371D01*
X168703828Y-157222371D02*
X168675256Y-157279514D01*
X168675256Y-157279514D02*
X168646685Y-157308085D01*
X168646685Y-157308085D02*
X168589542Y-157336657D01*
X168589542Y-157336657D02*
X168360971Y-157336657D01*
X169218114Y-157622371D02*
X169218114Y-157308085D01*
X169218114Y-157308085D02*
X169189542Y-157250942D01*
X169189542Y-157250942D02*
X169132399Y-157222371D01*
X169132399Y-157222371D02*
X169018114Y-157222371D01*
X169018114Y-157222371D02*
X168960971Y-157250942D01*
X169218114Y-157593800D02*
X169160971Y-157622371D01*
X169160971Y-157622371D02*
X169018114Y-157622371D01*
X169018114Y-157622371D02*
X168960971Y-157593800D01*
X168960971Y-157593800D02*
X168932399Y-157536657D01*
X168932399Y-157536657D02*
X168932399Y-157479514D01*
X168932399Y-157479514D02*
X168960971Y-157422371D01*
X168960971Y-157422371D02*
X169018114Y-157393800D01*
X169018114Y-157393800D02*
X169160971Y-157393800D01*
X169160971Y-157393800D02*
X169218114Y-157365228D01*
X169503828Y-157393800D02*
X169960971Y-157393800D01*
X170360970Y-157022371D02*
X170418113Y-157022371D01*
X170418113Y-157022371D02*
X170475256Y-157050942D01*
X170475256Y-157050942D02*
X170503828Y-157079514D01*
X170503828Y-157079514D02*
X170532399Y-157136657D01*
X170532399Y-157136657D02*
X170560970Y-157250942D01*
X170560970Y-157250942D02*
X170560970Y-157393800D01*
X170560970Y-157393800D02*
X170532399Y-157508085D01*
X170532399Y-157508085D02*
X170503828Y-157565228D01*
X170503828Y-157565228D02*
X170475256Y-157593800D01*
X170475256Y-157593800D02*
X170418113Y-157622371D01*
X170418113Y-157622371D02*
X170360970Y-157622371D01*
X170360970Y-157622371D02*
X170303828Y-157593800D01*
X170303828Y-157593800D02*
X170275256Y-157565228D01*
X170275256Y-157565228D02*
X170246685Y-157508085D01*
X170246685Y-157508085D02*
X170218113Y-157393800D01*
X170218113Y-157393800D02*
X170218113Y-157250942D01*
X170218113Y-157250942D02*
X170246685Y-157136657D01*
X170246685Y-157136657D02*
X170275256Y-157079514D01*
X170275256Y-157079514D02*
X170303828Y-157050942D01*
X170303828Y-157050942D02*
X170360970Y-157022371D01*
X171132399Y-157622371D02*
X170789542Y-157622371D01*
X170960971Y-157622371D02*
X170960971Y-157022371D01*
X170960971Y-157022371D02*
X170903828Y-157108085D01*
X170903828Y-157108085D02*
X170846685Y-157165228D01*
X170846685Y-157165228D02*
X170789542Y-157193800D01*
X171360971Y-157593800D02*
X171446686Y-157622371D01*
X171446686Y-157622371D02*
X171589543Y-157622371D01*
X171589543Y-157622371D02*
X171646686Y-157593800D01*
X171646686Y-157593800D02*
X171675257Y-157565228D01*
X171675257Y-157565228D02*
X171703828Y-157508085D01*
X171703828Y-157508085D02*
X171703828Y-157450942D01*
X171703828Y-157450942D02*
X171675257Y-157393800D01*
X171675257Y-157393800D02*
X171646686Y-157365228D01*
X171646686Y-157365228D02*
X171589543Y-157336657D01*
X171589543Y-157336657D02*
X171475257Y-157308085D01*
X171475257Y-157308085D02*
X171418114Y-157279514D01*
X171418114Y-157279514D02*
X171389543Y-157250942D01*
X171389543Y-157250942D02*
X171360971Y-157193800D01*
X171360971Y-157193800D02*
X171360971Y-157136657D01*
X171360971Y-157136657D02*
X171389543Y-157079514D01*
X171389543Y-157079514D02*
X171418114Y-157050942D01*
X171418114Y-157050942D02*
X171475257Y-157022371D01*
X171475257Y-157022371D02*
X171618114Y-157022371D01*
X171618114Y-157022371D02*
X171703828Y-157050942D01*
X171960972Y-157622371D02*
X171960972Y-157022371D01*
X171960972Y-157308085D02*
X172303829Y-157308085D01*
X172303829Y-157622371D02*
X172303829Y-157022371D01*
X129903457Y-149009114D02*
X129846314Y-148980542D01*
X129846314Y-148980542D02*
X129789171Y-148923400D01*
X129789171Y-148923400D02*
X129703457Y-148837685D01*
X129703457Y-148837685D02*
X129646314Y-148809114D01*
X129646314Y-148809114D02*
X129589171Y-148809114D01*
X129617742Y-148951971D02*
X129560600Y-148923400D01*
X129560600Y-148923400D02*
X129503457Y-148866257D01*
X129503457Y-148866257D02*
X129474885Y-148751971D01*
X129474885Y-148751971D02*
X129474885Y-148551971D01*
X129474885Y-148551971D02*
X129503457Y-148437685D01*
X129503457Y-148437685D02*
X129560600Y-148380542D01*
X129560600Y-148380542D02*
X129617742Y-148351971D01*
X129617742Y-148351971D02*
X129732028Y-148351971D01*
X129732028Y-148351971D02*
X129789171Y-148380542D01*
X129789171Y-148380542D02*
X129846314Y-148437685D01*
X129846314Y-148437685D02*
X129874885Y-148551971D01*
X129874885Y-148551971D02*
X129874885Y-148751971D01*
X129874885Y-148751971D02*
X129846314Y-148866257D01*
X129846314Y-148866257D02*
X129789171Y-148923400D01*
X129789171Y-148923400D02*
X129732028Y-148951971D01*
X129732028Y-148951971D02*
X129617742Y-148951971D01*
X130446313Y-148951971D02*
X130103456Y-148951971D01*
X130274885Y-148951971D02*
X130274885Y-148351971D01*
X130274885Y-148351971D02*
X130217742Y-148437685D01*
X130217742Y-148437685D02*
X130160599Y-148494828D01*
X130160599Y-148494828D02*
X130103456Y-148523400D01*
X127400000Y-134042371D02*
X127200000Y-133756657D01*
X127057143Y-134042371D02*
X127057143Y-133442371D01*
X127057143Y-133442371D02*
X127285714Y-133442371D01*
X127285714Y-133442371D02*
X127342857Y-133470942D01*
X127342857Y-133470942D02*
X127371428Y-133499514D01*
X127371428Y-133499514D02*
X127400000Y-133556657D01*
X127400000Y-133556657D02*
X127400000Y-133642371D01*
X127400000Y-133642371D02*
X127371428Y-133699514D01*
X127371428Y-133699514D02*
X127342857Y-133728085D01*
X127342857Y-133728085D02*
X127285714Y-133756657D01*
X127285714Y-133756657D02*
X127057143Y-133756657D01*
X127600000Y-133442371D02*
X127971428Y-133442371D01*
X127971428Y-133442371D02*
X127771428Y-133670942D01*
X127771428Y-133670942D02*
X127857143Y-133670942D01*
X127857143Y-133670942D02*
X127914286Y-133699514D01*
X127914286Y-133699514D02*
X127942857Y-133728085D01*
X127942857Y-133728085D02*
X127971428Y-133785228D01*
X127971428Y-133785228D02*
X127971428Y-133928085D01*
X127971428Y-133928085D02*
X127942857Y-133985228D01*
X127942857Y-133985228D02*
X127914286Y-134013800D01*
X127914286Y-134013800D02*
X127857143Y-134042371D01*
X127857143Y-134042371D02*
X127685714Y-134042371D01*
X127685714Y-134042371D02*
X127628571Y-134013800D01*
X127628571Y-134013800D02*
X127600000Y-133985228D01*
X125405357Y-148079514D02*
X125348214Y-148050942D01*
X125348214Y-148050942D02*
X125291071Y-147993800D01*
X125291071Y-147993800D02*
X125205357Y-147908085D01*
X125205357Y-147908085D02*
X125148214Y-147879514D01*
X125148214Y-147879514D02*
X125091071Y-147879514D01*
X125119642Y-148022371D02*
X125062500Y-147993800D01*
X125062500Y-147993800D02*
X125005357Y-147936657D01*
X125005357Y-147936657D02*
X124976785Y-147822371D01*
X124976785Y-147822371D02*
X124976785Y-147622371D01*
X124976785Y-147622371D02*
X125005357Y-147508085D01*
X125005357Y-147508085D02*
X125062500Y-147450942D01*
X125062500Y-147450942D02*
X125119642Y-147422371D01*
X125119642Y-147422371D02*
X125233928Y-147422371D01*
X125233928Y-147422371D02*
X125291071Y-147450942D01*
X125291071Y-147450942D02*
X125348214Y-147508085D01*
X125348214Y-147508085D02*
X125376785Y-147622371D01*
X125376785Y-147622371D02*
X125376785Y-147822371D01*
X125376785Y-147822371D02*
X125348214Y-147936657D01*
X125348214Y-147936657D02*
X125291071Y-147993800D01*
X125291071Y-147993800D02*
X125233928Y-148022371D01*
X125233928Y-148022371D02*
X125119642Y-148022371D01*
X125605356Y-147479514D02*
X125633928Y-147450942D01*
X125633928Y-147450942D02*
X125691071Y-147422371D01*
X125691071Y-147422371D02*
X125833928Y-147422371D01*
X125833928Y-147422371D02*
X125891071Y-147450942D01*
X125891071Y-147450942D02*
X125919642Y-147479514D01*
X125919642Y-147479514D02*
X125948213Y-147536657D01*
X125948213Y-147536657D02*
X125948213Y-147593800D01*
X125948213Y-147593800D02*
X125919642Y-147679514D01*
X125919642Y-147679514D02*
X125576785Y-148022371D01*
X125576785Y-148022371D02*
X125948213Y-148022371D01*
D10*
X116554819Y-152083333D02*
X116554819Y-152559523D01*
X116554819Y-152559523D02*
X115554819Y-152559523D01*
X116554819Y-151749999D02*
X115554819Y-151749999D01*
X115602438Y-150750000D02*
X115554819Y-150845238D01*
X115554819Y-150845238D02*
X115554819Y-150988095D01*
X115554819Y-150988095D02*
X115602438Y-151130952D01*
X115602438Y-151130952D02*
X115697676Y-151226190D01*
X115697676Y-151226190D02*
X115792914Y-151273809D01*
X115792914Y-151273809D02*
X115983390Y-151321428D01*
X115983390Y-151321428D02*
X116126247Y-151321428D01*
X116126247Y-151321428D02*
X116316723Y-151273809D01*
X116316723Y-151273809D02*
X116411961Y-151226190D01*
X116411961Y-151226190D02*
X116507200Y-151130952D01*
X116507200Y-151130952D02*
X116554819Y-150988095D01*
X116554819Y-150988095D02*
X116554819Y-150892857D01*
X116554819Y-150892857D02*
X116507200Y-150750000D01*
X116507200Y-150750000D02*
X116459580Y-150702381D01*
X116459580Y-150702381D02*
X116126247Y-150702381D01*
X116126247Y-150702381D02*
X116126247Y-150892857D01*
X116554819Y-150273809D02*
X115554819Y-150273809D01*
X116031009Y-150273809D02*
X116031009Y-149702381D01*
X116554819Y-149702381D02*
X115554819Y-149702381D01*
X115554819Y-149369047D02*
X115554819Y-148797619D01*
X116554819Y-149083333D02*
X115554819Y-149083333D01*
D11*
X182900000Y-149315228D02*
X182871428Y-149343800D01*
X182871428Y-149343800D02*
X182785714Y-149372371D01*
X182785714Y-149372371D02*
X182728571Y-149372371D01*
X182728571Y-149372371D02*
X182642857Y-149343800D01*
X182642857Y-149343800D02*
X182585714Y-149286657D01*
X182585714Y-149286657D02*
X182557143Y-149229514D01*
X182557143Y-149229514D02*
X182528571Y-149115228D01*
X182528571Y-149115228D02*
X182528571Y-149029514D01*
X182528571Y-149029514D02*
X182557143Y-148915228D01*
X182557143Y-148915228D02*
X182585714Y-148858085D01*
X182585714Y-148858085D02*
X182642857Y-148800942D01*
X182642857Y-148800942D02*
X182728571Y-148772371D01*
X182728571Y-148772371D02*
X182785714Y-148772371D01*
X182785714Y-148772371D02*
X182871428Y-148800942D01*
X182871428Y-148800942D02*
X182900000Y-148829514D01*
X183128571Y-148829514D02*
X183157143Y-148800942D01*
X183157143Y-148800942D02*
X183214286Y-148772371D01*
X183214286Y-148772371D02*
X183357143Y-148772371D01*
X183357143Y-148772371D02*
X183414286Y-148800942D01*
X183414286Y-148800942D02*
X183442857Y-148829514D01*
X183442857Y-148829514D02*
X183471428Y-148886657D01*
X183471428Y-148886657D02*
X183471428Y-148943800D01*
X183471428Y-148943800D02*
X183442857Y-149029514D01*
X183442857Y-149029514D02*
X183100000Y-149372371D01*
X183100000Y-149372371D02*
X183471428Y-149372371D01*
D12*
%TO.C,G\u002A\u002A\u002A*%
G36*
X169684957Y-164934313D02*
G01*
X169679123Y-164940147D01*
X169673289Y-164934313D01*
X169679123Y-164928480D01*
X169684957Y-164934313D01*
G37*
G36*
X169681067Y-160533747D02*
G01*
X169682464Y-160547593D01*
X169681067Y-160549303D01*
X169674131Y-160547702D01*
X169673289Y-160541525D01*
X169677558Y-160531922D01*
X169681067Y-160533747D01*
G37*
G36*
X169681067Y-160592084D02*
G01*
X169682464Y-160605931D01*
X169681067Y-160607641D01*
X169674131Y-160606039D01*
X169673289Y-160599862D01*
X169677558Y-160590259D01*
X169681067Y-160592084D01*
G37*
G36*
X169008769Y-163947786D02*
G01*
X169054604Y-163975717D01*
X169088007Y-164017514D01*
X169109483Y-164071356D01*
X169109691Y-164122132D01*
X169095698Y-164162500D01*
X169062163Y-164207850D01*
X169015571Y-164237767D01*
X168961748Y-164250524D01*
X168906523Y-164244393D01*
X168871720Y-164228906D01*
X168828510Y-164190321D01*
X168804523Y-164141302D01*
X168800683Y-164085890D01*
X168817910Y-164028129D01*
X168823477Y-164017514D01*
X168860181Y-163972865D01*
X168906601Y-163946360D01*
X168957782Y-163938001D01*
X169008769Y-163947786D01*
G37*
G36*
X171209705Y-159925198D02*
G01*
X171243322Y-159930703D01*
X171257726Y-159937152D01*
X171263602Y-159952615D01*
X171267816Y-159986496D01*
X171270464Y-160040250D01*
X171271643Y-160115331D01*
X171271727Y-160147166D01*
X171271727Y-160343179D01*
X171299648Y-160343179D01*
X171323999Y-160350063D01*
X171334650Y-160361634D01*
X171337190Y-160379499D01*
X171339326Y-160415961D01*
X171340879Y-160466283D01*
X171341669Y-160525728D01*
X171341732Y-160548313D01*
X171341732Y-160716537D01*
X171166720Y-160716537D01*
X170991709Y-160716537D01*
X170991709Y-160542369D01*
X170991709Y-160368202D01*
X171038379Y-160347611D01*
X171085048Y-160327021D01*
X171085048Y-160125086D01*
X171085048Y-159923151D01*
X171164387Y-159923151D01*
X171209705Y-159925198D01*
G37*
G36*
X171768086Y-159925067D02*
G01*
X171802033Y-159929981D01*
X171815205Y-159935600D01*
X171821567Y-159945642D01*
X171826159Y-159965643D01*
X171829220Y-159998665D01*
X171830992Y-160047772D01*
X171831714Y-160116025D01*
X171831764Y-160146261D01*
X171831764Y-160343179D01*
X171859684Y-160343179D01*
X171884036Y-160350063D01*
X171894687Y-160361634D01*
X171897226Y-160379499D01*
X171899362Y-160415961D01*
X171900915Y-160466283D01*
X171901706Y-160525728D01*
X171901769Y-160548313D01*
X171901769Y-160716537D01*
X171726757Y-160716537D01*
X171551746Y-160716537D01*
X171551746Y-160542369D01*
X171551746Y-160368202D01*
X171598415Y-160347611D01*
X171645085Y-160327021D01*
X171645085Y-160126925D01*
X171645085Y-159926829D01*
X171721865Y-159924343D01*
X171768086Y-159925067D01*
G37*
G36*
X170833891Y-162828876D02*
G01*
X170853699Y-162831857D01*
X170859802Y-162839354D01*
X170857013Y-162853435D01*
X170856649Y-162854594D01*
X170850688Y-162872557D01*
X170838280Y-162909280D01*
X170820551Y-162961454D01*
X170798629Y-163025765D01*
X170773639Y-163098904D01*
X170752430Y-163160864D01*
X170656501Y-163440882D01*
X170583446Y-163444394D01*
X170543203Y-163445401D01*
X170522005Y-163442964D01*
X170515708Y-163436269D01*
X170516762Y-163431304D01*
X170522207Y-163415927D01*
X170534040Y-163381765D01*
X170551124Y-163332122D01*
X170572323Y-163270304D01*
X170596501Y-163199613D01*
X170612208Y-163153608D01*
X170638065Y-163077999D01*
X170662050Y-163008208D01*
X170682931Y-162947794D01*
X170699473Y-162900320D01*
X170710444Y-162869345D01*
X170713736Y-162860427D01*
X170722516Y-162842470D01*
X170735400Y-162832860D01*
X170758981Y-162829013D01*
X170795564Y-162828342D01*
X170833891Y-162828876D01*
G37*
G36*
X171341732Y-164904004D02*
G01*
X171341732Y-165077874D01*
X171306730Y-165090075D01*
X171271727Y-165102277D01*
X171271727Y-165294055D01*
X171271637Y-165364945D01*
X171271032Y-165416152D01*
X171269416Y-165451328D01*
X171266288Y-165474124D01*
X171261151Y-165488192D01*
X171253506Y-165497184D01*
X171242969Y-165504676D01*
X171207263Y-165518488D01*
X171164171Y-165522512D01*
X171124392Y-165516544D01*
X171105466Y-165507277D01*
X171097534Y-165498722D01*
X171091936Y-165484605D01*
X171088280Y-165461232D01*
X171086175Y-165424908D01*
X171085231Y-165371937D01*
X171085048Y-165314369D01*
X171084321Y-165250883D01*
X171082320Y-165194513D01*
X171079312Y-165149934D01*
X171075566Y-165121817D01*
X171073627Y-165115619D01*
X171054830Y-165096667D01*
X171026958Y-165081991D01*
X170991709Y-165069703D01*
X170991709Y-164899918D01*
X170991709Y-164730133D01*
X171166720Y-164730133D01*
X171341732Y-164730133D01*
X171341732Y-164904004D01*
G37*
G36*
X172512313Y-161699204D02*
G01*
X172677502Y-161702435D01*
X172698087Y-161746188D01*
X172718673Y-161789940D01*
X172916398Y-161789940D01*
X173114124Y-161789940D01*
X173121800Y-161830854D01*
X173124879Y-161869231D01*
X173122961Y-161913548D01*
X173121614Y-161924194D01*
X173113752Y-161976619D01*
X172915870Y-161976619D01*
X172717989Y-161976619D01*
X172703797Y-162008705D01*
X172691990Y-162031973D01*
X172677860Y-162048393D01*
X172657396Y-162059161D01*
X172626588Y-162065475D01*
X172581423Y-162068530D01*
X172517892Y-162069524D01*
X172499725Y-162069588D01*
X172437195Y-162069602D01*
X172394265Y-162068878D01*
X172367198Y-162066796D01*
X172352260Y-162062737D01*
X172345715Y-162056082D01*
X172343827Y-162046210D01*
X172343675Y-162043707D01*
X172341255Y-161989119D01*
X172339538Y-161928389D01*
X172338565Y-161867024D01*
X172338378Y-161810531D01*
X172339019Y-161764414D01*
X172340530Y-161734181D01*
X172341272Y-161728372D01*
X172347123Y-161695972D01*
X172512313Y-161699204D01*
G37*
G36*
X170568586Y-164724222D02*
G01*
X170644471Y-164725726D01*
X170702940Y-164727484D01*
X170781695Y-164730133D01*
X170781695Y-164904004D01*
X170781695Y-165077874D01*
X170746693Y-165090075D01*
X170711691Y-165102277D01*
X170711691Y-165294055D01*
X170711600Y-165364945D01*
X170710996Y-165416152D01*
X170709379Y-165451328D01*
X170706251Y-165474124D01*
X170701114Y-165488192D01*
X170693469Y-165497184D01*
X170682932Y-165504676D01*
X170647422Y-165518430D01*
X170604501Y-165522533D01*
X170564851Y-165516765D01*
X170545728Y-165507495D01*
X170538088Y-165498947D01*
X170532469Y-165484312D01*
X170528475Y-165460090D01*
X170525711Y-165422784D01*
X170523783Y-165368896D01*
X170522393Y-165300778D01*
X170519178Y-165109342D01*
X170475457Y-165085999D01*
X170431735Y-165062655D01*
X170431704Y-164897643D01*
X170432305Y-164826925D01*
X170434280Y-164777069D01*
X170437838Y-164745630D01*
X170443188Y-164730162D01*
X170446256Y-164727755D01*
X170467018Y-164725239D01*
X170508615Y-164724060D01*
X170568586Y-164724222D01*
G37*
G36*
X172512319Y-163376743D02*
G01*
X172677653Y-163376774D01*
X172700996Y-163420496D01*
X172724340Y-163464217D01*
X172916341Y-163467434D01*
X172996577Y-163469428D01*
X173055148Y-163472435D01*
X173093707Y-163476598D01*
X173113906Y-163482061D01*
X173117417Y-163484936D01*
X173123938Y-163508369D01*
X173126379Y-163545126D01*
X173124911Y-163585584D01*
X173119703Y-163620123D01*
X173114771Y-163634162D01*
X173108798Y-163642456D01*
X173098814Y-163648433D01*
X173081343Y-163652468D01*
X173052909Y-163654937D01*
X173010034Y-163656217D01*
X172949244Y-163656683D01*
X172906216Y-163656730D01*
X172709738Y-163656730D01*
X172702738Y-163691732D01*
X172695737Y-163726734D01*
X172520434Y-163726734D01*
X172345131Y-163726734D01*
X172344046Y-163694649D01*
X172343139Y-163668914D01*
X172341624Y-163627074D01*
X172339764Y-163576340D01*
X172338854Y-163551723D01*
X172337672Y-163499328D01*
X172337969Y-163452463D01*
X172339643Y-163418335D01*
X172340866Y-163408797D01*
X172346985Y-163376711D01*
X172512319Y-163376743D01*
G37*
G36*
X168331534Y-161883280D02*
G01*
X168331534Y-162069959D01*
X168176941Y-162069492D01*
X168104564Y-162068414D01*
X168051973Y-162065464D01*
X168015670Y-162060304D01*
X167992156Y-162052601D01*
X167990262Y-162051618D01*
X167963830Y-162027768D01*
X167958177Y-162005415D01*
X167958177Y-161976619D01*
X167755245Y-161976619D01*
X167679082Y-161976683D01*
X167623140Y-161975877D01*
X167584311Y-161972701D01*
X167559489Y-161965658D01*
X167545568Y-161953249D01*
X167539441Y-161933977D01*
X167538002Y-161906341D01*
X167538149Y-161871907D01*
X167539960Y-161829997D01*
X167546170Y-161806460D01*
X167556604Y-161797022D01*
X167574082Y-161794636D01*
X167610528Y-161792593D01*
X167661577Y-161791039D01*
X167722863Y-161790124D01*
X167766618Y-161789940D01*
X167958177Y-161789940D01*
X167958177Y-161759938D01*
X167960027Y-161736999D01*
X167967687Y-161720337D01*
X167984324Y-161708966D01*
X168013104Y-161701901D01*
X168057193Y-161698155D01*
X168119757Y-161696741D01*
X168161523Y-161696601D01*
X168331534Y-161696601D01*
X168331534Y-161883280D01*
G37*
G36*
X168331534Y-163551723D02*
G01*
X168331534Y-163726734D01*
X168159440Y-163725813D01*
X168097590Y-163725104D01*
X168043548Y-163723776D01*
X168001856Y-163721994D01*
X167977051Y-163719923D01*
X167972761Y-163719007D01*
X167961483Y-163704089D01*
X167958177Y-163684926D01*
X167958177Y-163656730D01*
X167755245Y-163656730D01*
X167679082Y-163656794D01*
X167623140Y-163655987D01*
X167584311Y-163652811D01*
X167559489Y-163645768D01*
X167545568Y-163633360D01*
X167539441Y-163614087D01*
X167538002Y-163586452D01*
X167538149Y-163552017D01*
X167539960Y-163510107D01*
X167546170Y-163486570D01*
X167556604Y-163477133D01*
X167574082Y-163474746D01*
X167610528Y-163472703D01*
X167661577Y-163471150D01*
X167722863Y-163470234D01*
X167766618Y-163470051D01*
X167958177Y-163470051D01*
X167958177Y-163440049D01*
X167960027Y-163417109D01*
X167967687Y-163400447D01*
X167984324Y-163389077D01*
X168013104Y-163382011D01*
X168057193Y-163378265D01*
X168119757Y-163376852D01*
X168161523Y-163376711D01*
X168331534Y-163376711D01*
X168331534Y-163551723D01*
G37*
G36*
X168955797Y-164725200D02*
G01*
X169016707Y-164728026D01*
X169019913Y-164728268D01*
X169119086Y-164735967D01*
X169122655Y-164864309D01*
X169122952Y-164945180D01*
X169118313Y-165005513D01*
X169108118Y-165047699D01*
X169091743Y-165074132D01*
X169068567Y-165087207D01*
X169064480Y-165088161D01*
X169031580Y-165094741D01*
X169031580Y-165290287D01*
X169031494Y-165361965D01*
X169030914Y-165413918D01*
X169029355Y-165449755D01*
X169026333Y-165473086D01*
X169021365Y-165487519D01*
X169013965Y-165496665D01*
X169003650Y-165504133D01*
X169002822Y-165504676D01*
X168967312Y-165518430D01*
X168924391Y-165522533D01*
X168884741Y-165516765D01*
X168865617Y-165507495D01*
X168857978Y-165498947D01*
X168852359Y-165484312D01*
X168848365Y-165460090D01*
X168845601Y-165422784D01*
X168843673Y-165368896D01*
X168842282Y-165300778D01*
X168839068Y-165109342D01*
X168795346Y-165085999D01*
X168751625Y-165062655D01*
X168751593Y-164898004D01*
X168751562Y-164733352D01*
X168836151Y-164726961D01*
X168891119Y-164724813D01*
X168955797Y-164725200D01*
G37*
G36*
X170113258Y-164725058D02*
G01*
X170161756Y-164727710D01*
X170198651Y-164731718D01*
X170218719Y-164736872D01*
X170220461Y-164738270D01*
X170222761Y-164752754D01*
X170224240Y-164786073D01*
X170224805Y-164833742D01*
X170224367Y-164891271D01*
X170223988Y-164911559D01*
X170220484Y-165075484D01*
X170186069Y-165088474D01*
X170151654Y-165101464D01*
X170151654Y-165292397D01*
X170151460Y-165363730D01*
X170150606Y-165415420D01*
X170148680Y-165451161D01*
X170145272Y-165474643D01*
X170139972Y-165489558D01*
X170132369Y-165499598D01*
X170128186Y-165503425D01*
X170097863Y-165517421D01*
X170056600Y-165522857D01*
X170015287Y-165519423D01*
X169985691Y-165507495D01*
X169978052Y-165498947D01*
X169972432Y-165484312D01*
X169968438Y-165460090D01*
X169965675Y-165422784D01*
X169963746Y-165368896D01*
X169962356Y-165300778D01*
X169959141Y-165109342D01*
X169915420Y-165085999D01*
X169871698Y-165062655D01*
X169871667Y-164898070D01*
X169871635Y-164733484D01*
X169950391Y-164727354D01*
X170002351Y-164724669D01*
X170058382Y-164723975D01*
X170113258Y-164725058D01*
G37*
G36*
X171041550Y-162829858D02*
G01*
X171066298Y-162833791D01*
X171073381Y-162838114D01*
X171069828Y-162850972D01*
X171060062Y-162881913D01*
X171045421Y-162926941D01*
X171027242Y-162982059D01*
X171006863Y-163043270D01*
X170985624Y-163106579D01*
X170964861Y-163167989D01*
X170945913Y-163223503D01*
X170930117Y-163269126D01*
X170918812Y-163300861D01*
X170915516Y-163309624D01*
X170913939Y-163318070D01*
X170919341Y-163323811D01*
X170935238Y-163327360D01*
X170965145Y-163329236D01*
X171012576Y-163329953D01*
X171054632Y-163330042D01*
X171117380Y-163330146D01*
X171160024Y-163331622D01*
X171185793Y-163336217D01*
X171197914Y-163345676D01*
X171199615Y-163361746D01*
X171194124Y-163386173D01*
X171189442Y-163402963D01*
X171177291Y-163446716D01*
X170954798Y-163446716D01*
X170732305Y-163446716D01*
X170738193Y-163420464D01*
X170743469Y-163402538D01*
X170755232Y-163365830D01*
X170772394Y-163313631D01*
X170793867Y-163249231D01*
X170818561Y-163175919D01*
X170840514Y-163111277D01*
X170936946Y-162828342D01*
X171005164Y-162828342D01*
X171041550Y-162829858D01*
G37*
G36*
X172677653Y-163936811D02*
G01*
X172700997Y-163980532D01*
X172724341Y-164024254D01*
X172918473Y-164027447D01*
X172989865Y-164028733D01*
X173041347Y-164030208D01*
X173076341Y-164032368D01*
X173098269Y-164035710D01*
X173110553Y-164040731D01*
X173116616Y-164047926D01*
X173119567Y-164056615D01*
X173126340Y-164107889D01*
X173121937Y-164159392D01*
X173113309Y-164187049D01*
X173099769Y-164216766D01*
X172905853Y-164216766D01*
X172711937Y-164216766D01*
X172698725Y-164251769D01*
X172685514Y-164286771D01*
X172515322Y-164286771D01*
X172444750Y-164286242D01*
X172394953Y-164284512D01*
X172363391Y-164281363D01*
X172347524Y-164276579D01*
X172344399Y-164272187D01*
X172342125Y-164216554D01*
X172340489Y-164155933D01*
X172339533Y-164095571D01*
X172339299Y-164040718D01*
X172339829Y-163996619D01*
X172341165Y-163968524D01*
X172341922Y-163963000D01*
X172345026Y-163952664D01*
X172351522Y-163945475D01*
X172365119Y-163940862D01*
X172389524Y-163938255D01*
X172428448Y-163937086D01*
X172485599Y-163936785D01*
X172512657Y-163936780D01*
X172677653Y-163936811D01*
G37*
G36*
X169424421Y-164725434D02*
G01*
X169483564Y-164726351D01*
X169562742Y-164727923D01*
X169568282Y-164728040D01*
X169667455Y-164730137D01*
X169666306Y-164890562D01*
X169665852Y-164960215D01*
X169665177Y-165010101D01*
X169663570Y-165043783D01*
X169660324Y-165064824D01*
X169654730Y-165076787D01*
X169646078Y-165083234D01*
X169633661Y-165087728D01*
X169626619Y-165090075D01*
X169591617Y-165102277D01*
X169591526Y-165298314D01*
X169591435Y-165494350D01*
X169560031Y-165508934D01*
X169519608Y-165520377D01*
X169475486Y-165522106D01*
X169437863Y-165514231D01*
X169425654Y-165507495D01*
X169418015Y-165498947D01*
X169412396Y-165484312D01*
X169408402Y-165460090D01*
X169405638Y-165422784D01*
X169403710Y-165368896D01*
X169402319Y-165300778D01*
X169399104Y-165109342D01*
X169355383Y-165085999D01*
X169311662Y-165062655D01*
X169311630Y-164897643D01*
X169312221Y-164827151D01*
X169314165Y-164777501D01*
X169317676Y-164746226D01*
X169322964Y-164730859D01*
X169326183Y-164728413D01*
X169336195Y-164726662D01*
X169353838Y-164725584D01*
X169382213Y-164725177D01*
X169424421Y-164725434D01*
G37*
G36*
X168331534Y-162443317D02*
G01*
X168331534Y-162629996D01*
X168192214Y-162629996D01*
X168128327Y-162628954D01*
X168080794Y-162625977D01*
X168052251Y-162621288D01*
X168045191Y-162617533D01*
X168029300Y-162610033D01*
X168020322Y-162611657D01*
X167992533Y-162611628D01*
X167969032Y-162594898D01*
X167958239Y-162567731D01*
X167958177Y-162565414D01*
X167958177Y-162536656D01*
X167754219Y-162536656D01*
X167677333Y-162536717D01*
X167620775Y-162535805D01*
X167581548Y-162532275D01*
X167556654Y-162524484D01*
X167543096Y-162510787D01*
X167537876Y-162489539D01*
X167537998Y-162459098D01*
X167540377Y-162419358D01*
X167543983Y-162355811D01*
X167751080Y-162352625D01*
X167825087Y-162351406D01*
X167878965Y-162350070D01*
X167915916Y-162348166D01*
X167939142Y-162345244D01*
X167951846Y-162340854D01*
X167957232Y-162334545D01*
X167958501Y-162325867D01*
X167958548Y-162323456D01*
X167960595Y-162299170D01*
X167968080Y-162281571D01*
X167984216Y-162269595D01*
X168012216Y-162262182D01*
X168055293Y-162258269D01*
X168116660Y-162256794D01*
X168160726Y-162256638D01*
X168331534Y-162256638D01*
X168331534Y-162443317D01*
G37*
G36*
X172512248Y-162819277D02*
G01*
X172677372Y-162822508D01*
X172693898Y-162857511D01*
X172709045Y-162884332D01*
X172722831Y-162900823D01*
X172723207Y-162901085D01*
X172738719Y-162903998D01*
X172773317Y-162906510D01*
X172822755Y-162908434D01*
X172882786Y-162909588D01*
X172924338Y-162909835D01*
X172995944Y-162910193D01*
X173047540Y-162911319D01*
X173082446Y-162913530D01*
X173103983Y-162917143D01*
X173115471Y-162922475D01*
X173119767Y-162928469D01*
X173125795Y-162961296D01*
X173126054Y-163004788D01*
X173120911Y-163047097D01*
X173115470Y-163066765D01*
X173104092Y-163096693D01*
X172906384Y-163096693D01*
X172708676Y-163096693D01*
X172701117Y-163131105D01*
X172693559Y-163165516D01*
X172524040Y-163169024D01*
X172460433Y-163169608D01*
X172407616Y-163168666D01*
X172369393Y-163166357D01*
X172349567Y-163162840D01*
X172347792Y-163161604D01*
X172344452Y-163145151D01*
X172341563Y-163110966D01*
X172339254Y-163064650D01*
X172337652Y-163011803D01*
X172336887Y-162958027D01*
X172337086Y-162908923D01*
X172338380Y-162870090D01*
X172340606Y-162848446D01*
X172347123Y-162816046D01*
X172512248Y-162819277D01*
G37*
G36*
X168968636Y-159925080D02*
G01*
X169001254Y-159930187D01*
X169017579Y-159937152D01*
X169023455Y-159952615D01*
X169027669Y-159986496D01*
X169030317Y-160040250D01*
X169031496Y-160115331D01*
X169031580Y-160147166D01*
X169031580Y-160343179D01*
X169059784Y-160343179D01*
X169085475Y-160352520D01*
X169104314Y-160381115D01*
X169116532Y-160429821D01*
X169122359Y-160499496D01*
X169122441Y-160576528D01*
X169119086Y-160710703D01*
X168935324Y-160713916D01*
X168751562Y-160717129D01*
X168751562Y-160553489D01*
X168751877Y-160487424D01*
X168753147Y-160440603D01*
X168755861Y-160408942D01*
X168760505Y-160388353D01*
X168767568Y-160374752D01*
X168773745Y-160367666D01*
X168800253Y-160347442D01*
X168820415Y-160337711D01*
X168829381Y-160333857D01*
X168835841Y-160326594D01*
X168840205Y-160312506D01*
X168842884Y-160288178D01*
X168844286Y-160250196D01*
X168844822Y-160195146D01*
X168844901Y-160133627D01*
X168845172Y-160060381D01*
X168846180Y-160007210D01*
X168848221Y-159970860D01*
X168851590Y-159948075D01*
X168856583Y-159935600D01*
X168863357Y-159930233D01*
X168891122Y-159924719D01*
X168929070Y-159923129D01*
X168968636Y-159925080D01*
G37*
G36*
X170648746Y-159925080D02*
G01*
X170681365Y-159930187D01*
X170697690Y-159937152D01*
X170703566Y-159952615D01*
X170707779Y-159986496D01*
X170710427Y-160040250D01*
X170711607Y-160115331D01*
X170711691Y-160147166D01*
X170711691Y-160343179D01*
X170739718Y-160343179D01*
X170758196Y-160347289D01*
X170771490Y-160361415D01*
X170780148Y-160388255D01*
X170784715Y-160430503D01*
X170785740Y-160490857D01*
X170784117Y-160561943D01*
X170778936Y-160716537D01*
X170605304Y-160716537D01*
X170431672Y-160716537D01*
X170431672Y-160549167D01*
X170432131Y-160478080D01*
X170434291Y-160426617D01*
X170439330Y-160391077D01*
X170448423Y-160367754D01*
X170462746Y-160352947D01*
X170483476Y-160342950D01*
X170498760Y-160337939D01*
X170508362Y-160334289D01*
X170515280Y-160327817D01*
X170519956Y-160315104D01*
X170522827Y-160292729D01*
X170524334Y-160257272D01*
X170524915Y-160205313D01*
X170525012Y-160133627D01*
X170525282Y-160060381D01*
X170526290Y-160007210D01*
X170528331Y-159970860D01*
X170531700Y-159948075D01*
X170536694Y-159935600D01*
X170543467Y-159930233D01*
X170571232Y-159924719D01*
X170609180Y-159923129D01*
X170648746Y-159925080D01*
G37*
G36*
X172698279Y-162303307D02*
G01*
X172716612Y-162349977D01*
X172915368Y-162349977D01*
X173114124Y-162349977D01*
X173121954Y-162391715D01*
X173124555Y-162431378D01*
X173120849Y-162475118D01*
X173119525Y-162482137D01*
X173109265Y-162530822D01*
X172912755Y-162534026D01*
X172716245Y-162537231D01*
X172703142Y-162571946D01*
X172687060Y-162597880D01*
X172669261Y-162606661D01*
X172651737Y-162612079D01*
X172648484Y-162618328D01*
X172637726Y-162623513D01*
X172608988Y-162627223D01*
X172567580Y-162629489D01*
X172518809Y-162630337D01*
X172467982Y-162629798D01*
X172420408Y-162627899D01*
X172381394Y-162624669D01*
X172356248Y-162620136D01*
X172349973Y-162616723D01*
X172346494Y-162600093D01*
X172343404Y-162565566D01*
X172340841Y-162518576D01*
X172338942Y-162464558D01*
X172337845Y-162408947D01*
X172337690Y-162357180D01*
X172338612Y-162314692D01*
X172340752Y-162286917D01*
X172341497Y-162282889D01*
X172344765Y-162272583D01*
X172351378Y-162265403D01*
X172365039Y-162260784D01*
X172389453Y-162258162D01*
X172428325Y-162256972D01*
X172485359Y-162256650D01*
X172513804Y-162256638D01*
X172679947Y-162256638D01*
X172698279Y-162303307D01*
G37*
G36*
X168158494Y-163936748D02*
G01*
X168331534Y-163936748D01*
X168331534Y-164111759D01*
X168331534Y-164286771D01*
X168159440Y-164285850D01*
X168097590Y-164285141D01*
X168043548Y-164283813D01*
X168001856Y-164282031D01*
X167977051Y-164279960D01*
X167972761Y-164279044D01*
X167961483Y-164264125D01*
X167958177Y-164244963D01*
X167958177Y-164216766D01*
X167755245Y-164216766D01*
X167679082Y-164216830D01*
X167623140Y-164216024D01*
X167584311Y-164212848D01*
X167559489Y-164205805D01*
X167545568Y-164193396D01*
X167539441Y-164174124D01*
X167538002Y-164146488D01*
X167538149Y-164112054D01*
X167540367Y-164068224D01*
X167547490Y-164044215D01*
X167554875Y-164037833D01*
X167571785Y-164035523D01*
X167607670Y-164033296D01*
X167658168Y-164031336D01*
X167718920Y-164029826D01*
X167760018Y-164029195D01*
X167831461Y-164028073D01*
X167882883Y-164026411D01*
X167917598Y-164023850D01*
X167938918Y-164020031D01*
X167950158Y-164014594D01*
X167954364Y-164008113D01*
X167963009Y-163981179D01*
X167971821Y-163962042D01*
X167984604Y-163949371D01*
X168005164Y-163941837D01*
X168037306Y-163938108D01*
X168084835Y-163936855D01*
X168151556Y-163936747D01*
X168158494Y-163936748D01*
G37*
G36*
X169641405Y-161873127D02*
G01*
X169666180Y-161877056D01*
X169673289Y-161881385D01*
X169669736Y-161894243D01*
X169659970Y-161925184D01*
X169645329Y-161970212D01*
X169627150Y-162025329D01*
X169606772Y-162086541D01*
X169585532Y-162149850D01*
X169564769Y-162211259D01*
X169545821Y-162266774D01*
X169530025Y-162312397D01*
X169518720Y-162344132D01*
X169515424Y-162352894D01*
X169513847Y-162361341D01*
X169519249Y-162367081D01*
X169535146Y-162370631D01*
X169565053Y-162372506D01*
X169612484Y-162373223D01*
X169654540Y-162373312D01*
X169717288Y-162373416D01*
X169759932Y-162374893D01*
X169785701Y-162379488D01*
X169797822Y-162388947D01*
X169799523Y-162405017D01*
X169794033Y-162429444D01*
X169789350Y-162446234D01*
X169777199Y-162489986D01*
X169556066Y-162489986D01*
X169487115Y-162489548D01*
X169426926Y-162488329D01*
X169379090Y-162486470D01*
X169347198Y-162484113D01*
X169334841Y-162481401D01*
X169334799Y-162481236D01*
X169338343Y-162468285D01*
X169348408Y-162436180D01*
X169364030Y-162387871D01*
X169384249Y-162326305D01*
X169408101Y-162254433D01*
X169434624Y-162175202D01*
X169435684Y-162172049D01*
X169536703Y-161871612D01*
X169604996Y-161871612D01*
X169641405Y-161873127D01*
G37*
G36*
X168331534Y-161323243D02*
G01*
X168331534Y-161509922D01*
X168176941Y-161509455D01*
X168104564Y-161508378D01*
X168051973Y-161505427D01*
X168015670Y-161500267D01*
X167992156Y-161492564D01*
X167990262Y-161491581D01*
X167963830Y-161467731D01*
X167958177Y-161445379D01*
X167958177Y-161416583D01*
X167762164Y-161416583D01*
X167679214Y-161415898D01*
X167618106Y-161413779D01*
X167577384Y-161410128D01*
X167555592Y-161404850D01*
X167552150Y-161402582D01*
X167544534Y-161383512D01*
X167539729Y-161349798D01*
X167538120Y-161310006D01*
X167540090Y-161272701D01*
X167545231Y-161248359D01*
X167550657Y-161241584D01*
X167563087Y-161236664D01*
X167585722Y-161233317D01*
X167621765Y-161231263D01*
X167674419Y-161230220D01*
X167746884Y-161229906D01*
X167755245Y-161229904D01*
X167828397Y-161229831D01*
X167881450Y-161229335D01*
X167917641Y-161227998D01*
X167940207Y-161225402D01*
X167952382Y-161221128D01*
X167957405Y-161214760D01*
X167958510Y-161205878D01*
X167958548Y-161203652D01*
X167960581Y-161179271D01*
X167968030Y-161161602D01*
X167984108Y-161149579D01*
X168012028Y-161142136D01*
X168055006Y-161138206D01*
X168116253Y-161136723D01*
X168160726Y-161136564D01*
X168331534Y-161136564D01*
X168331534Y-161323243D01*
G37*
G36*
X170091182Y-159925669D02*
G01*
X170124198Y-159930614D01*
X170135171Y-159935664D01*
X170141512Y-159945764D01*
X170146088Y-159965969D01*
X170149138Y-159999325D01*
X170150899Y-160048872D01*
X170151609Y-160117655D01*
X170151654Y-160146261D01*
X170151654Y-160343179D01*
X170180036Y-160343179D01*
X170193185Y-160343891D01*
X170203563Y-160347644D01*
X170211453Y-160356864D01*
X170217139Y-160373979D01*
X170220903Y-160401415D01*
X170223028Y-160441598D01*
X170223797Y-160496955D01*
X170223492Y-160569912D01*
X170222398Y-160662895D01*
X170221861Y-160701952D01*
X170215751Y-160707910D01*
X170195922Y-160712135D01*
X170159843Y-160714837D01*
X170104982Y-160716227D01*
X170046647Y-160716537D01*
X169871635Y-160716537D01*
X169871635Y-160549167D01*
X169872096Y-160478072D01*
X169874259Y-160426604D01*
X169879296Y-160391062D01*
X169888377Y-160367743D01*
X169902675Y-160352947D01*
X169923361Y-160342971D01*
X169938451Y-160338025D01*
X169947882Y-160334331D01*
X169954770Y-160327612D01*
X169959588Y-160314490D01*
X169962807Y-160291584D01*
X169964901Y-160255516D01*
X169966343Y-160202907D01*
X169967606Y-160130378D01*
X169967619Y-160129548D01*
X169970809Y-159928985D01*
X170044749Y-159925485D01*
X170091182Y-159925669D01*
G37*
G36*
X171423389Y-161871639D02*
G01*
X171481995Y-161872365D01*
X171522521Y-161874760D01*
X171547595Y-161879792D01*
X171559843Y-161888432D01*
X171561891Y-161901648D01*
X171556367Y-161920409D01*
X171545898Y-161945686D01*
X171545755Y-161946026D01*
X171528098Y-161988287D01*
X171453979Y-161988287D01*
X171379861Y-161988287D01*
X171355875Y-162055375D01*
X171343773Y-162089886D01*
X171326188Y-162140892D01*
X171305051Y-162202760D01*
X171282287Y-162269858D01*
X171270017Y-162306224D01*
X171208144Y-162489986D01*
X171140763Y-162489986D01*
X171104631Y-162488302D01*
X171080175Y-162483939D01*
X171073381Y-162479258D01*
X171076942Y-162466075D01*
X171086729Y-162434840D01*
X171101396Y-162389570D01*
X171119596Y-162334286D01*
X171139984Y-162273006D01*
X171161213Y-162209749D01*
X171181939Y-162148536D01*
X171200815Y-162093384D01*
X171216495Y-162048314D01*
X171227633Y-162017344D01*
X171230955Y-162008705D01*
X171232990Y-161997443D01*
X171224475Y-161991273D01*
X171200852Y-161988720D01*
X171167969Y-161988287D01*
X171125067Y-161986682D01*
X171102280Y-161979007D01*
X171096457Y-161960972D01*
X171104446Y-161928286D01*
X171110727Y-161910360D01*
X171124738Y-161871612D01*
X171344076Y-161871612D01*
X171423389Y-161871639D01*
G37*
G36*
X168328921Y-162994456D02*
G01*
X168327329Y-163063838D01*
X168325221Y-163113081D01*
X168322228Y-163145381D01*
X168317978Y-163163933D01*
X168312100Y-163171934D01*
X168308200Y-163172988D01*
X168290620Y-163172819D01*
X168254511Y-163171834D01*
X168204660Y-163170185D01*
X168145851Y-163168021D01*
X168127354Y-163167301D01*
X167964010Y-163160864D01*
X167960318Y-163128778D01*
X167956627Y-163096693D01*
X167754470Y-163096693D01*
X167678463Y-163096756D01*
X167622671Y-163095940D01*
X167583981Y-163092739D01*
X167559281Y-163085647D01*
X167545460Y-163073156D01*
X167539405Y-163053762D01*
X167538003Y-163025956D01*
X167538149Y-162991980D01*
X167539960Y-162950071D01*
X167546170Y-162926533D01*
X167556604Y-162917096D01*
X167574082Y-162914709D01*
X167610528Y-162912666D01*
X167661577Y-162911113D01*
X167722863Y-162910197D01*
X167766618Y-162910014D01*
X167837391Y-162909931D01*
X167888160Y-162909380D01*
X167922257Y-162907903D01*
X167943013Y-162905047D01*
X167953760Y-162900354D01*
X167957828Y-162893370D01*
X167958548Y-162883762D01*
X167960576Y-162859397D01*
X167968009Y-162841736D01*
X167984058Y-162829713D01*
X168011936Y-162822265D01*
X168054853Y-162818328D01*
X168116021Y-162816837D01*
X168161030Y-162816674D01*
X168332142Y-162816674D01*
X168328921Y-162994456D01*
G37*
G36*
X169393492Y-162877417D02*
G01*
X169392920Y-162903768D01*
X169391194Y-162949206D01*
X169388506Y-163009523D01*
X169385047Y-163080510D01*
X169381008Y-163157959D01*
X169379422Y-163187115D01*
X169365129Y-163446716D01*
X169290855Y-163446716D01*
X169216580Y-163446716D01*
X169224598Y-163382545D01*
X169232615Y-163318374D01*
X169146230Y-163318374D01*
X169059846Y-163318374D01*
X169020954Y-163382545D01*
X168982062Y-163446716D01*
X168907238Y-163446716D01*
X168867234Y-163446148D01*
X168846304Y-163443516D01*
X168840196Y-163437432D01*
X168844660Y-163426504D01*
X168844784Y-163426298D01*
X168854089Y-163411512D01*
X168874299Y-163379767D01*
X168903705Y-163333735D01*
X168940598Y-163276091D01*
X168983269Y-163209504D01*
X168988276Y-163201700D01*
X169135236Y-163201700D01*
X169181742Y-163201700D01*
X169228248Y-163201700D01*
X169235534Y-163134612D01*
X169240504Y-163091986D01*
X169245427Y-163054700D01*
X169247956Y-163038356D01*
X169253092Y-163009187D01*
X169232759Y-163037367D01*
X169216270Y-163062411D01*
X169193818Y-163099230D01*
X169173831Y-163133623D01*
X169135236Y-163201700D01*
X168988276Y-163201700D01*
X169030008Y-163136649D01*
X169040678Y-163120028D01*
X169224201Y-162834176D01*
X169308736Y-162830748D01*
X169393271Y-162827320D01*
X169393492Y-162877417D01*
G37*
G36*
X172698279Y-161183234D02*
G01*
X172716612Y-161229904D01*
X172914970Y-161229904D01*
X173113328Y-161229904D01*
X173119359Y-161261989D01*
X173122792Y-161298808D01*
X173122112Y-161329077D01*
X173119024Y-161364359D01*
X173117008Y-161390331D01*
X173115771Y-161399769D01*
X173111406Y-161406621D01*
X173100664Y-161411301D01*
X173080295Y-161414223D01*
X173047050Y-161415801D01*
X172997680Y-161416449D01*
X172928934Y-161416582D01*
X172911002Y-161416583D01*
X172837529Y-161416699D01*
X172784179Y-161417292D01*
X172747738Y-161418730D01*
X172724994Y-161421379D01*
X172712735Y-161425606D01*
X172707749Y-161431779D01*
X172706821Y-161439917D01*
X172698903Y-161465317D01*
X172683487Y-161486587D01*
X172671910Y-161496086D01*
X172656695Y-161502611D01*
X172633604Y-161506708D01*
X172598402Y-161508924D01*
X172546855Y-161509806D01*
X172502641Y-161509922D01*
X172439427Y-161509790D01*
X172395848Y-161508987D01*
X172368205Y-161506901D01*
X172352798Y-161502922D01*
X172345927Y-161496438D01*
X172343893Y-161486839D01*
X172343695Y-161483670D01*
X172341068Y-161424853D01*
X172339214Y-161361647D01*
X172338181Y-161299383D01*
X172338017Y-161243395D01*
X172338767Y-161199015D01*
X172340479Y-161171574D01*
X172340929Y-161168650D01*
X172346985Y-161136564D01*
X172513466Y-161136564D01*
X172679947Y-161136564D01*
X172698279Y-161183234D01*
G37*
G36*
X169531146Y-159925669D02*
G01*
X169564161Y-159930614D01*
X169575135Y-159935664D01*
X169581475Y-159945764D01*
X169586051Y-159965969D01*
X169589101Y-159999325D01*
X169590862Y-160048872D01*
X169591572Y-160117655D01*
X169591617Y-160146261D01*
X169591617Y-160343179D01*
X169619689Y-160343179D01*
X169638510Y-160347324D01*
X169652408Y-160363383D01*
X169666027Y-160396790D01*
X169666359Y-160397761D01*
X169679107Y-160442116D01*
X169684512Y-160476579D01*
X169682379Y-160497233D01*
X169672513Y-160500160D01*
X169671438Y-160499545D01*
X169665325Y-160501696D01*
X169662554Y-160519559D01*
X169662985Y-160555727D01*
X169665840Y-160603864D01*
X169673760Y-160716537D01*
X169492679Y-160716537D01*
X169311599Y-160716537D01*
X169311599Y-160549167D01*
X169312059Y-160478072D01*
X169312089Y-160477354D01*
X169661622Y-160477354D01*
X169667455Y-160483188D01*
X169673289Y-160477354D01*
X169667455Y-160471521D01*
X169661622Y-160477354D01*
X169312089Y-160477354D01*
X169314222Y-160426604D01*
X169319259Y-160391062D01*
X169328340Y-160367743D01*
X169342638Y-160352947D01*
X169363324Y-160342971D01*
X169378414Y-160338025D01*
X169387845Y-160334331D01*
X169394733Y-160327612D01*
X169399551Y-160314490D01*
X169402770Y-160291584D01*
X169404865Y-160255516D01*
X169406307Y-160202907D01*
X169407569Y-160130378D01*
X169407583Y-160129548D01*
X169410772Y-159928985D01*
X169484712Y-159925485D01*
X169531146Y-159925669D01*
G37*
G36*
X171043736Y-161897864D02*
G01*
X171033415Y-161931352D01*
X171023252Y-161954656D01*
X171009080Y-161969806D01*
X170986735Y-161978831D01*
X170952051Y-161983760D01*
X170900861Y-161986625D01*
X170858146Y-161988287D01*
X170707332Y-161994121D01*
X170687236Y-162052369D01*
X170676874Y-162086716D01*
X170672034Y-162111805D01*
X170672602Y-162119456D01*
X170685945Y-162123382D01*
X170717025Y-162126412D01*
X170760248Y-162128097D01*
X170782384Y-162128296D01*
X170832125Y-162128710D01*
X170862979Y-162130598D01*
X170879387Y-162134931D01*
X170885792Y-162142678D01*
X170886702Y-162151082D01*
X170881889Y-162179124D01*
X170873339Y-162203196D01*
X170866048Y-162216541D01*
X170855641Y-162225247D01*
X170837370Y-162230499D01*
X170806486Y-162233480D01*
X170758240Y-162235375D01*
X170742453Y-162235830D01*
X170624929Y-162239137D01*
X170582830Y-162361645D01*
X170540730Y-162484153D01*
X170467223Y-162487665D01*
X170426823Y-162488675D01*
X170405474Y-162486268D01*
X170399040Y-162479635D01*
X170400087Y-162474575D01*
X170405533Y-162459198D01*
X170417366Y-162425036D01*
X170434450Y-162375393D01*
X170455648Y-162313574D01*
X170479827Y-162242884D01*
X170495533Y-162196878D01*
X170521391Y-162121270D01*
X170545376Y-162051478D01*
X170566256Y-161991065D01*
X170582799Y-161943590D01*
X170593770Y-161912615D01*
X170597062Y-161903698D01*
X170609515Y-161871612D01*
X170830567Y-161871612D01*
X171051619Y-161871612D01*
X171043736Y-161897864D01*
G37*
G36*
X171697589Y-162830897D02*
G01*
X171779261Y-162834176D01*
X171776622Y-162910014D01*
X171775404Y-162945969D01*
X171773614Y-163000016D01*
X171771425Y-163066923D01*
X171769006Y-163141458D01*
X171766597Y-163216284D01*
X171759210Y-163446716D01*
X171684646Y-163446716D01*
X171610083Y-163446716D01*
X171610083Y-163382545D01*
X171610083Y-163318374D01*
X171529982Y-163318374D01*
X171449882Y-163318374D01*
X171410391Y-163379628D01*
X171370900Y-163440882D01*
X171297979Y-163444356D01*
X171260225Y-163445349D01*
X171233875Y-163444505D01*
X171225058Y-163442295D01*
X171231036Y-163430711D01*
X171247011Y-163404476D01*
X171270041Y-163368358D01*
X171281158Y-163351316D01*
X171304606Y-163315279D01*
X171337688Y-163263988D01*
X171377546Y-163201899D01*
X171380546Y-163197209D01*
X171528411Y-163197209D01*
X171538751Y-163200063D01*
X171564478Y-163201609D01*
X171573495Y-163201700D01*
X171600968Y-163200594D01*
X171615181Y-163193161D01*
X171622125Y-163173226D01*
X171625998Y-163147568D01*
X171630681Y-163103654D01*
X171633192Y-163061064D01*
X171633331Y-163051312D01*
X171632773Y-163032391D01*
X171629739Y-163025292D01*
X171622036Y-163032087D01*
X171607474Y-163054846D01*
X171583861Y-163095643D01*
X171580828Y-163100952D01*
X171557724Y-163141863D01*
X171539819Y-163174447D01*
X171529720Y-163193919D01*
X171528411Y-163197209D01*
X171380546Y-163197209D01*
X171421321Y-163133466D01*
X171466154Y-163063145D01*
X171476587Y-163046745D01*
X171615917Y-162827618D01*
X171697589Y-162830897D01*
G37*
G36*
X171676883Y-164727448D02*
G01*
X171729910Y-164729514D01*
X171783368Y-164732296D01*
X171832228Y-164735541D01*
X171871464Y-164738997D01*
X171896048Y-164742410D01*
X171901853Y-164744718D01*
X171901822Y-164758989D01*
X171901797Y-164792099D01*
X171901778Y-164839551D01*
X171901769Y-164896851D01*
X171901769Y-164915671D01*
X171901769Y-165077874D01*
X171866766Y-165090075D01*
X171831764Y-165102277D01*
X171831764Y-165294055D01*
X171831673Y-165364945D01*
X171831069Y-165416152D01*
X171829452Y-165451328D01*
X171826325Y-165474124D01*
X171821188Y-165488192D01*
X171813543Y-165497184D01*
X171803006Y-165504676D01*
X171767090Y-165518628D01*
X171723557Y-165522924D01*
X171683136Y-165517304D01*
X171663396Y-165508052D01*
X171655229Y-165499929D01*
X171649526Y-165487001D01*
X171645905Y-165465536D01*
X171643984Y-165431800D01*
X171643380Y-165382060D01*
X171643685Y-165315652D01*
X171644039Y-165247332D01*
X171643492Y-165198270D01*
X171641570Y-165164392D01*
X171637800Y-165141626D01*
X171631705Y-165125899D01*
X171622813Y-165113137D01*
X171619667Y-165109437D01*
X171595918Y-165089054D01*
X171573633Y-165080170D01*
X171572977Y-165080156D01*
X171564777Y-165078509D01*
X171559002Y-165071270D01*
X171555232Y-165054995D01*
X171553046Y-165026238D01*
X171552025Y-164981555D01*
X171551749Y-164917501D01*
X171551746Y-164906000D01*
X171552033Y-164837965D01*
X171553138Y-164789831D01*
X171555426Y-164758171D01*
X171559260Y-164739554D01*
X171565007Y-164730552D01*
X171570667Y-164728072D01*
X171592234Y-164726474D01*
X171629315Y-164726350D01*
X171676883Y-164727448D01*
G37*
G36*
X170507767Y-161872367D02*
G01*
X170527651Y-161875640D01*
X170533424Y-161882945D01*
X170531242Y-161892030D01*
X170525276Y-161908734D01*
X170513031Y-161944022D01*
X170495715Y-161994380D01*
X170474534Y-162056292D01*
X170450698Y-162126241D01*
X170440683Y-162155704D01*
X170358057Y-162398959D01*
X170300477Y-162444472D01*
X170242898Y-162489986D01*
X170093306Y-162489986D01*
X169943714Y-162489986D01*
X169913509Y-162454089D01*
X169894210Y-162427799D01*
X169883859Y-162407163D01*
X169883303Y-162403742D01*
X169886886Y-162388957D01*
X169896935Y-162355390D01*
X169912397Y-162306347D01*
X169932221Y-162245136D01*
X169955353Y-162175065D01*
X169969300Y-162133369D01*
X170055297Y-161877446D01*
X170126810Y-161873973D01*
X170164153Y-161872885D01*
X170190031Y-161873520D01*
X170198324Y-161875402D01*
X170194737Y-161887431D01*
X170184728Y-161918153D01*
X170169424Y-161964182D01*
X170149953Y-162022131D01*
X170127443Y-162088613D01*
X170122485Y-162103194D01*
X170099300Y-162172471D01*
X170078977Y-162235367D01*
X170062673Y-162288120D01*
X170051545Y-162326972D01*
X170046749Y-162348165D01*
X170046647Y-162349697D01*
X170048789Y-162362116D01*
X170058553Y-162369223D01*
X170080946Y-162372468D01*
X170120974Y-162373304D01*
X170128050Y-162373312D01*
X170172226Y-162372414D01*
X170199362Y-162368606D01*
X170215720Y-162360222D01*
X170226615Y-162347060D01*
X170235783Y-162327851D01*
X170250747Y-162290559D01*
X170269978Y-162239255D01*
X170291946Y-162178012D01*
X170313178Y-162116629D01*
X170335746Y-162050441D01*
X170356170Y-161990934D01*
X170373095Y-161942022D01*
X170385166Y-161907622D01*
X170390872Y-161892030D01*
X170400703Y-161880110D01*
X170421530Y-161873803D01*
X170458888Y-161871666D01*
X170469171Y-161871612D01*
X170507767Y-161872367D01*
G37*
G36*
X170624442Y-162829097D02*
G01*
X170644326Y-162832370D01*
X170650099Y-162839674D01*
X170647917Y-162848760D01*
X170641951Y-162865463D01*
X170629705Y-162900752D01*
X170612389Y-162951110D01*
X170591209Y-163013021D01*
X170567372Y-163082970D01*
X170557357Y-163112433D01*
X170474731Y-163355688D01*
X170417152Y-163401202D01*
X170359572Y-163446716D01*
X170209980Y-163446716D01*
X170060389Y-163446716D01*
X170030183Y-163410818D01*
X170010885Y-163384528D01*
X170000534Y-163363892D01*
X169999977Y-163360471D01*
X170003561Y-163345687D01*
X170013609Y-163312119D01*
X170029072Y-163263077D01*
X170048895Y-163201866D01*
X170072028Y-163131795D01*
X170085974Y-163090098D01*
X170171972Y-162834176D01*
X170243485Y-162830702D01*
X170280827Y-162829615D01*
X170306705Y-162830250D01*
X170314998Y-162832132D01*
X170311411Y-162844161D01*
X170301402Y-162874883D01*
X170286098Y-162920912D01*
X170266628Y-162978860D01*
X170244117Y-163045342D01*
X170239160Y-163059923D01*
X170215974Y-163129201D01*
X170195651Y-163192096D01*
X170179347Y-163244849D01*
X170168219Y-163283702D01*
X170163424Y-163304895D01*
X170163321Y-163306426D01*
X170165463Y-163318846D01*
X170175228Y-163325952D01*
X170197620Y-163329197D01*
X170237649Y-163330034D01*
X170244724Y-163330042D01*
X170288900Y-163329143D01*
X170316036Y-163325336D01*
X170332394Y-163316951D01*
X170343289Y-163303790D01*
X170352457Y-163284581D01*
X170367421Y-163247288D01*
X170386652Y-163195985D01*
X170408620Y-163134742D01*
X170429852Y-163073358D01*
X170452420Y-163007171D01*
X170472844Y-162947663D01*
X170489769Y-162898751D01*
X170501840Y-162864352D01*
X170507547Y-162848760D01*
X170517378Y-162836839D01*
X170538205Y-162830532D01*
X170575562Y-162828396D01*
X170585845Y-162828342D01*
X170624442Y-162829097D01*
G37*
G36*
X169866862Y-162828486D02*
G01*
X170017478Y-162828631D01*
X170043730Y-162869159D01*
X170060241Y-162897122D01*
X170069355Y-162917364D01*
X170069982Y-162920729D01*
X170066395Y-162934795D01*
X170056418Y-162967282D01*
X170041226Y-163014536D01*
X170021994Y-163072904D01*
X169999895Y-163138732D01*
X169999700Y-163139307D01*
X169966943Y-163232473D01*
X169939312Y-163303393D01*
X169916876Y-163351906D01*
X169900164Y-163377379D01*
X169881143Y-163404121D01*
X169877726Y-163425649D01*
X169877896Y-163426119D01*
X169873495Y-163446695D01*
X169847325Y-163472950D01*
X169845072Y-163474689D01*
X169808700Y-163498021D01*
X169781988Y-163502895D01*
X169760393Y-163489369D01*
X169750200Y-163475884D01*
X169740141Y-163462521D01*
X169727778Y-163454017D01*
X169708069Y-163449279D01*
X169675975Y-163447211D01*
X169626453Y-163446721D01*
X169615835Y-163446716D01*
X169500583Y-163446716D01*
X169474553Y-163402963D01*
X169448523Y-163359210D01*
X169466866Y-163303790D01*
X169615036Y-163303790D01*
X169619657Y-163324272D01*
X169627406Y-163330042D01*
X169634873Y-163321117D01*
X169633428Y-163309624D01*
X169637132Y-163288732D01*
X169662088Y-163265413D01*
X169664727Y-163263594D01*
X169701782Y-163240081D01*
X169726205Y-163231138D01*
X169743732Y-163236940D01*
X169760099Y-163257663D01*
X169765562Y-163266684D01*
X169782412Y-163291267D01*
X169795129Y-163302807D01*
X169798062Y-163302497D01*
X169805741Y-163287512D01*
X169818384Y-163255218D01*
X169834326Y-163210682D01*
X169851901Y-163158968D01*
X169869447Y-163105143D01*
X169885299Y-163054271D01*
X169897791Y-163011419D01*
X169905260Y-162981652D01*
X169906638Y-162972068D01*
X169904957Y-162957339D01*
X169896364Y-162949226D01*
X169875533Y-162945771D01*
X169837139Y-162945018D01*
X169833029Y-162945016D01*
X169790259Y-162947306D01*
X169755501Y-162953281D01*
X169739225Y-162959784D01*
X169728555Y-162975677D01*
X169712938Y-163008924D01*
X169694171Y-163054545D01*
X169674053Y-163107555D01*
X169654383Y-163162972D01*
X169636959Y-163215812D01*
X169623582Y-163261095D01*
X169616049Y-163293835D01*
X169615036Y-163303790D01*
X169466866Y-163303790D01*
X169521049Y-163140085D01*
X169593574Y-162920960D01*
X169654910Y-162874651D01*
X169716246Y-162828342D01*
X169866862Y-162828486D01*
G37*
G36*
X169707594Y-160811916D02*
G01*
X169931018Y-160812071D01*
X170176630Y-160812370D01*
X170346890Y-160812638D01*
X172158065Y-160815710D01*
X172202012Y-160859656D01*
X172245958Y-160903603D01*
X172248894Y-162708944D01*
X172249280Y-162948886D01*
X172249613Y-163166598D01*
X172249879Y-163363188D01*
X172250068Y-163539761D01*
X172250167Y-163697424D01*
X172250163Y-163837282D01*
X172250045Y-163960441D01*
X172249801Y-164068008D01*
X172249417Y-164161089D01*
X172248882Y-164240789D01*
X172248184Y-164308215D01*
X172247311Y-164364473D01*
X172246250Y-164410669D01*
X172244989Y-164447908D01*
X172243516Y-164477298D01*
X172241819Y-164499943D01*
X172239885Y-164516951D01*
X172237703Y-164529426D01*
X172235261Y-164538476D01*
X172232545Y-164545206D01*
X172229544Y-164550722D01*
X172228583Y-164552312D01*
X172201684Y-164585286D01*
X172168619Y-164612710D01*
X172167309Y-164613522D01*
X172161901Y-164616611D01*
X172155553Y-164619412D01*
X172147158Y-164621939D01*
X172135606Y-164624208D01*
X172119789Y-164626230D01*
X172098598Y-164628022D01*
X172070924Y-164629595D01*
X172035658Y-164630965D01*
X171991692Y-164632144D01*
X171937917Y-164633148D01*
X171873224Y-164633990D01*
X171796504Y-164634684D01*
X171706648Y-164635243D01*
X171602548Y-164635682D01*
X171483095Y-164636015D01*
X171347180Y-164636255D01*
X171193694Y-164636417D01*
X171021528Y-164636515D01*
X170829575Y-164636561D01*
X170616724Y-164636571D01*
X170381868Y-164636558D01*
X170332499Y-164636554D01*
X168535714Y-164636401D01*
X168497360Y-164611841D01*
X168487820Y-164606313D01*
X168479152Y-164601797D01*
X168471314Y-164597207D01*
X168464265Y-164591455D01*
X168457963Y-164583454D01*
X168452366Y-164572117D01*
X168447433Y-164556357D01*
X168443123Y-164535086D01*
X168439393Y-164507217D01*
X168436203Y-164471664D01*
X168435603Y-164461782D01*
X168599885Y-164461782D01*
X170344166Y-164461782D01*
X172088448Y-164461782D01*
X172088448Y-162717501D01*
X172088448Y-160973220D01*
X170344166Y-160973220D01*
X168599885Y-160973220D01*
X168599885Y-162717501D01*
X168599885Y-164461782D01*
X168435603Y-164461782D01*
X168433510Y-164427339D01*
X168431273Y-164373155D01*
X168429450Y-164308025D01*
X168428000Y-164230862D01*
X168426882Y-164140578D01*
X168426053Y-164036087D01*
X168425472Y-163916300D01*
X168425098Y-163780132D01*
X168424889Y-163626495D01*
X168424803Y-163454302D01*
X168424799Y-163262465D01*
X168424835Y-163049898D01*
X168424870Y-162815514D01*
X168424874Y-162717501D01*
X168424874Y-162716541D01*
X168424878Y-162476649D01*
X168424899Y-162258986D01*
X168424951Y-162062445D01*
X168425048Y-161885920D01*
X168425205Y-161728306D01*
X168425435Y-161588495D01*
X168425753Y-161465382D01*
X168426172Y-161357861D01*
X168426706Y-161264825D01*
X168427371Y-161185168D01*
X168428179Y-161117785D01*
X168429145Y-161061568D01*
X168430282Y-161015411D01*
X168431606Y-160978209D01*
X168433130Y-160948856D01*
X168434868Y-160926244D01*
X168436834Y-160909268D01*
X168439042Y-160896822D01*
X168441506Y-160887799D01*
X168444241Y-160881094D01*
X168447261Y-160875600D01*
X168448312Y-160873880D01*
X168472643Y-160844731D01*
X168500831Y-160824068D01*
X168503732Y-160822762D01*
X168515215Y-160820878D01*
X168540529Y-160819186D01*
X168580370Y-160817680D01*
X168635435Y-160816358D01*
X168706420Y-160815215D01*
X168794022Y-160814247D01*
X168898937Y-160813452D01*
X169021862Y-160812824D01*
X169163494Y-160812360D01*
X169324529Y-160812057D01*
X169505663Y-160811910D01*
X169707594Y-160811916D01*
G37*
%TO.C,L1*%
D13*
X125115000Y-152790000D02*
X132335000Y-152790000D01*
X125115000Y-154190000D02*
X125115000Y-152790000D01*
X125115000Y-159610000D02*
X125115000Y-158210000D01*
X132335000Y-152790000D02*
X132335000Y-154190000D01*
X132335000Y-158210000D02*
X132335000Y-159610000D01*
X132335000Y-159610000D02*
X125115000Y-159610000D01*
%TO.C,C1*%
X180584699Y-151076919D02*
X180584699Y-151358079D01*
X181604699Y-151076919D02*
X181604699Y-151358079D01*
%TO.C,R7*%
X133924242Y-142608913D02*
X134398758Y-142608913D01*
X133924242Y-143653913D02*
X134398758Y-143653913D01*
%TO.C,R6*%
X121556816Y-145807900D02*
X122031332Y-145807900D01*
X121556816Y-146852900D02*
X122031332Y-146852900D01*
%TO.C,J1*%
X92690000Y-133640000D02*
X92690000Y-138550000D01*
X92690000Y-143460000D02*
X92690000Y-138550000D01*
X105700000Y-139040000D02*
X105700000Y-138060000D01*
X105710000Y-133640000D02*
X92690000Y-133640000D01*
X105710000Y-134450000D02*
X105710000Y-133640000D01*
X105710000Y-142650000D02*
X105710000Y-143460000D01*
X105710000Y-143460000D02*
X92690000Y-143460000D01*
X106400000Y-143250000D02*
X106700000Y-142650000D01*
X106700000Y-142650000D02*
X107000000Y-143250000D01*
X107000000Y-143250000D02*
X106400000Y-143250000D01*
X108810000Y-136150000D02*
X110090000Y-136150000D01*
X108810000Y-136750000D02*
X110090000Y-136750000D01*
X108810000Y-140350000D02*
X110090000Y-140350000D01*
X108810000Y-140950000D02*
X110090000Y-140950000D01*
%TO.C,R5*%
X133912042Y-146707100D02*
X134386558Y-146707100D01*
X133912042Y-147752100D02*
X134386558Y-147752100D01*
%TO.C,Q4*%
X124702500Y-139641013D02*
X126222500Y-139641013D01*
X124702500Y-140641013D02*
X124702500Y-139641013D01*
X124702500Y-142761013D02*
X124702500Y-141761013D01*
X126222500Y-139641013D02*
X126222500Y-139691013D01*
X126222500Y-140811013D02*
X126222500Y-141591013D01*
X126222500Y-142711013D02*
X126222500Y-142761013D01*
X126222500Y-142761013D02*
X124702500Y-142761013D01*
X126762500Y-141581013D02*
X126522500Y-141251013D01*
X127002500Y-141251013D01*
X126762500Y-141581013D01*
G36*
X126762500Y-141581013D02*
G01*
X126522500Y-141251013D01*
X127002500Y-141251013D01*
X126762500Y-141581013D01*
G37*
%TO.C,D2*%
X130565000Y-135390000D02*
X131565000Y-135390000D01*
X130565000Y-136910000D02*
X130565000Y-135390000D01*
X130615000Y-136910000D02*
X130565000Y-136910000D01*
X132515000Y-136910000D02*
X131735000Y-136910000D01*
X132685000Y-135390000D02*
X133685000Y-135390000D01*
X133685000Y-135390000D02*
X133685000Y-136910000D01*
X133685000Y-136910000D02*
X133635000Y-136910000D01*
X131745000Y-137450000D02*
X132075000Y-137210000D01*
X132075000Y-137690000D01*
X131745000Y-137450000D01*
G36*
X132075000Y-137690000D02*
G01*
X131745000Y-137450000D01*
X132075000Y-137210000D01*
X132075000Y-137690000D01*
G37*
%TO.C,U1*%
D14*
X143591569Y-168146588D02*
X143591569Y-161646598D01*
X143591569Y-168146588D02*
X143591569Y-161646598D01*
X144350369Y-161646598D02*
X143591569Y-161646598D01*
X144350369Y-161646598D02*
X143591569Y-161646598D01*
X145179069Y-162501588D02*
X145179069Y-162059248D01*
X145179069Y-162501588D02*
X145179069Y-162059248D01*
X146929079Y-162501588D02*
X145179069Y-162501588D01*
X146929079Y-162501588D02*
X145179069Y-162501588D01*
X146929079Y-162501588D02*
X146929079Y-162057728D01*
X146929079Y-162501588D02*
X146929079Y-162057728D01*
X149425969Y-162499458D02*
X149425969Y-162057728D01*
X149425969Y-162499458D02*
X149425969Y-162057728D01*
X151175979Y-162499458D02*
X149425969Y-162499458D01*
X151175979Y-162499458D02*
X149425969Y-162499458D01*
X151175979Y-162499458D02*
X151175979Y-162057728D01*
X151175979Y-162499458D02*
X151175979Y-162057728D01*
X151887079Y-161646598D02*
X151832619Y-161646598D01*
X151887079Y-161646598D02*
X151832619Y-161646598D01*
X152541559Y-168146588D02*
X143591569Y-168146588D01*
X152541559Y-168146588D02*
X143591569Y-168146588D01*
X152591549Y-168146588D02*
X152541559Y-168146588D01*
X152591549Y-168146588D02*
X152541559Y-168146588D01*
X152591549Y-168146588D02*
X152591549Y-161646598D01*
X152591549Y-168146588D02*
X152591549Y-161646598D01*
X152596019Y-161646598D02*
X151887079Y-161646598D01*
X152596019Y-161646598D02*
X151887079Y-161646598D01*
D15*
X139069099Y-134344158D02*
X157114000Y-134344158D01*
X157114000Y-167682539D01*
X139069099Y-167682539D01*
X139069099Y-134344158D01*
%TO.C,C4*%
D13*
X126247620Y-162042400D02*
X126528780Y-162042400D01*
X126247620Y-163062400D02*
X126528780Y-163062400D01*
%TO.C,R4*%
X127777500Y-137612742D02*
X127777500Y-138087258D01*
X128822500Y-137612742D02*
X128822500Y-138087258D01*
%TO.C,R1*%
X126252542Y-164417500D02*
X126727058Y-164417500D01*
X126252542Y-165462500D02*
X126727058Y-165462500D01*
%TO.C,C3*%
X133142600Y-162184770D02*
X133142600Y-162465930D01*
X134162600Y-162184770D02*
X134162600Y-162465930D01*
%TO.C,BT1*%
X103045200Y-111235000D02*
X180825200Y-111235000D01*
X103045200Y-118410000D02*
X103045200Y-111235000D01*
X103045200Y-132605000D02*
X103045200Y-125430000D01*
X180825200Y-111235000D02*
X180825200Y-118410000D01*
X180825200Y-125430000D02*
X180825200Y-132605000D01*
X180825200Y-132605000D02*
X103045200Y-132605000D01*
%TO.C,D1*%
X118948200Y-155200000D02*
X118948200Y-157200000D01*
X118948200Y-155200000D02*
X122958200Y-155200000D01*
X118948200Y-157200000D02*
X122958200Y-157200000D01*
%TO.C,Q3*%
X129200600Y-140591013D02*
X130720600Y-140591013D01*
X129200600Y-141591013D02*
X129200600Y-140591013D01*
X129200600Y-143711013D02*
X129200600Y-142711013D01*
X130720600Y-140591013D02*
X130720600Y-140641013D01*
X130720600Y-141761013D02*
X130720600Y-142541013D01*
X130720600Y-143661013D02*
X130720600Y-143711013D01*
X130720600Y-143711013D02*
X129200600Y-143711013D01*
X131260600Y-142531013D02*
X131020600Y-142201013D01*
X131500600Y-142201013D01*
X131260600Y-142531013D01*
G36*
X131260600Y-142531013D02*
G01*
X131020600Y-142201013D01*
X131500600Y-142201013D01*
X131260600Y-142531013D01*
G37*
%TO.C,U3*%
X129694600Y-160927500D02*
X131514600Y-160927500D01*
X129694600Y-160977500D02*
X129694600Y-160927500D01*
X129694600Y-164047500D02*
X129694600Y-163997500D01*
X131514600Y-160927500D02*
X131514600Y-160977500D01*
X131514600Y-162097500D02*
X131514600Y-162877500D01*
X131514600Y-163997500D02*
X131514600Y-164047500D01*
X131514600Y-164047500D02*
X129694600Y-164047500D01*
X129154600Y-160977500D02*
X128914600Y-160647500D01*
X129394600Y-160647500D01*
X129154600Y-160977500D01*
G36*
X129154600Y-160977500D02*
G01*
X128914600Y-160647500D01*
X129394600Y-160647500D01*
X129154600Y-160977500D01*
G37*
%TO.C,C6*%
X126349220Y-166258800D02*
X126630380Y-166258800D01*
X126349220Y-167278800D02*
X126630380Y-167278800D01*
%TO.C,R2*%
X129554542Y-164417500D02*
X130029058Y-164417500D01*
X129554542Y-165462500D02*
X130029058Y-165462500D01*
%TO.C,C5*%
X136590000Y-140140580D02*
X136590000Y-139859420D01*
X137610000Y-140140580D02*
X137610000Y-139859420D01*
%TO.C,R8*%
X121567642Y-141643713D02*
X122042158Y-141643713D01*
X121567642Y-142688713D02*
X122042158Y-142688713D01*
%TO.C,U2*%
D10*
X162082400Y-138671600D02*
X162082400Y-139421600D01*
X162082400Y-156171600D02*
X162082400Y-155421600D01*
X178582400Y-138671600D02*
X162082400Y-138671600D01*
X178582400Y-139421600D02*
X178582400Y-138671600D01*
X178582400Y-155421600D02*
X178582400Y-156171600D01*
X178582400Y-156171600D02*
X162082400Y-156171600D01*
D13*
X178882400Y-155421600D02*
X179382400Y-155421600D01*
X178882400Y-155921600D01*
X178882400Y-155421600D01*
G36*
X178882400Y-155921600D02*
G01*
X178882400Y-155421600D01*
X179382400Y-155421600D01*
X178882400Y-155921600D01*
G37*
%TO.C,Q1*%
X129200600Y-144719600D02*
X130720600Y-144719600D01*
X129200600Y-145719600D02*
X129200600Y-144719600D01*
X129200600Y-147839600D02*
X129200600Y-146839600D01*
X130720600Y-144719600D02*
X130720600Y-144769600D01*
X130720600Y-145889600D02*
X130720600Y-146669600D01*
X130720600Y-147789600D02*
X130720600Y-147839600D01*
X130720600Y-147839600D02*
X129200600Y-147839600D01*
X131260600Y-146659600D02*
X131020600Y-146329600D01*
X131500600Y-146329600D01*
X131260600Y-146659600D01*
G36*
X131260600Y-146659600D02*
G01*
X131020600Y-146329600D01*
X131500600Y-146329600D01*
X131260600Y-146659600D01*
G37*
%TO.C,R3*%
X127262742Y-134677500D02*
X127737258Y-134677500D01*
X127262742Y-135722500D02*
X127737258Y-135722500D01*
%TO.C,Q2*%
X124702500Y-143790000D02*
X126222500Y-143790000D01*
X124702500Y-144790000D02*
X124702500Y-143790000D01*
X124702500Y-146910000D02*
X124702500Y-145910000D01*
X126222500Y-143790000D02*
X126222500Y-143840000D01*
X126222500Y-144960000D02*
X126222500Y-145740000D01*
X126222500Y-146860000D02*
X126222500Y-146910000D01*
X126222500Y-146910000D02*
X124702500Y-146910000D01*
X126762500Y-145730000D02*
X126522500Y-145400000D01*
X127002500Y-145400000D01*
X126762500Y-145730000D01*
G36*
X126762500Y-145730000D02*
G01*
X126522500Y-145400000D01*
X127002500Y-145400000D01*
X126762500Y-145730000D01*
G37*
%TO.C,J2*%
X92690000Y-145840000D02*
X92690000Y-150750000D01*
X92690000Y-155660000D02*
X92690000Y-150750000D01*
X105700000Y-151240000D02*
X105700000Y-150260000D01*
X105710000Y-145840000D02*
X92690000Y-145840000D01*
X105710000Y-146650000D02*
X105710000Y-145840000D01*
X105710000Y-154850000D02*
X105710000Y-155660000D01*
X105710000Y-155660000D02*
X92690000Y-155660000D01*
X106400000Y-155450000D02*
X106700000Y-154850000D01*
X106700000Y-154850000D02*
X107000000Y-155450000D01*
X107000000Y-155450000D02*
X106400000Y-155450000D01*
X108810000Y-148350000D02*
X110090000Y-148350000D01*
X108810000Y-148950000D02*
X110090000Y-148950000D01*
X108810000Y-152550000D02*
X110090000Y-152550000D01*
X108810000Y-153150000D02*
X110090000Y-153150000D01*
%TO.C,C2*%
X182464299Y-151076919D02*
X182464299Y-151358079D01*
X183484299Y-151076919D02*
X183484299Y-151358079D01*
%TD*%
%LPC*%
D16*
%TO.C,L1*%
X131750000Y-156200000D03*
X125700000Y-156200000D03*
%TD*%
D17*
%TO.C,REF\u002A\u002A*%
X99000000Y-165000000D03*
%TD*%
D18*
%TO.C,C1*%
X181094699Y-150442499D03*
X181094699Y-151992499D03*
%TD*%
D19*
%TO.C,R7*%
X133336500Y-143131413D03*
X134986500Y-143131413D03*
%TD*%
%TO.C,R6*%
X120969074Y-146330400D03*
X122619074Y-146330400D03*
%TD*%
D20*
%TO.C,J1*%
X99400000Y-138550000D03*
D21*
X106700000Y-140650000D03*
D22*
X106700000Y-136450000D03*
X112200000Y-140650000D03*
X112200000Y-136450000D03*
%TD*%
D19*
%TO.C,R5*%
X133324300Y-147229600D03*
X134974300Y-147229600D03*
%TD*%
D23*
%TO.C,Q4*%
X126400000Y-142151013D03*
X126400000Y-140251013D03*
X124525000Y-141201013D03*
%TD*%
D24*
%TO.C,D2*%
X131175000Y-137087500D03*
X133075000Y-137087500D03*
X132125000Y-135212500D03*
%TD*%
D25*
%TO.C,U1*%
X155711559Y-163654148D03*
X155711559Y-161114148D03*
X155711559Y-158574148D03*
X155711559Y-156034148D03*
X155711559Y-153494148D03*
X155711559Y-150954148D03*
X155711559Y-148414148D03*
X155711559Y-145874148D03*
X155711559Y-143334148D03*
X155711559Y-140794148D03*
X155711559Y-138254148D03*
X155711559Y-135714148D03*
X140471549Y-163654158D03*
X140471549Y-161114158D03*
X140471549Y-158574158D03*
X140471549Y-156034158D03*
X140471549Y-153494158D03*
X140471549Y-150954158D03*
X140471549Y-148414158D03*
X140471549Y-145874158D03*
X140471549Y-143334158D03*
X140471549Y-140794158D03*
X140471549Y-138254158D03*
X140471549Y-135714158D03*
D26*
X152631559Y-138808948D03*
X150091559Y-138808948D03*
X147551559Y-138808948D03*
D25*
X155711559Y-166194148D03*
X140471549Y-166194158D03*
%TD*%
D17*
%TO.C,REF\u002A\u002A*%
X185000000Y-165000000D03*
%TD*%
D27*
%TO.C,C4*%
X125613200Y-162552400D03*
X127163200Y-162552400D03*
%TD*%
D28*
%TO.C,R4*%
X128300000Y-137025000D03*
X128300000Y-138675000D03*
%TD*%
D19*
%TO.C,R1*%
X125664800Y-164940000D03*
X127314800Y-164940000D03*
%TD*%
D18*
%TO.C,C3*%
X133652600Y-161550350D03*
X133652600Y-163100350D03*
%TD*%
D29*
%TO.C,BT1*%
X105805200Y-113920000D03*
D30*
X114315200Y-129920000D03*
X169555200Y-113920000D03*
D31*
X102245200Y-121920000D03*
X181625200Y-121920000D03*
%TD*%
D32*
%TO.C,D1*%
X119658200Y-156200000D03*
X122958200Y-156200000D03*
%TD*%
D23*
%TO.C,Q3*%
X130898100Y-143101013D03*
X130898100Y-141201013D03*
X129023100Y-142151013D03*
%TD*%
D33*
%TO.C,U3*%
X129467100Y-161537500D03*
X129467100Y-162487500D03*
X129467100Y-163437500D03*
X131742100Y-163437500D03*
X131742100Y-161537500D03*
%TD*%
D27*
%TO.C,C6*%
X125714800Y-166768800D03*
X127264800Y-166768800D03*
%TD*%
D19*
%TO.C,R2*%
X128966800Y-164940000D03*
X130616800Y-164940000D03*
%TD*%
D17*
%TO.C,REF\u002A\u002A*%
X99000000Y-114000000D03*
%TD*%
%TO.C,REF\u002A\u002A*%
X185000000Y-114000000D03*
%TD*%
D34*
%TO.C,C5*%
X137100000Y-140775000D03*
X137100000Y-139225000D03*
%TD*%
D19*
%TO.C,R8*%
X120979900Y-142166213D03*
X122629900Y-142166213D03*
%TD*%
D35*
%TO.C,U2*%
X178332400Y-154421600D03*
X178332400Y-152421600D03*
X178332400Y-150421600D03*
X178332400Y-148421600D03*
X178332400Y-146421600D03*
X178332400Y-144421600D03*
X178332400Y-142421600D03*
X178332400Y-140421600D03*
X162332400Y-140421600D03*
X162332400Y-142421600D03*
X162332400Y-144421600D03*
X162332400Y-146421600D03*
X162332400Y-148421600D03*
X162332400Y-150421600D03*
X162332400Y-152421600D03*
X162332400Y-154421600D03*
%TD*%
D23*
%TO.C,Q1*%
X130898100Y-147229600D03*
X130898100Y-145329600D03*
X129023100Y-146279600D03*
%TD*%
D19*
%TO.C,R3*%
X126675000Y-135200000D03*
X128325000Y-135200000D03*
%TD*%
D23*
%TO.C,Q2*%
X126400000Y-146300000D03*
X126400000Y-144400000D03*
X124525000Y-145350000D03*
%TD*%
D20*
%TO.C,J2*%
X99400000Y-150750000D03*
D21*
X106700000Y-152850000D03*
D22*
X106700000Y-148650000D03*
X112200000Y-152850000D03*
X112200000Y-148650000D03*
%TD*%
D18*
%TO.C,C2*%
X182974299Y-150442499D03*
X182974299Y-151992499D03*
%TD*%
%LPD*%
M02*
